<svg width="36" height="36" viewBox="0 0 36 36" fill="none" xmlns="http://www.w3.org/2000/svg">
<path d="M33.2754 17.754L18.7945 3.28366C18.6903 3.17919 18.5664 3.09631 18.4301 3.03976C18.2937 2.98321 18.1476 2.9541 18 2.9541C17.8524 2.9541 17.7062 2.98321 17.5699 3.03976C17.4336 3.09631 17.3097 3.17919 17.2055 3.28366L2.7246 17.754C2.30272 18.1758 2.06366 18.7489 2.06366 19.3466C2.06366 20.5876 3.07264 21.5966 4.31366 21.5966H5.83944V31.9219C5.83944 32.5442 6.34218 33.0469 6.96444 33.0469H15.75V25.1719H19.6875V33.0469H29.0355C29.6578 33.0469 30.1605 32.5442 30.1605 31.9219V21.5966H31.6863C32.284 21.5966 32.857 21.361 33.2789 20.9356C34.1543 20.0567 34.1543 18.6329 33.2754 17.754Z" fill="#0C356A"/>
</svg>
