<svg width="48" height="48" viewBox="0 0 48 48" fill="none" xmlns="http://www.w3.org/2000/svg">
<path d="M29.1748 31.99L32.0028 29.163L44.0218 41.182L41.1938 44.009L29.1748 31.99Z" fill="#616161"/>
<path d="M20 36C28.8366 36 36 28.8366 36 20C36 11.1634 28.8366 4 20 4C11.1634 4 4 11.1634 4 20C4 28.8366 11.1634 36 20 36Z" fill="#616161"/>
<path d="M32.4502 35.34L35.2772 32.512L43.9732 41.208L41.1452 44.036L32.4502 35.34Z" fill="#37474F"/>
<path d="M20 33C27.1797 33 33 27.1797 33 20C33 12.8203 27.1797 7 20 7C12.8203 7 7 12.8203 7 20C7 27.1797 12.8203 33 20 33Z" fill="#64B5F6"/>
<path d="M26.8999 14.2C25.1999 12.2 22.6999 11 19.9999 11C17.2999 11 14.7999 12.2 13.0999 14.2C12.6999 14.6 12.7999 15.3 13.1999 15.6C13.5999 16 14.2999 15.9 14.5999 15.5C15.9999 13.9 17.8999 13 19.9999 13C22.0999 13 23.9999 13.9 25.3999 15.5C25.5999 15.7 25.8999 15.9 26.1999 15.9C26.3999 15.9 26.6999 15.8 26.7999 15.7C27.1999 15.3 27.1999 14.6 26.8999 14.2Z" fill="#BBDEFB"/>
</svg>
