<svg width="183" height="148" viewBox="0 0 183 148" fill="none" xmlns="http://www.w3.org/2000/svg">
<g filter="url(#filter0_d_1_11354)">
<rect x="16" y="12" width="151" height="116" rx="16" fill="#CBE1FF"/>
</g>
<mask id="path-2-outside-1_1_11354" maskUnits="userSpaceOnUse" x="39" y="98" width="108" height="20" fill="black">
<rect fill="white" x="39" y="98" width="108" height="20"/>
<path d="M42.4944 112V102.2H46.8904C48.0197 102.2 48.8877 102.429 49.4944 102.886C50.1011 103.334 50.4044 103.95 50.4044 104.734C50.4044 105.266 50.2831 105.714 50.0404 106.078C49.8071 106.442 49.4897 106.722 49.0884 106.918C48.6871 107.114 48.2531 107.212 47.7864 107.212L48.0384 106.792C48.5984 106.792 49.0931 106.89 49.5224 107.086C49.9517 107.282 50.2924 107.571 50.5444 107.954C50.7964 108.327 50.9224 108.794 50.9224 109.354C50.9224 110.194 50.6051 110.847 49.9704 111.314C49.3451 111.771 48.4117 112 47.1704 112H42.4944ZM43.8944 110.866H47.1144C47.8891 110.866 48.4817 110.735 48.8924 110.474C49.3031 110.213 49.5084 109.802 49.5084 109.242C49.5084 108.673 49.3031 108.257 48.8924 107.996C48.4817 107.735 47.8891 107.604 47.1144 107.604H43.7684V106.47H46.7644C47.4737 106.47 48.0244 106.339 48.4164 106.078C48.8084 105.817 49.0044 105.425 49.0044 104.902C49.0044 104.379 48.8084 103.987 48.4164 103.726C48.0244 103.465 47.4737 103.334 46.7644 103.334H43.8944V110.866ZM56.1981 112.084C55.4048 112.084 54.7048 111.921 54.0981 111.594C53.5008 111.267 53.0341 110.819 52.6981 110.25C52.3715 109.681 52.2081 109.027 52.2081 108.29C52.2081 107.553 52.3668 106.899 52.6841 106.33C53.0108 105.761 53.4541 105.317 54.0141 105C54.5835 104.673 55.2228 104.51 55.9321 104.51C56.6508 104.51 57.2855 104.669 57.8361 104.986C58.3868 105.303 58.8161 105.751 59.1241 106.33C59.4415 106.899 59.6001 107.567 59.6001 108.332C59.6001 108.388 59.5955 108.453 59.5861 108.528C59.5861 108.603 59.5815 108.673 59.5721 108.738H53.2581V107.772H58.8721L58.3261 108.108C58.3355 107.632 58.2375 107.207 58.0321 106.834C57.8268 106.461 57.5421 106.171 57.1781 105.966C56.8235 105.751 56.4081 105.644 55.9321 105.644C55.4655 105.644 55.0501 105.751 54.6861 105.966C54.3221 106.171 54.0375 106.465 53.8321 106.848C53.6268 107.221 53.5241 107.651 53.5241 108.136V108.36C53.5241 108.855 53.6361 109.298 53.8601 109.69C54.0935 110.073 54.4155 110.371 54.8261 110.586C55.2368 110.801 55.7081 110.908 56.2401 110.908C56.6788 110.908 57.0755 110.833 57.4301 110.684C57.7941 110.535 58.1115 110.311 58.3821 110.012L59.1241 110.88C58.7881 111.272 58.3681 111.571 57.8641 111.776C57.3695 111.981 56.8141 112.084 56.1981 112.084ZM61.4664 112V101.612H62.8104V112H61.4664ZM69.9825 112V110.432L69.9125 110.138V107.464C69.9125 106.895 69.7445 106.456 69.4085 106.148C69.0819 105.831 68.5872 105.672 67.9245 105.672C67.4859 105.672 67.0565 105.747 66.6365 105.896C66.2165 106.036 65.8619 106.227 65.5725 106.47L65.0125 105.462C65.3952 105.154 65.8525 104.921 66.3845 104.762C66.9259 104.594 67.4905 104.51 68.0785 104.51C69.0959 104.51 69.8799 104.757 70.4305 105.252C70.9812 105.747 71.2565 106.503 71.2565 107.52V112H69.9825ZM67.5465 112.084C66.9959 112.084 66.5105 111.991 66.0905 111.804C65.6799 111.617 65.3625 111.361 65.1385 111.034C64.9145 110.698 64.8025 110.32 64.8025 109.9C64.8025 109.499 64.8959 109.135 65.0825 108.808C65.2785 108.481 65.5912 108.22 66.0205 108.024C66.4592 107.828 67.0472 107.73 67.7845 107.73H70.1365V108.696H67.8405C67.1685 108.696 66.7159 108.808 66.4825 109.032C66.2492 109.256 66.1325 109.527 66.1325 109.844C66.1325 110.208 66.2772 110.502 66.5665 110.726C66.8559 110.941 67.2572 111.048 67.7705 111.048C68.2745 111.048 68.7132 110.936 69.0865 110.712C69.4692 110.488 69.7445 110.161 69.9125 109.732L70.1785 110.656C70.0012 111.095 69.6885 111.445 69.2405 111.706C68.7925 111.958 68.2279 112.084 67.5465 112.084ZM77.7057 104.51C78.3124 104.51 78.8444 104.627 79.3017 104.86C79.7684 105.093 80.1324 105.448 80.3937 105.924C80.6551 106.4 80.7857 107.002 80.7857 107.73V112H79.4417V107.884C79.4417 107.165 79.2644 106.624 78.9097 106.26C78.5644 105.896 78.0744 105.714 77.4397 105.714C76.9637 105.714 76.5484 105.807 76.1937 105.994C75.8391 106.181 75.5637 106.456 75.3677 106.82C75.1811 107.184 75.0877 107.637 75.0877 108.178V112H73.7437V101.612H75.0877V106.582L74.8217 106.05C75.0644 105.565 75.4377 105.187 75.9417 104.916C76.4457 104.645 77.0337 104.51 77.7057 104.51ZM88.4608 109.634L88.3908 107.926L93.9488 102.2H95.5448L91.2468 106.736L90.4628 107.604L88.4608 109.634ZM87.2288 112V102.2H88.6288V112H87.2288ZM94.1728 112L90.1548 107.324L91.0928 106.288L95.8108 112H94.1728ZM100.071 112.084C99.2778 112.084 98.5778 111.921 97.9712 111.594C97.3738 111.267 96.9072 110.819 96.5712 110.25C96.2445 109.681 96.0812 109.027 96.0812 108.29C96.0812 107.553 96.2398 106.899 96.5572 106.33C96.8838 105.761 97.3272 105.317 97.8872 105C98.4565 104.673 99.0958 104.51 99.8052 104.51C100.524 104.51 101.158 104.669 101.709 104.986C102.26 105.303 102.689 105.751 102.997 106.33C103.314 106.899 103.473 107.567 103.473 108.332C103.473 108.388 103.468 108.453 103.459 108.528C103.459 108.603 103.454 108.673 103.445 108.738H97.1312V107.772H102.745L102.199 108.108C102.208 107.632 102.11 107.207 101.905 106.834C101.7 106.461 101.415 106.171 101.051 105.966C100.696 105.751 100.281 105.644 99.8052 105.644C99.3385 105.644 98.9232 105.751 98.5592 105.966C98.1952 106.171 97.9105 106.465 97.7052 106.848C97.4998 107.221 97.3972 107.651 97.3972 108.136V108.36C97.3972 108.855 97.5092 109.298 97.7332 109.69C97.9665 110.073 98.2885 110.371 98.6992 110.586C99.1098 110.801 99.5812 110.908 100.113 110.908C100.552 110.908 100.948 110.833 101.303 110.684C101.667 110.535 101.984 110.311 102.255 110.012L102.997 110.88C102.661 111.272 102.241 111.571 101.737 111.776C101.242 111.981 100.687 112.084 100.071 112.084ZM107.887 112.084C107.141 112.084 106.562 111.883 106.151 111.482C105.741 111.081 105.535 110.507 105.535 109.76V102.956H106.879V109.704C106.879 110.105 106.977 110.413 107.173 110.628C107.379 110.843 107.668 110.95 108.041 110.95C108.461 110.95 108.811 110.833 109.091 110.6L109.511 111.566C109.306 111.743 109.059 111.874 108.769 111.958C108.489 112.042 108.195 112.084 107.887 112.084ZM104.275 105.686V104.58H109.007V105.686H104.275ZM114.258 112.084C113.624 112.084 113.064 111.967 112.578 111.734C112.102 111.501 111.729 111.146 111.458 110.67C111.197 110.185 111.066 109.578 111.066 108.85V104.58H112.41V108.696C112.41 109.424 112.583 109.97 112.928 110.334C113.283 110.698 113.778 110.88 114.412 110.88C114.879 110.88 115.285 110.787 115.63 110.6C115.976 110.404 116.242 110.124 116.428 109.76C116.615 109.387 116.708 108.939 116.708 108.416V104.58H118.052V112H116.778V109.998L116.988 110.53C116.746 111.025 116.382 111.407 115.896 111.678C115.411 111.949 114.865 112.084 114.258 112.084ZM124.545 112.084C123.929 112.084 123.364 111.944 122.851 111.664C122.347 111.375 121.941 110.95 121.633 110.39C121.334 109.83 121.185 109.13 121.185 108.29C121.185 107.45 121.33 106.75 121.619 106.19C121.918 105.63 122.319 105.21 122.823 104.93C123.336 104.65 123.91 104.51 124.545 104.51C125.273 104.51 125.917 104.669 126.477 104.986C127.037 105.303 127.48 105.747 127.807 106.316C128.134 106.876 128.297 107.534 128.297 108.29C128.297 109.046 128.134 109.709 127.807 110.278C127.48 110.847 127.037 111.291 126.477 111.608C125.917 111.925 125.273 112.084 124.545 112.084ZM120.611 114.716V104.58H121.899V106.582L121.815 108.304L121.955 110.026V114.716H120.611ZM124.433 110.908C124.909 110.908 125.334 110.801 125.707 110.586C126.09 110.371 126.388 110.068 126.603 109.676C126.827 109.275 126.939 108.813 126.939 108.29C126.939 107.758 126.827 107.301 126.603 106.918C126.388 106.526 126.09 106.223 125.707 106.008C125.334 105.793 124.909 105.686 124.433 105.686C123.966 105.686 123.542 105.793 123.159 106.008C122.786 106.223 122.487 106.526 122.263 106.918C122.048 107.301 121.941 107.758 121.941 108.29C121.941 108.813 122.048 109.275 122.263 109.676C122.487 110.068 122.786 110.371 123.159 110.586C123.542 110.801 123.966 110.908 124.433 110.908ZM134.692 112V110.432L134.622 110.138V107.464C134.622 106.895 134.454 106.456 134.118 106.148C133.791 105.831 133.296 105.672 132.634 105.672C132.195 105.672 131.766 105.747 131.346 105.896C130.926 106.036 130.571 106.227 130.282 106.47L129.722 105.462C130.104 105.154 130.562 104.921 131.094 104.762C131.635 104.594 132.2 104.51 132.788 104.51C133.805 104.51 134.589 104.757 135.14 105.252C135.69 105.747 135.966 106.503 135.966 107.52V112H134.692ZM132.256 112.084C131.705 112.084 131.22 111.991 130.8 111.804C130.389 111.617 130.072 111.361 129.848 111.034C129.624 110.698 129.512 110.32 129.512 109.9C129.512 109.499 129.605 109.135 129.792 108.808C129.988 108.481 130.3 108.22 130.73 108.024C131.168 107.828 131.756 107.73 132.494 107.73H134.846V108.696H132.55C131.878 108.696 131.425 108.808 131.192 109.032C130.958 109.256 130.842 109.527 130.842 109.844C130.842 110.208 130.986 110.502 131.276 110.726C131.565 110.941 131.966 111.048 132.48 111.048C132.984 111.048 133.422 110.936 133.796 110.712C134.178 110.488 134.454 110.161 134.622 109.732L134.888 110.656C134.71 111.095 134.398 111.445 133.95 111.706C133.502 111.958 132.937 112.084 132.256 112.084ZM141.001 112.084C140.254 112.084 139.675 111.883 139.265 111.482C138.854 111.081 138.649 110.507 138.649 109.76V102.956H139.993V109.704C139.993 110.105 140.091 110.413 140.287 110.628C140.492 110.843 140.781 110.95 141.155 110.95C141.575 110.95 141.925 110.833 142.205 110.6L142.625 111.566C142.419 111.743 142.172 111.874 141.883 111.958C141.603 112.042 141.309 112.084 141.001 112.084ZM137.389 105.686V104.58H142.121V105.686H137.389Z"/>
</mask>
<path d="M42.4944 112V102.2H46.8904C48.0197 102.2 48.8877 102.429 49.4944 102.886C50.1011 103.334 50.4044 103.95 50.4044 104.734C50.4044 105.266 50.2831 105.714 50.0404 106.078C49.8071 106.442 49.4897 106.722 49.0884 106.918C48.6871 107.114 48.2531 107.212 47.7864 107.212L48.0384 106.792C48.5984 106.792 49.0931 106.89 49.5224 107.086C49.9517 107.282 50.2924 107.571 50.5444 107.954C50.7964 108.327 50.9224 108.794 50.9224 109.354C50.9224 110.194 50.6051 110.847 49.9704 111.314C49.3451 111.771 48.4117 112 47.1704 112H42.4944ZM43.8944 110.866H47.1144C47.8891 110.866 48.4817 110.735 48.8924 110.474C49.3031 110.213 49.5084 109.802 49.5084 109.242C49.5084 108.673 49.3031 108.257 48.8924 107.996C48.4817 107.735 47.8891 107.604 47.1144 107.604H43.7684V106.47H46.7644C47.4737 106.47 48.0244 106.339 48.4164 106.078C48.8084 105.817 49.0044 105.425 49.0044 104.902C49.0044 104.379 48.8084 103.987 48.4164 103.726C48.0244 103.465 47.4737 103.334 46.7644 103.334H43.8944V110.866ZM56.1981 112.084C55.4048 112.084 54.7048 111.921 54.0981 111.594C53.5008 111.267 53.0341 110.819 52.6981 110.25C52.3715 109.681 52.2081 109.027 52.2081 108.29C52.2081 107.553 52.3668 106.899 52.6841 106.33C53.0108 105.761 53.4541 105.317 54.0141 105C54.5835 104.673 55.2228 104.51 55.9321 104.51C56.6508 104.51 57.2855 104.669 57.8361 104.986C58.3868 105.303 58.8161 105.751 59.1241 106.33C59.4415 106.899 59.6001 107.567 59.6001 108.332C59.6001 108.388 59.5955 108.453 59.5861 108.528C59.5861 108.603 59.5815 108.673 59.5721 108.738H53.2581V107.772H58.8721L58.3261 108.108C58.3355 107.632 58.2375 107.207 58.0321 106.834C57.8268 106.461 57.5421 106.171 57.1781 105.966C56.8235 105.751 56.4081 105.644 55.9321 105.644C55.4655 105.644 55.0501 105.751 54.6861 105.966C54.3221 106.171 54.0375 106.465 53.8321 106.848C53.6268 107.221 53.5241 107.651 53.5241 108.136V108.36C53.5241 108.855 53.6361 109.298 53.8601 109.69C54.0935 110.073 54.4155 110.371 54.8261 110.586C55.2368 110.801 55.7081 110.908 56.2401 110.908C56.6788 110.908 57.0755 110.833 57.4301 110.684C57.7941 110.535 58.1115 110.311 58.3821 110.012L59.1241 110.88C58.7881 111.272 58.3681 111.571 57.8641 111.776C57.3695 111.981 56.8141 112.084 56.1981 112.084ZM61.4664 112V101.612H62.8104V112H61.4664ZM69.9825 112V110.432L69.9125 110.138V107.464C69.9125 106.895 69.7445 106.456 69.4085 106.148C69.0819 105.831 68.5872 105.672 67.9245 105.672C67.4859 105.672 67.0565 105.747 66.6365 105.896C66.2165 106.036 65.8619 106.227 65.5725 106.47L65.0125 105.462C65.3952 105.154 65.8525 104.921 66.3845 104.762C66.9259 104.594 67.4905 104.51 68.0785 104.51C69.0959 104.51 69.8799 104.757 70.4305 105.252C70.9812 105.747 71.2565 106.503 71.2565 107.52V112H69.9825ZM67.5465 112.084C66.9959 112.084 66.5105 111.991 66.0905 111.804C65.6799 111.617 65.3625 111.361 65.1385 111.034C64.9145 110.698 64.8025 110.32 64.8025 109.9C64.8025 109.499 64.8959 109.135 65.0825 108.808C65.2785 108.481 65.5912 108.22 66.0205 108.024C66.4592 107.828 67.0472 107.73 67.7845 107.73H70.1365V108.696H67.8405C67.1685 108.696 66.7159 108.808 66.4825 109.032C66.2492 109.256 66.1325 109.527 66.1325 109.844C66.1325 110.208 66.2772 110.502 66.5665 110.726C66.8559 110.941 67.2572 111.048 67.7705 111.048C68.2745 111.048 68.7132 110.936 69.0865 110.712C69.4692 110.488 69.7445 110.161 69.9125 109.732L70.1785 110.656C70.0012 111.095 69.6885 111.445 69.2405 111.706C68.7925 111.958 68.2279 112.084 67.5465 112.084ZM77.7057 104.51C78.3124 104.51 78.8444 104.627 79.3017 104.86C79.7684 105.093 80.1324 105.448 80.3937 105.924C80.6551 106.4 80.7857 107.002 80.7857 107.73V112H79.4417V107.884C79.4417 107.165 79.2644 106.624 78.9097 106.26C78.5644 105.896 78.0744 105.714 77.4397 105.714C76.9637 105.714 76.5484 105.807 76.1937 105.994C75.8391 106.181 75.5637 106.456 75.3677 106.82C75.1811 107.184 75.0877 107.637 75.0877 108.178V112H73.7437V101.612H75.0877V106.582L74.8217 106.05C75.0644 105.565 75.4377 105.187 75.9417 104.916C76.4457 104.645 77.0337 104.51 77.7057 104.51ZM88.4608 109.634L88.3908 107.926L93.9488 102.2H95.5448L91.2468 106.736L90.4628 107.604L88.4608 109.634ZM87.2288 112V102.2H88.6288V112H87.2288ZM94.1728 112L90.1548 107.324L91.0928 106.288L95.8108 112H94.1728ZM100.071 112.084C99.2778 112.084 98.5778 111.921 97.9712 111.594C97.3738 111.267 96.9072 110.819 96.5712 110.25C96.2445 109.681 96.0812 109.027 96.0812 108.29C96.0812 107.553 96.2398 106.899 96.5572 106.33C96.8838 105.761 97.3272 105.317 97.8872 105C98.4565 104.673 99.0958 104.51 99.8052 104.51C100.524 104.51 101.158 104.669 101.709 104.986C102.26 105.303 102.689 105.751 102.997 106.33C103.314 106.899 103.473 107.567 103.473 108.332C103.473 108.388 103.468 108.453 103.459 108.528C103.459 108.603 103.454 108.673 103.445 108.738H97.1312V107.772H102.745L102.199 108.108C102.208 107.632 102.11 107.207 101.905 106.834C101.7 106.461 101.415 106.171 101.051 105.966C100.696 105.751 100.281 105.644 99.8052 105.644C99.3385 105.644 98.9232 105.751 98.5592 105.966C98.1952 106.171 97.9105 106.465 97.7052 106.848C97.4998 107.221 97.3972 107.651 97.3972 108.136V108.36C97.3972 108.855 97.5092 109.298 97.7332 109.69C97.9665 110.073 98.2885 110.371 98.6992 110.586C99.1098 110.801 99.5812 110.908 100.113 110.908C100.552 110.908 100.948 110.833 101.303 110.684C101.667 110.535 101.984 110.311 102.255 110.012L102.997 110.88C102.661 111.272 102.241 111.571 101.737 111.776C101.242 111.981 100.687 112.084 100.071 112.084ZM107.887 112.084C107.141 112.084 106.562 111.883 106.151 111.482C105.741 111.081 105.535 110.507 105.535 109.76V102.956H106.879V109.704C106.879 110.105 106.977 110.413 107.173 110.628C107.379 110.843 107.668 110.95 108.041 110.95C108.461 110.95 108.811 110.833 109.091 110.6L109.511 111.566C109.306 111.743 109.059 111.874 108.769 111.958C108.489 112.042 108.195 112.084 107.887 112.084ZM104.275 105.686V104.58H109.007V105.686H104.275ZM114.258 112.084C113.624 112.084 113.064 111.967 112.578 111.734C112.102 111.501 111.729 111.146 111.458 110.67C111.197 110.185 111.066 109.578 111.066 108.85V104.58H112.41V108.696C112.41 109.424 112.583 109.97 112.928 110.334C113.283 110.698 113.778 110.88 114.412 110.88C114.879 110.88 115.285 110.787 115.63 110.6C115.976 110.404 116.242 110.124 116.428 109.76C116.615 109.387 116.708 108.939 116.708 108.416V104.58H118.052V112H116.778V109.998L116.988 110.53C116.746 111.025 116.382 111.407 115.896 111.678C115.411 111.949 114.865 112.084 114.258 112.084ZM124.545 112.084C123.929 112.084 123.364 111.944 122.851 111.664C122.347 111.375 121.941 110.95 121.633 110.39C121.334 109.83 121.185 109.13 121.185 108.29C121.185 107.45 121.33 106.75 121.619 106.19C121.918 105.63 122.319 105.21 122.823 104.93C123.336 104.65 123.91 104.51 124.545 104.51C125.273 104.51 125.917 104.669 126.477 104.986C127.037 105.303 127.48 105.747 127.807 106.316C128.134 106.876 128.297 107.534 128.297 108.29C128.297 109.046 128.134 109.709 127.807 110.278C127.48 110.847 127.037 111.291 126.477 111.608C125.917 111.925 125.273 112.084 124.545 112.084ZM120.611 114.716V104.58H121.899V106.582L121.815 108.304L121.955 110.026V114.716H120.611ZM124.433 110.908C124.909 110.908 125.334 110.801 125.707 110.586C126.09 110.371 126.388 110.068 126.603 109.676C126.827 109.275 126.939 108.813 126.939 108.29C126.939 107.758 126.827 107.301 126.603 106.918C126.388 106.526 126.09 106.223 125.707 106.008C125.334 105.793 124.909 105.686 124.433 105.686C123.966 105.686 123.542 105.793 123.159 106.008C122.786 106.223 122.487 106.526 122.263 106.918C122.048 107.301 121.941 107.758 121.941 108.29C121.941 108.813 122.048 109.275 122.263 109.676C122.487 110.068 122.786 110.371 123.159 110.586C123.542 110.801 123.966 110.908 124.433 110.908ZM134.692 112V110.432L134.622 110.138V107.464C134.622 106.895 134.454 106.456 134.118 106.148C133.791 105.831 133.296 105.672 132.634 105.672C132.195 105.672 131.766 105.747 131.346 105.896C130.926 106.036 130.571 106.227 130.282 106.47L129.722 105.462C130.104 105.154 130.562 104.921 131.094 104.762C131.635 104.594 132.2 104.51 132.788 104.51C133.805 104.51 134.589 104.757 135.14 105.252C135.69 105.747 135.966 106.503 135.966 107.52V112H134.692ZM132.256 112.084C131.705 112.084 131.22 111.991 130.8 111.804C130.389 111.617 130.072 111.361 129.848 111.034C129.624 110.698 129.512 110.32 129.512 109.9C129.512 109.499 129.605 109.135 129.792 108.808C129.988 108.481 130.3 108.22 130.73 108.024C131.168 107.828 131.756 107.73 132.494 107.73H134.846V108.696H132.55C131.878 108.696 131.425 108.808 131.192 109.032C130.958 109.256 130.842 109.527 130.842 109.844C130.842 110.208 130.986 110.502 131.276 110.726C131.565 110.941 131.966 111.048 132.48 111.048C132.984 111.048 133.422 110.936 133.796 110.712C134.178 110.488 134.454 110.161 134.622 109.732L134.888 110.656C134.71 111.095 134.398 111.445 133.95 111.706C133.502 111.958 132.937 112.084 132.256 112.084ZM141.001 112.084C140.254 112.084 139.675 111.883 139.265 111.482C138.854 111.081 138.649 110.507 138.649 109.76V102.956H139.993V109.704C139.993 110.105 140.091 110.413 140.287 110.628C140.492 110.843 140.781 110.95 141.155 110.95C141.575 110.95 141.925 110.833 142.205 110.6L142.625 111.566C142.419 111.743 142.172 111.874 141.883 111.958C141.603 112.042 141.309 112.084 141.001 112.084ZM137.389 105.686V104.58H142.121V105.686H137.389Z" fill="#496FA1"/>
<path d="M42.4944 112H39.4944V115H42.4944V112ZM42.4944 102.2V99.2H39.4944V102.2H42.4944ZM49.4944 102.886L47.6885 105.282L47.7004 105.29L47.7123 105.299L49.4944 102.886ZM50.0404 106.078L47.5443 104.414L47.5293 104.436L47.5148 104.459L50.0404 106.078ZM47.7864 107.212L45.2139 105.669L42.4878 110.212H47.7864V107.212ZM48.0384 106.792V103.792H46.3398L45.4659 105.249L48.0384 106.792ZM50.5444 107.954L48.0389 109.604L48.0483 109.618L48.0579 109.632L50.5444 107.954ZM49.9704 111.314L51.7414 113.736L51.7476 113.731L49.9704 111.314ZM43.8944 110.866H40.8944V113.866H43.8944V110.866ZM48.8924 110.474L50.503 113.005H50.503L48.8924 110.474ZM48.8924 107.996L50.503 105.465L50.503 105.465L48.8924 107.996ZM43.7684 107.604H40.7684V110.604H43.7684V107.604ZM43.7684 106.47V103.47H40.7684V106.47H43.7684ZM48.4164 106.078L46.7523 103.582L46.7523 103.582L48.4164 106.078ZM48.4164 103.726L46.7523 106.222L46.7523 106.222L48.4164 103.726ZM43.8944 103.334V100.334H40.8944V103.334H43.8944ZM45.4944 112V102.2H39.4944V112H45.4944ZM42.4944 105.2H46.8904V99.2H42.4944V105.2ZM46.8904 105.2C47.2603 105.2 47.494 105.238 47.6242 105.273C47.7486 105.305 47.7473 105.326 47.6885 105.282L51.3003 100.49C49.9747 99.4911 48.3688 99.2 46.8904 99.2V105.2ZM47.7123 105.299C47.6686 105.267 47.5659 105.173 47.4855 105.009C47.4488 104.935 47.4272 104.866 47.4156 104.813C47.4042 104.76 47.4044 104.732 47.4044 104.734H53.4044C53.4044 103.042 52.6841 101.512 51.2765 100.473L47.7123 105.299ZM47.4044 104.734C47.4044 104.773 47.3999 104.751 47.4177 104.685C47.4366 104.615 47.4751 104.518 47.5443 104.414L52.5366 107.742C53.1728 106.788 53.4044 105.729 53.4044 104.734H47.4044ZM47.5148 104.459C47.545 104.412 47.5881 104.36 47.6425 104.311C47.6965 104.264 47.7442 104.236 47.7719 104.222L50.4049 109.614C51.2832 109.185 52.0259 108.54 52.5661 107.697L47.5148 104.459ZM47.7719 104.222C47.7748 104.221 47.7794 104.219 47.7853 104.217C47.7912 104.215 47.7967 104.213 47.8011 104.212C47.8056 104.211 47.8073 104.211 47.8058 104.211C47.8042 104.211 47.7979 104.212 47.7864 104.212V110.212C48.6883 110.212 49.5751 110.019 50.4049 109.614L47.7719 104.222ZM50.3589 108.755L50.6109 108.335L45.4659 105.249L45.2139 105.669L50.3589 108.755ZM48.0384 109.792C48.2477 109.792 48.3044 109.828 48.2765 109.815L50.7683 104.357C49.8817 103.952 48.9491 103.792 48.0384 103.792V109.792ZM48.2765 109.815C48.2539 109.805 48.2096 109.781 48.1579 109.737C48.1057 109.692 48.0656 109.644 48.0389 109.604L53.0499 106.304C52.4781 105.436 51.6943 104.78 50.7683 104.357L48.2765 109.815ZM48.0579 109.632C47.9857 109.526 47.9485 109.429 47.9316 109.366C47.9159 109.308 47.9224 109.297 47.9224 109.354H53.9224C53.9224 108.342 53.691 107.253 53.031 106.276L48.0579 109.632ZM47.9224 109.354C47.9224 109.391 47.9173 109.304 47.9859 109.163C48.0577 109.015 48.1522 108.927 48.1932 108.897L51.7476 113.731C53.2088 112.657 53.9224 111.074 53.9224 109.354H47.9224ZM48.1995 108.892C48.2698 108.841 48.2617 108.872 48.0875 108.915C47.9108 108.958 47.6164 109 47.1704 109V115C48.6946 115 50.3756 114.734 51.7414 113.736L48.1995 108.892ZM47.1704 109H42.4944V115H47.1704V109ZM43.8944 113.866H47.1144V107.866H43.8944V113.866ZM47.1144 113.866C48.1519 113.866 49.4045 113.704 50.503 113.005L47.2818 107.943C47.4351 107.845 47.5291 107.831 47.494 107.838C47.479 107.842 47.4411 107.849 47.3759 107.855C47.3109 107.861 47.2246 107.866 47.1144 107.866V113.866ZM50.503 113.005C51.9216 112.102 52.5084 110.646 52.5084 109.242H46.5084C46.5084 109.157 46.5247 108.921 46.6711 108.628C46.8264 108.318 47.0571 108.086 47.2818 107.943L50.503 113.005ZM52.5084 109.242C52.5084 107.85 51.9377 106.378 50.503 105.465L47.2818 110.527C47.049 110.379 46.818 110.142 46.6651 109.833C46.522 109.544 46.5084 109.315 46.5084 109.242H52.5084ZM50.503 105.465C49.4045 104.766 48.1519 104.604 47.1144 104.604V110.604C47.2246 110.604 47.3109 110.609 47.3759 110.615C47.4411 110.621 47.479 110.628 47.494 110.632C47.5291 110.639 47.4351 110.625 47.2818 110.527L50.503 105.465ZM47.1144 104.604H43.7684V110.604H47.1144V104.604ZM46.7684 107.604V106.47H40.7684V107.604H46.7684ZM43.7684 109.47H46.7644V103.47H43.7684V109.47ZM46.7644 109.47C47.7855 109.47 49.005 109.291 50.0805 108.574L46.7523 103.582C46.9054 103.48 47.0136 103.454 47.0168 103.453C47.0191 103.452 47.0007 103.457 46.9572 103.462C46.9138 103.466 46.8504 103.47 46.7644 103.47V109.47ZM50.0805 108.574C51.4091 107.688 52.0044 106.299 52.0044 104.902H46.0044C46.0044 104.787 46.0274 104.54 46.1741 104.246C46.3271 103.941 46.5476 103.718 46.7523 103.582L50.0805 108.574ZM52.0044 104.902C52.0044 103.505 51.4091 102.116 50.0805 101.23L46.7523 106.222C46.5476 106.086 46.3271 105.863 46.1741 105.558C46.0274 105.264 46.0044 105.017 46.0044 104.902H52.0044ZM50.0805 101.23C49.005 100.513 47.7855 100.334 46.7644 100.334V106.334C46.8504 106.334 46.9138 106.338 46.9572 106.342C47.0007 106.347 47.0191 106.352 47.0168 106.351C47.0136 106.35 46.9054 106.324 46.7523 106.222L50.0805 101.23ZM46.7644 100.334H43.8944V106.334H46.7644V100.334ZM40.8944 103.334V110.866H46.8944V103.334H40.8944ZM54.0981 111.594L52.6587 114.226L52.6672 114.231L52.6758 114.235L54.0981 111.594ZM52.6981 110.25L50.096 111.743L50.1052 111.759L50.1145 111.775L52.6981 110.25ZM52.6841 106.33L50.082 104.837L50.0727 104.853L50.0637 104.869L52.6841 106.33ZM54.0141 105L55.4932 107.61L55.5002 107.606L55.5071 107.602L54.0141 105ZM57.8361 104.986L59.334 102.387L59.334 102.387L57.8361 104.986ZM59.1241 106.33L56.4759 107.74L56.4895 107.765L56.5037 107.791L59.1241 106.33ZM59.5861 108.528L56.6093 108.156L56.5861 108.341V108.528H59.5861ZM59.5721 108.738V111.738H62.174L62.542 109.162L59.5721 108.738ZM53.2581 108.738H50.2581V111.738H53.2581V108.738ZM53.2581 107.772V104.772H50.2581V107.772H53.2581ZM58.8721 107.772L60.4444 110.327L69.4712 104.772H58.8721V107.772ZM58.3261 108.108L55.3267 108.049L55.219 113.543L59.8984 110.663L58.3261 108.108ZM58.0321 106.834L60.6608 105.388V105.388L58.0321 106.834ZM57.1781 105.966L55.6247 108.532L55.6641 108.556L55.7042 108.579L57.1781 105.966ZM54.6861 105.966L56.1601 108.579L56.1852 108.565L56.2101 108.55L54.6861 105.966ZM53.8321 106.848L56.4608 108.294L56.4683 108.28L56.4756 108.266L53.8321 106.848ZM53.8601 109.69L51.2554 111.178L51.2765 111.215L51.2987 111.252L53.8601 109.69ZM54.8261 110.586L56.2159 107.927L56.2159 107.927L54.8261 110.586ZM57.4301 110.684L56.2914 107.908L56.2787 107.914L56.2659 107.919L57.4301 110.684ZM58.3821 110.012L60.6625 108.063L58.4479 105.472L56.1592 107.997L58.3821 110.012ZM59.1241 110.88L61.4019 112.832L63.0731 110.883L61.4045 108.931L59.1241 110.88ZM57.8641 111.776L56.7322 108.998L56.7231 109.001L56.714 109.005L57.8641 111.776ZM56.1981 109.084C55.8255 109.084 55.6278 109.01 55.5204 108.953L52.6758 114.235C53.7818 114.831 54.9841 115.084 56.1981 115.084V109.084ZM55.5376 108.962C55.3996 108.886 55.3346 108.815 55.2817 108.725L50.1145 111.775C50.7337 112.824 51.602 113.648 52.6587 114.226L55.5376 108.962ZM55.3002 108.757C55.2652 108.696 55.2081 108.569 55.2081 108.29H49.2081C49.2081 109.485 49.4777 110.665 50.096 111.743L55.3002 108.757ZM55.2081 108.29C55.2081 107.996 55.2673 107.857 55.3046 107.791L50.0637 104.869C49.4662 105.941 49.2081 107.11 49.2081 108.29H55.2081ZM55.2862 107.823C55.3509 107.71 55.4104 107.657 55.4932 107.61L52.5351 102.39C51.4978 102.978 50.6706 103.811 50.082 104.837L55.2862 107.823ZM55.5071 107.602C55.5857 107.557 55.7031 107.51 55.9321 107.51V101.51C54.7425 101.51 53.5812 101.79 52.5211 102.398L55.5071 107.602ZM55.9321 107.51C56.1951 107.51 56.3002 107.563 56.3382 107.585L59.334 102.387C58.2707 101.774 57.1065 101.51 55.9321 101.51V107.51ZM56.3382 107.585C56.3856 107.613 56.4234 107.641 56.4759 107.74L61.7724 104.92C61.2088 103.862 60.388 102.994 59.334 102.387L56.3382 107.585ZM56.5037 107.791C56.5319 107.841 56.6001 107.988 56.6001 108.332H62.6001C62.6001 107.145 62.351 105.957 61.7446 104.869L56.5037 107.791ZM56.6001 108.332C56.6001 108.278 56.6023 108.236 56.6042 108.209C56.6062 108.182 56.6083 108.164 56.6093 108.156L62.563 108.9C62.5828 108.741 62.6001 108.546 62.6001 108.332H56.6001ZM56.5861 108.528C56.5861 108.479 56.5891 108.406 56.6023 108.314L62.542 109.162C62.5738 108.94 62.5861 108.727 62.5861 108.528H56.5861ZM59.5721 105.738H53.2581V111.738H59.5721V105.738ZM56.2581 108.738V107.772H50.2581V108.738H56.2581ZM53.2581 110.772H58.8721V104.772H53.2581V110.772ZM57.2998 105.217L56.7538 105.553L59.8984 110.663L60.4444 110.327L57.2998 105.217ZM61.3255 108.167C61.3439 107.229 61.1481 106.274 60.6608 105.388L55.4035 108.28C55.3699 108.219 55.3482 108.158 55.3364 108.107C55.3251 108.058 55.327 108.035 55.3267 108.049L61.3255 108.167ZM60.6608 105.388C60.1921 104.536 59.5119 103.838 58.6521 103.353L55.7042 108.579C55.6492 108.548 55.5862 108.502 55.5261 108.441C55.4663 108.38 55.4267 108.322 55.4035 108.28L60.6608 105.388ZM58.7315 103.399C57.8423 102.861 56.8731 102.644 55.9321 102.644V108.644C55.9442 108.644 55.9126 108.645 55.85 108.629C55.7849 108.612 55.7057 108.582 55.6247 108.532L58.7315 103.399ZM55.9321 102.644C54.9869 102.644 54.035 102.867 53.1622 103.382L56.2101 108.55C56.1469 108.587 56.0809 108.614 56.0212 108.629C55.9633 108.644 55.93 108.644 55.9321 108.644V102.644ZM53.2122 103.353C52.333 103.849 51.6517 104.567 51.1886 105.43L56.4756 108.266C56.4552 108.304 56.4168 108.363 56.3549 108.427C56.2923 108.492 56.2239 108.543 56.1601 108.579L53.2122 103.353ZM51.2035 105.402C50.7224 106.277 50.5241 107.216 50.5241 108.136H56.5241C56.5241 108.105 56.5273 108.112 56.5189 108.148C56.51 108.185 56.4921 108.237 56.4608 108.294L51.2035 105.402ZM50.5241 108.136V108.36H56.5241V108.136H50.5241ZM50.5241 108.36C50.5241 109.325 50.748 110.291 51.2554 111.178L56.4648 108.202C56.4896 108.245 56.5069 108.29 56.5167 108.329C56.5262 108.366 56.5241 108.38 56.5241 108.36H50.5241ZM51.2987 111.252C51.8257 112.116 52.5599 112.787 53.4364 113.245L56.2159 107.927C56.2338 107.937 56.2718 107.96 56.3167 108.001C56.3621 108.044 56.3975 108.089 56.4215 108.128L51.2987 111.252ZM53.4364 113.245C54.3356 113.715 55.2962 113.908 56.2401 113.908V107.908C56.1761 107.908 56.1502 107.902 56.1537 107.902C56.1553 107.903 56.1626 107.905 56.1743 107.909C56.1861 107.913 56.2003 107.919 56.2159 107.927L53.4364 113.245ZM56.2401 113.908C57.023 113.908 57.8231 113.774 58.5943 113.449L56.2659 107.919C56.2794 107.913 56.2907 107.91 56.2991 107.907C56.3075 107.905 56.3119 107.904 56.3117 107.904C56.3113 107.904 56.2892 107.908 56.2401 107.908V113.908ZM58.5688 113.46C59.3567 113.136 60.0418 112.648 60.6051 112.027L56.1592 107.997C56.1661 107.99 56.1833 107.973 56.2111 107.953C56.2391 107.933 56.2675 107.918 56.2914 107.908L58.5688 113.46ZM56.1018 111.961L56.8438 112.829L61.4045 108.931L60.6625 108.063L56.1018 111.961ZM56.8463 108.928C56.838 108.937 56.8186 108.963 56.7322 108.998L58.996 114.554C59.9176 114.179 60.7382 113.607 61.4019 112.832L56.8463 108.928ZM56.714 109.005C56.6345 109.038 56.4781 109.084 56.1981 109.084V115.084C57.1501 115.084 58.1044 114.924 59.0142 114.547L56.714 109.005ZM61.4664 112H58.4664V115H61.4664V112ZM61.4664 101.612V98.612H58.4664V101.612H61.4664ZM62.8104 101.612H65.8104V98.612H62.8104V101.612ZM62.8104 112V115H65.8104V112H62.8104ZM64.4664 112V101.612H58.4664V112H64.4664ZM61.4664 104.612H62.8104V98.612H61.4664V104.612ZM59.8104 101.612V112H65.8104V101.612H59.8104ZM62.8104 109H61.4664V115H62.8104V109ZM69.9825 112H66.9825V115H69.9825V112ZM69.9825 110.432H72.9825V110.08L72.901 109.737L69.9825 110.432ZM69.9125 110.138H66.9125V110.49L66.9941 110.833L69.9125 110.138ZM69.4085 106.148L67.3182 108.3L67.3493 108.33L67.3814 108.359L69.4085 106.148ZM66.6365 105.896L67.5852 108.742L67.6135 108.733L67.6416 108.723L66.6365 105.896ZM65.5725 106.47L62.9501 107.927L64.7153 111.104L67.5004 108.769L65.5725 106.47ZM65.0125 105.462L63.1315 103.125L61.1627 104.71L62.3901 106.919L65.0125 105.462ZM66.3845 104.762L67.242 107.637L67.2579 107.632L67.2737 107.627L66.3845 104.762ZM71.2565 112V115H74.2565V112H71.2565ZM66.0905 111.804L64.8491 114.535L64.8606 114.54L64.8721 114.545L66.0905 111.804ZM65.1385 111.034L62.6424 112.698L62.6533 112.714L62.6644 112.731L65.1385 111.034ZM65.0825 108.808L62.5101 107.265L62.4936 107.292L62.4778 107.32L65.0825 108.808ZM66.0205 108.024L64.7967 105.285L64.7857 105.29L64.7747 105.295L66.0205 108.024ZM70.1365 107.73H73.1365V104.73H70.1365V107.73ZM70.1365 108.696V111.696H73.1365V108.696H70.1365ZM66.4825 109.032L64.4049 106.868L64.4049 106.868L66.4825 109.032ZM66.5665 110.726L64.73 113.098L64.7543 113.117L64.779 113.135L66.5665 110.726ZM69.0865 110.712L67.571 108.123L67.557 108.131L67.5431 108.14L69.0865 110.712ZM69.9125 109.732L72.7955 108.902L70.3457 100.392L67.1188 108.639L69.9125 109.732ZM70.1785 110.656L72.9599 111.78L73.3478 110.821L73.0615 109.826L70.1785 110.656ZM69.2405 111.706L70.7113 114.321L70.7318 114.309L70.7522 114.297L69.2405 111.706ZM72.9825 112V110.432H66.9825V112H72.9825ZM72.901 109.737L72.831 109.443L66.9941 110.833L67.0641 111.127L72.901 109.737ZM72.9125 110.138V107.464H66.9125V110.138H72.9125ZM72.9125 107.464C72.9125 106.278 72.5397 104.948 71.4357 103.937L67.3814 108.359C67.1958 108.189 67.0621 107.982 66.985 107.781C66.9132 107.594 66.9125 107.471 66.9125 107.464H72.9125ZM71.4989 103.996C70.4016 102.93 69.0141 102.672 67.9245 102.672V108.672C68.0262 108.672 67.9937 108.685 67.8763 108.648C67.7454 108.606 67.5305 108.506 67.3182 108.3L71.4989 103.996ZM67.9245 102.672C67.1378 102.672 66.3689 102.807 65.6315 103.069L67.6416 108.723C67.7442 108.686 67.8339 108.672 67.9245 108.672V102.672ZM65.6879 103.05C64.9706 103.289 64.2683 103.648 63.6447 104.171L67.5004 108.769C67.4554 108.806 67.4625 108.783 67.5852 108.742L65.6879 103.05ZM68.195 105.013L67.635 104.005L62.3901 106.919L62.9501 107.927L68.195 105.013ZM66.8936 107.799C66.9362 107.765 67.0345 107.699 67.242 107.637L65.5271 101.887C64.6706 102.143 63.8542 102.543 63.1315 103.125L66.8936 107.799ZM67.2737 107.627C67.5165 107.552 67.7807 107.51 68.0785 107.51V101.51C67.2004 101.51 66.3353 101.636 65.4953 101.897L67.2737 107.627ZM68.0785 107.51C68.3507 107.51 68.4867 107.544 68.527 107.557C68.5563 107.566 68.5024 107.553 68.4257 107.484L72.4353 103.02C71.157 101.872 69.5573 101.51 68.0785 101.51V107.51ZM68.4257 107.484C68.3709 107.435 68.3244 107.38 68.2886 107.325C68.2534 107.272 68.2368 107.232 68.2312 107.217C68.226 107.202 68.2326 107.216 68.2404 107.266C68.2483 107.317 68.2565 107.4 68.2565 107.52H74.2565C74.2565 105.983 73.8299 104.273 72.4353 103.02L68.4257 107.484ZM68.2565 107.52V112H74.2565V107.52H68.2565ZM71.2565 109H69.9825V115H71.2565V109ZM67.5465 109.084C67.3339 109.084 67.2771 109.048 67.309 109.063L64.8721 114.545C65.7439 114.933 66.6578 115.084 67.5465 115.084V109.084ZM67.3319 109.073C67.3337 109.074 67.373 109.092 67.4311 109.139C67.4911 109.187 67.5557 109.254 67.6127 109.337L62.6644 112.731C63.2385 113.568 64.0115 114.154 64.8491 114.535L67.3319 109.073ZM67.6347 109.37C67.6853 109.446 67.7315 109.54 67.7629 109.646C67.7941 109.751 67.8025 109.84 67.8025 109.9H61.8025C61.8025 110.887 62.0762 111.849 62.6424 112.698L67.6347 109.37ZM67.8025 109.9C67.8025 109.934 67.7984 109.994 67.7785 110.071C67.7584 110.15 67.727 110.227 67.6873 110.296L62.4778 107.32C62.0148 108.13 61.8025 109.013 61.8025 109.9H67.8025ZM67.655 110.351C67.4713 110.658 67.2561 110.758 67.2664 110.753L64.7747 105.295C63.9263 105.682 63.0858 106.305 62.5101 107.265L67.655 110.351ZM67.2444 110.763C67.1825 110.791 67.1839 110.779 67.2837 110.763C67.3819 110.746 67.5441 110.73 67.7845 110.73V104.73C66.8286 104.73 65.7705 104.85 64.7967 105.285L67.2444 110.763ZM67.7845 110.73H70.1365V104.73H67.7845V110.73ZM67.1365 107.73V108.696H73.1365V107.73H67.1365ZM70.1365 105.696H67.8405V111.696H70.1365V105.696ZM67.8405 105.696C67.3584 105.696 66.8169 105.734 66.2765 105.868C65.7518 105.998 65.0319 106.266 64.4049 106.868L68.5601 111.196C68.1665 111.574 67.7896 111.674 67.7176 111.692C67.6298 111.714 67.6507 111.696 67.8405 111.696V105.696ZM64.4049 106.868C63.5951 107.645 63.1325 108.692 63.1325 109.844H69.1325C69.1325 110.062 69.0904 110.323 68.975 110.59C68.8601 110.857 68.7039 111.058 68.5601 111.196L64.4049 106.868ZM63.1325 109.844C63.1325 111.142 63.7113 112.309 64.73 113.098L68.4031 108.354C68.5769 108.488 68.781 108.705 68.9328 109.013C69.0848 109.322 69.1325 109.618 69.1325 109.844H63.1325ZM64.779 113.135C65.7638 113.866 66.8782 114.048 67.7705 114.048V108.048C67.6362 108.048 67.9479 108.015 68.3541 108.317L64.779 113.135ZM67.7705 114.048C68.7312 114.048 69.7211 113.83 70.63 113.284L67.5431 108.14C67.6157 108.096 67.6841 108.07 67.7354 108.057C67.7842 108.045 67.8001 108.048 67.7705 108.048V114.048ZM70.6021 113.301C71.5913 112.722 72.303 111.856 72.7063 110.825L67.1188 108.639C67.1449 108.572 67.1963 108.472 67.2862 108.366C67.377 108.258 67.4788 108.177 67.571 108.123L70.6021 113.301ZM67.0296 110.562L67.2956 111.486L73.0615 109.826L72.7955 108.902L67.0296 110.562ZM67.3972 109.532C67.4371 109.433 67.4978 109.334 67.5738 109.249C67.6475 109.166 67.7098 109.126 67.7289 109.115L70.7522 114.297C71.7157 113.735 72.5092 112.895 72.9599 111.78L67.3972 109.532ZM67.7698 109.091C67.8312 109.057 67.8591 109.055 67.8277 109.062C67.7937 109.069 67.7051 109.084 67.5465 109.084V115.084C68.581 115.084 69.6915 114.894 70.7113 114.321L67.7698 109.091ZM79.3017 104.86L77.9383 107.532L77.9492 107.538L77.9601 107.543L79.3017 104.86ZM80.3937 105.924L83.0235 104.48L80.3937 105.924ZM80.7857 112V115H83.7857V112H80.7857ZM79.4417 112H76.4417V115H79.4417V112ZM78.9097 106.26L76.7333 108.325L76.7471 108.339L76.761 108.354L78.9097 106.26ZM76.1937 105.994L74.7965 103.339L76.1937 105.994ZM75.3677 106.82L72.7263 105.398L72.712 105.424L72.6983 105.451L75.3677 106.82ZM75.0877 112V115H78.0877V112H75.0877ZM73.7437 112H70.7437V115H73.7437V112ZM73.7437 101.612V98.612H70.7437V101.612H73.7437ZM75.0877 101.612H78.0877V98.612H75.0877V101.612ZM75.0877 106.582L72.4044 107.924L78.0877 106.582H75.0877ZM74.8217 106.05L72.1384 104.708L71.4676 106.05L72.1384 107.392L74.8217 106.05ZM75.9417 104.916L74.5223 102.273V102.273L75.9417 104.916ZM77.7057 107.51C77.8171 107.51 77.8845 107.521 77.9171 107.528C77.948 107.535 77.9513 107.539 77.9383 107.532L80.6651 102.188C79.7153 101.703 78.7006 101.51 77.7057 101.51V107.51ZM77.9601 107.543C77.9242 107.525 77.8766 107.494 77.8311 107.45C77.7865 107.406 77.7664 107.372 77.764 107.368L83.0235 104.48C82.4814 103.493 81.6785 102.694 80.6434 102.177L77.9601 107.543ZM77.764 107.368C77.7137 107.276 77.7857 107.342 77.7857 107.73H83.7857C83.7857 106.662 83.5964 105.524 83.0235 104.48L77.764 107.368ZM77.7857 107.73V112H83.7857V107.73H77.7857ZM80.7857 109H79.4417V115H80.7857V109ZM82.4417 112V107.884H76.4417V112H82.4417ZM82.4417 107.884C82.4417 106.709 82.1506 105.287 81.0584 104.166L76.761 108.354C76.5821 108.17 76.4943 107.984 76.4578 107.873C76.4258 107.775 76.4417 107.763 76.4417 107.884H82.4417ZM81.0861 104.195C80.0327 103.085 78.6661 102.714 77.4397 102.714V108.714C77.4745 108.714 77.3909 108.719 77.2387 108.663C77.0727 108.601 76.8892 108.489 76.7333 108.325L81.0861 104.195ZM77.4397 102.714C76.5679 102.714 75.6559 102.887 74.7965 103.339L77.591 108.649C77.5208 108.686 77.4628 108.703 77.429 108.711C77.3971 108.718 77.3974 108.714 77.4397 108.714V102.714ZM74.7965 103.339C73.8964 103.813 73.1958 104.526 72.7263 105.398L78.0091 108.242C77.9773 108.301 77.9237 108.381 77.8425 108.462C77.7608 108.544 77.6725 108.606 77.591 108.649L74.7965 103.339ZM72.6983 105.451C72.2357 106.353 72.0877 107.308 72.0877 108.178H78.0877C78.0877 108.129 78.0899 108.093 78.0921 108.069C78.0943 108.046 78.0964 108.036 78.0959 108.038C78.0948 108.044 78.0823 108.101 78.0372 108.189L72.6983 105.451ZM72.0877 108.178V112H78.0877V108.178H72.0877ZM75.0877 109H73.7437V115H75.0877V109ZM76.7437 112V101.612H70.7437V112H76.7437ZM73.7437 104.612H75.0877V98.612H73.7437V104.612ZM72.0877 101.612V106.582H78.0877V101.612H72.0877ZM77.771 105.24L77.505 104.708L72.1384 107.392L72.4044 107.924L77.771 105.24ZM77.505 107.392C77.488 107.426 77.4585 107.47 77.4182 107.511C77.379 107.55 77.3526 107.564 77.3611 107.559L74.5223 102.273C73.5042 102.82 72.6735 103.638 72.1384 104.708L77.505 107.392ZM77.3611 107.559C77.3653 107.557 77.3856 107.546 77.4336 107.535C77.4836 107.524 77.5709 107.51 77.7057 107.51V101.51C76.625 101.51 75.5332 101.73 74.5223 102.273L77.3611 107.559ZM88.4608 109.634L85.4633 109.757L85.7462 116.659L90.5968 111.741L88.4608 109.634ZM88.3908 107.926L86.2381 105.836L85.3405 106.761L85.3933 108.049L88.3908 107.926ZM93.9488 102.2V99.2H92.6799L91.7961 100.11L93.9488 102.2ZM95.5448 102.2L97.7225 104.263L102.52 99.2H95.5448V102.2ZM91.2468 106.736L89.0691 104.673L89.0445 104.699L89.0205 104.725L91.2468 106.736ZM90.4628 107.604L92.5988 109.711L92.645 109.664L92.6891 109.615L90.4628 107.604ZM87.2288 112H84.2288V115H87.2288V112ZM87.2288 102.2V99.2H84.2288V102.2H87.2288ZM88.6288 102.2H91.6288V99.2H88.6288V102.2ZM88.6288 112V115H91.6288V112H88.6288ZM94.1728 112L91.8974 113.955L92.7952 115H94.1728V112ZM90.1548 107.324L87.9309 105.31L86.1548 107.272L87.8794 109.279L90.1548 107.324ZM91.0928 106.288L93.4058 104.378L91.1969 101.703L88.8689 104.274L91.0928 106.288ZM95.8108 112V115H102.18L98.1238 110.09L95.8108 112ZM91.4583 109.511L91.3883 107.803L85.3933 108.049L85.4633 109.757L91.4583 109.511ZM90.5435 110.016L96.1015 104.29L91.7961 100.11L86.2381 105.836L90.5435 110.016ZM93.9488 105.2H95.5448V99.2H93.9488V105.2ZM93.3671 100.137L89.0691 104.673L93.4245 108.799L97.7225 104.263L93.3671 100.137ZM89.0205 104.725L88.2365 105.593L92.6891 109.615L93.4731 108.747L89.0205 104.725ZM88.3268 105.497L86.3248 107.527L90.5968 111.741L92.5988 109.711L88.3268 105.497ZM90.2288 112V102.2H84.2288V112H90.2288ZM87.2288 105.2H88.6288V99.2H87.2288V105.2ZM85.6288 102.2V112H91.6288V102.2H85.6288ZM88.6288 109H87.2288V115H88.6288V109ZM96.4482 110.045L92.4302 105.369L87.8794 109.279L91.8974 113.955L96.4482 110.045ZM92.3787 109.338L93.3167 108.302L88.8689 104.274L87.9309 105.31L92.3787 109.338ZM88.7798 108.198L93.4978 113.91L98.1238 110.09L93.4058 104.378L88.7798 108.198ZM95.8108 109H94.1728V115H95.8108V109ZM97.9712 111.594L96.5317 114.226L96.5403 114.231L96.5489 114.235L97.9712 111.594ZM96.5712 110.25L93.9691 111.743L93.9782 111.759L93.9875 111.775L96.5712 110.25ZM96.5572 106.33L93.9551 104.837L93.9458 104.853L93.9367 104.869L96.5572 106.33ZM97.8872 105L99.3662 107.61L99.3732 107.606L99.3802 107.602L97.8872 105ZM101.709 104.986L103.207 102.387V102.387L101.709 104.986ZM102.997 106.33L100.349 107.74L100.363 107.765L100.377 107.791L102.997 106.33ZM103.459 108.528L100.482 108.156L100.459 108.341V108.528H103.459ZM103.445 108.738V111.738H106.047L106.415 109.162L103.445 108.738ZM97.1312 108.738H94.1312V111.738H97.1312V108.738ZM97.1312 107.772V104.772H94.1312V107.772H97.1312ZM102.745 107.772L104.317 110.327L113.344 104.772H102.745V107.772ZM102.199 108.108L99.1997 108.049L99.092 113.543L103.771 110.663L102.199 108.108ZM101.905 106.834L104.534 105.388V105.388L101.905 106.834ZM101.051 105.966L99.4978 108.532L99.5371 108.556L99.5772 108.579L101.051 105.966ZM98.5592 105.966L100.033 108.579L100.058 108.565L100.083 108.55L98.5592 105.966ZM97.7052 106.848L100.334 108.294L100.341 108.28L100.349 108.266L97.7052 106.848ZM97.7332 109.69L95.1284 111.178L95.1496 111.215L95.1718 111.252L97.7332 109.69ZM98.6992 110.586L100.089 107.927V107.927L98.6992 110.586ZM101.303 110.684L100.164 107.908L100.152 107.914L100.139 107.919L101.303 110.684ZM102.255 110.012L104.536 108.063L102.321 105.472L100.032 107.997L102.255 110.012ZM102.997 110.88L105.275 112.832L106.946 110.883L105.278 108.931L102.997 110.88ZM101.737 111.776L100.605 108.998L100.596 109.001L100.587 109.005L101.737 111.776ZM100.071 109.084C99.6986 109.084 99.5008 109.01 99.3935 108.953L96.5489 114.235C97.6548 114.831 98.8571 115.084 100.071 115.084V109.084ZM99.4106 108.962C99.2726 108.886 99.2076 108.815 99.1548 108.725L93.9875 111.775C94.6067 112.824 95.4751 113.648 96.5317 114.226L99.4106 108.962ZM99.1733 108.757C99.1383 108.696 99.0812 108.569 99.0812 108.29H93.0812C93.0812 109.485 93.3507 110.665 93.9691 111.743L99.1733 108.757ZM99.0812 108.29C99.0812 107.996 99.1404 107.857 99.1776 107.791L93.9367 104.869C93.3393 105.941 93.0812 107.11 93.0812 108.29H99.0812ZM99.1593 107.823C99.224 107.71 99.2835 107.657 99.3662 107.61L96.4081 102.39C95.3708 102.978 94.5437 103.811 93.9551 104.837L99.1593 107.823ZM99.3802 107.602C99.4587 107.557 99.5761 107.51 99.8052 107.51V101.51C98.6155 101.51 97.4543 101.79 96.3942 102.398L99.3802 107.602ZM99.8052 107.51C100.068 107.51 100.173 107.563 100.211 107.585L103.207 102.387C102.144 101.774 100.98 101.51 99.8052 101.51V107.51ZM100.211 107.585C100.259 107.613 100.296 107.641 100.349 107.74L105.645 104.92C105.082 103.862 104.261 102.994 103.207 102.387L100.211 107.585ZM100.377 107.791C100.405 107.841 100.473 107.988 100.473 108.332H106.473C106.473 107.145 106.224 105.957 105.618 104.869L100.377 107.791ZM100.473 108.332C100.473 108.278 100.475 108.236 100.477 108.209C100.479 108.182 100.481 108.164 100.482 108.156L106.436 108.9C106.456 108.741 106.473 108.546 106.473 108.332H100.473ZM100.459 108.528C100.459 108.479 100.462 108.406 100.475 108.314L106.415 109.162C106.447 108.94 106.459 108.727 106.459 108.528H100.459ZM103.445 105.738H97.1312V111.738H103.445V105.738ZM100.131 108.738V107.772H94.1312V108.738H100.131ZM97.1312 110.772H102.745V104.772H97.1312V110.772ZM101.173 105.217L100.627 105.553L103.771 110.663L104.317 110.327L101.173 105.217ZM105.199 108.167C105.217 107.229 105.021 106.274 104.534 105.388L99.2765 108.28C99.2429 108.219 99.2212 108.158 99.2095 108.107C99.1982 108.058 99.2 108.035 99.1997 108.049L105.199 108.167ZM104.534 105.388C104.065 104.536 103.385 103.838 102.525 103.353L99.5772 108.579C99.5223 108.548 99.4593 108.502 99.3992 108.441C99.3394 108.38 99.2997 108.322 99.2765 108.28L104.534 105.388ZM102.605 103.399C101.715 102.861 100.746 102.644 99.8052 102.644V108.644C99.8173 108.644 99.7857 108.645 99.723 108.629C99.658 108.612 99.5787 108.582 99.4978 108.532L102.605 103.399ZM99.8052 102.644C98.86 102.644 97.908 102.867 97.0352 103.382L100.083 108.55C100.02 108.587 99.954 108.614 99.8943 108.629C99.8363 108.644 99.803 108.644 99.8052 108.644V102.644ZM97.0852 103.353C96.2061 103.849 95.5247 104.567 95.0617 105.43L100.349 108.266C100.328 108.304 100.29 108.363 100.228 108.427C100.165 108.492 100.097 108.543 100.033 108.579L97.0852 103.353ZM95.0765 105.402C94.5954 106.277 94.3972 107.216 94.3972 108.136H100.397C100.397 108.105 100.4 108.112 100.392 108.148C100.383 108.185 100.365 108.237 100.334 108.294L95.0765 105.402ZM94.3972 108.136V108.36H100.397V108.136H94.3972ZM94.3972 108.36C94.3972 109.325 94.6211 110.291 95.1284 111.178L100.338 108.202C100.363 108.245 100.38 108.29 100.39 108.329C100.399 108.366 100.397 108.38 100.397 108.36H94.3972ZM95.1718 111.252C95.6987 112.116 96.433 112.787 97.3094 113.245L100.089 107.927C100.107 107.937 100.145 107.96 100.19 108.001C100.235 108.044 100.271 108.089 100.295 108.128L95.1718 111.252ZM97.3094 113.245C98.2087 113.715 99.1693 113.908 100.113 113.908V107.908C100.049 107.908 100.023 107.902 100.027 107.902C100.028 107.903 100.036 107.905 100.047 107.909C100.059 107.913 100.073 107.919 100.089 107.927L97.3094 113.245ZM100.113 113.908C100.896 113.908 101.696 113.774 102.467 113.449L100.139 107.919C100.152 107.913 100.164 107.91 100.172 107.907C100.181 107.905 100.185 107.904 100.185 107.904C100.184 107.904 100.162 107.908 100.113 107.908V113.908ZM102.442 113.46C103.23 113.136 103.915 112.648 104.478 112.027L100.032 107.997C100.039 107.99 100.056 107.973 100.084 107.953C100.112 107.933 100.141 107.918 100.164 107.908L102.442 113.46ZM99.9748 111.961L100.717 112.829L105.278 108.931L104.536 108.063L99.9748 111.961ZM100.719 108.928C100.711 108.937 100.692 108.963 100.605 108.998L102.869 114.554C103.791 114.179 104.611 113.607 105.275 112.832L100.719 108.928ZM100.587 109.005C100.508 109.038 100.351 109.084 100.071 109.084V115.084C101.023 115.084 101.977 114.924 102.887 114.547L100.587 109.005ZM106.151 111.482L104.055 113.628L106.151 111.482ZM105.535 102.956V99.956H102.535V102.956H105.535ZM106.879 102.956H109.879V99.956H106.879V102.956ZM107.173 110.628L104.958 112.651L104.981 112.677L105.006 112.702L107.173 110.628ZM109.091 110.6L111.843 109.404L110.246 105.732L107.171 108.295L109.091 110.6ZM109.511 111.566L111.472 113.836L113.143 112.394L112.263 110.37L109.511 111.566ZM108.769 111.958L107.933 109.077L107.92 109.081L107.907 109.085L108.769 111.958ZM104.275 105.686H101.275V108.686H104.275V105.686ZM104.275 104.58V101.58H101.275V104.58H104.275ZM109.007 104.58H112.007V101.58H109.007V104.58ZM109.007 105.686V108.686H112.007V105.686H109.007ZM107.887 109.084C107.778 109.084 107.789 109.069 107.876 109.099C107.976 109.134 108.117 109.208 108.248 109.336L104.055 113.628C105.179 114.727 106.602 115.084 107.887 115.084V109.084ZM108.248 109.336C108.388 109.473 108.473 109.625 108.514 109.74C108.55 109.841 108.535 109.864 108.535 109.76H102.535C102.535 111.061 102.907 112.506 104.055 113.628L108.248 109.336ZM108.535 109.76V102.956H102.535V109.76H108.535ZM105.535 105.956H106.879V99.956H105.535V105.956ZM103.879 102.956V109.704H109.879V102.956H103.879ZM103.879 109.704C103.879 110.567 104.093 111.703 104.958 112.651L109.389 108.605C109.862 109.124 109.879 109.644 109.879 109.704H103.879ZM105.006 112.702C105.914 113.652 107.073 113.95 108.041 113.95V107.95C108.138 107.95 108.337 107.964 108.588 108.057C108.852 108.155 109.118 108.32 109.341 108.554L105.006 112.702ZM108.041 113.95C109.05 113.95 110.112 113.655 111.012 112.905L107.171 108.295C107.322 108.17 107.495 108.075 107.67 108.016C107.84 107.96 107.973 107.95 108.041 107.95V113.95ZM106.34 111.796L106.76 112.762L112.263 110.37L111.843 109.404L106.34 111.796ZM107.551 109.296C107.706 109.161 107.854 109.1 107.933 109.077L109.606 114.839C110.263 114.648 110.906 114.326 111.472 113.836L107.551 109.296ZM107.907 109.085C107.913 109.083 107.916 109.082 107.915 109.083C107.913 109.083 107.905 109.084 107.887 109.084V115.084C108.472 115.084 109.057 115.004 109.631 114.831L107.907 109.085ZM107.275 105.686V104.58H101.275V105.686H107.275ZM104.275 107.58H109.007V101.58H104.275V107.58ZM106.007 104.58V105.686H112.007V104.58H106.007ZM109.007 102.686H104.275V108.686H109.007V102.686ZM112.578 111.734L111.258 114.428L111.268 114.433L111.278 114.438L112.578 111.734ZM111.458 110.67L108.817 112.092L108.833 112.123L108.85 112.153L111.458 110.67ZM111.066 104.58V101.58H108.066V104.58H111.066ZM112.41 104.58H115.41V101.58H112.41V104.58ZM112.928 110.334L110.752 112.399L110.766 112.413L110.78 112.428L112.928 110.334ZM115.63 110.6L117.057 113.239L117.084 113.224L117.111 113.209L115.63 110.6ZM116.428 109.76L119.098 111.129L119.105 111.115L119.112 111.102L116.428 109.76ZM116.708 104.58V101.58H113.708V104.58H116.708ZM118.052 104.58H121.052V101.58H118.052V104.58ZM118.052 112V115H121.052V112H118.052ZM116.778 112H113.778V115H116.778V112ZM116.778 109.998L119.569 108.897L113.778 109.998H116.778ZM116.988 110.53L119.682 111.851L120.265 110.661L119.779 109.429L116.988 110.53ZM115.896 111.678L117.358 114.298L115.896 111.678ZM114.258 109.084C113.994 109.084 113.892 109.037 113.878 109.03L111.278 114.438C112.236 114.898 113.253 115.084 114.258 115.084V109.084ZM113.899 109.04C113.926 109.054 113.967 109.079 114.008 109.118C114.026 109.136 114.041 109.153 114.051 109.166C114.062 109.18 114.066 109.187 114.066 109.187L108.85 112.153C109.408 113.134 110.222 113.92 111.258 114.428L113.899 109.04ZM114.1 109.248C114.137 109.317 114.066 109.235 114.066 108.85H108.066C108.066 109.921 108.257 111.052 108.817 112.092L114.1 109.248ZM114.066 108.85V104.58H108.066V108.85H114.066ZM111.066 107.58H112.41V101.58H111.066V107.58ZM109.41 104.58V108.696H115.41V104.58H109.41ZM109.41 108.696C109.41 109.848 109.681 111.27 110.752 112.399L115.105 108.269C115.287 108.461 115.369 108.648 115.4 108.747C115.428 108.833 115.41 108.832 115.41 108.696H109.41ZM110.78 112.428C111.832 113.508 113.182 113.88 114.412 113.88V107.88C114.378 107.88 114.457 107.875 114.601 107.928C114.758 107.986 114.93 108.09 115.077 108.24L110.78 112.428ZM114.412 113.88C115.283 113.88 116.198 113.704 117.057 113.239L114.204 107.961C114.283 107.918 114.351 107.896 114.395 107.886C114.437 107.877 114.446 107.88 114.412 107.88V113.88ZM117.111 113.209C117.981 112.715 118.653 111.997 119.098 111.129L113.759 108.391C113.788 108.333 113.838 108.256 113.914 108.177C113.99 108.097 114.073 108.035 114.149 107.991L117.111 113.209ZM119.112 111.102C119.552 110.22 119.708 109.29 119.708 108.416H113.708C113.708 108.5 113.701 108.535 113.701 108.532C113.702 108.53 113.704 108.518 113.711 108.498C113.718 108.478 113.729 108.451 113.745 108.418L119.112 111.102ZM119.708 108.416V104.58H113.708V108.416H119.708ZM116.708 107.58H118.052V101.58H116.708V107.58ZM115.052 104.58V112H121.052V104.58H115.052ZM118.052 109H116.778V115H118.052V109ZM119.778 112V109.998H113.778V112H119.778ZM113.988 111.099L114.198 111.631L119.779 109.429L119.569 108.897L113.988 111.099ZM114.295 109.209C114.302 109.194 114.323 109.159 114.36 109.12C114.397 109.082 114.428 109.062 114.435 109.058L117.358 114.298C118.371 113.733 119.168 112.899 119.682 111.851L114.295 109.209ZM114.435 109.058C114.428 109.062 114.419 109.066 114.401 109.071C114.382 109.075 114.337 109.084 114.258 109.084V115.084C115.328 115.084 116.385 114.84 117.358 114.298L114.435 109.058ZM122.851 111.664L121.357 114.266L121.386 114.282L121.414 114.298L122.851 111.664ZM121.633 110.39L118.986 111.802L118.995 111.819L119.004 111.836L121.633 110.39ZM121.619 106.19L118.972 104.778L118.963 104.796L118.954 104.813L121.619 106.19ZM122.823 104.93L121.386 102.296L121.376 102.302L121.366 102.308L122.823 104.93ZM126.477 104.986L127.956 102.376L127.956 102.376L126.477 104.986ZM127.807 106.316L125.205 107.809L125.21 107.818L125.216 107.828L127.807 106.316ZM127.807 110.278L125.205 108.785V108.785L127.807 110.278ZM126.477 111.608L127.956 114.218L126.477 111.608ZM120.611 114.716H117.611V117.716H120.611V114.716ZM120.611 104.58V101.58H117.611V104.58H120.611ZM121.899 104.58H124.899V101.58H121.899V104.58ZM121.899 106.582L124.895 106.728L124.899 106.655V106.582H121.899ZM121.815 108.304L118.818 108.158L118.809 108.353L118.825 108.547L121.815 108.304ZM121.955 110.026H124.955V109.904L124.945 109.783L121.955 110.026ZM121.955 114.716V117.716H124.955V114.716H121.955ZM125.707 110.586L124.239 107.97L124.225 107.977L124.212 107.985L125.707 110.586ZM126.603 109.676L123.983 108.214L123.977 108.224L123.972 108.235L126.603 109.676ZM126.603 106.918L123.972 108.359L123.992 108.397L124.014 108.434L126.603 106.918ZM125.707 106.008L124.212 108.609L124.225 108.617L124.239 108.624L125.707 106.008ZM123.159 106.008L121.691 103.392L121.677 103.399L121.663 103.407L123.159 106.008ZM122.263 106.918L119.658 105.43L119.652 105.44L119.646 105.45L122.263 106.918ZM122.263 109.676L119.618 111.091L119.637 111.128L119.658 111.164L122.263 109.676ZM123.159 110.586L121.663 113.187L121.677 113.195L121.691 113.202L123.159 110.586ZM124.545 109.084C124.403 109.084 124.336 109.057 124.287 109.03L121.414 114.298C122.392 114.831 123.455 115.084 124.545 115.084V109.084ZM124.345 109.062C124.344 109.062 124.344 109.062 124.337 109.055C124.329 109.047 124.301 109.016 124.262 108.944L119.004 111.836C119.55 112.828 120.329 113.676 121.357 114.266L124.345 109.062ZM124.28 108.978C124.276 108.97 124.185 108.791 124.185 108.29H118.185C118.185 109.469 118.393 110.69 118.986 111.802L124.28 108.978ZM124.185 108.29C124.185 107.776 124.276 107.584 124.284 107.567L118.954 104.813C118.384 105.916 118.185 107.124 118.185 108.29H124.185ZM124.266 107.602C124.283 107.571 124.296 107.551 124.303 107.54C124.311 107.529 124.315 107.526 124.313 107.528C124.311 107.529 124.307 107.534 124.299 107.54C124.292 107.545 124.285 107.55 124.28 107.552L121.366 102.308C120.307 102.896 119.514 103.762 118.972 104.778L124.266 107.602ZM124.259 107.564C124.295 107.544 124.368 107.51 124.545 107.51V101.51C123.452 101.51 122.377 101.756 121.386 102.296L124.259 107.564ZM124.545 107.51C124.824 107.51 124.945 107.566 124.998 107.596L127.956 102.376C126.888 101.771 125.722 101.51 124.545 101.51V107.51ZM124.998 107.596C125.081 107.643 125.14 107.696 125.205 107.809L130.409 104.823C129.82 103.797 128.993 102.964 127.956 102.376L124.998 107.596ZM125.216 107.828C125.233 107.857 125.297 107.976 125.297 108.29H131.297C131.297 107.092 131.034 105.895 130.398 104.804L125.216 107.828ZM125.297 108.29C125.297 108.603 125.233 108.735 125.205 108.785L130.409 111.771C131.034 110.682 131.297 109.489 131.297 108.29H125.297ZM125.205 108.785C125.14 108.898 125.081 108.951 124.998 108.998L127.956 114.218C128.993 113.63 129.82 112.797 130.409 111.771L125.205 108.785ZM124.998 108.998C124.945 109.028 124.824 109.084 124.545 109.084V115.084C125.722 115.084 126.888 114.823 127.956 114.218L124.998 108.998ZM123.611 114.716V104.58H117.611V114.716H123.611ZM120.611 107.58H121.899V101.58H120.611V107.58ZM118.899 104.58V106.582H124.899V104.58H118.899ZM118.902 106.436L118.818 108.158L124.811 108.45L124.895 106.728L118.902 106.436ZM118.825 108.547L118.965 110.269L124.945 109.783L124.805 108.061L118.825 108.547ZM118.955 110.026V114.716H124.955V110.026H118.955ZM121.955 111.716H120.611V117.716H121.955V111.716ZM124.433 113.908C125.377 113.908 126.327 113.69 127.202 113.187L124.212 107.985C124.267 107.953 124.324 107.931 124.373 107.919C124.421 107.907 124.444 107.908 124.433 107.908V113.908ZM127.175 113.202C128.057 112.707 128.755 111.992 129.234 111.117L123.972 108.235C123.991 108.2 124.026 108.148 124.08 108.093C124.135 108.037 124.192 107.996 124.239 107.97L127.175 113.202ZM129.223 111.138C129.729 110.231 129.939 109.253 129.939 108.29H123.939C123.939 108.337 123.934 108.344 123.939 108.322C123.942 108.311 123.947 108.295 123.954 108.276C123.962 108.256 123.972 108.235 123.983 108.214L129.223 111.138ZM129.939 108.29C129.939 107.332 129.734 106.329 129.192 105.402L124.014 108.434C123.971 108.36 123.95 108.297 123.941 108.262C123.933 108.229 123.939 108.234 123.939 108.29H129.939ZM129.234 105.477C128.755 104.602 128.057 103.887 127.175 103.392L124.239 108.624C124.192 108.598 124.135 108.557 124.08 108.501C124.026 108.446 123.991 108.394 123.972 108.359L129.234 105.477ZM127.202 103.407C126.327 102.904 125.377 102.686 124.433 102.686V108.686C124.444 108.686 124.421 108.687 124.373 108.675C124.324 108.663 124.267 108.641 124.212 108.609L127.202 103.407ZM124.433 102.686C123.486 102.686 122.551 102.909 121.691 103.392L124.627 108.624C124.588 108.646 124.544 108.664 124.5 108.675C124.456 108.686 124.431 108.686 124.433 108.686V102.686ZM121.663 103.407C120.805 103.901 120.133 104.598 119.658 105.43L124.868 108.406C124.859 108.422 124.836 108.458 124.793 108.501C124.749 108.546 124.7 108.582 124.654 108.609L121.663 103.407ZM119.646 105.45C119.132 106.367 118.941 107.353 118.941 108.29H124.941C124.941 108.225 124.948 108.21 124.942 108.233C124.936 108.259 124.919 108.315 124.879 108.386L119.646 105.45ZM118.941 108.29C118.941 109.232 119.138 110.194 119.618 111.091L124.908 108.261C124.919 108.281 124.927 108.299 124.933 108.315C124.939 108.331 124.942 108.343 124.944 108.35C124.947 108.362 124.941 108.346 124.941 108.29H118.941ZM119.658 111.164C120.133 111.996 120.805 112.693 121.663 113.187L124.654 107.985C124.7 108.012 124.749 108.048 124.793 108.093C124.836 108.136 124.859 108.172 124.868 108.188L119.658 111.164ZM121.691 113.202C122.551 113.685 123.486 113.908 124.433 113.908V107.908C124.431 107.908 124.456 107.908 124.5 107.919C124.544 107.93 124.588 107.948 124.627 107.97L121.691 113.202ZM134.692 112H131.692V115H134.692V112ZM134.692 110.432H137.692V110.08L137.61 109.737L134.692 110.432ZM134.622 110.138H131.622V110.49L131.703 110.833L134.622 110.138ZM134.118 106.148L132.027 108.3L132.058 108.33L132.09 108.359L134.118 106.148ZM131.346 105.896L132.294 108.742L132.322 108.733L132.351 108.723L131.346 105.896ZM130.282 106.47L127.659 107.927L129.424 111.104L132.209 108.769L130.282 106.47ZM129.722 105.462L127.84 103.125L125.872 104.71L127.099 106.919L129.722 105.462ZM131.094 104.762L131.951 107.637L131.967 107.632L131.983 107.627L131.094 104.762ZM135.966 112V115H138.966V112H135.966ZM130.8 111.804L129.558 114.535L129.57 114.54L129.581 114.545L130.8 111.804ZM129.848 111.034L127.351 112.698L127.362 112.714L127.373 112.731L129.848 111.034ZM129.792 108.808L127.219 107.265L127.203 107.292L127.187 107.32L129.792 108.808ZM130.73 108.024L129.506 105.285L129.495 105.29L129.484 105.295L130.73 108.024ZM134.846 107.73H137.846V104.73H134.846V107.73ZM134.846 108.696V111.696H137.846V108.696H134.846ZM131.192 109.032L129.114 106.868V106.868L131.192 109.032ZM131.276 110.726L129.439 113.098L129.463 113.117L129.488 113.135L131.276 110.726ZM133.796 110.712L132.28 108.123L132.266 108.131L132.252 108.14L133.796 110.712ZM134.622 109.732L137.504 108.902L135.055 100.392L131.828 108.639L134.622 109.732ZM134.888 110.656L137.669 111.78L138.057 110.821L137.77 109.826L134.888 110.656ZM133.95 111.706L135.42 114.321L135.441 114.309L135.461 114.297L133.95 111.706ZM137.692 112V110.432H131.692V112H137.692ZM137.61 109.737L137.54 109.443L131.703 110.833L131.773 111.127L137.61 109.737ZM137.622 110.138V107.464H131.622V110.138H137.622ZM137.622 107.464C137.622 106.278 137.249 104.948 136.145 103.937L132.09 108.359C131.905 108.189 131.771 107.982 131.694 107.781C131.622 107.594 131.622 107.471 131.622 107.464H137.622ZM136.208 103.996C135.111 102.93 133.723 102.672 132.634 102.672V108.672C132.735 108.672 132.703 108.685 132.585 108.648C132.454 108.606 132.24 108.506 132.027 108.3L136.208 103.996ZM132.634 102.672C131.847 102.672 131.078 102.807 130.34 103.069L132.351 108.723C132.453 108.686 132.543 108.672 132.634 108.672V102.672ZM130.397 103.05C129.68 103.289 128.977 103.648 128.354 104.171L132.209 108.769C132.164 108.806 132.171 108.783 132.294 108.742L130.397 103.05ZM132.904 105.013L132.344 104.005L127.099 106.919L127.659 107.927L132.904 105.013ZM131.603 107.799C131.645 107.765 131.743 107.699 131.951 107.637L130.236 101.887C129.38 102.143 128.563 102.543 127.84 103.125L131.603 107.799ZM131.983 107.627C132.225 107.552 132.49 107.51 132.788 107.51V101.51C131.909 101.51 131.044 101.636 130.204 101.897L131.983 107.627ZM132.788 107.51C133.06 107.51 133.196 107.544 133.236 107.557C133.265 107.566 133.211 107.553 133.135 107.484L137.144 103.02C135.866 101.872 134.266 101.51 132.788 101.51V107.51ZM133.135 107.484C133.08 107.435 133.033 107.38 132.998 107.325C132.962 107.272 132.946 107.232 132.94 107.217C132.935 107.202 132.942 107.216 132.949 107.266C132.957 107.317 132.966 107.4 132.966 107.52H138.966C138.966 105.983 138.539 104.273 137.144 103.02L133.135 107.484ZM132.966 107.52V112H138.966V107.52H132.966ZM135.966 109H134.692V115H135.966V109ZM132.256 109.084C132.043 109.084 131.986 109.048 132.018 109.063L129.581 114.545C130.453 114.933 131.367 115.084 132.256 115.084V109.084ZM132.041 109.073C132.043 109.074 132.082 109.092 132.14 109.139C132.2 109.187 132.265 109.254 132.322 109.337L127.373 112.731C127.947 113.568 128.721 114.154 129.558 114.535L132.041 109.073ZM132.344 109.37C132.394 109.446 132.44 109.54 132.472 109.646C132.503 109.751 132.512 109.84 132.512 109.9H126.512C126.512 110.887 126.785 111.849 127.351 112.698L132.344 109.37ZM132.512 109.9C132.512 109.934 132.507 109.994 132.488 110.071C132.467 110.15 132.436 110.227 132.396 110.296L127.187 107.32C126.724 108.13 126.512 109.013 126.512 109.9H132.512ZM132.364 110.351C132.18 110.658 131.965 110.758 131.975 110.753L129.484 105.295C128.635 105.682 127.795 106.305 127.219 107.265L132.364 110.351ZM131.953 110.763C131.892 110.791 131.893 110.779 131.993 110.763C132.091 110.746 132.253 110.73 132.494 110.73V104.73C131.538 104.73 130.48 104.85 129.506 105.285L131.953 110.763ZM132.494 110.73H134.846V104.73H132.494V110.73ZM131.846 107.73V108.696H137.846V107.73H131.846ZM134.846 105.696H132.55V111.696H134.846V105.696ZM132.55 105.696C132.067 105.696 131.526 105.734 130.985 105.868C130.461 105.998 129.741 106.266 129.114 106.868L133.269 111.196C132.876 111.574 132.499 111.674 132.427 111.692C132.339 111.714 132.36 111.696 132.55 111.696V105.696ZM129.114 106.868C128.304 107.645 127.842 108.692 127.842 109.844H133.842C133.842 110.062 133.799 110.323 133.684 110.59C133.569 110.857 133.413 111.058 133.269 111.196L129.114 106.868ZM127.842 109.844C127.842 111.142 128.42 112.309 129.439 113.098L133.112 108.354C133.286 108.488 133.49 108.705 133.642 109.013C133.794 109.322 133.842 109.618 133.842 109.844H127.842ZM129.488 113.135C130.473 113.866 131.587 114.048 132.48 114.048V108.048C132.345 108.048 132.657 108.015 133.063 108.317L129.488 113.135ZM132.48 114.048C133.44 114.048 134.43 113.83 135.339 113.284L132.252 108.14C132.325 108.096 132.393 108.07 132.444 108.057C132.493 108.045 132.509 108.048 132.48 108.048V114.048ZM135.311 113.301C136.3 112.722 137.012 111.856 137.415 110.825L131.828 108.639C131.854 108.572 131.905 108.472 131.995 108.366C132.086 108.258 132.188 108.177 132.28 108.123L135.311 113.301ZM131.739 110.562L132.005 111.486L137.77 109.826L137.504 108.902L131.739 110.562ZM132.106 109.532C132.146 109.433 132.207 109.334 132.283 109.249C132.357 109.166 132.419 109.126 132.438 109.115L135.461 114.297C136.425 113.735 137.218 112.895 137.669 111.78L132.106 109.532ZM132.479 109.091C132.54 109.057 132.568 109.055 132.537 109.062C132.503 109.069 132.414 109.084 132.256 109.084V115.084C133.29 115.084 134.4 114.894 135.42 114.321L132.479 109.091ZM139.265 111.482L137.168 113.628L139.265 111.482ZM138.649 102.956V99.956H135.649V102.956H138.649ZM139.993 102.956H142.993V99.956H139.993V102.956ZM140.287 110.628L138.071 112.651L138.095 112.677L138.119 112.702L140.287 110.628ZM142.205 110.6L144.956 109.404L143.36 105.732L140.284 108.295L142.205 110.6ZM142.625 111.566L144.586 113.836L146.256 112.394L145.376 110.37L142.625 111.566ZM141.883 111.958L141.046 109.077L141.033 109.081L141.021 109.085L141.883 111.958ZM137.389 105.686H134.389V108.686H137.389V105.686ZM137.389 104.58V101.58H134.389V104.58H137.389ZM142.121 104.58H145.121V101.58H142.121V104.58ZM142.121 105.686V108.686H145.121V105.686H142.121ZM141.001 109.084C140.891 109.084 140.902 109.069 140.99 109.099C141.089 109.134 141.23 109.208 141.362 109.336L137.168 113.628C138.292 114.727 139.715 115.084 141.001 115.084V109.084ZM141.362 109.336C141.502 109.473 141.586 109.625 141.627 109.74C141.664 109.841 141.649 109.864 141.649 109.76H135.649C135.649 111.061 136.02 112.506 137.168 113.628L141.362 109.336ZM141.649 109.76V102.956H135.649V109.76H141.649ZM138.649 105.956H139.993V99.956H138.649V105.956ZM136.993 102.956V109.704H142.993V102.956H136.993ZM136.993 109.704C136.993 110.567 137.206 111.703 138.071 112.651L142.502 108.605C142.976 109.124 142.993 109.644 142.993 109.704H136.993ZM138.119 112.702C139.028 113.652 140.186 113.95 141.155 113.95V107.95C141.252 107.95 141.45 107.964 141.701 108.057C141.965 108.155 142.231 108.32 142.455 108.554L138.119 112.702ZM141.155 113.95C142.164 113.95 143.225 113.655 144.125 112.905L140.284 108.295C140.435 108.17 140.608 108.075 140.784 108.016C140.953 107.96 141.086 107.95 141.155 107.95V113.95ZM139.453 111.796L139.874 112.762L145.376 110.37L144.956 109.404L139.453 111.796ZM140.664 109.296C140.82 109.161 140.967 109.1 141.046 109.077L142.719 114.839C143.377 114.648 144.019 114.326 144.586 113.836L140.664 109.296ZM141.021 109.085C141.026 109.083 141.029 109.082 141.028 109.083C141.027 109.083 141.018 109.084 141.001 109.084V115.084C141.585 115.084 142.17 115.004 142.745 114.831L141.021 109.085ZM140.389 105.686V104.58H134.389V105.686H140.389ZM137.389 107.58H142.121V101.58H137.389V107.58ZM139.121 104.58V105.686H145.121V104.58H139.121ZM142.121 102.686H137.389V108.686H142.121V102.686Z" fill="white" mask="url(#path-2-outside-1_1_11354)"/>
<path d="M70.4142 57.5L91.5 36.4142L112.586 57.5L91.5 78.5858L70.4142 57.5Z" fill="#6895D2" stroke="#496FA2" stroke-width="2"/>
<defs>
<filter id="filter0_d_1_11354" x="0" y="0" width="183" height="148" filterUnits="userSpaceOnUse" color-interpolation-filters="sRGB">
<feFlood flood-opacity="0" result="BackgroundImageFix"/>
<feColorMatrix in="SourceAlpha" type="matrix" values="0 0 0 0 0 0 0 0 0 0 0 0 0 0 0 0 0 0 127 0" result="hardAlpha"/>
<feOffset dy="4"/>
<feGaussianBlur stdDeviation="8"/>
<feComposite in2="hardAlpha" operator="out"/>
<feColorMatrix type="matrix" values="0 0 0 0 0 0 0 0 0 0 0 0 0 0 0 0 0 0 0.25 0"/>
<feBlend mode="normal" in2="BackgroundImageFix" result="effect1_dropShadow_1_11354"/>
<feBlend mode="normal" in="SourceGraphic" in2="effect1_dropShadow_1_11354" result="shape"/>
</filter>
</defs>
</svg>
