<svg width="183" height="148" viewBox="0 0 183 148" fill="none" xmlns="http://www.w3.org/2000/svg">
<g filter="url(#filter0_d_1_11366)">
<rect x="16" y="12" width="151" height="116" rx="16" fill="#FFFADD"/>
</g>
<mask id="path-2-outside-1_1_11366" maskUnits="userSpaceOnUse" x="34" y="98" width="116" height="20" fill="black">
<rect fill="white" x="34" y="98" width="116" height="20"/>
<path d="M37.5384 112V102.2H38.9384V110.782H44.2444V112H37.5384ZM50.2609 112V110.432L50.1909 110.138V107.464C50.1909 106.895 50.0229 106.456 49.6869 106.148C49.3602 105.831 48.8655 105.672 48.2029 105.672C47.7642 105.672 47.3349 105.747 46.9149 105.896C46.4949 106.036 46.1402 106.227 45.8509 106.47L45.2909 105.462C45.6735 105.154 46.1309 104.921 46.6629 104.762C47.2042 104.594 47.7689 104.51 48.3569 104.51C49.3742 104.51 50.1582 104.757 50.7089 105.252C51.2595 105.747 51.5349 106.503 51.5349 107.52V112H50.2609ZM47.8249 112.084C47.2742 112.084 46.7889 111.991 46.3689 111.804C45.9582 111.617 45.6409 111.361 45.4169 111.034C45.1929 110.698 45.0809 110.32 45.0809 109.9C45.0809 109.499 45.1742 109.135 45.3609 108.808C45.5569 108.481 45.8695 108.22 46.2989 108.024C46.7375 107.828 47.3255 107.73 48.0629 107.73H50.4149V108.696H48.1189C47.4469 108.696 46.9942 108.808 46.7609 109.032C46.5275 109.256 46.4109 109.527 46.4109 109.844C46.4109 110.208 46.5555 110.502 46.8449 110.726C47.1342 110.941 47.5355 111.048 48.0489 111.048C48.5529 111.048 48.9915 110.936 49.3649 110.712C49.7475 110.488 50.0229 110.161 50.1909 109.732L50.4569 110.656C50.2795 111.095 49.9669 111.445 49.5189 111.706C49.0709 111.958 48.5062 112.084 47.8249 112.084ZM54.2073 114.8C53.8527 114.8 53.5073 114.739 53.1713 114.618C52.8353 114.506 52.546 114.338 52.3033 114.114L52.8773 113.106C53.064 113.283 53.2693 113.419 53.4933 113.512C53.7173 113.605 53.9553 113.652 54.2073 113.652C54.534 113.652 54.8047 113.568 55.0193 113.4C55.234 113.232 55.4347 112.933 55.6213 112.504L56.0833 111.482L56.2233 111.314L59.1353 104.58H60.4513L56.8533 112.742C56.6387 113.265 56.396 113.675 56.1253 113.974C55.864 114.273 55.5747 114.483 55.2573 114.604C54.94 114.735 54.59 114.8 54.2073 114.8ZM55.9713 112.238L52.5833 104.58H53.9833L56.8673 111.188L55.9713 112.238ZM66.0792 112V110.432L66.0092 110.138V107.464C66.0092 106.895 65.8412 106.456 65.5052 106.148C65.1786 105.831 64.6839 105.672 64.0212 105.672C63.5826 105.672 63.1532 105.747 62.7332 105.896C62.3132 106.036 61.9586 106.227 61.6692 106.47L61.1092 105.462C61.4919 105.154 61.9492 104.921 62.4812 104.762C63.0226 104.594 63.5872 104.51 64.1752 104.51C65.1926 104.51 65.9766 104.757 66.5272 105.252C67.0779 105.747 67.3532 106.503 67.3532 107.52V112H66.0792ZM63.6432 112.084C63.0926 112.084 62.6072 111.991 62.1872 111.804C61.7766 111.617 61.4592 111.361 61.2352 111.034C61.0112 110.698 60.8992 110.32 60.8992 109.9C60.8992 109.499 60.9926 109.135 61.1792 108.808C61.3752 108.481 61.6879 108.22 62.1172 108.024C62.5559 107.828 63.1439 107.73 63.8812 107.73H66.2332V108.696H63.9372C63.2652 108.696 62.8126 108.808 62.5792 109.032C62.3459 109.256 62.2292 109.527 62.2292 109.844C62.2292 110.208 62.3739 110.502 62.6632 110.726C62.9526 110.941 63.3539 111.048 63.8672 111.048C64.3712 111.048 64.8099 110.936 65.1832 110.712C65.5659 110.488 65.8412 110.161 66.0092 109.732L66.2752 110.656C66.0979 111.095 65.7852 111.445 65.3372 111.706C64.8892 111.958 64.3246 112.084 63.6432 112.084ZM73.8024 104.51C74.4091 104.51 74.9411 104.627 75.3984 104.86C75.8651 105.093 76.2291 105.448 76.4904 105.924C76.7517 106.4 76.8824 107.002 76.8824 107.73V112H75.5384V107.884C75.5384 107.165 75.3611 106.624 75.0064 106.26C74.6611 105.896 74.1711 105.714 73.5364 105.714C73.0604 105.714 72.6451 105.807 72.2904 105.994C71.9357 106.181 71.6604 106.456 71.4644 106.82C71.2777 107.184 71.1844 107.637 71.1844 108.178V112H69.8404V104.58H71.1284V106.582L70.9184 106.05C71.1611 105.565 71.5344 105.187 72.0384 104.916C72.5424 104.645 73.1304 104.51 73.8024 104.51ZM82.6177 114.8C81.9364 114.8 81.2737 114.702 80.6297 114.506C79.995 114.319 79.477 114.049 79.0757 113.694L79.7197 112.658C80.065 112.957 80.4897 113.19 80.9937 113.358C81.4977 113.535 82.025 113.624 82.5757 113.624C83.453 113.624 84.097 113.419 84.5077 113.008C84.9184 112.597 85.1237 111.972 85.1237 111.132V109.564L85.2637 108.094L85.1937 106.61V104.58H86.4677V110.992C86.4677 112.299 86.141 113.26 85.4877 113.876C84.8344 114.492 83.8777 114.8 82.6177 114.8ZM82.4497 111.692C81.731 111.692 81.087 111.543 80.5177 111.244C79.9577 110.936 79.5097 110.511 79.1737 109.97C78.847 109.429 78.6837 108.803 78.6837 108.094C78.6837 107.375 78.847 106.75 79.1737 106.218C79.5097 105.677 79.9577 105.257 80.5177 104.958C81.087 104.659 81.731 104.51 82.4497 104.51C83.0844 104.51 83.663 104.641 84.1857 104.902C84.7084 105.154 85.1237 105.546 85.4317 106.078C85.749 106.61 85.9077 107.282 85.9077 108.094C85.9077 108.897 85.749 109.564 85.4317 110.096C85.1237 110.628 84.7084 111.029 84.1857 111.3C83.663 111.561 83.0844 111.692 82.4497 111.692ZM82.6037 110.516C83.0984 110.516 83.537 110.413 83.9197 110.208C84.3024 110.003 84.601 109.718 84.8157 109.354C85.0397 108.99 85.1517 108.57 85.1517 108.094C85.1517 107.618 85.0397 107.198 84.8157 106.834C84.601 106.47 84.3024 106.19 83.9197 105.994C83.537 105.789 83.0984 105.686 82.6037 105.686C82.109 105.686 81.6657 105.789 81.2737 105.994C80.891 106.19 80.5877 106.47 80.3637 106.834C80.149 107.198 80.0417 107.618 80.0417 108.094C80.0417 108.57 80.149 108.99 80.3637 109.354C80.5877 109.718 80.891 110.003 81.2737 110.208C81.6657 110.413 82.109 110.516 82.6037 110.516ZM92.3195 108.738V107.576H96.0855V108.738H92.3195ZM101.915 112V101.612H103.259V112H101.915ZM110.431 112V110.432L110.361 110.138V107.464C110.361 106.895 110.193 106.456 109.857 106.148C109.53 105.831 109.035 105.672 108.373 105.672C107.934 105.672 107.505 105.747 107.085 105.896C106.665 106.036 106.31 106.227 106.021 106.47L105.461 105.462C105.843 105.154 106.301 104.921 106.833 104.762C107.374 104.594 107.939 104.51 108.527 104.51C109.544 104.51 110.328 104.757 110.879 105.252C111.429 105.747 111.705 106.503 111.705 107.52V112H110.431ZM107.995 112.084C107.444 112.084 106.959 111.991 106.539 111.804C106.128 111.617 105.811 111.361 105.587 111.034C105.363 110.698 105.251 110.32 105.251 109.9C105.251 109.499 105.344 109.135 105.531 108.808C105.727 108.481 106.039 108.22 106.469 108.024C106.907 107.828 107.495 107.73 108.233 107.73H110.585V108.696H108.289C107.617 108.696 107.164 108.808 106.931 109.032C106.697 109.256 106.581 109.527 106.581 109.844C106.581 110.208 106.725 110.502 107.015 110.726C107.304 110.941 107.705 111.048 108.219 111.048C108.723 111.048 109.161 110.936 109.535 110.712C109.917 110.488 110.193 110.161 110.361 109.732L110.627 110.656C110.449 111.095 110.137 111.445 109.689 111.706C109.241 111.958 108.676 112.084 107.995 112.084ZM114.377 114.8C114.023 114.8 113.677 114.739 113.341 114.618C113.005 114.506 112.716 114.338 112.473 114.114L113.047 113.106C113.234 113.283 113.439 113.419 113.663 113.512C113.887 113.605 114.125 113.652 114.377 113.652C114.704 113.652 114.975 113.568 115.189 113.4C115.404 113.232 115.605 112.933 115.791 112.504L116.253 111.482L116.393 111.314L119.305 104.58H120.621L117.023 112.742C116.809 113.265 116.566 113.675 116.295 113.974C116.034 114.273 115.745 114.483 115.427 114.604C115.11 114.735 114.76 114.8 114.377 114.8ZM116.141 112.238L112.753 104.58H114.153L117.037 111.188L116.141 112.238ZM126.249 112V110.432L126.179 110.138V107.464C126.179 106.895 126.011 106.456 125.675 106.148C125.348 105.831 124.854 105.672 124.191 105.672C123.752 105.672 123.323 105.747 122.903 105.896C122.483 106.036 122.128 106.227 121.839 106.47L121.279 105.462C121.662 105.154 122.119 104.921 122.651 104.762C123.192 104.594 123.757 104.51 124.345 104.51C125.362 104.51 126.146 104.757 126.697 105.252C127.248 105.747 127.523 106.503 127.523 107.52V112H126.249ZM123.813 112.084C123.262 112.084 122.777 111.991 122.357 111.804C121.946 111.617 121.629 111.361 121.405 111.034C121.181 110.698 121.069 110.32 121.069 109.9C121.069 109.499 121.162 109.135 121.349 108.808C121.545 108.481 121.858 108.22 122.287 108.024C122.726 107.828 123.314 107.73 124.051 107.73H126.403V108.696H124.107C123.435 108.696 122.982 108.808 122.749 109.032C122.516 109.256 122.399 109.527 122.399 109.844C122.399 110.208 122.544 110.502 122.833 110.726C123.122 110.941 123.524 111.048 124.037 111.048C124.541 111.048 124.98 110.936 125.353 110.712C125.736 110.488 126.011 110.161 126.179 109.732L126.445 110.656C126.268 111.095 125.955 111.445 125.507 111.706C125.059 111.958 124.494 112.084 123.813 112.084ZM133.972 104.51C134.579 104.51 135.111 104.627 135.568 104.86C136.035 105.093 136.399 105.448 136.66 105.924C136.922 106.4 137.052 107.002 137.052 107.73V112H135.708V107.884C135.708 107.165 135.531 106.624 135.176 106.26C134.831 105.896 134.341 105.714 133.706 105.714C133.23 105.714 132.815 105.807 132.46 105.994C132.106 106.181 131.83 106.456 131.634 106.82C131.448 107.184 131.354 107.637 131.354 108.178V112H130.01V104.58H131.298V106.582L131.088 106.05C131.331 105.565 131.704 105.187 132.208 104.916C132.712 104.645 133.3 104.51 133.972 104.51ZM142.788 114.8C142.106 114.8 141.444 114.702 140.8 114.506C140.165 114.319 139.647 114.049 139.246 113.694L139.89 112.658C140.235 112.957 140.66 113.19 141.164 113.358C141.668 113.535 142.195 113.624 142.746 113.624C143.623 113.624 144.267 113.419 144.678 113.008C145.088 112.597 145.294 111.972 145.294 111.132V109.564L145.434 108.094L145.364 106.61V104.58H146.638V110.992C146.638 112.299 146.311 113.26 145.658 113.876C145.004 114.492 144.048 114.8 142.788 114.8ZM142.62 111.692C141.901 111.692 141.257 111.543 140.688 111.244C140.128 110.936 139.68 110.511 139.344 109.97C139.017 109.429 138.854 108.803 138.854 108.094C138.854 107.375 139.017 106.75 139.344 106.218C139.68 105.677 140.128 105.257 140.688 104.958C141.257 104.659 141.901 104.51 142.62 104.51C143.254 104.51 143.833 104.641 144.356 104.902C144.878 105.154 145.294 105.546 145.602 106.078C145.919 106.61 146.078 107.282 146.078 108.094C146.078 108.897 145.919 109.564 145.602 110.096C145.294 110.628 144.878 111.029 144.356 111.3C143.833 111.561 143.254 111.692 142.62 111.692ZM142.774 110.516C143.268 110.516 143.707 110.413 144.09 110.208C144.472 110.003 144.771 109.718 144.986 109.354C145.21 108.99 145.322 108.57 145.322 108.094C145.322 107.618 145.21 107.198 144.986 106.834C144.771 106.47 144.472 106.19 144.09 105.994C143.707 105.789 143.268 105.686 142.774 105.686C142.279 105.686 141.836 105.789 141.444 105.994C141.061 106.19 140.758 106.47 140.534 106.834C140.319 107.198 140.212 107.618 140.212 108.094C140.212 108.57 140.319 108.99 140.534 109.354C140.758 109.718 141.061 110.003 141.444 110.208C141.836 110.413 142.279 110.516 142.774 110.516Z"/>
</mask>
<path d="M37.5384 112V102.2H38.9384V110.782H44.2444V112H37.5384ZM50.2609 112V110.432L50.1909 110.138V107.464C50.1909 106.895 50.0229 106.456 49.6869 106.148C49.3602 105.831 48.8655 105.672 48.2029 105.672C47.7642 105.672 47.3349 105.747 46.9149 105.896C46.4949 106.036 46.1402 106.227 45.8509 106.47L45.2909 105.462C45.6735 105.154 46.1309 104.921 46.6629 104.762C47.2042 104.594 47.7689 104.51 48.3569 104.51C49.3742 104.51 50.1582 104.757 50.7089 105.252C51.2595 105.747 51.5349 106.503 51.5349 107.52V112H50.2609ZM47.8249 112.084C47.2742 112.084 46.7889 111.991 46.3689 111.804C45.9582 111.617 45.6409 111.361 45.4169 111.034C45.1929 110.698 45.0809 110.32 45.0809 109.9C45.0809 109.499 45.1742 109.135 45.3609 108.808C45.5569 108.481 45.8695 108.22 46.2989 108.024C46.7375 107.828 47.3255 107.73 48.0629 107.73H50.4149V108.696H48.1189C47.4469 108.696 46.9942 108.808 46.7609 109.032C46.5275 109.256 46.4109 109.527 46.4109 109.844C46.4109 110.208 46.5555 110.502 46.8449 110.726C47.1342 110.941 47.5355 111.048 48.0489 111.048C48.5529 111.048 48.9915 110.936 49.3649 110.712C49.7475 110.488 50.0229 110.161 50.1909 109.732L50.4569 110.656C50.2795 111.095 49.9669 111.445 49.5189 111.706C49.0709 111.958 48.5062 112.084 47.8249 112.084ZM54.2073 114.8C53.8527 114.8 53.5073 114.739 53.1713 114.618C52.8353 114.506 52.546 114.338 52.3033 114.114L52.8773 113.106C53.064 113.283 53.2693 113.419 53.4933 113.512C53.7173 113.605 53.9553 113.652 54.2073 113.652C54.534 113.652 54.8047 113.568 55.0193 113.4C55.234 113.232 55.4347 112.933 55.6213 112.504L56.0833 111.482L56.2233 111.314L59.1353 104.58H60.4513L56.8533 112.742C56.6387 113.265 56.396 113.675 56.1253 113.974C55.864 114.273 55.5747 114.483 55.2573 114.604C54.94 114.735 54.59 114.8 54.2073 114.8ZM55.9713 112.238L52.5833 104.58H53.9833L56.8673 111.188L55.9713 112.238ZM66.0792 112V110.432L66.0092 110.138V107.464C66.0092 106.895 65.8412 106.456 65.5052 106.148C65.1786 105.831 64.6839 105.672 64.0212 105.672C63.5826 105.672 63.1532 105.747 62.7332 105.896C62.3132 106.036 61.9586 106.227 61.6692 106.47L61.1092 105.462C61.4919 105.154 61.9492 104.921 62.4812 104.762C63.0226 104.594 63.5872 104.51 64.1752 104.51C65.1926 104.51 65.9766 104.757 66.5272 105.252C67.0779 105.747 67.3532 106.503 67.3532 107.52V112H66.0792ZM63.6432 112.084C63.0926 112.084 62.6072 111.991 62.1872 111.804C61.7766 111.617 61.4592 111.361 61.2352 111.034C61.0112 110.698 60.8992 110.32 60.8992 109.9C60.8992 109.499 60.9926 109.135 61.1792 108.808C61.3752 108.481 61.6879 108.22 62.1172 108.024C62.5559 107.828 63.1439 107.73 63.8812 107.73H66.2332V108.696H63.9372C63.2652 108.696 62.8126 108.808 62.5792 109.032C62.3459 109.256 62.2292 109.527 62.2292 109.844C62.2292 110.208 62.3739 110.502 62.6632 110.726C62.9526 110.941 63.3539 111.048 63.8672 111.048C64.3712 111.048 64.8099 110.936 65.1832 110.712C65.5659 110.488 65.8412 110.161 66.0092 109.732L66.2752 110.656C66.0979 111.095 65.7852 111.445 65.3372 111.706C64.8892 111.958 64.3246 112.084 63.6432 112.084ZM73.8024 104.51C74.4091 104.51 74.9411 104.627 75.3984 104.86C75.8651 105.093 76.2291 105.448 76.4904 105.924C76.7517 106.4 76.8824 107.002 76.8824 107.73V112H75.5384V107.884C75.5384 107.165 75.3611 106.624 75.0064 106.26C74.6611 105.896 74.1711 105.714 73.5364 105.714C73.0604 105.714 72.6451 105.807 72.2904 105.994C71.9357 106.181 71.6604 106.456 71.4644 106.82C71.2777 107.184 71.1844 107.637 71.1844 108.178V112H69.8404V104.58H71.1284V106.582L70.9184 106.05C71.1611 105.565 71.5344 105.187 72.0384 104.916C72.5424 104.645 73.1304 104.51 73.8024 104.51ZM82.6177 114.8C81.9364 114.8 81.2737 114.702 80.6297 114.506C79.995 114.319 79.477 114.049 79.0757 113.694L79.7197 112.658C80.065 112.957 80.4897 113.19 80.9937 113.358C81.4977 113.535 82.025 113.624 82.5757 113.624C83.453 113.624 84.097 113.419 84.5077 113.008C84.9184 112.597 85.1237 111.972 85.1237 111.132V109.564L85.2637 108.094L85.1937 106.61V104.58H86.4677V110.992C86.4677 112.299 86.141 113.26 85.4877 113.876C84.8344 114.492 83.8777 114.8 82.6177 114.8ZM82.4497 111.692C81.731 111.692 81.087 111.543 80.5177 111.244C79.9577 110.936 79.5097 110.511 79.1737 109.97C78.847 109.429 78.6837 108.803 78.6837 108.094C78.6837 107.375 78.847 106.75 79.1737 106.218C79.5097 105.677 79.9577 105.257 80.5177 104.958C81.087 104.659 81.731 104.51 82.4497 104.51C83.0844 104.51 83.663 104.641 84.1857 104.902C84.7084 105.154 85.1237 105.546 85.4317 106.078C85.749 106.61 85.9077 107.282 85.9077 108.094C85.9077 108.897 85.749 109.564 85.4317 110.096C85.1237 110.628 84.7084 111.029 84.1857 111.3C83.663 111.561 83.0844 111.692 82.4497 111.692ZM82.6037 110.516C83.0984 110.516 83.537 110.413 83.9197 110.208C84.3024 110.003 84.601 109.718 84.8157 109.354C85.0397 108.99 85.1517 108.57 85.1517 108.094C85.1517 107.618 85.0397 107.198 84.8157 106.834C84.601 106.47 84.3024 106.19 83.9197 105.994C83.537 105.789 83.0984 105.686 82.6037 105.686C82.109 105.686 81.6657 105.789 81.2737 105.994C80.891 106.19 80.5877 106.47 80.3637 106.834C80.149 107.198 80.0417 107.618 80.0417 108.094C80.0417 108.57 80.149 108.99 80.3637 109.354C80.5877 109.718 80.891 110.003 81.2737 110.208C81.6657 110.413 82.109 110.516 82.6037 110.516ZM92.3195 108.738V107.576H96.0855V108.738H92.3195ZM101.915 112V101.612H103.259V112H101.915ZM110.431 112V110.432L110.361 110.138V107.464C110.361 106.895 110.193 106.456 109.857 106.148C109.53 105.831 109.035 105.672 108.373 105.672C107.934 105.672 107.505 105.747 107.085 105.896C106.665 106.036 106.31 106.227 106.021 106.47L105.461 105.462C105.843 105.154 106.301 104.921 106.833 104.762C107.374 104.594 107.939 104.51 108.527 104.51C109.544 104.51 110.328 104.757 110.879 105.252C111.429 105.747 111.705 106.503 111.705 107.52V112H110.431ZM107.995 112.084C107.444 112.084 106.959 111.991 106.539 111.804C106.128 111.617 105.811 111.361 105.587 111.034C105.363 110.698 105.251 110.32 105.251 109.9C105.251 109.499 105.344 109.135 105.531 108.808C105.727 108.481 106.039 108.22 106.469 108.024C106.907 107.828 107.495 107.73 108.233 107.73H110.585V108.696H108.289C107.617 108.696 107.164 108.808 106.931 109.032C106.697 109.256 106.581 109.527 106.581 109.844C106.581 110.208 106.725 110.502 107.015 110.726C107.304 110.941 107.705 111.048 108.219 111.048C108.723 111.048 109.161 110.936 109.535 110.712C109.917 110.488 110.193 110.161 110.361 109.732L110.627 110.656C110.449 111.095 110.137 111.445 109.689 111.706C109.241 111.958 108.676 112.084 107.995 112.084ZM114.377 114.8C114.023 114.8 113.677 114.739 113.341 114.618C113.005 114.506 112.716 114.338 112.473 114.114L113.047 113.106C113.234 113.283 113.439 113.419 113.663 113.512C113.887 113.605 114.125 113.652 114.377 113.652C114.704 113.652 114.975 113.568 115.189 113.4C115.404 113.232 115.605 112.933 115.791 112.504L116.253 111.482L116.393 111.314L119.305 104.58H120.621L117.023 112.742C116.809 113.265 116.566 113.675 116.295 113.974C116.034 114.273 115.745 114.483 115.427 114.604C115.11 114.735 114.76 114.8 114.377 114.8ZM116.141 112.238L112.753 104.58H114.153L117.037 111.188L116.141 112.238ZM126.249 112V110.432L126.179 110.138V107.464C126.179 106.895 126.011 106.456 125.675 106.148C125.348 105.831 124.854 105.672 124.191 105.672C123.752 105.672 123.323 105.747 122.903 105.896C122.483 106.036 122.128 106.227 121.839 106.47L121.279 105.462C121.662 105.154 122.119 104.921 122.651 104.762C123.192 104.594 123.757 104.51 124.345 104.51C125.362 104.51 126.146 104.757 126.697 105.252C127.248 105.747 127.523 106.503 127.523 107.52V112H126.249ZM123.813 112.084C123.262 112.084 122.777 111.991 122.357 111.804C121.946 111.617 121.629 111.361 121.405 111.034C121.181 110.698 121.069 110.32 121.069 109.9C121.069 109.499 121.162 109.135 121.349 108.808C121.545 108.481 121.858 108.22 122.287 108.024C122.726 107.828 123.314 107.73 124.051 107.73H126.403V108.696H124.107C123.435 108.696 122.982 108.808 122.749 109.032C122.516 109.256 122.399 109.527 122.399 109.844C122.399 110.208 122.544 110.502 122.833 110.726C123.122 110.941 123.524 111.048 124.037 111.048C124.541 111.048 124.98 110.936 125.353 110.712C125.736 110.488 126.011 110.161 126.179 109.732L126.445 110.656C126.268 111.095 125.955 111.445 125.507 111.706C125.059 111.958 124.494 112.084 123.813 112.084ZM133.972 104.51C134.579 104.51 135.111 104.627 135.568 104.86C136.035 105.093 136.399 105.448 136.66 105.924C136.922 106.4 137.052 107.002 137.052 107.73V112H135.708V107.884C135.708 107.165 135.531 106.624 135.176 106.26C134.831 105.896 134.341 105.714 133.706 105.714C133.23 105.714 132.815 105.807 132.46 105.994C132.106 106.181 131.83 106.456 131.634 106.82C131.448 107.184 131.354 107.637 131.354 108.178V112H130.01V104.58H131.298V106.582L131.088 106.05C131.331 105.565 131.704 105.187 132.208 104.916C132.712 104.645 133.3 104.51 133.972 104.51ZM142.788 114.8C142.106 114.8 141.444 114.702 140.8 114.506C140.165 114.319 139.647 114.049 139.246 113.694L139.89 112.658C140.235 112.957 140.66 113.19 141.164 113.358C141.668 113.535 142.195 113.624 142.746 113.624C143.623 113.624 144.267 113.419 144.678 113.008C145.088 112.597 145.294 111.972 145.294 111.132V109.564L145.434 108.094L145.364 106.61V104.58H146.638V110.992C146.638 112.299 146.311 113.26 145.658 113.876C145.004 114.492 144.048 114.8 142.788 114.8ZM142.62 111.692C141.901 111.692 141.257 111.543 140.688 111.244C140.128 110.936 139.68 110.511 139.344 109.97C139.017 109.429 138.854 108.803 138.854 108.094C138.854 107.375 139.017 106.75 139.344 106.218C139.68 105.677 140.128 105.257 140.688 104.958C141.257 104.659 141.901 104.51 142.62 104.51C143.254 104.51 143.833 104.641 144.356 104.902C144.878 105.154 145.294 105.546 145.602 106.078C145.919 106.61 146.078 107.282 146.078 108.094C146.078 108.897 145.919 109.564 145.602 110.096C145.294 110.628 144.878 111.029 144.356 111.3C143.833 111.561 143.254 111.692 142.62 111.692ZM142.774 110.516C143.268 110.516 143.707 110.413 144.09 110.208C144.472 110.003 144.771 109.718 144.986 109.354C145.21 108.99 145.322 108.57 145.322 108.094C145.322 107.618 145.21 107.198 144.986 106.834C144.771 106.47 144.472 106.19 144.09 105.994C143.707 105.789 143.268 105.686 142.774 105.686C142.279 105.686 141.836 105.789 141.444 105.994C141.061 106.19 140.758 106.47 140.534 106.834C140.319 107.198 140.212 107.618 140.212 108.094C140.212 108.57 140.319 108.99 140.534 109.354C140.758 109.718 141.061 110.003 141.444 110.208C141.836 110.413 142.279 110.516 142.774 110.516Z" fill="#BAA736"/>
<path d="M37.5384 112H34.5384V115H37.5384V112ZM37.5384 102.2V99.2H34.5384V102.2H37.5384ZM38.9384 102.2H41.9384V99.2H38.9384V102.2ZM38.9384 110.782H35.9384V113.782H38.9384V110.782ZM44.2444 110.782H47.2444V107.782H44.2444V110.782ZM44.2444 112V115H47.2444V112H44.2444ZM40.5384 112V102.2H34.5384V112H40.5384ZM37.5384 105.2H38.9384V99.2H37.5384V105.2ZM35.9384 102.2V110.782H41.9384V102.2H35.9384ZM38.9384 113.782H44.2444V107.782H38.9384V113.782ZM41.2444 110.782V112H47.2444V110.782H41.2444ZM44.2444 109H37.5384V115H44.2444V109ZM50.2609 112H47.2609V115H50.2609V112ZM50.2609 110.432H53.2609V110.08L53.1793 109.737L50.2609 110.432ZM50.1909 110.138H47.1909V110.49L47.2724 110.833L50.1909 110.138ZM49.6869 106.148L47.5965 108.3L47.6277 108.33L47.6597 108.359L49.6869 106.148ZM46.9149 105.896L47.8635 108.742L47.8918 108.733L47.9199 108.723L46.9149 105.896ZM45.8509 106.47L43.2284 107.927L44.9937 111.104L47.7787 108.769L45.8509 106.47ZM45.2909 105.462L43.4098 103.125L41.441 104.71L42.6684 106.919L45.2909 105.462ZM46.6629 104.762L47.5203 107.637L47.5362 107.632L47.5521 107.627L46.6629 104.762ZM51.5349 112V115H54.5349V112H51.5349ZM46.3689 111.804L45.1275 114.535L45.1389 114.54L45.1504 114.545L46.3689 111.804ZM45.4169 111.034L42.9207 112.698L42.9316 112.714L42.9427 112.731L45.4169 111.034ZM45.3609 108.808L42.7884 107.265L42.772 107.292L42.7561 107.32L45.3609 108.808ZM46.2989 108.024L45.075 105.285L45.064 105.29L45.053 105.295L46.2989 108.024ZM50.4149 107.73H53.4149V104.73H50.4149V107.73ZM50.4149 108.696V111.696H53.4149V108.696H50.4149ZM46.7609 109.032L44.6833 106.868V106.868L46.7609 109.032ZM46.8449 110.726L45.0083 113.098L45.0326 113.117L45.0573 113.135L46.8449 110.726ZM49.3649 110.712L47.8493 108.123L47.8353 108.131L47.8214 108.14L49.3649 110.712ZM50.1909 109.732L53.0738 108.902L50.624 100.392L47.3971 108.639L50.1909 109.732ZM50.4569 110.656L53.2382 111.78L53.6261 110.821L53.3398 109.826L50.4569 110.656ZM49.5189 111.706L50.9896 114.321L51.0101 114.309L51.0305 114.297L49.5189 111.706ZM53.2609 112V110.432H47.2609V112H53.2609ZM53.1793 109.737L53.1093 109.443L47.2724 110.833L47.3424 111.127L53.1793 109.737ZM53.1909 110.138V107.464H47.1909V110.138H53.1909ZM53.1909 107.464C53.1909 106.278 52.818 104.948 51.714 103.937L47.6597 108.359C47.4741 108.189 47.3404 107.982 47.2633 107.781C47.1916 107.594 47.1909 107.471 47.1909 107.464H53.1909ZM51.7772 103.996C50.6799 102.93 49.2924 102.672 48.2029 102.672V108.672C48.3045 108.672 48.272 108.685 48.1546 108.648C48.0237 108.606 47.8089 108.506 47.5965 108.3L51.7772 103.996ZM48.2029 102.672C47.4162 102.672 46.6472 102.807 45.9098 103.069L47.9199 108.723C48.0225 108.686 48.1122 108.672 48.2029 108.672V102.672ZM45.9662 103.05C45.2489 103.289 44.5467 103.648 43.923 104.171L47.7787 108.769C47.7337 108.806 47.7408 108.783 47.8635 108.742L45.9662 103.05ZM48.4733 105.013L47.9133 104.005L42.6684 106.919L43.2284 107.927L48.4733 105.013ZM47.1719 107.799C47.2145 107.765 47.3128 107.699 47.5203 107.637L45.8054 101.887C44.9489 102.143 44.1325 102.543 43.4098 103.125L47.1719 107.799ZM47.5521 107.627C47.7948 107.552 48.059 107.51 48.3569 107.51V101.51C47.4787 101.51 46.6136 101.636 45.7737 101.897L47.5521 107.627ZM48.3569 107.51C48.629 107.51 48.765 107.544 48.8053 107.557C48.8346 107.566 48.7807 107.553 48.7041 107.484L52.7137 103.02C51.4353 101.872 49.8357 101.51 48.3569 101.51V107.51ZM48.7041 107.484C48.6492 107.435 48.6028 107.38 48.5669 107.325C48.5317 107.272 48.5151 107.232 48.5095 107.217C48.5043 107.202 48.5109 107.216 48.5188 107.266C48.5266 107.317 48.5349 107.4 48.5349 107.52H54.5349C54.5349 105.983 54.1082 104.273 52.7137 103.02L48.7041 107.484ZM48.5349 107.52V112H54.5349V107.52H48.5349ZM51.5349 109H50.2609V115H51.5349V109ZM47.8249 109.084C47.6122 109.084 47.5555 109.048 47.5873 109.063L45.1504 114.545C46.0223 114.933 46.9362 115.084 47.8249 115.084V109.084ZM47.6103 109.073C47.612 109.074 47.6513 109.092 47.7095 109.139C47.7695 109.187 47.834 109.254 47.891 109.337L42.9427 112.731C43.5168 113.568 44.2899 114.154 45.1275 114.535L47.6103 109.073ZM47.913 109.37C47.9636 109.446 48.0098 109.54 48.0413 109.646C48.0724 109.751 48.0809 109.84 48.0809 109.9H42.0809C42.0809 110.887 42.3545 111.849 42.9207 112.698L47.913 109.37ZM48.0809 109.9C48.0809 109.934 48.0767 109.994 48.0569 110.071C48.0367 110.15 48.0053 110.227 47.9656 110.296L42.7561 107.32C42.2931 108.13 42.0809 109.013 42.0809 109.9H48.0809ZM47.9333 110.351C47.7496 110.658 47.5344 110.758 47.5447 110.753L45.053 105.295C44.2046 105.682 43.3641 106.305 42.7884 107.265L47.9333 110.351ZM47.5227 110.763C47.4608 110.791 47.4622 110.779 47.5621 110.763C47.6602 110.746 47.8224 110.73 48.0629 110.73V104.73C47.1069 104.73 46.0489 104.85 45.075 105.285L47.5227 110.763ZM48.0629 110.73H50.4149V104.73H48.0629V110.73ZM47.4149 107.73V108.696H53.4149V107.73H47.4149ZM50.4149 105.696H48.1189V111.696H50.4149V105.696ZM48.1189 105.696C47.6367 105.696 47.0952 105.734 46.5548 105.868C46.0301 105.998 45.3102 106.266 44.6833 106.868L48.8385 111.196C48.4448 111.574 48.0679 111.674 47.9959 111.692C47.9082 111.714 47.929 111.696 48.1189 111.696V105.696ZM44.6833 106.868C43.8735 107.645 43.4109 108.692 43.4109 109.844H49.4109C49.4109 110.062 49.3687 110.323 49.2533 110.59C49.1385 110.857 48.9822 111.058 48.8385 111.196L44.6833 106.868ZM43.4109 109.844C43.4109 111.142 43.9896 112.309 45.0083 113.098L48.6814 108.354C48.8553 108.488 49.0594 108.705 49.2111 109.013C49.3632 109.322 49.4109 109.618 49.4109 109.844H43.4109ZM45.0573 113.135C46.0421 113.866 47.1565 114.048 48.0489 114.048V108.048C47.9145 108.048 48.2263 108.015 48.6324 108.317L45.0573 113.135ZM48.0489 114.048C49.0096 114.048 49.9994 113.83 50.9083 113.284L47.8214 108.14C47.894 108.096 47.9624 108.07 48.0137 108.057C48.0625 108.045 48.0784 108.048 48.0489 108.048V114.048ZM50.8804 113.301C51.8696 112.722 52.5813 111.856 52.9846 110.825L47.3971 108.639C47.4232 108.572 47.4746 108.472 47.5645 108.366C47.6553 108.258 47.7571 108.177 47.8493 108.123L50.8804 113.301ZM47.3079 110.562L47.5739 111.486L53.3398 109.826L53.0738 108.902L47.3079 110.562ZM47.6755 109.532C47.7154 109.433 47.7761 109.334 47.8521 109.249C47.9259 109.166 47.9881 109.126 48.0072 109.115L51.0305 114.297C51.994 113.735 52.7875 112.895 53.2382 111.78L47.6755 109.532ZM48.0481 109.091C48.1096 109.057 48.1374 109.055 48.106 109.062C48.072 109.069 47.9834 109.084 47.8249 109.084V115.084C48.8593 115.084 49.9698 114.894 50.9896 114.321L48.0481 109.091ZM53.1713 114.618L54.1903 111.796L54.1553 111.784L54.12 111.772L53.1713 114.618ZM52.3033 114.114L49.6964 112.629L48.5166 114.701L50.2685 116.318L52.3033 114.114ZM52.8773 113.106L54.9436 110.931L52.1661 108.292L50.2704 111.621L52.8773 113.106ZM53.4933 113.512L54.6472 110.743L53.4933 113.512ZM55.0193 113.4L53.1704 111.037H53.1704L55.0193 113.4ZM55.6213 112.504L52.8877 111.268L52.8788 111.288L52.8701 111.308L55.6213 112.504ZM56.0833 111.482L53.7787 109.561L53.5176 109.875L53.3497 110.246L56.0833 111.482ZM56.2233 111.314L58.528 113.235L58.8051 112.902L58.9769 112.505L56.2233 111.314ZM59.1353 104.58V101.58H57.1641L56.3818 103.389L59.1353 104.58ZM60.4513 104.58L63.1964 105.79L65.0524 101.58H60.4513V104.58ZM56.8533 112.742L54.1082 111.532L54.0928 111.567L54.0783 111.602L56.8533 112.742ZM56.1253 113.974L53.9024 111.959L53.8848 111.979L53.8676 111.998L56.1253 113.974ZM55.2573 114.604L54.1859 111.802L54.1503 111.815L54.1151 111.83L55.2573 114.604ZM55.9713 112.238L53.2278 113.452L55.1575 117.813L58.2534 114.185L55.9713 112.238ZM52.5833 104.58V101.58H47.9756L49.8398 105.794L52.5833 104.58ZM53.9833 104.58L56.7329 103.38L55.9473 101.58H53.9833V104.58ZM56.8673 111.188L59.1494 113.135L60.3675 111.708L59.6169 109.988L56.8673 111.188ZM54.2073 111.8C54.2043 111.8 54.2026 111.8 54.2021 111.8C54.2016 111.8 54.2014 111.8 54.2014 111.8C54.2014 111.8 54.2008 111.8 54.1993 111.799C54.1978 111.799 54.1949 111.798 54.1903 111.796L52.1524 117.44C52.8127 117.678 53.5027 117.8 54.2073 117.8V111.8ZM54.12 111.772C54.1347 111.777 54.1666 111.789 54.2087 111.814C54.2515 111.838 54.296 111.871 54.3382 111.91L50.2685 116.318C50.8458 116.851 51.5129 117.227 52.2226 117.464L54.12 111.772ZM54.9103 115.599L55.4843 114.591L50.2704 111.621L49.6964 112.629L54.9103 115.599ZM50.8111 115.281C51.2467 115.695 51.7574 116.039 52.3395 116.281L54.6472 110.743C54.7812 110.799 54.8813 110.872 54.9436 110.931L50.8111 115.281ZM52.3395 116.281C52.9432 116.533 53.5748 116.652 54.2073 116.652V110.652C54.3359 110.652 54.4915 110.678 54.6472 110.743L52.3395 116.281ZM54.2073 116.652C55.0667 116.652 56.0268 116.421 56.8683 115.763L53.1704 111.037C53.5825 110.715 54.0013 110.652 54.2073 110.652V116.652ZM56.8683 115.763C57.6645 115.139 58.1112 114.301 58.3725 113.7L52.8701 111.308C52.8289 111.403 52.8148 111.415 52.8407 111.377C52.8636 111.343 52.964 111.199 53.1704 111.037L56.8683 115.763ZM58.355 113.74L58.817 112.718L53.3497 110.246L52.8877 111.268L58.355 113.74ZM58.388 113.403L58.528 113.235L53.9187 109.393L53.7787 109.561L58.388 113.403ZM58.9769 112.505L61.8889 105.771L56.3818 103.389L53.4698 110.123L58.9769 112.505ZM59.1353 107.58H60.4513V101.58H59.1353V107.58ZM57.7062 103.37L54.1082 111.532L59.5984 113.952L63.1964 105.79L57.7062 103.37ZM54.0783 111.602C54.016 111.754 53.9637 111.855 53.9275 111.916C53.8911 111.977 53.8795 111.985 53.9024 111.959L58.3483 115.989C58.9254 115.352 59.3307 114.607 59.6284 113.882L54.0783 111.602ZM53.8676 111.998C53.8741 111.991 53.9751 111.882 54.1859 111.802L56.3287 117.406C57.1742 117.083 57.8539 116.554 58.3831 115.95L53.8676 111.998ZM54.1151 111.83C54.1541 111.814 54.1862 111.806 54.2063 111.802C54.2258 111.798 54.2276 111.8 54.2073 111.8V117.8C54.9368 117.8 55.6804 117.674 56.3996 117.378L54.1151 111.83ZM58.7148 111.024L55.3268 103.366L49.8398 105.794L53.2278 113.452L58.7148 111.024ZM52.5833 107.58H53.9833V101.58H52.5833V107.58ZM51.2338 105.78L54.1178 112.388L59.6169 109.988L56.7329 103.38L51.2338 105.78ZM54.5853 109.241L53.6893 110.291L58.2534 114.185L59.1494 113.135L54.5853 109.241ZM66.0792 112H63.0792V115H66.0792V112ZM66.0792 110.432H69.0792V110.08L68.9976 109.737L66.0792 110.432ZM66.0092 110.138H63.0092V110.49L63.0908 110.833L66.0092 110.138ZM65.5052 106.148L63.4149 108.3L63.446 108.33L63.478 108.359L65.5052 106.148ZM62.7332 105.896L63.6819 108.742L63.7102 108.733L63.7382 108.723L62.7332 105.896ZM61.6692 106.47L59.0467 107.927L60.812 111.104L63.5971 108.769L61.6692 106.47ZM61.1092 105.462L59.2282 103.125L57.2594 104.71L58.4867 106.919L61.1092 105.462ZM62.4812 104.762L63.3386 107.637L63.3546 107.632L63.3704 107.627L62.4812 104.762ZM67.3532 112V115H70.3532V112H67.3532ZM62.1872 111.804L60.9458 114.535L60.9573 114.54L60.9688 114.545L62.1872 111.804ZM61.2352 111.034L58.7391 112.698L58.7499 112.714L58.761 112.731L61.2352 111.034ZM61.1792 108.808L58.6067 107.265L58.5903 107.292L58.5745 107.32L61.1792 108.808ZM62.1172 108.024L60.8934 105.285L60.8824 105.29L60.8713 105.295L62.1172 108.024ZM66.2332 107.73H69.2332V104.73H66.2332V107.73ZM66.2332 108.696V111.696H69.2332V108.696H66.2332ZM62.5792 109.032L60.5016 106.868L60.5016 106.868L62.5792 109.032ZM62.6632 110.726L60.8267 113.098L60.851 113.117L60.8757 113.135L62.6632 110.726ZM65.1832 110.712L63.6677 108.123L63.6537 108.131L63.6397 108.14L65.1832 110.712ZM66.0092 109.732L68.8921 108.902L66.4424 100.392L63.2155 108.639L66.0092 109.732ZM66.2752 110.656L69.0565 111.78L69.4445 110.821L69.1581 109.826L66.2752 110.656ZM65.3372 111.706L66.808 114.321L66.8285 114.309L66.8488 114.297L65.3372 111.706ZM69.0792 112V110.432H63.0792V112H69.0792ZM68.9976 109.737L68.9276 109.443L63.0908 110.833L63.1608 111.127L68.9976 109.737ZM69.0092 110.138V107.464H63.0092V110.138H69.0092ZM69.0092 107.464C69.0092 106.278 68.6363 104.948 67.5324 103.937L63.478 108.359C63.2925 108.189 63.1588 107.982 63.0816 107.781C63.0099 107.594 63.0092 107.471 63.0092 107.464H69.0092ZM67.5956 103.996C66.4983 102.93 65.1108 102.672 64.0212 102.672V108.672C64.1229 108.672 64.0904 108.685 63.9729 108.648C63.842 108.606 63.6272 108.506 63.4149 108.3L67.5956 103.996ZM64.0212 102.672C63.2345 102.672 62.4655 102.807 61.7282 103.069L63.7382 108.723C63.8409 108.686 63.9306 108.672 64.0212 108.672V102.672ZM61.7845 103.05C61.0673 103.289 60.365 103.648 59.7414 104.171L63.5971 108.769C63.5521 108.806 63.5592 108.783 63.6819 108.742L61.7845 103.05ZM64.2917 105.013L63.7317 104.005L58.4867 106.919L59.0467 107.927L64.2917 105.013ZM62.9902 107.799C63.0329 107.765 63.1312 107.699 63.3386 107.637L61.6238 101.887C60.7673 102.143 59.9509 102.543 59.2282 103.125L62.9902 107.799ZM63.3704 107.627C63.6132 107.552 63.8773 107.51 64.1752 107.51V101.51C63.2971 101.51 62.4319 101.636 61.592 101.897L63.3704 107.627ZM64.1752 107.51C64.4474 107.51 64.5834 107.544 64.6236 107.557C64.653 107.566 64.599 107.553 64.5224 107.484L68.532 103.02C67.2537 101.872 65.654 101.51 64.1752 101.51V107.51ZM64.5224 107.484C64.4676 107.435 64.4211 107.38 64.3853 107.325C64.3501 107.272 64.3335 107.232 64.3278 107.217C64.3227 107.202 64.3293 107.216 64.3371 107.266C64.345 107.317 64.3532 107.4 64.3532 107.52H70.3532C70.3532 105.983 69.9266 104.273 68.532 103.02L64.5224 107.484ZM64.3532 107.52V112H70.3532V107.52H64.3532ZM67.3532 109H66.0792V115H67.3532V109ZM63.6432 109.084C63.4306 109.084 63.3738 109.048 63.4056 109.063L60.9688 114.545C61.8406 114.933 62.7545 115.084 63.6432 115.084V109.084ZM63.4286 109.073C63.4304 109.074 63.4697 109.092 63.5278 109.139C63.5878 109.187 63.6524 109.254 63.7094 109.337L58.761 112.731C59.3351 113.568 60.1082 114.154 60.9458 114.535L63.4286 109.073ZM63.7314 109.37C63.782 109.446 63.8282 109.54 63.8596 109.646C63.8908 109.751 63.8992 109.84 63.8992 109.9H57.8992C57.8992 110.887 58.1729 111.849 58.7391 112.698L63.7314 109.37ZM63.8992 109.9C63.8992 109.934 63.8951 109.994 63.8752 110.071C63.8551 110.15 63.8237 110.227 63.7839 110.296L58.5745 107.32C58.1115 108.13 57.8992 109.013 57.8992 109.9H63.8992ZM63.7517 110.351C63.568 110.658 63.3528 110.758 63.3631 110.753L60.8713 105.295C60.023 105.682 59.1824 106.305 58.6067 107.265L63.7517 110.351ZM63.341 110.763C63.2792 110.791 63.2806 110.779 63.3804 110.763C63.4786 110.746 63.6408 110.73 63.8812 110.73V104.73C62.9253 104.73 61.8672 104.85 60.8934 105.285L63.341 110.763ZM63.8812 110.73H66.2332V104.73H63.8812V110.73ZM63.2332 107.73V108.696H69.2332V107.73H63.2332ZM66.2332 105.696H63.9372V111.696H66.2332V105.696ZM63.9372 105.696C63.4551 105.696 62.9136 105.734 62.3732 105.868C61.8485 105.998 61.1286 106.266 60.5016 106.868L64.6568 111.196C64.2632 111.574 63.8863 111.674 63.8143 111.692C63.7265 111.714 63.7473 111.696 63.9372 111.696V105.696ZM60.5016 106.868C59.6918 107.645 59.2292 108.692 59.2292 109.844H65.2292C65.2292 110.062 65.1871 110.323 65.0717 110.59C64.9568 110.857 64.8005 111.058 64.6568 111.196L60.5016 106.868ZM59.2292 109.844C59.2292 111.142 59.808 112.309 60.8267 113.098L64.4997 108.354C64.6736 108.488 64.8777 108.705 65.0295 109.013C65.1815 109.322 65.2292 109.618 65.2292 109.844H59.2292ZM60.8757 113.135C61.8605 113.866 62.9749 114.048 63.8672 114.048V108.048C63.7329 108.048 64.0446 108.015 64.4508 108.317L60.8757 113.135ZM63.8672 114.048C64.8279 114.048 65.8178 113.83 66.7267 113.284L63.6397 108.14C63.7124 108.096 63.7808 108.07 63.8321 108.057C63.8809 108.045 63.8968 108.048 63.8672 108.048V114.048ZM66.6988 113.301C67.688 112.722 68.3997 111.856 68.8029 110.825L63.2155 108.639C63.2416 108.572 63.293 108.472 63.3828 108.366C63.4737 108.258 63.5754 108.177 63.6677 108.123L66.6988 113.301ZM63.1263 110.562L63.3923 111.486L69.1581 109.826L68.8921 108.902L63.1263 110.562ZM63.4939 109.532C63.5337 109.433 63.5945 109.334 63.6704 109.249C63.7442 109.166 63.8065 109.126 63.8256 109.115L66.8488 114.297C67.8123 113.735 68.6059 112.895 69.0565 111.78L63.4939 109.532ZM63.8664 109.091C63.9279 109.057 63.9558 109.055 63.9244 109.062C63.8904 109.069 63.8018 109.084 63.6432 109.084V115.084C64.6776 115.084 65.7881 114.894 66.808 114.321L63.8664 109.091ZM75.3984 104.86L74.035 107.532L74.0459 107.538L74.0568 107.543L75.3984 104.86ZM76.4904 105.924L79.1201 104.48L76.4904 105.924ZM76.8824 112V115H79.8824V112H76.8824ZM75.5384 112H72.5384V115H75.5384V112ZM75.0064 106.26L72.83 108.325L72.8438 108.339L72.8577 108.354L75.0064 106.26ZM72.2904 105.994L70.8932 103.339L72.2904 105.994ZM71.4644 106.82L68.823 105.398L68.8087 105.424L68.795 105.451L71.4644 106.82ZM71.1844 112V115H74.1844V112H71.1844ZM69.8404 112H66.8404V115H69.8404V112ZM69.8404 104.58V101.58H66.8404V104.58H69.8404ZM71.1284 104.58H74.1284V101.58H71.1284V104.58ZM71.1284 106.582L68.3379 107.683L74.1284 106.582H71.1284ZM70.9184 106.05L68.2351 104.708L67.6363 105.906L68.1279 107.151L70.9184 106.05ZM72.0384 104.916L70.619 102.273V102.273L72.0384 104.916ZM73.8024 107.51C73.9138 107.51 73.9812 107.521 74.0138 107.528C74.0447 107.535 74.048 107.539 74.035 107.532L76.7618 102.188C75.812 101.703 74.7973 101.51 73.8024 101.51V107.51ZM74.0568 107.543C74.0208 107.525 73.9733 107.494 73.9278 107.45C73.8831 107.406 73.8631 107.372 73.8607 107.368L79.1201 104.48C78.5781 103.493 77.7752 102.694 76.74 102.177L74.0568 107.543ZM73.8607 107.368C73.8104 107.276 73.8824 107.342 73.8824 107.73H79.8824C79.8824 106.662 79.6931 105.524 79.1201 104.48L73.8607 107.368ZM73.8824 107.73V112H79.8824V107.73H73.8824ZM76.8824 109H75.5384V115H76.8824V109ZM78.5384 112V107.884H72.5384V112H78.5384ZM78.5384 107.884C78.5384 106.709 78.2473 105.287 77.1551 104.166L72.8577 108.354C72.6788 108.17 72.591 107.984 72.5545 107.873C72.5225 107.775 72.5384 107.763 72.5384 107.884H78.5384ZM77.1828 104.195C76.1294 103.085 74.7628 102.714 73.5364 102.714V108.714C73.5712 108.714 73.4876 108.719 73.3353 108.663C73.1694 108.601 72.9859 108.489 72.83 108.325L77.1828 104.195ZM73.5364 102.714C72.6646 102.714 71.7526 102.887 70.8932 103.339L73.6876 108.649C73.6175 108.686 73.5594 108.703 73.5257 108.711C73.4938 108.718 73.4941 108.714 73.5364 108.714V102.714ZM70.8932 103.339C69.9931 103.813 69.2925 104.526 68.823 105.398L74.1058 108.242C74.0739 108.301 74.0204 108.381 73.9392 108.462C73.8575 108.544 73.7692 108.606 73.6876 108.649L70.8932 103.339ZM68.795 105.451C68.3324 106.353 68.1844 107.308 68.1844 108.178H74.1844C74.1844 108.129 74.1866 108.093 74.1888 108.069C74.191 108.046 74.1931 108.036 74.1926 108.038C74.1915 108.044 74.179 108.101 74.1339 108.189L68.795 105.451ZM68.1844 108.178V112H74.1844V108.178H68.1844ZM71.1844 109H69.8404V115H71.1844V109ZM72.8404 112V104.58H66.8404V112H72.8404ZM69.8404 107.58H71.1284V101.58H69.8404V107.58ZM68.1284 104.58V106.582H74.1284V104.58H68.1284ZM73.9189 105.48L73.7089 104.948L68.1279 107.151L68.3379 107.683L73.9189 105.48ZM73.6017 107.392C73.5847 107.426 73.5551 107.47 73.5149 107.511C73.4757 107.55 73.4493 107.564 73.4578 107.559L70.619 102.273C69.6009 102.82 68.7702 103.638 68.2351 104.708L73.6017 107.392ZM73.4578 107.559C73.462 107.557 73.4823 107.546 73.5303 107.535C73.5803 107.524 73.6676 107.51 73.8024 107.51V101.51C72.7217 101.51 71.6299 101.73 70.619 102.273L73.4578 107.559ZM80.6297 114.506L81.5032 111.636L81.4897 111.632L81.4762 111.628L80.6297 114.506ZM79.0757 113.694L76.5278 112.11L75.1895 114.263L77.0891 115.942L79.0757 113.694ZM79.7197 112.658L81.6822 110.389L79.0259 108.092L77.1718 111.074L79.7197 112.658ZM80.9937 113.358L81.9894 110.528L81.966 110.52L81.9424 110.512L80.9937 113.358ZM84.5077 113.008L86.629 115.129L84.5077 113.008ZM85.1237 109.564L82.1372 109.28L82.1237 109.421V109.564H85.1237ZM85.2637 108.094L88.2502 108.378L88.2704 108.166L88.2604 107.953L85.2637 108.094ZM85.1937 106.61H82.1937V106.681L82.197 106.751L85.1937 106.61ZM85.1937 104.58V101.58H82.1937V104.58H85.1937ZM86.4677 104.58H89.4677V101.58H86.4677V104.58ZM85.4877 113.876L83.4297 111.693V111.693L85.4877 113.876ZM80.5177 111.244L79.0719 113.873L79.0979 113.887L79.1241 113.901L80.5177 111.244ZM79.1737 109.97L76.6051 111.52L76.6149 111.536L76.6248 111.552L79.1737 109.97ZM79.1737 106.218L76.6248 104.636L76.621 104.642L76.6172 104.648L79.1737 106.218ZM80.5177 104.958L79.1241 102.301L79.115 102.306L79.1059 102.311L80.5177 104.958ZM84.1857 104.902L82.8441 107.585L82.8634 107.595L82.8828 107.604L84.1857 104.902ZM85.4317 106.078L82.8354 107.581L82.8452 107.598L82.8552 107.615L85.4317 106.078ZM85.4317 110.096L82.8552 108.559L82.8452 108.576L82.8354 108.593L85.4317 110.096ZM84.1857 111.3L85.5273 113.983L85.5464 113.974L85.5653 113.964L84.1857 111.3ZM83.9197 110.208L82.5013 107.565V107.565L83.9197 110.208ZM84.8157 109.354L82.2607 107.782L82.2459 107.806L82.2316 107.83L84.8157 109.354ZM84.8157 106.834L82.2316 108.358L82.2459 108.382L82.2607 108.406L84.8157 106.834ZM83.9197 105.994L82.5012 108.637L82.5265 108.651L82.5521 108.664L83.9197 105.994ZM81.2737 105.994L82.6413 108.664L82.6536 108.658L82.6657 108.651L81.2737 105.994ZM80.3637 106.834L77.8087 105.262L77.7939 105.286L77.7796 105.31L80.3637 106.834ZM80.3637 109.354L77.7796 110.878L77.7939 110.902L77.8087 110.926L80.3637 109.354ZM81.2737 110.208L79.8553 112.851L79.8684 112.859L79.8817 112.865L81.2737 110.208ZM82.6177 111.8C82.2287 111.8 81.8606 111.745 81.5032 111.636L79.7562 117.376C80.6868 117.659 81.644 117.8 82.6177 117.8V111.8ZM81.4762 111.628C81.1663 111.537 81.0663 111.45 81.0623 111.446L77.0891 115.942C77.8878 116.648 78.8237 117.102 79.7832 117.384L81.4762 111.628ZM81.6236 115.278L82.2676 114.242L77.1718 111.074L76.5278 112.11L81.6236 115.278ZM77.7572 114.927C78.444 115.521 79.2288 115.932 80.045 116.204L81.9424 110.512C81.7506 110.448 81.6861 110.392 81.6822 110.389L77.7572 114.927ZM79.998 116.188C80.8317 116.481 81.6964 116.624 82.5757 116.624V110.624C82.3536 110.624 82.1637 110.589 81.9894 110.528L79.998 116.188ZM82.5757 116.624C83.8483 116.624 85.4248 116.334 86.629 115.129L82.3864 110.887C82.5713 110.702 82.7459 110.631 82.8054 110.612C82.8508 110.597 82.792 110.624 82.5757 110.624V116.624ZM86.629 115.129C87.812 113.946 88.1237 112.412 88.1237 111.132H82.1237C82.1237 111.317 82.0999 111.355 82.1194 111.295C82.1438 111.221 82.2172 111.056 82.3864 110.887L86.629 115.129ZM88.1237 111.132V109.564H82.1237V111.132H88.1237ZM88.1102 109.848L88.2502 108.378L82.2772 107.81L82.1372 109.28L88.1102 109.848ZM88.2604 107.953L88.1904 106.469L82.197 106.751L82.267 108.235L88.2604 107.953ZM88.1937 106.61V104.58H82.1937V106.61H88.1937ZM85.1937 107.58H86.4677V101.58H85.1937V107.58ZM83.4677 104.58V110.992H89.4677V104.58H83.4677ZM83.4677 110.992C83.4677 111.406 83.4146 111.633 83.3822 111.728C83.3556 111.806 83.3557 111.763 83.4297 111.693L87.5457 116.059C89.0297 114.66 89.4677 112.745 89.4677 110.992H83.4677ZM83.4297 111.693C83.5238 111.605 83.4227 111.8 82.6177 111.8V117.8C84.3328 117.8 86.145 117.379 87.5457 116.059L83.4297 111.693ZM82.4497 108.692C82.1585 108.692 82.0022 108.635 81.9114 108.587L79.1241 113.901C80.1719 114.45 81.3036 114.692 82.4497 114.692V108.692ZM81.9635 108.615C81.8535 108.555 81.786 108.49 81.7226 108.388L76.6248 111.552C77.2334 112.533 78.0619 113.317 79.0719 113.873L81.9635 108.615ZM81.7423 108.42C81.7312 108.402 81.6837 108.325 81.6837 108.094H75.6837C75.6837 109.281 75.9629 110.456 76.6051 111.52L81.7423 108.42ZM81.6837 108.094C81.6837 107.962 81.6986 107.883 81.7088 107.844C81.7184 107.807 81.727 107.793 81.7302 107.788L76.6172 104.648C75.9589 105.72 75.6837 106.907 75.6837 108.094H81.6837ZM81.7226 107.8C81.7811 107.706 81.8376 107.654 81.9295 107.605L79.1059 102.311C78.0778 102.859 77.2383 103.647 76.6248 104.636L81.7226 107.8ZM81.9114 107.615C82.0022 107.567 82.1585 107.51 82.4497 107.51V101.51C81.3036 101.51 80.1719 101.752 79.1241 102.301L81.9114 107.615ZM82.4497 107.51C82.6595 107.51 82.773 107.55 82.8441 107.585L85.5273 102.219C84.553 101.732 83.5092 101.51 82.4497 101.51V107.51ZM82.8828 107.604C82.8789 107.602 82.8705 107.598 82.8596 107.59C82.8486 107.583 82.8385 107.575 82.8301 107.567C82.8217 107.559 82.8179 107.554 82.8183 107.554C82.8188 107.555 82.825 107.563 82.8354 107.581L88.028 104.575C87.4376 103.555 86.5858 102.729 85.4886 102.2L82.8828 107.604ZM82.8552 107.615C82.8219 107.559 82.9077 107.659 82.9077 108.094H88.9077C88.9077 106.905 88.6761 105.661 88.0082 104.541L82.8552 107.615ZM82.9077 108.094C82.9077 108.512 82.8248 108.61 82.8552 108.559L88.0082 111.633C88.6733 110.518 88.9077 109.281 88.9077 108.094H82.9077ZM82.8354 108.593C82.8231 108.614 82.814 108.627 82.8093 108.633C82.8047 108.639 82.8031 108.64 82.8046 108.639C82.8061 108.637 82.8083 108.635 82.8104 108.634C82.8125 108.632 82.8116 108.633 82.8061 108.636L85.5653 113.964C86.6191 113.418 87.4468 112.603 88.028 111.599L82.8354 108.593ZM82.8441 108.617C82.773 108.652 82.6595 108.692 82.4497 108.692V114.692C83.5092 114.692 84.553 114.47 85.5273 113.983L82.8441 108.617ZM82.6037 113.516C83.5238 113.516 84.4619 113.322 85.3382 112.851L82.5013 107.565C82.5502 107.538 82.593 107.524 82.62 107.518C82.6455 107.512 82.6431 107.516 82.6037 107.516V113.516ZM85.3382 112.851C86.1904 112.394 86.8983 111.728 87.3998 110.878L82.2316 107.83C82.2615 107.779 82.3049 107.722 82.3609 107.669C82.4165 107.616 82.4677 107.582 82.5013 107.565L85.3382 112.851ZM87.3707 110.926C87.9179 110.037 88.1517 109.06 88.1517 108.094H82.1517C82.1517 108.096 82.1517 108.058 82.169 107.993C82.1868 107.926 82.2173 107.852 82.2607 107.782L87.3707 110.926ZM88.1517 108.094C88.1517 107.128 87.9179 106.151 87.3707 105.262L82.2607 108.406C82.2173 108.336 82.1868 108.262 82.169 108.195C82.1517 108.13 82.1517 108.092 82.1517 108.094H88.1517ZM87.3998 105.31C86.8911 104.448 86.1666 103.774 85.2873 103.324L82.5521 108.664C82.5065 108.641 82.444 108.601 82.3789 108.54C82.3134 108.478 82.2645 108.414 82.2316 108.358L87.3998 105.31ZM85.3382 103.351C84.4619 102.88 83.5238 102.686 82.6037 102.686V108.686C82.6431 108.686 82.6455 108.69 82.62 108.684C82.593 108.678 82.5502 108.664 82.5012 108.637L85.3382 103.351ZM82.6037 102.686C81.6821 102.686 80.7518 102.881 79.8817 103.337L82.6657 108.651C82.6485 108.661 82.6314 108.668 82.6152 108.674C82.599 108.68 82.586 108.684 82.577 108.686C82.5585 108.69 82.5646 108.686 82.6037 108.686V102.686ZM79.9061 103.324C79.0377 103.769 78.3224 104.427 77.8087 105.262L82.9187 108.406C82.8921 108.449 82.8509 108.503 82.794 108.555C82.7373 108.608 82.6824 108.643 82.6413 108.664L79.9061 103.324ZM77.7796 105.31C77.2595 106.192 77.0417 107.151 77.0417 108.094H83.0417C83.0417 108.082 83.0429 108.11 83.0288 108.165C83.0142 108.222 82.988 108.29 82.9478 108.358L77.7796 105.31ZM77.0417 108.094C77.0417 109.037 77.2595 109.996 77.7796 110.878L82.9478 107.83C82.988 107.898 83.0142 107.966 83.0288 108.023C83.0429 108.078 83.0417 108.106 83.0417 108.094H77.0417ZM77.8087 110.926C78.315 111.749 79.0137 112.4 79.8553 112.851L82.6922 107.565C82.7211 107.58 82.7649 107.609 82.8121 107.653C82.8596 107.697 82.8952 107.744 82.9187 107.782L77.8087 110.926ZM79.8817 112.865C80.7518 113.321 81.6821 113.516 82.6037 113.516V107.516C82.5646 107.516 82.5585 107.512 82.577 107.516C82.586 107.518 82.599 107.522 82.6152 107.528C82.6314 107.534 82.6485 107.541 82.6657 107.551L79.8817 112.865ZM92.3195 108.738H89.3195V111.738H92.3195V108.738ZM92.3195 107.576V104.576H89.3195V107.576H92.3195ZM96.0855 107.576H99.0855V104.576H96.0855V107.576ZM96.0855 108.738V111.738H99.0855V108.738H96.0855ZM95.3195 108.738V107.576H89.3195V108.738H95.3195ZM92.3195 110.576H96.0855V104.576H92.3195V110.576ZM93.0855 107.576V108.738H99.0855V107.576H93.0855ZM96.0855 105.738H92.3195V111.738H96.0855V105.738ZM101.915 112H98.9146V115H101.915V112ZM101.915 101.612V98.612H98.9146V101.612H101.915ZM103.259 101.612H106.259V98.612H103.259V101.612ZM103.259 112V115H106.259V112H103.259ZM104.915 112V101.612H98.9146V112H104.915ZM101.915 104.612H103.259V98.612H101.915V104.612ZM100.259 101.612V112H106.259V101.612H100.259ZM103.259 109H101.915V115H103.259V109ZM110.431 112H107.431V115H110.431V112ZM110.431 110.432H113.431V110.08L113.349 109.737L110.431 110.432ZM110.361 110.138H107.361V110.49L107.442 110.833L110.361 110.138ZM109.857 106.148L107.766 108.3L107.798 108.33L107.83 108.359L109.857 106.148ZM107.085 105.896L108.033 108.742L108.062 108.733L108.09 108.723L107.085 105.896ZM106.021 106.47L103.398 107.927L105.164 111.104L107.949 108.769L106.021 106.47ZM105.461 105.462L103.58 103.125L101.611 104.71L102.838 106.919L105.461 105.462ZM106.833 104.762L107.69 107.637L107.706 107.632L107.722 107.627L106.833 104.762ZM111.705 112V115H114.705V112H111.705ZM106.539 111.804L105.297 114.535L105.309 114.54L105.32 114.545L106.539 111.804ZM105.587 111.034L103.091 112.698L103.102 112.714L103.113 112.731L105.587 111.034ZM105.531 108.808L102.958 107.265L102.942 107.292L102.926 107.32L105.531 108.808ZM106.469 108.024L105.245 105.285L105.234 105.29L105.223 105.295L106.469 108.024ZM110.585 107.73H113.585V104.73H110.585V107.73ZM110.585 108.696V111.696H113.585V108.696H110.585ZM106.931 109.032L104.853 106.868V106.868L106.931 109.032ZM107.015 110.726L105.178 113.098L105.203 113.117L105.227 113.135L107.015 110.726ZM109.535 110.712L108.019 108.123L108.005 108.131L107.991 108.14L109.535 110.712ZM110.361 109.732L113.244 108.902L110.794 100.392L107.567 108.639L110.361 109.732ZM110.627 110.656L113.408 111.78L113.796 110.821L113.51 109.826L110.627 110.656ZM109.689 111.706L111.16 114.321L111.18 114.309L111.2 114.297L109.689 111.706ZM113.431 112V110.432H107.431V112H113.431ZM113.349 109.737L113.279 109.443L107.442 110.833L107.512 111.127L113.349 109.737ZM113.361 110.138V107.464H107.361V110.138H113.361ZM113.361 107.464C113.361 106.278 112.988 104.948 111.884 103.937L107.83 108.359C107.644 108.189 107.51 107.982 107.433 107.781C107.361 107.594 107.361 107.471 107.361 107.464H113.361ZM111.947 103.996C110.85 102.93 109.462 102.672 108.373 102.672V108.672C108.474 108.672 108.442 108.685 108.325 108.648C108.194 108.606 107.979 108.506 107.766 108.3L111.947 103.996ZM108.373 102.672C107.586 102.672 106.817 102.807 106.08 103.069L108.09 108.723C108.192 108.686 108.282 108.672 108.373 108.672V102.672ZM106.136 103.05C105.419 103.289 104.717 103.648 104.093 104.171L107.949 108.769C107.904 108.806 107.911 108.783 108.033 108.742L106.136 103.05ZM108.643 105.013L108.083 104.005L102.838 106.919L103.398 107.927L108.643 105.013ZM107.342 107.799C107.384 107.765 107.483 107.699 107.69 107.637L105.975 101.887C105.119 102.143 104.302 102.543 103.58 103.125L107.342 107.799ZM107.722 107.627C107.965 107.552 108.229 107.51 108.527 107.51V101.51C107.649 101.51 106.784 101.636 105.944 101.897L107.722 107.627ZM108.527 107.51C108.799 107.51 108.935 107.544 108.975 107.557C109.005 107.566 108.951 107.553 108.874 107.484L112.884 103.02C111.605 101.872 110.006 101.51 108.527 101.51V107.51ZM108.874 107.484C108.819 107.435 108.773 107.38 108.737 107.325C108.702 107.272 108.685 107.232 108.679 107.217C108.674 107.202 108.681 107.216 108.689 107.266C108.697 107.317 108.705 107.4 108.705 107.52H114.705C114.705 105.983 114.278 104.273 112.884 103.02L108.874 107.484ZM108.705 107.52V112H114.705V107.52H108.705ZM111.705 109H110.431V115H111.705V109ZM107.995 109.084C107.782 109.084 107.725 109.048 107.757 109.063L105.32 114.545C106.192 114.933 107.106 115.084 107.995 115.084V109.084ZM107.78 109.073C107.782 109.074 107.821 109.092 107.879 109.139C107.939 109.187 108.004 109.254 108.061 109.337L103.113 112.731C103.687 113.568 104.46 114.154 105.297 114.535L107.78 109.073ZM108.083 109.37C108.134 109.446 108.18 109.54 108.211 109.646C108.242 109.751 108.251 109.84 108.251 109.9H102.251C102.251 110.887 102.524 111.849 103.091 112.698L108.083 109.37ZM108.251 109.9C108.251 109.934 108.247 109.994 108.227 110.071C108.207 110.15 108.175 110.227 108.136 110.296L102.926 107.32C102.463 108.13 102.251 109.013 102.251 109.9H108.251ZM108.103 110.351C107.92 110.658 107.704 110.758 107.715 110.753L105.223 105.295C104.375 105.682 103.534 106.305 102.958 107.265L108.103 110.351ZM107.693 110.763C107.631 110.791 107.632 110.779 107.732 110.763C107.83 110.746 107.992 110.73 108.233 110.73V104.73C107.277 104.73 106.219 104.85 105.245 105.285L107.693 110.763ZM108.233 110.73H110.585V104.73H108.233V110.73ZM107.585 107.73V108.696H113.585V107.73H107.585ZM110.585 105.696H108.289V111.696H110.585V105.696ZM108.289 105.696C107.807 105.696 107.265 105.734 106.725 105.868C106.2 105.998 105.48 106.266 104.853 106.868L109.008 111.196C108.615 111.574 108.238 111.674 108.166 111.692C108.078 111.714 108.099 111.696 108.289 111.696V105.696ZM104.853 106.868C104.043 107.645 103.581 108.692 103.581 109.844H109.581C109.581 110.062 109.539 110.323 109.423 110.59C109.308 110.857 109.152 111.058 109.008 111.196L104.853 106.868ZM103.581 109.844C103.581 111.142 104.16 112.309 105.178 113.098L108.851 108.354C109.025 108.488 109.229 108.705 109.381 109.013C109.533 109.322 109.581 109.618 109.581 109.844H103.581ZM105.227 113.135C106.212 113.866 107.326 114.048 108.219 114.048V108.048C108.084 108.048 108.396 108.015 108.802 108.317L105.227 113.135ZM108.219 114.048C109.179 114.048 110.169 113.83 111.078 113.284L107.991 108.14C108.064 108.096 108.132 108.07 108.184 108.057C108.232 108.045 108.248 108.048 108.219 108.048V114.048ZM111.05 113.301C112.04 112.722 112.751 111.856 113.155 110.825L107.567 108.639C107.593 108.572 107.645 108.472 107.734 108.366C107.825 108.258 107.927 108.177 108.019 108.123L111.05 113.301ZM107.478 110.562L107.744 111.486L113.51 109.826L113.244 108.902L107.478 110.562ZM107.845 109.532C107.885 109.433 107.946 109.334 108.022 109.249C108.096 109.166 108.158 109.126 108.177 109.115L111.2 114.297C112.164 113.735 112.957 112.895 113.408 111.78L107.845 109.532ZM108.218 109.091C108.279 109.057 108.307 109.055 108.276 109.062C108.242 109.069 108.153 109.084 107.995 109.084V115.084C109.029 115.084 110.14 114.894 111.16 114.321L108.218 109.091ZM113.341 114.618L114.36 111.796L114.325 111.784L114.29 111.772L113.341 114.618ZM112.473 114.114L109.866 112.629L108.687 114.701L110.438 116.318L112.473 114.114ZM113.047 113.106L115.113 110.931L112.336 108.292L110.44 111.621L113.047 113.106ZM113.663 113.512L114.817 110.743L113.663 113.512ZM115.189 113.4L113.34 111.037L115.189 113.4ZM115.791 112.504L113.058 111.268L113.049 111.288L113.04 111.308L115.791 112.504ZM116.253 111.482L113.949 109.561L113.688 109.875L113.52 110.246L116.253 111.482ZM116.393 111.314L118.698 113.235L118.975 112.902L119.147 112.505L116.393 111.314ZM119.305 104.58V101.58H117.334L116.552 103.389L119.305 104.58ZM120.621 104.58L123.366 105.79L125.222 101.58H120.621V104.58ZM117.023 112.742L114.278 111.532L114.263 111.567L114.248 111.602L117.023 112.742ZM116.295 113.974L114.072 111.959L114.055 111.979L114.038 111.998L116.295 113.974ZM115.427 114.604L114.356 111.802L114.32 111.815L114.285 111.83L115.427 114.604ZM116.141 112.238L113.398 113.452L115.327 117.813L118.423 114.185L116.141 112.238ZM112.753 104.58V101.58H108.146L110.01 105.794L112.753 104.58ZM114.153 104.58L116.903 103.38L116.117 101.58H114.153V104.58ZM117.037 111.188L119.319 113.135L120.537 111.708L119.787 109.988L117.037 111.188ZM114.377 111.8C114.374 111.8 114.373 111.8 114.372 111.8C114.371 111.8 114.371 111.8 114.371 111.8C114.371 111.8 114.371 111.8 114.369 111.799C114.368 111.799 114.365 111.798 114.36 111.796L112.322 117.44C112.983 117.678 113.673 117.8 114.377 117.8V111.8ZM114.29 111.772C114.305 111.777 114.336 111.789 114.379 111.814C114.421 111.838 114.466 111.871 114.508 111.91L110.438 116.318C111.016 116.851 111.683 117.227 112.393 117.464L114.29 111.772ZM115.08 115.599L115.654 114.591L110.44 111.621L109.866 112.629L115.08 115.599ZM110.981 115.281C111.417 115.695 111.927 116.039 112.509 116.281L114.817 110.743C114.951 110.799 115.051 110.872 115.113 110.931L110.981 115.281ZM112.509 116.281C113.113 116.533 113.745 116.652 114.377 116.652V110.652C114.506 110.652 114.661 110.678 114.817 110.743L112.509 116.281ZM114.377 116.652C115.237 116.652 116.197 116.421 117.038 115.763L113.34 111.037C113.752 110.715 114.171 110.652 114.377 110.652V116.652ZM117.038 115.763C117.834 115.139 118.281 114.301 118.542 113.7L113.04 111.308C112.999 111.403 112.985 111.415 113.011 111.377C113.033 111.343 113.134 111.199 113.34 111.037L117.038 115.763ZM118.525 113.74L118.987 112.718L113.52 110.246L113.058 111.268L118.525 113.74ZM118.558 113.403L118.698 113.235L114.089 109.393L113.949 109.561L118.558 113.403ZM119.147 112.505L122.059 105.771L116.552 103.389L113.64 110.123L119.147 112.505ZM119.305 107.58H120.621V101.58H119.305V107.58ZM117.876 103.37L114.278 111.532L119.768 113.952L123.366 105.79L117.876 103.37ZM114.248 111.602C114.186 111.754 114.134 111.855 114.097 111.916C114.061 111.977 114.049 111.985 114.072 111.959L118.518 115.989C119.095 115.352 119.501 114.607 119.798 113.882L114.248 111.602ZM114.038 111.998C114.044 111.991 114.145 111.882 114.356 111.802L116.499 117.406C117.344 117.083 118.024 116.554 118.553 115.95L114.038 111.998ZM114.285 111.83C114.324 111.814 114.356 111.806 114.376 111.802C114.396 111.798 114.398 111.8 114.377 111.8V117.8C115.107 117.8 115.85 117.674 116.569 117.378L114.285 111.83ZM118.885 111.024L115.497 103.366L110.01 105.794L113.398 113.452L118.885 111.024ZM112.753 107.58H114.153V101.58H112.753V107.58ZM111.404 105.78L114.288 112.388L119.787 109.988L116.903 103.38L111.404 105.78ZM114.755 109.241L113.859 110.291L118.423 114.185L119.319 113.135L114.755 109.241ZM126.249 112H123.249V115H126.249V112ZM126.249 110.432H129.249V110.08L129.168 109.737L126.249 110.432ZM126.179 110.138H123.179V110.49L123.261 110.833L126.179 110.138ZM125.675 106.148L123.585 108.3L123.616 108.33L123.648 108.359L125.675 106.148ZM122.903 105.896L123.852 108.742L123.88 108.733L123.908 108.723L122.903 105.896ZM121.839 106.47L119.217 107.927L120.982 111.104L123.767 108.769L121.839 106.47ZM121.279 105.462L119.398 103.125L117.429 104.71L118.657 106.919L121.279 105.462ZM122.651 104.762L123.509 107.637L123.524 107.632L123.54 107.627L122.651 104.762ZM127.523 112V115H130.523V112H127.523ZM122.357 111.804L121.116 114.535L121.127 114.54L121.139 114.545L122.357 111.804ZM121.405 111.034L118.909 112.698L118.92 112.714L118.931 112.731L121.405 111.034ZM121.349 108.808L118.777 107.265L118.76 107.292L118.744 107.32L121.349 108.808ZM122.287 108.024L121.063 105.285L121.052 105.29L121.041 105.295L122.287 108.024ZM126.403 107.73H129.403V104.73H126.403V107.73ZM126.403 108.696V111.696H129.403V108.696H126.403ZM122.749 109.032L120.672 106.868V106.868L122.749 109.032ZM122.833 110.726L120.997 113.098L121.021 113.117L121.046 113.135L122.833 110.726ZM125.353 110.712L123.838 108.123L123.824 108.131L123.81 108.14L125.353 110.712ZM126.179 109.732L129.062 108.902L126.612 100.392L123.385 108.639L126.179 109.732ZM126.445 110.656L129.226 111.78L129.614 110.821L129.328 109.826L126.445 110.656ZM125.507 111.706L126.978 114.321L126.998 114.309L127.019 114.297L125.507 111.706ZM129.249 112V110.432H123.249V112H129.249ZM129.168 109.737L129.098 109.443L123.261 110.833L123.331 111.127L129.168 109.737ZM129.179 110.138V107.464H123.179V110.138H129.179ZM129.179 107.464C129.179 106.278 128.806 104.948 127.702 103.937L123.648 108.359C123.462 108.189 123.329 107.982 123.252 107.781C123.18 107.594 123.179 107.471 123.179 107.464H129.179ZM127.765 103.996C126.668 102.93 125.281 102.672 124.191 102.672V108.672C124.293 108.672 124.26 108.685 124.143 108.648C124.012 108.606 123.797 108.506 123.585 108.3L127.765 103.996ZM124.191 102.672C123.404 102.672 122.635 102.807 121.898 103.069L123.908 108.723C124.011 108.686 124.101 108.672 124.191 108.672V102.672ZM121.954 103.05C121.237 103.289 120.535 103.648 119.911 104.171L123.767 108.769C123.722 108.806 123.729 108.783 123.852 108.742L121.954 103.05ZM124.462 105.013L123.902 104.005L118.657 106.919L119.217 107.927L124.462 105.013ZM123.16 107.799C123.203 107.765 123.301 107.699 123.509 107.637L121.794 101.887C120.937 102.143 120.121 102.543 119.398 103.125L123.16 107.799ZM123.54 107.627C123.783 107.552 124.047 107.51 124.345 107.51V101.51C123.467 101.51 122.602 101.636 121.762 101.897L123.54 107.627ZM124.345 107.51C124.617 107.51 124.753 107.544 124.794 107.557C124.823 107.566 124.769 107.553 124.692 107.484L128.702 103.02C127.424 101.872 125.824 101.51 124.345 101.51V107.51ZM124.692 107.484C124.638 107.435 124.591 107.38 124.555 107.325C124.52 107.272 124.503 107.232 124.498 107.217C124.493 107.202 124.499 107.216 124.507 107.266C124.515 107.317 124.523 107.4 124.523 107.52H130.523C130.523 105.983 130.097 104.273 128.702 103.02L124.692 107.484ZM124.523 107.52V112H130.523V107.52H124.523ZM127.523 109H126.249V115H127.523V109ZM123.813 109.084C123.601 109.084 123.544 109.048 123.576 109.063L121.139 114.545C122.011 114.933 122.924 115.084 123.813 115.084V109.084ZM123.599 109.073C123.6 109.074 123.64 109.092 123.698 109.139C123.758 109.187 123.822 109.254 123.879 109.337L118.931 112.731C119.505 113.568 120.278 114.154 121.116 114.535L123.599 109.073ZM123.901 109.37C123.952 109.446 123.998 109.54 124.03 109.646C124.061 109.751 124.069 109.84 124.069 109.9H118.069C118.069 110.887 118.343 111.849 118.909 112.698L123.901 109.37ZM124.069 109.9C124.069 109.934 124.065 109.994 124.045 110.071C124.025 110.15 123.994 110.227 123.954 110.296L118.744 107.32C118.281 108.13 118.069 109.013 118.069 109.9H124.069ZM123.922 110.351C123.738 110.658 123.523 110.758 123.533 110.753L121.041 105.295C120.193 105.682 119.352 106.305 118.777 107.265L123.922 110.351ZM123.511 110.763C123.449 110.791 123.451 110.779 123.55 110.763C123.648 110.746 123.811 110.73 124.051 110.73V104.73C123.095 104.73 122.037 104.85 121.063 105.285L123.511 110.763ZM124.051 110.73H126.403V104.73H124.051V110.73ZM123.403 107.73V108.696H129.403V107.73H123.403ZM126.403 105.696H124.107V111.696H126.403V105.696ZM124.107 105.696C123.625 105.696 123.084 105.734 122.543 105.868C122.018 105.998 121.298 106.266 120.672 106.868L124.827 111.196C124.433 111.574 124.056 111.674 123.984 111.692C123.896 111.714 123.917 111.696 124.107 111.696V105.696ZM120.672 106.868C119.862 107.645 119.399 108.692 119.399 109.844H125.399C125.399 110.062 125.357 110.323 125.242 110.59C125.127 110.857 124.97 111.058 124.827 111.196L120.672 106.868ZM119.399 109.844C119.399 111.142 119.978 112.309 120.997 113.098L124.67 108.354C124.844 108.488 125.048 108.705 125.199 109.013C125.351 109.322 125.399 109.618 125.399 109.844H119.399ZM121.046 113.135C122.03 113.866 123.145 114.048 124.037 114.048V108.048C123.903 108.048 124.215 108.015 124.621 108.317L121.046 113.135ZM124.037 114.048C124.998 114.048 125.988 113.83 126.897 113.284L123.81 108.14C123.882 108.096 123.951 108.07 124.002 108.057C124.051 108.045 124.067 108.048 124.037 108.048V114.048ZM126.869 113.301C127.858 112.722 128.57 111.856 128.973 110.825L123.385 108.639C123.411 108.572 123.463 108.472 123.553 108.366C123.644 108.258 123.745 108.177 123.838 108.123L126.869 113.301ZM123.296 110.562L123.562 111.486L129.328 109.826L129.062 108.902L123.296 110.562ZM123.664 109.532C123.704 109.433 123.764 109.334 123.84 109.249C123.914 109.166 123.976 109.126 123.996 109.115L127.019 114.297C127.982 113.735 128.776 112.895 129.226 111.78L123.664 109.532ZM124.036 109.091C124.098 109.057 124.126 109.055 124.094 109.062C124.06 109.069 123.972 109.084 123.813 109.084V115.084C124.848 115.084 125.958 114.894 126.978 114.321L124.036 109.091ZM135.568 104.86L134.205 107.532L134.216 107.538L134.227 107.543L135.568 104.86ZM136.66 105.924L139.29 104.48L136.66 105.924ZM137.052 112V115H140.052V112H137.052ZM135.708 112H132.708V115H135.708V112ZM135.176 106.26L133 108.325L133.014 108.339L133.028 108.354L135.176 106.26ZM132.46 105.994L131.063 103.339L132.46 105.994ZM131.634 106.82L128.993 105.398L128.979 105.424L128.965 105.451L131.634 106.82ZM131.354 112V115H134.354V112H131.354ZM130.01 112H127.01V115H130.01V112ZM130.01 104.58V101.58H127.01V104.58H130.01ZM131.298 104.58H134.298V101.58H131.298V104.58ZM131.298 106.582L128.508 107.683L134.298 106.582H131.298ZM131.088 106.05L128.405 104.708L127.806 105.906L128.298 107.151L131.088 106.05ZM132.208 104.916L130.789 102.273V102.273L132.208 104.916ZM133.972 107.51C134.084 107.51 134.151 107.521 134.184 107.528C134.215 107.535 134.218 107.539 134.205 107.532L136.932 102.188C135.982 101.703 134.967 101.51 133.972 101.51V107.51ZM134.227 107.543C134.191 107.525 134.143 107.494 134.098 107.45C134.053 107.406 134.033 107.372 134.031 107.368L139.29 104.48C138.748 103.493 137.945 102.694 136.91 102.177L134.227 107.543ZM134.031 107.368C133.98 107.276 134.052 107.342 134.052 107.73H140.052C140.052 106.662 139.863 105.524 139.29 104.48L134.031 107.368ZM134.052 107.73V112H140.052V107.73H134.052ZM137.052 109H135.708V115H137.052V109ZM138.708 112V107.884H132.708V112H138.708ZM138.708 107.884C138.708 106.709 138.417 105.287 137.325 104.166L133.028 108.354C132.849 108.17 132.761 107.984 132.724 107.873C132.692 107.775 132.708 107.763 132.708 107.884H138.708ZM137.353 104.195C136.299 103.085 134.933 102.714 133.706 102.714V108.714C133.741 108.714 133.658 108.719 133.505 108.663C133.339 108.601 133.156 108.489 133 108.325L137.353 104.195ZM133.706 102.714C132.835 102.714 131.923 102.887 131.063 103.339L133.858 108.649C133.787 108.686 133.729 108.703 133.696 108.711C133.664 108.718 133.664 108.714 133.706 108.714V102.714ZM131.063 103.339C130.163 103.813 129.462 104.526 128.993 105.398L134.276 108.242C134.244 108.301 134.19 108.381 134.109 108.462C134.027 108.544 133.939 108.606 133.858 108.649L131.063 103.339ZM128.965 105.451C128.502 106.353 128.354 107.308 128.354 108.178H134.354C134.354 108.129 134.356 108.093 134.359 108.069C134.361 108.046 134.363 108.036 134.363 108.038C134.361 108.044 134.349 108.101 134.304 108.189L128.965 105.451ZM128.354 108.178V112H134.354V108.178H128.354ZM131.354 109H130.01V115H131.354V109ZM133.01 112V104.58H127.01V112H133.01ZM130.01 107.58H131.298V101.58H130.01V107.58ZM128.298 104.58V106.582H134.298V104.58H128.298ZM134.089 105.48L133.879 104.948L128.298 107.151L128.508 107.683L134.089 105.48ZM133.772 107.392C133.755 107.426 133.725 107.47 133.685 107.511C133.646 107.55 133.619 107.564 133.628 107.559L130.789 102.273C129.771 102.82 128.94 103.638 128.405 104.708L133.772 107.392ZM133.628 107.559C133.632 107.557 133.652 107.546 133.7 107.535C133.75 107.524 133.838 107.51 133.972 107.51V101.51C132.892 101.51 131.8 101.73 130.789 102.273L133.628 107.559ZM140.8 114.506L141.673 111.636L141.66 111.632L141.646 111.628L140.8 114.506ZM139.246 113.694L136.698 112.11L135.359 114.263L137.259 115.942L139.246 113.694ZM139.89 112.658L141.852 110.389L139.196 108.092L137.342 111.074L139.89 112.658ZM141.164 113.358L142.159 110.528L142.136 110.52L142.112 110.512L141.164 113.358ZM144.678 113.008L146.799 115.129L144.678 113.008ZM145.294 109.564L142.307 109.28L142.294 109.421V109.564H145.294ZM145.434 108.094L148.42 108.378L148.44 108.166L148.43 107.953L145.434 108.094ZM145.364 106.61H142.364V106.681L142.367 106.751L145.364 106.61ZM145.364 104.58V101.58H142.364V104.58H145.364ZM146.638 104.58H149.638V101.58H146.638V104.58ZM145.658 113.876L143.6 111.693V111.693L145.658 113.876ZM140.688 111.244L139.242 113.873L139.268 113.887L139.294 113.901L140.688 111.244ZM139.344 109.97L136.775 111.52L136.785 111.536L136.795 111.552L139.344 109.97ZM139.344 106.218L136.795 104.636L136.791 104.642L136.787 104.648L139.344 106.218ZM140.688 104.958L139.294 102.301L139.285 102.306L139.276 102.311L140.688 104.958ZM144.356 104.902L143.014 107.585L143.033 107.595L143.053 107.604L144.356 104.902ZM145.602 106.078L143.005 107.581L143.015 107.598L143.025 107.615L145.602 106.078ZM145.602 110.096L143.025 108.559L143.015 108.576L143.005 108.593L145.602 110.096ZM144.356 111.3L145.697 113.983L145.716 113.974L145.735 113.964L144.356 111.3ZM144.09 110.208L142.671 107.565V107.565L144.09 110.208ZM144.986 109.354L142.431 107.782L142.416 107.806L142.402 107.83L144.986 109.354ZM144.986 106.834L142.402 108.358L142.416 108.382L142.431 108.406L144.986 106.834ZM144.09 105.994L142.671 108.637L142.696 108.651L142.722 108.664L144.09 105.994ZM141.444 105.994L142.811 108.664L142.823 108.658L142.836 108.651L141.444 105.994ZM140.534 106.834L137.979 105.262L137.964 105.286L137.95 105.31L140.534 106.834ZM140.534 109.354L137.95 110.878L137.964 110.902L137.979 110.926L140.534 109.354ZM141.444 110.208L140.025 112.851L140.038 112.859L140.052 112.865L141.444 110.208ZM142.788 111.8C142.399 111.8 142.03 111.745 141.673 111.636L139.926 117.376C140.857 117.659 141.814 117.8 142.788 117.8V111.8ZM141.646 111.628C141.336 111.537 141.236 111.45 141.232 111.446L137.259 115.942C138.058 116.648 138.994 117.102 139.953 117.384L141.646 111.628ZM141.793 115.278L142.437 114.242L137.342 111.074L136.698 112.11L141.793 115.278ZM137.927 114.927C138.614 115.521 139.399 115.932 140.215 116.204L142.112 110.512C141.921 110.448 141.856 110.392 141.852 110.389L137.927 114.927ZM140.168 116.188C141.002 116.481 141.866 116.624 142.746 116.624V110.624C142.524 110.624 142.334 110.589 142.159 110.528L140.168 116.188ZM142.746 116.624C144.018 116.624 145.595 116.334 146.799 115.129L142.556 110.887C142.741 110.702 142.916 110.631 142.975 110.612C143.021 110.597 142.962 110.624 142.746 110.624V116.624ZM146.799 115.129C147.982 113.946 148.294 112.412 148.294 111.132H142.294C142.294 111.317 142.27 111.355 142.289 111.295C142.314 111.221 142.387 111.056 142.556 110.887L146.799 115.129ZM148.294 111.132V109.564H142.294V111.132H148.294ZM148.28 109.848L148.42 108.378L142.447 107.81L142.307 109.28L148.28 109.848ZM148.43 107.953L148.36 106.469L142.367 106.751L142.437 108.235L148.43 107.953ZM148.364 106.61V104.58H142.364V106.61H148.364ZM145.364 107.58H146.638V101.58H145.364V107.58ZM143.638 104.58V110.992H149.638V104.58H143.638ZM143.638 110.992C143.638 111.406 143.585 111.633 143.552 111.728C143.526 111.806 143.526 111.763 143.6 111.693L147.716 116.059C149.2 114.66 149.638 112.745 149.638 110.992H143.638ZM143.6 111.693C143.694 111.605 143.593 111.8 142.788 111.8V117.8C144.503 117.8 146.315 117.379 147.716 116.059L143.6 111.693ZM142.62 108.692C142.328 108.692 142.172 108.635 142.081 108.587L139.294 113.901C140.342 114.45 141.474 114.692 142.62 114.692V108.692ZM142.133 108.615C142.023 108.555 141.956 108.49 141.893 108.388L136.795 111.552C137.403 112.533 138.232 113.317 139.242 113.873L142.133 108.615ZM141.912 108.42C141.901 108.402 141.854 108.325 141.854 108.094H135.854C135.854 109.281 136.133 110.456 136.775 111.52L141.912 108.42ZM141.854 108.094C141.854 107.962 141.868 107.883 141.879 107.844C141.888 107.807 141.897 107.793 141.9 107.788L136.787 104.648C136.129 105.72 135.854 106.907 135.854 108.094H141.854ZM141.893 107.8C141.951 107.706 142.008 107.654 142.099 107.605L139.276 102.311C138.248 102.859 137.408 103.647 136.795 104.636L141.893 107.8ZM142.081 107.615C142.172 107.567 142.328 107.51 142.62 107.51V101.51C141.474 101.51 140.342 101.752 139.294 102.301L142.081 107.615ZM142.62 107.51C142.829 107.51 142.943 107.55 143.014 107.585L145.697 102.219C144.723 101.732 143.679 101.51 142.62 101.51V107.51ZM143.053 107.604C143.049 107.602 143.04 107.598 143.029 107.59C143.019 107.583 143.008 107.575 143 107.567C142.992 107.559 142.988 107.554 142.988 107.554C142.989 107.555 142.995 107.563 143.005 107.581L148.198 104.575C147.608 103.555 146.756 102.729 145.659 102.2L143.053 107.604ZM143.025 107.615C142.992 107.559 143.078 107.659 143.078 108.094H149.078C149.078 106.905 148.846 105.661 148.178 104.541L143.025 107.615ZM143.078 108.094C143.078 108.512 142.995 108.61 143.025 108.559L148.178 111.633C148.843 110.518 149.078 109.281 149.078 108.094H143.078ZM143.005 108.593C142.993 108.614 142.984 108.627 142.979 108.633C142.975 108.639 142.973 108.64 142.974 108.639C142.976 108.637 142.978 108.635 142.98 108.634C142.982 108.632 142.982 108.633 142.976 108.636L145.735 113.964C146.789 113.418 147.617 112.603 148.198 111.599L143.005 108.593ZM143.014 108.617C142.943 108.652 142.829 108.692 142.62 108.692V114.692C143.679 114.692 144.723 114.47 145.697 113.983L143.014 108.617ZM142.774 113.516C143.694 113.516 144.632 113.322 145.508 112.851L142.671 107.565C142.72 107.538 142.763 107.524 142.79 107.518C142.815 107.512 142.813 107.516 142.774 107.516V113.516ZM145.508 112.851C146.36 112.394 147.068 111.728 147.57 110.878L142.402 107.83C142.431 107.779 142.475 107.722 142.531 107.669C142.586 107.616 142.638 107.582 142.671 107.565L145.508 112.851ZM147.541 110.926C148.088 110.037 148.322 109.06 148.322 108.094H142.322C142.322 108.096 142.322 108.058 142.339 107.993C142.357 107.926 142.387 107.852 142.431 107.782L147.541 110.926ZM148.322 108.094C148.322 107.128 148.088 106.151 147.541 105.262L142.431 108.406C142.387 108.336 142.357 108.262 142.339 108.195C142.322 108.13 142.322 108.092 142.322 108.094H148.322ZM147.57 105.31C147.061 104.448 146.336 103.774 145.457 103.324L142.722 108.664C142.676 108.641 142.614 108.601 142.549 108.54C142.483 108.478 142.434 108.414 142.402 108.358L147.57 105.31ZM145.508 103.351C144.632 102.88 143.694 102.686 142.774 102.686V108.686C142.813 108.686 142.815 108.69 142.79 108.684C142.763 108.678 142.72 108.664 142.671 108.637L145.508 103.351ZM142.774 102.686C141.852 102.686 140.922 102.881 140.052 103.337L142.836 108.651C142.818 108.661 142.801 108.668 142.785 108.674C142.769 108.68 142.756 108.684 142.747 108.686C142.728 108.69 142.735 108.686 142.774 108.686V102.686ZM140.076 103.324C139.208 103.769 138.492 104.427 137.979 105.262L143.089 108.406C143.062 108.449 143.021 108.503 142.964 108.555C142.907 108.608 142.852 108.643 142.811 108.664L140.076 103.324ZM137.95 105.31C137.429 106.192 137.212 107.151 137.212 108.094H143.212C143.212 108.082 143.213 108.11 143.199 108.165C143.184 108.222 143.158 108.29 143.118 108.358L137.95 105.31ZM137.212 108.094C137.212 109.037 137.429 109.996 137.95 110.878L143.118 107.83C143.158 107.898 143.184 107.966 143.199 108.023C143.213 108.078 143.212 108.106 143.212 108.094H137.212ZM137.979 110.926C138.485 111.749 139.184 112.4 140.025 112.851L142.862 107.565C142.891 107.58 142.935 107.609 142.982 107.653C143.03 107.697 143.065 107.744 143.089 107.782L137.979 110.926ZM140.052 112.865C140.922 113.321 141.852 113.516 142.774 113.516V107.516C142.735 107.516 142.728 107.512 142.747 107.516C142.756 107.518 142.769 107.522 142.785 107.528C142.801 107.534 142.818 107.541 142.836 107.551L140.052 112.865Z" fill="white" mask="url(#path-2-outside-1_1_11366)"/>
<path d="M92.067 77.6974L78.2242 48.9866L92.067 36.3538L105.91 48.9866L92.067 77.6974Z" fill="#FDE767" stroke="#BAA736" stroke-width="2"/>
<defs>
<filter id="filter0_d_1_11366" x="0" y="0" width="183" height="148" filterUnits="userSpaceOnUse" color-interpolation-filters="sRGB">
<feFlood flood-opacity="0" result="BackgroundImageFix"/>
<feColorMatrix in="SourceAlpha" type="matrix" values="0 0 0 0 0 0 0 0 0 0 0 0 0 0 0 0 0 0 127 0" result="hardAlpha"/>
<feOffset dy="4"/>
<feGaussianBlur stdDeviation="8"/>
<feComposite in2="hardAlpha" operator="out"/>
<feColorMatrix type="matrix" values="0 0 0 0 0 0 0 0 0 0 0 0 0 0 0 0 0 0 0.25 0"/>
<feBlend mode="normal" in2="BackgroundImageFix" result="effect1_dropShadow_1_11366"/>
<feBlend mode="normal" in="SourceGraphic" in2="effect1_dropShadow_1_11366" result="shape"/>
</filter>
</defs>
</svg>
