<svg width="183" height="148" viewBox="0 0 183 148" fill="none" xmlns="http://www.w3.org/2000/svg">
<g filter="url(#filter0_d_1_11358)">
<rect x="16" y="12" width="151" height="116" rx="16" fill="#E8FFD6"/>
</g>
<mask id="path-2-outside-1_1_11358" maskUnits="userSpaceOnUse" x="54" y="98" width="76" height="20" fill="black">
<rect fill="white" x="54" y="98" width="76" height="20"/>
<path d="M57.8343 112V102.2H59.2343V110.782H64.5403V112H57.8343ZM65.9508 112V104.58H67.2948V112H65.9508ZM66.6228 103.152C66.3614 103.152 66.1421 103.068 65.9648 102.9C65.7968 102.732 65.7128 102.527 65.7128 102.284C65.7128 102.032 65.7968 101.822 65.9648 101.654C66.1421 101.486 66.3614 101.402 66.6228 101.402C66.8841 101.402 67.0988 101.486 67.2668 101.654C67.4441 101.813 67.5328 102.013 67.5328 102.256C67.5328 102.508 67.4488 102.723 67.2808 102.9C67.1128 103.068 66.8934 103.152 66.6228 103.152ZM73.8229 104.51C74.4296 104.51 74.9616 104.627 75.4189 104.86C75.8856 105.093 76.2496 105.448 76.5109 105.924C76.7722 106.4 76.9029 107.002 76.9029 107.73V112H75.5589V107.884C75.5589 107.165 75.3816 106.624 75.0269 106.26C74.6816 105.896 74.1916 105.714 73.5569 105.714C73.0809 105.714 72.6656 105.807 72.3109 105.994C71.9562 106.181 71.6809 106.456 71.4849 106.82C71.2982 107.184 71.2049 107.637 71.2049 108.178V112H69.8609V104.58H71.1489V106.582L70.9389 106.05C71.1816 105.565 71.5549 105.187 72.0589 104.916C72.5629 104.645 73.1509 104.51 73.8229 104.51ZM82.6382 114.8C81.9569 114.8 81.2942 114.702 80.6502 114.506C80.0155 114.319 79.4975 114.049 79.0962 113.694L79.7402 112.658C80.0855 112.957 80.5102 113.19 81.0142 113.358C81.5182 113.535 82.0455 113.624 82.5962 113.624C83.4735 113.624 84.1175 113.419 84.5282 113.008C84.9389 112.597 85.1442 111.972 85.1442 111.132V109.564L85.2842 108.094L85.2142 106.61V104.58H86.4882V110.992C86.4882 112.299 86.1615 113.26 85.5082 113.876C84.8549 114.492 83.8982 114.8 82.6382 114.8ZM82.4702 111.692C81.7515 111.692 81.1075 111.543 80.5382 111.244C79.9782 110.936 79.5302 110.511 79.1942 109.97C78.8675 109.429 78.7042 108.803 78.7042 108.094C78.7042 107.375 78.8675 106.75 79.1942 106.218C79.5302 105.677 79.9782 105.257 80.5382 104.958C81.1075 104.659 81.7515 104.51 82.4702 104.51C83.1049 104.51 83.6835 104.641 84.2062 104.902C84.7289 105.154 85.1442 105.546 85.4522 106.078C85.7695 106.61 85.9282 107.282 85.9282 108.094C85.9282 108.897 85.7695 109.564 85.4522 110.096C85.1442 110.628 84.7289 111.029 84.2062 111.3C83.6835 111.561 83.1049 111.692 82.4702 111.692ZM82.6242 110.516C83.1189 110.516 83.5575 110.413 83.9402 110.208C84.3229 110.003 84.6215 109.718 84.8362 109.354C85.0602 108.99 85.1722 108.57 85.1722 108.094C85.1722 107.618 85.0602 107.198 84.8362 106.834C84.6215 106.47 84.3229 106.19 83.9402 105.994C83.5575 105.789 83.1189 105.686 82.6242 105.686C82.1295 105.686 81.6862 105.789 81.2942 105.994C80.9115 106.19 80.6082 106.47 80.3842 106.834C80.1695 107.198 80.0622 107.618 80.0622 108.094C80.0622 108.57 80.1695 108.99 80.3842 109.354C80.6082 109.718 80.9115 110.003 81.2942 110.208C81.6862 110.413 82.1295 110.516 82.6242 110.516ZM90.1482 110.208L90.1762 108.486L94.4462 104.58H96.0702L92.7942 107.8L92.0662 108.416L90.1482 110.208ZM89.0562 112V101.612H90.4002V112H89.0562ZM94.7262 112L91.8142 108.388L92.6822 107.31L96.3782 112H94.7262ZM102.152 112V110.432L102.082 110.138V107.464C102.082 106.895 101.914 106.456 101.578 106.148C101.252 105.831 100.757 105.672 100.094 105.672C99.6558 105.672 99.2265 105.747 98.8065 105.896C98.3865 106.036 98.0318 106.227 97.7425 106.47L97.1825 105.462C97.5651 105.154 98.0225 104.921 98.5545 104.762C99.0958 104.594 99.6605 104.51 100.248 104.51C101.266 104.51 102.05 104.757 102.6 105.252C103.151 105.747 103.426 106.503 103.426 107.52V112H102.152ZM99.7165 112.084C99.1658 112.084 98.6805 111.991 98.2605 111.804C97.8498 111.617 97.5325 111.361 97.3085 111.034C97.0845 110.698 96.9725 110.32 96.9725 109.9C96.9725 109.499 97.0658 109.135 97.2525 108.808C97.4485 108.481 97.7611 108.22 98.1905 108.024C98.6291 107.828 99.2171 107.73 99.9545 107.73H102.306V108.696H100.01C99.3385 108.696 98.8858 108.808 98.6525 109.032C98.4191 109.256 98.3025 109.527 98.3025 109.844C98.3025 110.208 98.4471 110.502 98.7365 110.726C99.0258 110.941 99.4271 111.048 99.9405 111.048C100.444 111.048 100.883 110.936 101.256 110.712C101.639 110.488 101.914 110.161 102.082 109.732L102.348 110.656C102.171 111.095 101.858 111.445 101.41 111.706C100.962 111.958 100.398 112.084 99.7165 112.084ZM105.914 112V104.58H107.202V106.596L107.076 106.092C107.281 105.579 107.626 105.187 108.112 104.916C108.597 104.645 109.194 104.51 109.904 104.51V105.812C109.848 105.803 109.792 105.798 109.736 105.798C109.689 105.798 109.642 105.798 109.596 105.798C108.877 105.798 108.308 106.013 107.888 106.442C107.468 106.871 107.258 107.492 107.258 108.304V112H105.914ZM115.619 112V110.432L115.549 110.138V107.464C115.549 106.895 115.381 106.456 115.045 106.148C114.719 105.831 114.224 105.672 113.561 105.672C113.123 105.672 112.693 105.747 112.273 105.896C111.853 106.036 111.499 106.227 111.209 106.47L110.649 105.462C111.032 105.154 111.489 104.921 112.021 104.762C112.563 104.594 113.127 104.51 113.715 104.51C114.733 104.51 115.517 104.757 116.067 105.252C116.618 105.747 116.893 106.503 116.893 107.52V112H115.619ZM113.183 112.084C112.633 112.084 112.147 111.991 111.727 111.804C111.317 111.617 110.999 111.361 110.775 111.034C110.551 110.698 110.439 110.32 110.439 109.9C110.439 109.499 110.533 109.135 110.719 108.808C110.915 108.481 111.228 108.22 111.657 108.024C112.096 107.828 112.684 107.73 113.421 107.73H115.773V108.696H113.477C112.805 108.696 112.353 108.808 112.119 109.032C111.886 109.256 111.769 109.527 111.769 109.844C111.769 110.208 111.914 110.502 112.203 110.726C112.493 110.941 112.894 111.048 113.407 111.048C113.911 111.048 114.35 110.936 114.723 110.712C115.106 110.488 115.381 110.161 115.549 109.732L115.815 110.656C115.638 111.095 115.325 111.445 114.877 111.706C114.429 111.958 113.865 112.084 113.183 112.084ZM123.342 104.51C123.949 104.51 124.481 104.627 124.938 104.86C125.405 105.093 125.769 105.448 126.03 105.924C126.292 106.4 126.422 107.002 126.422 107.73V112H125.078V107.884C125.078 107.165 124.901 106.624 124.546 106.26C124.201 105.896 123.711 105.714 123.076 105.714C122.6 105.714 122.185 105.807 121.83 105.994C121.476 106.181 121.2 106.456 121.004 106.82C120.818 107.184 120.724 107.637 120.724 108.178V112H119.38V104.58H120.668V106.582L120.458 106.05C120.701 105.565 121.074 105.187 121.578 104.916C122.082 104.645 122.67 104.51 123.342 104.51Z"/>
</mask>
<path d="M57.8343 112V102.2H59.2343V110.782H64.5403V112H57.8343ZM65.9508 112V104.58H67.2948V112H65.9508ZM66.6228 103.152C66.3614 103.152 66.1421 103.068 65.9648 102.9C65.7968 102.732 65.7128 102.527 65.7128 102.284C65.7128 102.032 65.7968 101.822 65.9648 101.654C66.1421 101.486 66.3614 101.402 66.6228 101.402C66.8841 101.402 67.0988 101.486 67.2668 101.654C67.4441 101.813 67.5328 102.013 67.5328 102.256C67.5328 102.508 67.4488 102.723 67.2808 102.9C67.1128 103.068 66.8934 103.152 66.6228 103.152ZM73.8229 104.51C74.4296 104.51 74.9616 104.627 75.4189 104.86C75.8856 105.093 76.2496 105.448 76.5109 105.924C76.7722 106.4 76.9029 107.002 76.9029 107.73V112H75.5589V107.884C75.5589 107.165 75.3816 106.624 75.0269 106.26C74.6816 105.896 74.1916 105.714 73.5569 105.714C73.0809 105.714 72.6656 105.807 72.3109 105.994C71.9562 106.181 71.6809 106.456 71.4849 106.82C71.2982 107.184 71.2049 107.637 71.2049 108.178V112H69.8609V104.58H71.1489V106.582L70.9389 106.05C71.1816 105.565 71.5549 105.187 72.0589 104.916C72.5629 104.645 73.1509 104.51 73.8229 104.51ZM82.6382 114.8C81.9569 114.8 81.2942 114.702 80.6502 114.506C80.0155 114.319 79.4975 114.049 79.0962 113.694L79.7402 112.658C80.0855 112.957 80.5102 113.19 81.0142 113.358C81.5182 113.535 82.0455 113.624 82.5962 113.624C83.4735 113.624 84.1175 113.419 84.5282 113.008C84.9389 112.597 85.1442 111.972 85.1442 111.132V109.564L85.2842 108.094L85.2142 106.61V104.58H86.4882V110.992C86.4882 112.299 86.1615 113.26 85.5082 113.876C84.8549 114.492 83.8982 114.8 82.6382 114.8ZM82.4702 111.692C81.7515 111.692 81.1075 111.543 80.5382 111.244C79.9782 110.936 79.5302 110.511 79.1942 109.97C78.8675 109.429 78.7042 108.803 78.7042 108.094C78.7042 107.375 78.8675 106.75 79.1942 106.218C79.5302 105.677 79.9782 105.257 80.5382 104.958C81.1075 104.659 81.7515 104.51 82.4702 104.51C83.1049 104.51 83.6835 104.641 84.2062 104.902C84.7289 105.154 85.1442 105.546 85.4522 106.078C85.7695 106.61 85.9282 107.282 85.9282 108.094C85.9282 108.897 85.7695 109.564 85.4522 110.096C85.1442 110.628 84.7289 111.029 84.2062 111.3C83.6835 111.561 83.1049 111.692 82.4702 111.692ZM82.6242 110.516C83.1189 110.516 83.5575 110.413 83.9402 110.208C84.3229 110.003 84.6215 109.718 84.8362 109.354C85.0602 108.99 85.1722 108.57 85.1722 108.094C85.1722 107.618 85.0602 107.198 84.8362 106.834C84.6215 106.47 84.3229 106.19 83.9402 105.994C83.5575 105.789 83.1189 105.686 82.6242 105.686C82.1295 105.686 81.6862 105.789 81.2942 105.994C80.9115 106.19 80.6082 106.47 80.3842 106.834C80.1695 107.198 80.0622 107.618 80.0622 108.094C80.0622 108.57 80.1695 108.99 80.3842 109.354C80.6082 109.718 80.9115 110.003 81.2942 110.208C81.6862 110.413 82.1295 110.516 82.6242 110.516ZM90.1482 110.208L90.1762 108.486L94.4462 104.58H96.0702L92.7942 107.8L92.0662 108.416L90.1482 110.208ZM89.0562 112V101.612H90.4002V112H89.0562ZM94.7262 112L91.8142 108.388L92.6822 107.31L96.3782 112H94.7262ZM102.152 112V110.432L102.082 110.138V107.464C102.082 106.895 101.914 106.456 101.578 106.148C101.252 105.831 100.757 105.672 100.094 105.672C99.6558 105.672 99.2265 105.747 98.8065 105.896C98.3865 106.036 98.0318 106.227 97.7425 106.47L97.1825 105.462C97.5651 105.154 98.0225 104.921 98.5545 104.762C99.0958 104.594 99.6605 104.51 100.248 104.51C101.266 104.51 102.05 104.757 102.6 105.252C103.151 105.747 103.426 106.503 103.426 107.52V112H102.152ZM99.7165 112.084C99.1658 112.084 98.6805 111.991 98.2605 111.804C97.8498 111.617 97.5325 111.361 97.3085 111.034C97.0845 110.698 96.9725 110.32 96.9725 109.9C96.9725 109.499 97.0658 109.135 97.2525 108.808C97.4485 108.481 97.7611 108.22 98.1905 108.024C98.6291 107.828 99.2171 107.73 99.9545 107.73H102.306V108.696H100.01C99.3385 108.696 98.8858 108.808 98.6525 109.032C98.4191 109.256 98.3025 109.527 98.3025 109.844C98.3025 110.208 98.4471 110.502 98.7365 110.726C99.0258 110.941 99.4271 111.048 99.9405 111.048C100.444 111.048 100.883 110.936 101.256 110.712C101.639 110.488 101.914 110.161 102.082 109.732L102.348 110.656C102.171 111.095 101.858 111.445 101.41 111.706C100.962 111.958 100.398 112.084 99.7165 112.084ZM105.914 112V104.58H107.202V106.596L107.076 106.092C107.281 105.579 107.626 105.187 108.112 104.916C108.597 104.645 109.194 104.51 109.904 104.51V105.812C109.848 105.803 109.792 105.798 109.736 105.798C109.689 105.798 109.642 105.798 109.596 105.798C108.877 105.798 108.308 106.013 107.888 106.442C107.468 106.871 107.258 107.492 107.258 108.304V112H105.914ZM115.619 112V110.432L115.549 110.138V107.464C115.549 106.895 115.381 106.456 115.045 106.148C114.719 105.831 114.224 105.672 113.561 105.672C113.123 105.672 112.693 105.747 112.273 105.896C111.853 106.036 111.499 106.227 111.209 106.47L110.649 105.462C111.032 105.154 111.489 104.921 112.021 104.762C112.563 104.594 113.127 104.51 113.715 104.51C114.733 104.51 115.517 104.757 116.067 105.252C116.618 105.747 116.893 106.503 116.893 107.52V112H115.619ZM113.183 112.084C112.633 112.084 112.147 111.991 111.727 111.804C111.317 111.617 110.999 111.361 110.775 111.034C110.551 110.698 110.439 110.32 110.439 109.9C110.439 109.499 110.533 109.135 110.719 108.808C110.915 108.481 111.228 108.22 111.657 108.024C112.096 107.828 112.684 107.73 113.421 107.73H115.773V108.696H113.477C112.805 108.696 112.353 108.808 112.119 109.032C111.886 109.256 111.769 109.527 111.769 109.844C111.769 110.208 111.914 110.502 112.203 110.726C112.493 110.941 112.894 111.048 113.407 111.048C113.911 111.048 114.35 110.936 114.723 110.712C115.106 110.488 115.381 110.161 115.549 109.732L115.815 110.656C115.638 111.095 115.325 111.445 114.877 111.706C114.429 111.958 113.865 112.084 113.183 112.084ZM123.342 104.51C123.949 104.51 124.481 104.627 124.938 104.86C125.405 105.093 125.769 105.448 126.03 105.924C126.292 106.4 126.422 107.002 126.422 107.73V112H125.078V107.884C125.078 107.165 124.901 106.624 124.546 106.26C124.201 105.896 123.711 105.714 123.076 105.714C122.6 105.714 122.185 105.807 121.83 105.994C121.476 106.181 121.2 106.456 121.004 106.82C120.818 107.184 120.724 107.637 120.724 108.178V112H119.38V104.58H120.668V106.582L120.458 106.05C120.701 105.565 121.074 105.187 121.578 104.916C122.082 104.645 122.67 104.51 123.342 104.51Z" fill="#8ED654"/>
<path d="M57.8343 112H54.8343V115H57.8343V112ZM57.8343 102.2V99.2H54.8343V102.2H57.8343ZM59.2343 102.2H62.2343V99.2H59.2343V102.2ZM59.2343 110.782H56.2343V113.782H59.2343V110.782ZM64.5403 110.782H67.5403V107.782H64.5403V110.782ZM64.5403 112V115H67.5403V112H64.5403ZM60.8343 112V102.2H54.8343V112H60.8343ZM57.8343 105.2H59.2343V99.2H57.8343V105.2ZM56.2343 102.2V110.782H62.2343V102.2H56.2343ZM59.2343 113.782H64.5403V107.782H59.2343V113.782ZM61.5403 110.782V112H67.5403V110.782H61.5403ZM64.5403 109H57.8343V115H64.5403V109ZM65.9508 112H62.9508V115H65.9508V112ZM65.9508 104.58V101.58H62.9508V104.58H65.9508ZM67.2948 104.58H70.2948V101.58H67.2948V104.58ZM67.2948 112V115H70.2948V112H67.2948ZM65.9648 102.9L63.8434 105.021L63.8721 105.05L63.9015 105.078L65.9648 102.9ZM65.9648 101.654L63.9015 99.4761L63.8721 99.504L63.8434 99.5327L65.9648 101.654ZM67.2668 101.654L65.1454 103.775L65.2043 103.834L65.2664 103.89L67.2668 101.654ZM67.2808 102.9L69.4021 105.021L69.4307 104.993L69.4586 104.963L67.2808 102.9ZM68.9508 112V104.58H62.9508V112H68.9508ZM65.9508 107.58H67.2948V101.58H65.9508V107.58ZM64.2948 104.58V112H70.2948V104.58H64.2948ZM67.2948 109H65.9508V115H67.2948V109ZM66.6228 100.152C66.8177 100.152 67.0659 100.184 67.3352 100.287C67.6081 100.392 67.8424 100.546 68.028 100.722L63.9015 105.078C64.6774 105.813 65.6527 106.152 66.6228 106.152V100.152ZM68.0861 100.779C68.2636 100.956 68.4331 101.192 68.5524 101.484C68.6712 101.774 68.7128 102.053 68.7128 102.284H62.7128C62.7128 103.303 63.0995 104.277 63.8434 105.021L68.0861 100.779ZM68.7128 102.284C68.7128 102.496 68.6762 102.764 68.5612 103.052C68.4447 103.343 68.2746 103.587 68.0861 103.775L63.8434 99.5327C63.076 100.3 62.7128 101.29 62.7128 102.284H68.7128ZM68.028 103.832C67.8424 104.008 67.6081 104.162 67.3352 104.267C67.0659 104.37 66.8177 104.402 66.6228 104.402V98.402C65.6527 98.402 64.6774 98.7411 63.9015 99.4761L68.028 103.832ZM66.6228 104.402C66.429 104.402 66.171 104.37 65.8866 104.259C65.5965 104.145 65.3449 103.975 65.1454 103.775L69.3881 99.5327C68.5986 98.7432 67.5924 98.402 66.6228 98.402V104.402ZM65.2664 103.89C65.0645 103.709 64.8644 103.458 64.7222 103.136C64.5806 102.816 64.5328 102.508 64.5328 102.256H70.5328C70.5328 101.179 70.0948 100.159 69.2671 99.4183L65.2664 103.89ZM64.5328 102.256C64.5328 102.043 64.5695 101.785 64.676 101.513C64.7832 101.239 64.9371 101.012 65.1029 100.837L69.4586 104.963C70.1727 104.209 70.5328 103.249 70.5328 102.256H64.5328ZM65.1594 100.779C65.3697 100.568 65.629 100.398 65.9173 100.287C66.1981 100.18 66.4465 100.152 66.6228 100.152V106.152C67.5686 106.152 68.5917 105.832 69.4021 105.021L65.1594 100.779ZM75.4189 104.86L74.0555 107.532L74.0664 107.538L74.0773 107.543L75.4189 104.86ZM76.5109 105.924L79.1407 104.48L76.5109 105.924ZM76.9029 112V115H79.9029V112H76.9029ZM75.5589 112H72.5589V115H75.5589V112ZM75.0269 106.26L72.8505 108.325L72.8643 108.339L72.8782 108.354L75.0269 106.26ZM72.3109 105.994L70.9137 103.339L72.3109 105.994ZM71.4849 106.82L68.8435 105.398L68.8292 105.424L68.8155 105.451L71.4849 106.82ZM71.2049 112V115H74.2049V112H71.2049ZM69.8609 112H66.8609V115H69.8609V112ZM69.8609 104.58V101.58H66.8609V104.58H69.8609ZM71.1489 104.58H74.1489V101.58H71.1489V104.58ZM71.1489 106.582L68.3584 107.683L74.1489 106.582H71.1489ZM70.9389 106.05L68.2556 104.708L67.6568 105.906L68.1484 107.151L70.9389 106.05ZM72.0589 104.916L70.6395 102.273V102.273L72.0589 104.916ZM73.8229 107.51C73.9343 107.51 74.0017 107.521 74.0343 107.528C74.0652 107.535 74.0685 107.539 74.0555 107.532L76.7823 102.188C75.8325 101.703 74.8178 101.51 73.8229 101.51V107.51ZM74.0773 107.543C74.0413 107.525 73.9938 107.494 73.9483 107.45C73.9036 107.406 73.8836 107.372 73.8812 107.368L79.1407 104.48C78.5986 103.493 77.7957 102.694 76.7606 102.177L74.0773 107.543ZM73.8812 107.368C73.8309 107.276 73.9029 107.342 73.9029 107.73H79.9029C79.9029 106.662 79.7136 105.524 79.1407 104.48L73.8812 107.368ZM73.9029 107.73V112H79.9029V107.73H73.9029ZM76.9029 109H75.5589V115H76.9029V109ZM78.5589 112V107.884H72.5589V112H78.5589ZM78.5589 107.884C78.5589 106.709 78.2678 105.287 77.1756 104.166L72.8782 108.354C72.6993 108.17 72.6115 107.984 72.575 107.873C72.543 107.775 72.5589 107.763 72.5589 107.884H78.5589ZM77.2033 104.195C76.1499 103.085 74.7833 102.714 73.5569 102.714V108.714C73.5917 108.714 73.5081 108.719 73.3559 108.663C73.1899 108.601 73.0064 108.489 72.8505 108.325L77.2033 104.195ZM73.5569 102.714C72.6851 102.714 71.7731 102.887 70.9137 103.339L73.7082 108.649C73.638 108.686 73.5799 108.703 73.5462 108.711C73.5143 108.718 73.5146 108.714 73.5569 108.714V102.714ZM70.9137 103.339C70.0136 103.813 69.313 104.526 68.8435 105.398L74.1263 108.242C74.0945 108.301 74.0409 108.381 73.9597 108.462C73.878 108.544 73.7897 108.606 73.7082 108.649L70.9137 103.339ZM68.8155 105.451C68.3529 106.353 68.2049 107.308 68.2049 108.178H74.2049C74.2049 108.129 74.2071 108.093 74.2093 108.069C74.2115 108.046 74.2136 108.036 74.2131 108.038C74.212 108.044 74.1995 108.101 74.1544 108.189L68.8155 105.451ZM68.2049 108.178V112H74.2049V108.178H68.2049ZM71.2049 109H69.8609V115H71.2049V109ZM72.8609 112V104.58H66.8609V112H72.8609ZM69.8609 107.58H71.1489V101.58H69.8609V107.58ZM68.1489 104.58V106.582H74.1489V104.58H68.1489ZM73.9394 105.48L73.7294 104.948L68.1484 107.151L68.3584 107.683L73.9394 105.48ZM73.6222 107.392C73.6052 107.426 73.5756 107.47 73.5354 107.511C73.4962 107.55 73.4698 107.564 73.4783 107.559L70.6395 102.273C69.6214 102.82 68.7907 103.638 68.2556 104.708L73.6222 107.392ZM73.4783 107.559C73.4825 107.557 73.5028 107.546 73.5508 107.535C73.6008 107.524 73.6881 107.51 73.8229 107.51V101.51C72.7422 101.51 71.6504 101.73 70.6395 102.273L73.4783 107.559ZM80.6502 114.506L81.5237 111.636L81.5102 111.632L81.4967 111.628L80.6502 114.506ZM79.0962 113.694L76.5484 112.11L75.21 114.263L77.1096 115.942L79.0962 113.694ZM79.7402 112.658L81.7027 110.389L79.0464 108.092L77.1924 111.074L79.7402 112.658ZM81.0142 113.358L82.0099 110.528L81.9865 110.52L81.9629 110.512L81.0142 113.358ZM84.5282 113.008L86.6495 115.129L84.5282 113.008ZM85.1442 109.564L82.1577 109.28L82.1442 109.421V109.564H85.1442ZM85.2842 108.094L88.2707 108.378L88.2909 108.166L88.2809 107.953L85.2842 108.094ZM85.2142 106.61H82.2142V106.681L82.2175 106.751L85.2142 106.61ZM85.2142 104.58V101.58H82.2142V104.58H85.2142ZM86.4882 104.58H89.4882V101.58H86.4882V104.58ZM85.5082 113.876L83.4502 111.693V111.693L85.5082 113.876ZM80.5382 111.244L79.0925 113.873L79.1184 113.887L79.1446 113.901L80.5382 111.244ZM79.1942 109.97L76.6256 111.52L76.6354 111.536L76.6453 111.552L79.1942 109.97ZM79.1942 106.218L76.6453 104.636L76.6415 104.642L76.6377 104.648L79.1942 106.218ZM80.5382 104.958L79.1446 102.301L79.1355 102.306L79.1264 102.311L80.5382 104.958ZM84.2062 104.902L82.8646 107.585L82.8839 107.595L82.9033 107.604L84.2062 104.902ZM85.4522 106.078L82.8559 107.581L82.8657 107.598L82.8758 107.615L85.4522 106.078ZM85.4522 110.096L82.8758 108.559L82.8657 108.576L82.8559 108.593L85.4522 110.096ZM84.2062 111.3L85.5479 113.983L85.5669 113.974L85.5858 113.964L84.2062 111.3ZM83.9402 110.208L82.5218 107.565V107.565L83.9402 110.208ZM84.8362 109.354L82.2812 107.782L82.2664 107.806L82.2521 107.83L84.8362 109.354ZM84.8362 106.834L82.2521 108.358L82.2664 108.382L82.2812 108.406L84.8362 106.834ZM83.9402 105.994L82.5218 108.637L82.547 108.651L82.5726 108.664L83.9402 105.994ZM81.2942 105.994L82.6618 108.664L82.6741 108.658L82.6862 108.651L81.2942 105.994ZM80.3842 106.834L77.8292 105.262L77.8144 105.286L77.8001 105.31L80.3842 106.834ZM80.3842 109.354L77.8001 110.878L77.8144 110.902L77.8292 110.926L80.3842 109.354ZM81.2942 110.208L79.8758 112.851L79.8889 112.859L79.9022 112.865L81.2942 110.208ZM82.6382 111.8C82.2492 111.8 81.8811 111.745 81.5237 111.636L79.7767 117.376C80.7073 117.659 81.6645 117.8 82.6382 117.8V111.8ZM81.4967 111.628C81.1868 111.537 81.0868 111.45 81.0828 111.446L77.1096 115.942C77.9083 116.648 78.8443 117.102 79.8037 117.384L81.4967 111.628ZM81.6441 115.278L82.2881 114.242L77.1924 111.074L76.5484 112.11L81.6441 115.278ZM77.7778 114.927C78.4645 115.521 79.2493 115.932 80.0655 116.204L81.9629 110.512C81.7712 110.448 81.7066 110.392 81.7027 110.389L77.7778 114.927ZM80.0185 116.188C80.8522 116.481 81.717 116.624 82.5962 116.624V110.624C82.3741 110.624 82.1842 110.589 82.0099 110.528L80.0185 116.188ZM82.5962 116.624C83.8688 116.624 85.4453 116.334 86.6495 115.129L82.4069 110.887C82.5918 110.702 82.7664 110.631 82.8259 110.612C82.8713 110.597 82.8125 110.624 82.5962 110.624V116.624ZM86.6495 115.129C87.8325 113.946 88.1442 112.412 88.1442 111.132H82.1442C82.1442 111.317 82.1204 111.355 82.1399 111.295C82.1643 111.221 82.2377 111.056 82.4069 110.887L86.6495 115.129ZM88.1442 111.132V109.564H82.1442V111.132H88.1442ZM88.1307 109.848L88.2707 108.378L82.2977 107.81L82.1577 109.28L88.1307 109.848ZM88.2809 107.953L88.2109 106.469L82.2175 106.751L82.2875 108.235L88.2809 107.953ZM88.2142 106.61V104.58H82.2142V106.61H88.2142ZM85.2142 107.58H86.4882V101.58H85.2142V107.58ZM83.4882 104.58V110.992H89.4882V104.58H83.4882ZM83.4882 110.992C83.4882 111.406 83.4351 111.633 83.4027 111.728C83.3761 111.806 83.3762 111.763 83.4502 111.693L87.5662 116.059C89.0502 114.66 89.4882 112.745 89.4882 110.992H83.4882ZM83.4502 111.693C83.5443 111.605 83.4432 111.8 82.6382 111.8V117.8C84.3533 117.8 86.1655 117.379 87.5662 116.059L83.4502 111.693ZM82.4702 108.692C82.179 108.692 82.0227 108.635 81.9319 108.587L79.1446 113.901C80.1924 114.45 81.3241 114.692 82.4702 114.692V108.692ZM81.984 108.615C81.874 108.555 81.8065 108.49 81.7431 108.388L76.6453 111.552C77.2539 112.533 78.0824 113.317 79.0925 113.873L81.984 108.615ZM81.7628 108.42C81.7517 108.402 81.7042 108.325 81.7042 108.094H75.7042C75.7042 109.281 75.9834 110.456 76.6256 111.52L81.7628 108.42ZM81.7042 108.094C81.7042 107.962 81.7191 107.883 81.7293 107.844C81.7389 107.807 81.7475 107.793 81.7507 107.788L76.6377 104.648C75.9794 105.72 75.7042 106.907 75.7042 108.094H81.7042ZM81.7431 107.8C81.8016 107.706 81.8581 107.654 81.95 107.605L79.1264 102.311C78.0983 102.859 77.2588 103.647 76.6453 104.636L81.7431 107.8ZM81.9319 107.615C82.0227 107.567 82.179 107.51 82.4702 107.51V101.51C81.3241 101.51 80.1924 101.752 79.1446 102.301L81.9319 107.615ZM82.4702 107.51C82.68 107.51 82.7935 107.55 82.8646 107.585L85.5479 102.219C84.5735 101.732 83.5297 101.51 82.4702 101.51V107.51ZM82.9033 107.604C82.8994 107.602 82.891 107.598 82.8801 107.59C82.8691 107.583 82.859 107.575 82.8506 107.567C82.8422 107.559 82.8385 107.554 82.8388 107.554C82.8393 107.555 82.8455 107.563 82.8559 107.581L88.0485 104.575C87.4581 103.555 86.6063 102.729 85.5091 102.2L82.9033 107.604ZM82.8758 107.615C82.8424 107.559 82.9282 107.659 82.9282 108.094H88.9282C88.9282 106.905 88.6966 105.661 88.0287 104.541L82.8758 107.615ZM82.9282 108.094C82.9282 108.512 82.8453 108.61 82.8758 108.559L88.0287 111.633C88.6938 110.518 88.9282 109.281 88.9282 108.094H82.9282ZM82.8559 108.593C82.8436 108.614 82.8345 108.627 82.8298 108.633C82.8253 108.639 82.8236 108.64 82.8251 108.639C82.8266 108.637 82.8288 108.635 82.8309 108.634C82.833 108.632 82.8321 108.633 82.8266 108.636L85.5858 113.964C86.6396 113.418 87.4673 112.603 88.0485 111.599L82.8559 108.593ZM82.8646 108.617C82.7935 108.652 82.68 108.692 82.4702 108.692V114.692C83.5298 114.692 84.5735 114.47 85.5479 113.983L82.8646 108.617ZM82.6242 113.516C83.5443 113.516 84.4824 113.322 85.3587 112.851L82.5218 107.565C82.5707 107.538 82.6135 107.524 82.6406 107.518C82.666 107.512 82.6636 107.516 82.6242 107.516V113.516ZM85.3587 112.851C86.2109 112.394 86.9188 111.728 87.4203 110.878L82.2521 107.83C82.2821 107.779 82.3254 107.722 82.3814 107.669C82.437 107.616 82.4882 107.582 82.5218 107.565L85.3587 112.851ZM87.3912 110.926C87.9384 110.037 88.1722 109.06 88.1722 108.094H82.1722C82.1722 108.096 82.1722 108.058 82.1895 107.993C82.2073 107.926 82.2378 107.852 82.2812 107.782L87.3912 110.926ZM88.1722 108.094C88.1722 107.128 87.9384 106.151 87.3912 105.262L82.2812 108.406C82.2378 108.336 82.2073 108.262 82.1895 108.195C82.1722 108.13 82.1722 108.092 82.1722 108.094H88.1722ZM87.4203 105.31C86.9116 104.448 86.1871 103.774 85.3078 103.324L82.5726 108.664C82.527 108.641 82.4645 108.601 82.3994 108.54C82.3339 108.478 82.285 108.414 82.2521 108.358L87.4203 105.31ZM85.3587 103.351C84.4824 102.88 83.5443 102.686 82.6242 102.686V108.686C82.6636 108.686 82.666 108.69 82.6406 108.684C82.6135 108.678 82.5707 108.664 82.5218 108.637L85.3587 103.351ZM82.6242 102.686C81.7026 102.686 80.7723 102.881 79.9022 103.337L82.6862 108.651C82.669 108.661 82.6519 108.668 82.6357 108.674C82.6195 108.68 82.6065 108.684 82.5975 108.686C82.579 108.69 82.5851 108.686 82.6242 108.686V102.686ZM79.9266 103.324C79.0582 103.769 78.3429 104.427 77.8292 105.262L82.9392 108.406C82.9126 108.449 82.8714 108.503 82.8146 108.555C82.7578 108.608 82.7029 108.643 82.6618 108.664L79.9266 103.324ZM77.8001 105.31C77.28 106.192 77.0622 107.151 77.0622 108.094H83.0622C83.0622 108.082 83.0634 108.11 83.0493 108.165C83.0347 108.222 83.0085 108.29 82.9683 108.358L77.8001 105.31ZM77.0622 108.094C77.0622 109.037 77.28 109.996 77.8001 110.878L82.9683 107.83C83.0085 107.898 83.0347 107.966 83.0493 108.023C83.0634 108.078 83.0622 108.106 83.0622 108.094H77.0622ZM77.8292 110.926C78.3355 111.749 79.0342 112.4 79.8758 112.851L82.7127 107.565C82.7416 107.58 82.7854 107.609 82.8327 107.653C82.8801 107.697 82.9157 107.744 82.9392 107.782L77.8292 110.926ZM79.9022 112.865C80.7723 113.321 81.7026 113.516 82.6242 113.516V107.516C82.5851 107.516 82.579 107.512 82.5975 107.516C82.6065 107.518 82.6195 107.522 82.6357 107.528C82.6519 107.534 82.669 107.541 82.6862 107.551L79.9022 112.865ZM90.1482 110.208L87.1486 110.159L87.0338 117.224L92.1963 112.4L90.1482 110.208ZM90.1762 108.486L88.1514 106.272L87.1976 107.145L87.1766 108.437L90.1762 108.486ZM94.4462 104.58V101.58H93.2811L92.4214 102.366L94.4462 104.58ZM96.0702 104.58L98.1732 106.72L103.402 101.58H96.0702V104.58ZM92.7942 107.8L94.7321 110.09L94.8174 110.018L94.8972 109.94L92.7942 107.8ZM92.0662 108.416L90.1284 106.126L90.0721 106.174L90.0181 106.224L92.0662 108.416ZM89.0562 112H86.0562V115H89.0562V112ZM89.0562 101.612V98.612H86.0562V101.612H89.0562ZM90.4002 101.612H93.4002V98.612H90.4002V101.612ZM90.4002 112V115H93.4002V112H90.4002ZM94.7262 112L92.3907 113.883L93.2913 115H94.7262V112ZM91.8142 108.388L89.4776 106.507L87.9617 108.389L89.4787 110.271L91.8142 108.388ZM92.6822 107.31L95.0385 105.453L92.7075 102.495L90.3456 105.429L92.6822 107.31ZM96.3782 112V115H102.562L98.7345 110.143L96.3782 112ZM93.1478 110.257L93.1758 108.535L87.1766 108.437L87.1486 110.159L93.1478 110.257ZM92.2011 110.7L96.4711 106.794L92.4214 102.366L88.1514 106.272L92.2011 110.7ZM94.4462 107.58H96.0702V101.58H94.4462V107.58ZM93.9673 102.44L90.6913 105.66L94.8972 109.94L98.1732 106.72L93.9673 102.44ZM90.8564 105.51L90.1284 106.126L94.0041 110.706L94.7321 110.09L90.8564 105.51ZM90.0181 106.224L88.1001 108.016L92.1963 112.4L94.1143 110.608L90.0181 106.224ZM92.0562 112V101.612H86.0562V112H92.0562ZM89.0562 104.612H90.4002V98.612H89.0562V104.612ZM87.4002 101.612V112H93.4002V101.612H87.4002ZM90.4002 109H89.0562V115H90.4002V109ZM97.0618 110.117L94.1497 106.505L89.4787 110.271L92.3907 113.883L97.0618 110.117ZM94.1509 110.269L95.0189 109.191L90.3456 105.429L89.4776 106.507L94.1509 110.269ZM90.326 109.167L94.022 113.857L98.7345 110.143L95.0385 105.453L90.326 109.167ZM96.3782 109H94.7262V115H96.3782V109ZM102.152 112H99.1525V115H102.152V112ZM102.152 110.432H105.152V110.08L105.071 109.737L102.152 110.432ZM102.082 110.138H99.0825V110.49L99.164 110.833L102.082 110.138ZM101.578 106.148L99.4881 108.3L99.5193 108.33L99.5513 108.359L101.578 106.148ZM98.8065 105.896L99.7551 108.742L99.7834 108.733L99.8115 108.723L98.8065 105.896ZM97.7425 106.47L95.12 107.927L96.8853 111.104L99.6703 108.769L97.7425 106.47ZM97.1825 105.462L95.3014 103.125L93.3326 104.71L94.56 106.919L97.1825 105.462ZM98.5545 104.762L99.4119 107.637L99.4278 107.632L99.4437 107.627L98.5545 104.762ZM103.426 112V115H106.426V112H103.426ZM98.2605 111.804L97.0191 114.535L97.0305 114.54L97.042 114.545L98.2605 111.804ZM97.3085 111.034L94.8123 112.698L94.8232 112.714L94.8343 112.731L97.3085 111.034ZM97.2525 108.808L94.68 107.265L94.6636 107.292L94.6477 107.32L97.2525 108.808ZM98.1905 108.024L96.9666 105.285L96.9556 105.29L96.9446 105.295L98.1905 108.024ZM102.306 107.73H105.306V104.73H102.306V107.73ZM102.306 108.696V111.696H105.306V108.696H102.306ZM98.6525 109.032L96.5749 106.868V106.868L98.6525 109.032ZM98.7365 110.726L96.8999 113.098L96.9242 113.117L96.9489 113.135L98.7365 110.726ZM101.256 110.712L99.7409 108.123L99.7269 108.131L99.713 108.14L101.256 110.712ZM102.082 109.732L104.965 108.902L102.516 100.392L99.2887 108.639L102.082 109.732ZM102.348 110.656L105.13 111.78L105.518 110.821L105.231 109.826L102.348 110.656ZM101.41 111.706L102.881 114.321L102.902 114.309L102.922 114.297L101.41 111.706ZM105.152 112V110.432H99.1525V112H105.152ZM105.071 109.737L105.001 109.443L99.164 110.833L99.234 111.127L105.071 109.737ZM105.082 110.138V107.464H99.0825V110.138H105.082ZM105.082 107.464C105.082 106.278 104.71 104.948 103.606 103.937L99.5513 108.359C99.3657 108.189 99.232 107.982 99.1549 107.781C99.0832 107.594 99.0825 107.471 99.0825 107.464H105.082ZM103.669 103.996C102.572 102.93 101.184 102.672 100.094 102.672V108.672C100.196 108.672 100.164 108.685 100.046 108.648C99.9153 108.606 99.7005 108.506 99.4881 108.3L103.669 103.996ZM100.094 102.672C99.3078 102.672 98.5388 102.807 97.8014 103.069L99.8115 108.723C99.9141 108.686 100.004 108.672 100.094 108.672V102.672ZM97.8578 103.05C97.1405 103.289 96.4383 103.648 95.8146 104.171L99.6703 108.769C99.6253 108.806 99.6324 108.783 99.7551 108.742L97.8578 103.05ZM100.365 105.013L99.8049 104.005L94.56 106.919L95.12 107.927L100.365 105.013ZM99.0635 107.799C99.1061 107.765 99.2044 107.699 99.4119 107.637L97.697 101.887C96.8405 102.143 96.0241 102.543 95.3014 103.125L99.0635 107.799ZM99.4437 107.627C99.6864 107.552 99.9506 107.51 100.248 107.51V101.51C99.3703 101.51 98.5052 101.636 97.6653 101.897L99.4437 107.627ZM100.248 107.51C100.521 107.51 100.657 107.544 100.697 107.557C100.726 107.566 100.672 107.553 100.596 107.484L104.605 103.02C103.327 101.872 101.727 101.51 100.248 101.51V107.51ZM100.596 107.484C100.541 107.435 100.494 107.38 100.459 107.325C100.423 107.272 100.407 107.232 100.401 107.217C100.396 107.202 100.403 107.216 100.41 107.266C100.418 107.317 100.426 107.4 100.426 107.52H106.426C106.426 105.983 106 104.273 104.605 103.02L100.596 107.484ZM100.426 107.52V112H106.426V107.52H100.426ZM103.426 109H102.152V115H103.426V109ZM99.7165 109.084C99.5038 109.084 99.4471 109.048 99.4789 109.063L97.042 114.545C97.9139 114.933 98.8278 115.084 99.7165 115.084V109.084ZM99.5019 109.073C99.5036 109.074 99.5429 109.092 99.6011 109.139C99.6611 109.187 99.7256 109.254 99.7826 109.337L94.8343 112.731C95.4084 113.568 96.1815 114.154 97.0191 114.535L99.5019 109.073ZM99.8046 109.37C99.8552 109.446 99.9014 109.54 99.9329 109.646C99.964 109.751 99.9725 109.84 99.9725 109.9H93.9725C93.9725 110.887 94.2461 111.849 94.8123 112.698L99.8046 109.37ZM99.9725 109.9C99.9725 109.934 99.9683 109.994 99.9485 110.071C99.9283 110.15 99.8969 110.227 99.8572 110.296L94.6477 107.32C94.1847 108.13 93.9725 109.013 93.9725 109.9H99.9725ZM99.8249 110.351C99.6413 110.658 99.426 110.758 99.4363 110.753L96.9446 105.295C96.0962 105.682 95.2557 106.305 94.68 107.265L99.8249 110.351ZM99.4143 110.763C99.3525 110.791 99.3539 110.779 99.4537 110.763C99.5518 110.746 99.714 110.73 99.9545 110.73V104.73C98.9985 104.73 97.9405 104.85 96.9666 105.285L99.4143 110.763ZM99.9545 110.73H102.306V104.73H99.9545V110.73ZM99.3065 107.73V108.696H105.306V107.73H99.3065ZM102.306 105.696H100.01V111.696H102.306V105.696ZM100.01 105.696C99.5283 105.696 98.9868 105.734 98.4464 105.868C97.9217 105.998 97.2018 106.266 96.5749 106.868L100.73 111.196C100.336 111.574 99.9595 111.674 99.8875 111.692C99.7998 111.714 99.8206 111.696 100.01 111.696V105.696ZM96.5749 106.868C95.7651 107.645 95.3025 108.692 95.3025 109.844H101.302C101.302 110.062 101.26 110.323 101.145 110.59C101.03 110.857 100.874 111.058 100.73 111.196L96.5749 106.868ZM95.3025 109.844C95.3025 111.142 95.8812 112.309 96.8999 113.098L100.573 108.354C100.747 108.488 100.951 108.705 101.103 109.013C101.255 109.322 101.302 109.618 101.302 109.844H95.3025ZM96.9489 113.135C97.9337 113.866 99.0481 114.048 99.9405 114.048V108.048C99.8061 108.048 100.118 108.015 100.524 108.317L96.9489 113.135ZM99.9405 114.048C100.901 114.048 101.891 113.83 102.8 113.284L99.713 108.14C99.7856 108.096 99.854 108.07 99.9053 108.057C99.9541 108.045 99.97 108.048 99.9405 108.048V114.048ZM102.772 113.301C103.761 112.722 104.473 111.856 104.876 110.825L99.2887 108.639C99.3148 108.572 99.3662 108.472 99.4561 108.366C99.5469 108.258 99.6487 108.177 99.7409 108.123L102.772 113.301ZM99.1995 110.562L99.4655 111.486L105.231 109.826L104.965 108.902L99.1995 110.562ZM99.5671 109.532C99.607 109.433 99.6677 109.334 99.7437 109.249C99.8175 109.166 99.8797 109.126 99.8988 109.115L102.922 114.297C103.886 113.735 104.679 112.895 105.13 111.78L99.5671 109.532ZM99.9397 109.091C100.001 109.057 100.029 109.055 99.9976 109.062C99.9636 109.069 99.875 109.084 99.7165 109.084V115.084C100.751 115.084 101.861 114.894 102.881 114.321L99.9397 109.091ZM105.914 112H102.914V115H105.914V112ZM105.914 104.58V101.58H102.914V104.58H105.914ZM107.202 104.58H110.202V101.58H107.202V104.58ZM107.202 106.596L104.291 107.324L110.202 106.596H107.202ZM107.076 106.092L104.29 104.978L103.93 105.879L104.165 106.82L107.076 106.092ZM108.112 104.916L106.65 102.296V102.296L108.112 104.916ZM109.904 104.51H112.904V101.51H109.904V104.51ZM109.904 105.812L109.41 108.771L112.904 109.353V105.812H109.904ZM107.258 112V115H110.258V112H107.258ZM108.914 112V104.58H102.914V112H108.914ZM105.914 107.58H107.202V101.58H105.914V107.58ZM104.202 104.58V106.596H110.202V104.58H104.202ZM110.112 105.868L109.986 105.364L104.165 106.82L104.291 107.324L110.112 105.868ZM109.861 107.206C109.844 107.249 109.806 107.32 109.74 107.396C109.673 107.472 109.609 107.516 109.573 107.536L106.65 102.296C105.567 102.9 104.753 103.822 104.29 104.978L109.861 107.206ZM109.573 107.536C109.504 107.574 109.567 107.51 109.904 107.51V101.51C108.821 101.51 107.689 101.716 106.65 102.296L109.573 107.536ZM106.904 104.51V105.812H112.904V104.51H106.904ZM110.397 102.853C110.18 102.817 109.959 102.798 109.736 102.798V108.798C109.624 108.798 109.515 108.789 109.41 108.771L110.397 102.853ZM109.736 102.798C109.736 102.798 109.735 102.798 109.735 102.798C109.735 102.798 109.735 102.798 109.735 102.798C109.735 102.798 109.735 102.798 109.735 102.798C109.735 102.798 109.735 102.798 109.735 102.798C109.734 102.798 109.734 102.798 109.734 102.798C109.734 102.798 109.734 102.798 109.734 102.798C109.734 102.798 109.734 102.798 109.734 102.798C109.734 102.798 109.734 102.798 109.733 102.798C109.733 102.798 109.733 102.798 109.733 102.798C109.733 102.798 109.733 102.798 109.733 102.798C109.733 102.798 109.733 102.798 109.733 102.798C109.733 102.798 109.732 102.798 109.732 102.798C109.732 102.798 109.732 102.798 109.732 102.798C109.732 102.798 109.732 102.798 109.732 102.798C109.732 102.798 109.732 102.798 109.732 102.798C109.731 102.798 109.731 102.798 109.731 102.798C109.731 102.798 109.731 102.798 109.731 102.798C109.731 102.798 109.731 102.798 109.731 102.798C109.731 102.798 109.731 102.798 109.73 102.798C109.73 102.798 109.73 102.798 109.73 102.798C109.73 102.798 109.73 102.798 109.73 102.798C109.73 102.798 109.73 102.798 109.73 102.798C109.73 102.798 109.729 102.798 109.729 102.798C109.729 102.798 109.729 102.798 109.729 102.798C109.729 102.798 109.729 102.798 109.729 102.798C109.729 102.798 109.729 102.798 109.729 102.798C109.728 102.798 109.728 102.798 109.728 102.798C109.728 102.798 109.728 102.798 109.728 102.798C109.728 102.798 109.728 102.798 109.728 102.798C109.728 102.798 109.728 102.798 109.727 102.798C109.727 102.798 109.727 102.798 109.727 102.798C109.727 102.798 109.727 102.798 109.727 102.798C109.727 102.798 109.727 102.798 109.727 102.798C109.727 102.798 109.726 102.798 109.726 102.798C109.726 102.798 109.726 102.798 109.726 102.798C109.726 102.798 109.726 102.798 109.726 102.798C109.726 102.798 109.726 102.798 109.726 102.798C109.725 102.798 109.725 102.798 109.725 102.798C109.725 102.798 109.725 102.798 109.725 102.798C109.725 102.798 109.725 102.798 109.725 102.798C109.725 102.798 109.725 102.798 109.724 102.798C109.724 102.798 109.724 102.798 109.724 102.798C109.724 102.798 109.724 102.798 109.724 102.798C109.724 102.798 109.724 102.798 109.724 102.798C109.724 102.798 109.723 102.798 109.723 102.798C109.723 102.798 109.723 102.798 109.723 102.798C109.723 102.798 109.723 102.798 109.723 102.798C109.723 102.798 109.723 102.798 109.723 102.798C109.722 102.798 109.722 102.798 109.722 102.798C109.722 102.798 109.722 102.798 109.722 102.798C109.722 102.798 109.722 102.798 109.722 102.798C109.722 102.798 109.722 102.798 109.721 102.798C109.721 102.798 109.721 102.798 109.721 102.798C109.721 102.798 109.721 102.798 109.721 102.798C109.721 102.798 109.721 102.798 109.721 102.798C109.721 102.798 109.72 102.798 109.72 102.798C109.72 102.798 109.72 102.798 109.72 102.798C109.72 102.798 109.72 102.798 109.72 102.798C109.72 102.798 109.72 102.798 109.72 102.798C109.719 102.798 109.719 102.798 109.719 102.798C109.719 102.798 109.719 102.798 109.719 102.798C109.719 102.798 109.719 102.798 109.719 102.798C109.719 102.798 109.719 102.798 109.718 102.798C109.718 102.798 109.718 102.798 109.718 102.798C109.718 102.798 109.718 102.798 109.718 102.798C109.718 102.798 109.718 102.798 109.718 102.798C109.718 102.798 109.717 102.798 109.717 102.798C109.717 102.798 109.717 102.798 109.717 102.798C109.717 102.798 109.717 102.798 109.717 102.798C109.717 102.798 109.717 102.798 109.717 102.798C109.716 102.798 109.716 102.798 109.716 102.798C109.716 102.798 109.716 102.798 109.716 102.798C109.716 102.798 109.716 102.798 109.716 102.798C109.716 102.798 109.716 102.798 109.715 102.798C109.715 102.798 109.715 102.798 109.715 102.798C109.715 102.798 109.715 102.798 109.715 102.798C109.715 102.798 109.715 102.798 109.715 102.798C109.715 102.798 109.714 102.798 109.714 102.798C109.714 102.798 109.714 102.798 109.714 102.798C109.714 102.798 109.714 102.798 109.714 102.798C109.714 102.798 109.714 102.798 109.714 102.798C109.713 102.798 109.713 102.798 109.713 102.798C109.713 102.798 109.713 102.798 109.713 102.798C109.713 102.798 109.713 102.798 109.713 102.798C109.713 102.798 109.713 102.798 109.712 102.798C109.712 102.798 109.712 102.798 109.712 102.798C109.712 102.798 109.712 102.798 109.712 102.798C109.712 102.798 109.712 102.798 109.712 102.798C109.711 102.798 109.711 102.798 109.711 102.798C109.711 102.798 109.711 102.798 109.711 102.798C109.711 102.798 109.711 102.798 109.711 102.798C109.711 102.798 109.711 102.798 109.71 102.798C109.71 102.798 109.71 102.798 109.71 102.798C109.71 102.798 109.71 102.798 109.71 102.798C109.71 102.798 109.71 102.798 109.71 102.798C109.71 102.798 109.709 102.798 109.709 102.798C109.709 102.798 109.709 102.798 109.709 102.798C109.709 102.798 109.709 102.798 109.709 102.798C109.709 102.798 109.709 102.798 109.709 102.798C109.708 102.798 109.708 102.798 109.708 102.798C109.708 102.798 109.708 102.798 109.708 102.798C109.708 102.798 109.708 102.798 109.708 102.798C109.708 102.798 109.708 102.798 109.707 102.798C109.707 102.798 109.707 102.798 109.707 102.798C109.707 102.798 109.707 102.798 109.707 102.798C109.707 102.798 109.707 102.798 109.707 102.798C109.707 102.798 109.706 102.798 109.706 102.798C109.706 102.798 109.706 102.798 109.706 102.798C109.706 102.798 109.706 102.798 109.706 102.798C109.706 102.798 109.706 102.798 109.706 102.798C109.705 102.798 109.705 102.798 109.705 102.798C109.705 102.798 109.705 102.798 109.705 102.798C109.705 102.798 109.705 102.798 109.705 102.798C109.705 102.798 109.705 102.798 109.704 102.798C109.704 102.798 109.704 102.798 109.704 102.798C109.704 102.798 109.704 102.798 109.704 102.798C109.704 102.798 109.704 102.798 109.704 102.798C109.704 102.798 109.703 102.798 109.703 102.798C109.703 102.798 109.703 102.798 109.703 102.798C109.703 102.798 109.703 102.798 109.703 102.798C109.703 102.798 109.703 102.798 109.703 102.798C109.702 102.798 109.702 102.798 109.702 102.798C109.702 102.798 109.702 102.798 109.702 102.798C109.702 102.798 109.702 102.798 109.702 102.798C109.702 102.798 109.702 102.798 109.701 102.798C109.701 102.798 109.701 102.798 109.701 102.798C109.701 102.798 109.701 102.798 109.701 102.798C109.701 102.798 109.701 102.798 109.701 102.798C109.701 102.798 109.7 102.798 109.7 102.798C109.7 102.798 109.7 102.798 109.7 102.798C109.7 102.798 109.7 102.798 109.7 102.798C109.7 102.798 109.7 102.798 109.7 102.798C109.699 102.798 109.699 102.798 109.699 102.798C109.699 102.798 109.699 102.798 109.699 102.798C109.699 102.798 109.699 102.798 109.699 102.798C109.699 102.798 109.699 102.798 109.698 102.798C109.698 102.798 109.698 102.798 109.698 102.798C109.698 102.798 109.698 102.798 109.698 102.798C109.698 102.798 109.698 102.798 109.698 102.798C109.698 102.798 109.697 102.798 109.697 102.798C109.697 102.798 109.697 102.798 109.697 102.798C109.697 102.798 109.697 102.798 109.697 102.798C109.697 102.798 109.697 102.798 109.697 102.798C109.696 102.798 109.696 102.798 109.696 102.798C109.696 102.798 109.696 102.798 109.696 102.798C109.696 102.798 109.696 102.798 109.696 102.798C109.696 102.798 109.696 102.798 109.695 102.798C109.695 102.798 109.695 102.798 109.695 102.798C109.695 102.798 109.695 102.798 109.695 102.798C109.695 102.798 109.695 102.798 109.695 102.798C109.695 102.798 109.694 102.798 109.694 102.798C109.694 102.798 109.694 102.798 109.694 102.798C109.694 102.798 109.694 102.798 109.694 102.798C109.694 102.798 109.694 102.798 109.694 102.798C109.693 102.798 109.693 102.798 109.693 102.798C109.693 102.798 109.693 102.798 109.693 102.798C109.693 102.798 109.693 102.798 109.693 102.798C109.693 102.798 109.693 102.798 109.692 102.798C109.692 102.798 109.692 102.798 109.692 102.798C109.692 102.798 109.692 102.798 109.692 102.798C109.692 102.798 109.692 102.798 109.692 102.798C109.692 102.798 109.691 102.798 109.691 102.798C109.691 102.798 109.691 102.798 109.691 102.798C109.691 102.798 109.691 102.798 109.691 102.798C109.691 102.798 109.691 102.798 109.691 102.798C109.69 102.798 109.69 102.798 109.69 102.798C109.69 102.798 109.69 102.798 109.69 102.798C109.69 102.798 109.69 102.798 109.69 102.798C109.69 102.798 109.69 102.798 109.689 102.798C109.689 102.798 109.689 102.798 109.689 102.798C109.689 102.798 109.689 102.798 109.689 102.798C109.689 102.798 109.689 102.798 109.689 102.798C109.689 102.798 109.688 102.798 109.688 102.798C109.688 102.798 109.688 102.798 109.688 102.798C109.688 102.798 109.688 102.798 109.688 102.798C109.688 102.798 109.688 102.798 109.688 102.798C109.687 102.798 109.687 102.798 109.687 102.798C109.687 102.798 109.687 102.798 109.687 102.798C109.687 102.798 109.687 102.798 109.687 102.798C109.687 102.798 109.687 102.798 109.686 102.798C109.686 102.798 109.686 102.798 109.686 102.798C109.686 102.798 109.686 102.798 109.686 102.798C109.686 102.798 109.686 102.798 109.686 102.798C109.686 102.798 109.685 102.798 109.685 102.798C109.685 102.798 109.685 102.798 109.685 102.798C109.685 102.798 109.685 102.798 109.685 102.798C109.685 102.798 109.685 102.798 109.685 102.798C109.684 102.798 109.684 102.798 109.684 102.798C109.684 102.798 109.684 102.798 109.684 102.798C109.684 102.798 109.684 102.798 109.684 102.798C109.684 102.798 109.684 102.798 109.683 102.798C109.683 102.798 109.683 102.798 109.683 102.798C109.683 102.798 109.683 102.798 109.683 102.798C109.683 102.798 109.683 102.798 109.683 102.798C109.683 102.798 109.682 102.798 109.682 102.798C109.682 102.798 109.682 102.798 109.682 102.798C109.682 102.798 109.682 102.798 109.682 102.798C109.682 102.798 109.682 102.798 109.682 102.798C109.681 102.798 109.681 102.798 109.681 102.798C109.681 102.798 109.681 102.798 109.681 102.798C109.681 102.798 109.681 102.798 109.681 102.798C109.681 102.798 109.681 102.798 109.68 102.798C109.68 102.798 109.68 102.798 109.68 102.798C109.68 102.798 109.68 102.798 109.68 102.798C109.68 102.798 109.68 102.798 109.68 102.798C109.68 102.798 109.679 102.798 109.679 102.798C109.679 102.798 109.679 102.798 109.679 102.798C109.679 102.798 109.679 102.798 109.679 102.798C109.679 102.798 109.679 102.798 109.678 102.798C109.678 102.798 109.678 102.798 109.678 102.798C109.678 102.798 109.678 102.798 109.678 102.798C109.678 102.798 109.678 102.798 109.678 102.798C109.678 102.798 109.677 102.798 109.677 102.798C109.677 102.798 109.677 102.798 109.677 102.798C109.677 102.798 109.677 102.798 109.677 102.798C109.677 102.798 109.677 102.798 109.677 102.798C109.676 102.798 109.676 102.798 109.676 102.798C109.676 102.798 109.676 102.798 109.676 102.798C109.676 102.798 109.676 102.798 109.676 102.798C109.676 102.798 109.676 102.798 109.675 102.798C109.675 102.798 109.675 102.798 109.675 102.798C109.675 102.798 109.675 102.798 109.675 102.798C109.675 102.798 109.675 102.798 109.675 102.798C109.675 102.798 109.674 102.798 109.674 102.798C109.674 102.798 109.674 102.798 109.674 102.798C109.674 102.798 109.674 102.798 109.674 102.798C109.674 102.798 109.674 102.798 109.674 102.798C109.673 102.798 109.673 102.798 109.673 102.798C109.673 102.798 109.673 102.798 109.673 102.798C109.673 102.798 109.673 102.798 109.673 102.798C109.673 102.798 109.673 102.798 109.672 102.798C109.672 102.798 109.672 102.798 109.672 102.798C109.672 102.798 109.672 102.798 109.672 102.798C109.672 102.798 109.672 102.798 109.672 102.798C109.672 102.798 109.671 102.798 109.671 102.798C109.671 102.798 109.671 102.798 109.671 102.798C109.671 102.798 109.671 102.798 109.671 102.798C109.671 102.798 109.671 102.798 109.671 102.798C109.67 102.798 109.67 102.798 109.67 102.798C109.67 102.798 109.67 102.798 109.67 102.798C109.67 102.798 109.67 102.798 109.67 102.798C109.67 102.798 109.67 102.798 109.669 102.798C109.669 102.798 109.669 102.798 109.669 102.798C109.669 102.798 109.669 102.798 109.669 102.798C109.669 102.798 109.669 102.798 109.669 102.798C109.669 102.798 109.668 102.798 109.668 102.798C109.668 102.798 109.668 102.798 109.668 102.798C109.668 102.798 109.668 102.798 109.668 102.798C109.668 102.798 109.668 102.798 109.668 102.798C109.667 102.798 109.667 102.798 109.667 102.798C109.667 102.798 109.667 102.798 109.667 102.798C109.667 102.798 109.667 102.798 109.667 102.798C109.667 102.798 109.667 102.798 109.666 102.798C109.666 102.798 109.666 102.798 109.666 102.798C109.666 102.798 109.666 102.798 109.666 102.798C109.666 102.798 109.666 102.798 109.666 102.798C109.666 102.798 109.665 102.798 109.665 102.798C109.665 102.798 109.665 102.798 109.665 102.798C109.665 102.798 109.665 102.798 109.665 102.798C109.665 102.798 109.665 102.798 109.665 102.798C109.664 102.798 109.664 102.798 109.664 102.798C109.664 102.798 109.664 102.798 109.664 102.798C109.664 102.798 109.664 102.798 109.664 102.798C109.664 102.798 109.664 102.798 109.663 102.798C109.663 102.798 109.663 102.798 109.663 102.798C109.663 102.798 109.663 102.798 109.663 102.798C109.663 102.798 109.663 102.798 109.663 102.798C109.663 102.798 109.662 102.798 109.662 102.798C109.662 102.798 109.662 102.798 109.662 102.798C109.662 102.798 109.662 102.798 109.662 102.798C109.662 102.798 109.662 102.798 109.662 102.798C109.661 102.798 109.661 102.798 109.661 102.798C109.661 102.798 109.661 102.798 109.661 102.798C109.661 102.798 109.661 102.798 109.661 102.798C109.661 102.798 109.661 102.798 109.66 102.798C109.66 102.798 109.66 102.798 109.66 102.798C109.66 102.798 109.66 102.798 109.66 102.798C109.66 102.798 109.66 102.798 109.66 102.798C109.66 102.798 109.659 102.798 109.659 102.798C109.659 102.798 109.659 102.798 109.659 102.798C109.659 102.798 109.659 102.798 109.659 102.798C109.659 102.798 109.659 102.798 109.659 102.798C109.658 102.798 109.658 102.798 109.658 102.798C109.658 102.798 109.658 102.798 109.658 102.798C109.658 102.798 109.658 102.798 109.658 102.798C109.658 102.798 109.658 102.798 109.657 102.798C109.657 102.798 109.657 102.798 109.657 102.798C109.657 102.798 109.657 102.798 109.657 102.798C109.657 102.798 109.657 102.798 109.657 102.798C109.657 102.798 109.656 102.798 109.656 102.798C109.656 102.798 109.656 102.798 109.656 102.798C109.656 102.798 109.656 102.798 109.656 102.798C109.656 102.798 109.656 102.798 109.656 102.798C109.655 102.798 109.655 102.798 109.655 102.798C109.655 102.798 109.655 102.798 109.655 102.798C109.655 102.798 109.655 102.798 109.655 102.798C109.655 102.798 109.655 102.798 109.654 102.798C109.654 102.798 109.654 102.798 109.654 102.798C109.654 102.798 109.654 102.798 109.654 102.798C109.654 102.798 109.654 102.798 109.654 102.798C109.654 102.798 109.653 102.798 109.653 102.798C109.653 102.798 109.653 102.798 109.653 102.798C109.653 102.798 109.653 102.798 109.653 102.798C109.653 102.798 109.653 102.798 109.653 102.798C109.652 102.798 109.652 102.798 109.652 102.798C109.652 102.798 109.652 102.798 109.652 102.798C109.652 102.798 109.652 102.798 109.652 102.798C109.652 102.798 109.652 102.798 109.651 102.798C109.651 102.798 109.651 102.798 109.651 102.798C109.651 102.798 109.651 102.798 109.651 102.798C109.651 102.798 109.651 102.798 109.651 102.798C109.651 102.798 109.65 102.798 109.65 102.798C109.65 102.798 109.65 102.798 109.65 102.798C109.65 102.798 109.65 102.798 109.65 102.798C109.65 102.798 109.65 102.798 109.65 102.798C109.649 102.798 109.649 102.798 109.649 102.798C109.649 102.798 109.649 102.798 109.649 102.798C109.649 102.798 109.649 102.798 109.649 102.798C109.649 102.798 109.649 102.798 109.648 102.798C109.648 102.798 109.648 102.798 109.648 102.798C109.648 102.798 109.648 102.798 109.648 102.798C109.648 102.798 109.648 102.798 109.648 102.798C109.648 102.798 109.647 102.798 109.647 102.798C109.647 102.798 109.647 102.798 109.647 102.798C109.647 102.798 109.647 102.798 109.647 102.798C109.647 102.798 109.647 102.798 109.647 102.798C109.646 102.798 109.646 102.798 109.646 102.798C109.646 102.798 109.646 102.798 109.646 102.798C109.646 102.798 109.646 102.798 109.646 102.798C109.646 102.798 109.646 102.798 109.645 102.798C109.645 102.798 109.645 102.798 109.645 102.798C109.645 102.798 109.645 102.798 109.645 102.798C109.645 102.798 109.645 102.798 109.645 102.798C109.645 102.798 109.644 102.798 109.644 102.798C109.644 102.798 109.644 102.798 109.644 102.798C109.644 102.798 109.644 102.798 109.644 102.798C109.644 102.798 109.644 102.798 109.644 102.798C109.643 102.798 109.643 102.798 109.643 102.798C109.643 102.798 109.643 102.798 109.643 102.798C109.643 102.798 109.643 102.798 109.643 102.798C109.643 102.798 109.642 102.798 109.642 102.798C109.642 102.798 109.642 102.798 109.642 102.798C109.642 102.798 109.642 102.798 109.642 102.798C109.642 102.798 109.642 102.798 109.642 102.798C109.641 102.798 109.641 102.798 109.641 102.798C109.641 102.798 109.641 102.798 109.641 102.798C109.641 102.798 109.641 102.798 109.641 102.798C109.641 102.798 109.641 102.798 109.64 102.798C109.64 102.798 109.64 102.798 109.64 102.798C109.64 102.798 109.64 102.798 109.64 102.798C109.64 102.798 109.64 102.798 109.64 102.798C109.64 102.798 109.639 102.798 109.639 102.798C109.639 102.798 109.639 102.798 109.639 102.798C109.639 102.798 109.639 102.798 109.639 102.798C109.639 102.798 109.639 102.798 109.639 102.798C109.638 102.798 109.638 102.798 109.638 102.798C109.638 102.798 109.638 102.798 109.638 102.798C109.638 102.798 109.638 102.798 109.638 102.798C109.638 102.798 109.638 102.798 109.637 102.798C109.637 102.798 109.637 102.798 109.637 102.798C109.637 102.798 109.637 102.798 109.637 102.798C109.637 102.798 109.637 102.798 109.637 102.798C109.637 102.798 109.636 102.798 109.636 102.798C109.636 102.798 109.636 102.798 109.636 102.798C109.636 102.798 109.636 102.798 109.636 102.798C109.636 102.798 109.636 102.798 109.636 102.798C109.635 102.798 109.635 102.798 109.635 102.798C109.635 102.798 109.635 102.798 109.635 102.798C109.635 102.798 109.635 102.798 109.635 102.798C109.635 102.798 109.635 102.798 109.634 102.798C109.634 102.798 109.634 102.798 109.634 102.798C109.634 102.798 109.634 102.798 109.634 102.798C109.634 102.798 109.634 102.798 109.634 102.798C109.634 102.798 109.633 102.798 109.633 102.798C109.633 102.798 109.633 102.798 109.633 102.798C109.633 102.798 109.633 102.798 109.633 102.798C109.633 102.798 109.633 102.798 109.633 102.798C109.632 102.798 109.632 102.798 109.632 102.798C109.632 102.798 109.632 102.798 109.632 102.798C109.632 102.798 109.632 102.798 109.632 102.798C109.632 102.798 109.632 102.798 109.631 102.798C109.631 102.798 109.631 102.798 109.631 102.798C109.631 102.798 109.631 102.798 109.631 102.798C109.631 102.798 109.631 102.798 109.631 102.798C109.631 102.798 109.63 102.798 109.63 102.798C109.63 102.798 109.63 102.798 109.63 102.798C109.63 102.798 109.63 102.798 109.63 102.798C109.63 102.798 109.63 102.798 109.63 102.798C109.629 102.798 109.629 102.798 109.629 102.798C109.629 102.798 109.629 102.798 109.629 102.798C109.629 102.798 109.629 102.798 109.629 102.798C109.629 102.798 109.629 102.798 109.628 102.798C109.628 102.798 109.628 102.798 109.628 102.798C109.628 102.798 109.628 102.798 109.628 102.798C109.628 102.798 109.628 102.798 109.628 102.798C109.628 102.798 109.627 102.798 109.627 102.798C109.627 102.798 109.627 102.798 109.627 102.798C109.627 102.798 109.627 102.798 109.627 102.798C109.627 102.798 109.627 102.798 109.627 102.798C109.626 102.798 109.626 102.798 109.626 102.798C109.626 102.798 109.626 102.798 109.626 102.798C109.626 102.798 109.626 102.798 109.626 102.798C109.626 102.798 109.626 102.798 109.625 102.798C109.625 102.798 109.625 102.798 109.625 102.798C109.625 102.798 109.625 102.798 109.625 102.798C109.625 102.798 109.625 102.798 109.625 102.798C109.625 102.798 109.624 102.798 109.624 102.798C109.624 102.798 109.624 102.798 109.624 102.798C109.624 102.798 109.624 102.798 109.624 102.798C109.624 102.798 109.624 102.798 109.624 102.798C109.623 102.798 109.623 102.798 109.623 102.798C109.623 102.798 109.623 102.798 109.623 102.798C109.623 102.798 109.623 102.798 109.623 102.798C109.623 102.798 109.623 102.798 109.622 102.798C109.622 102.798 109.622 102.798 109.622 102.798C109.622 102.798 109.622 102.798 109.622 102.798C109.622 102.798 109.622 102.798 109.622 102.798C109.622 102.798 109.621 102.798 109.621 102.798C109.621 102.798 109.621 102.798 109.621 102.798C109.621 102.798 109.621 102.798 109.621 102.798C109.621 102.798 109.621 102.798 109.621 102.798C109.62 102.798 109.62 102.798 109.62 102.798C109.62 102.798 109.62 102.798 109.62 102.798C109.62 102.798 109.62 102.798 109.62 102.798C109.62 102.798 109.62 102.798 109.619 102.798C109.619 102.798 109.619 102.798 109.619 102.798C109.619 102.798 109.619 102.798 109.619 102.798C109.619 102.798 109.619 102.798 109.619 102.798C109.619 102.798 109.618 102.798 109.618 102.798C109.618 102.798 109.618 102.798 109.618 102.798C109.618 102.798 109.618 102.798 109.618 102.798C109.618 102.798 109.618 102.798 109.618 102.798C109.617 102.798 109.617 102.798 109.617 102.798C109.617 102.798 109.617 102.798 109.617 102.798C109.617 102.798 109.617 102.798 109.617 102.798C109.617 102.798 109.617 102.798 109.616 102.798C109.616 102.798 109.616 102.798 109.616 102.798C109.616 102.798 109.616 102.798 109.616 102.798C109.616 102.798 109.616 102.798 109.616 102.798C109.616 102.798 109.615 102.798 109.615 102.798C109.615 102.798 109.615 102.798 109.615 102.798C109.615 102.798 109.615 102.798 109.615 102.798C109.615 102.798 109.615 102.798 109.615 102.798C109.614 102.798 109.614 102.798 109.614 102.798C109.614 102.798 109.614 102.798 109.614 102.798C109.614 102.798 109.614 102.798 109.614 102.798C109.614 102.798 109.614 102.798 109.613 102.798C109.613 102.798 109.613 102.798 109.613 102.798C109.613 102.798 109.613 102.798 109.613 102.798C109.613 102.798 109.613 102.798 109.613 102.798C109.613 102.798 109.612 102.798 109.612 102.798C109.612 102.798 109.612 102.798 109.612 102.798C109.612 102.798 109.612 102.798 109.612 102.798C109.612 102.798 109.612 102.798 109.612 102.798C109.611 102.798 109.611 102.798 109.611 102.798C109.611 102.798 109.611 102.798 109.611 102.798C109.611 102.798 109.611 102.798 109.611 102.798C109.611 102.798 109.611 102.798 109.61 102.798C109.61 102.798 109.61 102.798 109.61 102.798C109.61 102.798 109.61 102.798 109.61 102.798C109.61 102.798 109.61 102.798 109.61 102.798C109.61 102.798 109.609 102.798 109.609 102.798C109.609 102.798 109.609 102.798 109.609 102.798C109.609 102.798 109.609 102.798 109.609 102.798C109.609 102.798 109.609 102.798 109.608 102.798C109.608 102.798 109.608 102.798 109.608 102.798C109.608 102.798 109.608 102.798 109.608 102.798C109.608 102.798 109.608 102.798 109.608 102.798C109.608 102.798 109.607 102.798 109.607 102.798C109.607 102.798 109.607 102.798 109.607 102.798C109.607 102.798 109.607 102.798 109.607 102.798C109.607 102.798 109.607 102.798 109.607 102.798C109.606 102.798 109.606 102.798 109.606 102.798C109.606 102.798 109.606 102.798 109.606 102.798C109.606 102.798 109.606 102.798 109.606 102.798C109.606 102.798 109.606 102.798 109.605 102.798C109.605 102.798 109.605 102.798 109.605 102.798C109.605 102.798 109.605 102.798 109.605 102.798C109.605 102.798 109.605 102.798 109.605 102.798C109.605 102.798 109.604 102.798 109.604 102.798C109.604 102.798 109.604 102.798 109.604 102.798C109.604 102.798 109.604 102.798 109.604 102.798C109.604 102.798 109.604 102.798 109.604 102.798C109.603 102.798 109.603 102.798 109.603 102.798C109.603 102.798 109.603 102.798 109.603 102.798C109.603 102.798 109.603 102.798 109.603 102.798C109.603 102.798 109.603 102.798 109.602 102.798C109.602 102.798 109.602 102.798 109.602 102.798C109.602 102.798 109.602 102.798 109.602 102.798C109.602 102.798 109.602 102.798 109.602 102.798C109.602 102.798 109.601 102.798 109.601 102.798C109.601 102.798 109.601 102.798 109.601 102.798C109.601 102.798 109.601 102.798 109.601 102.798C109.601 102.798 109.601 102.798 109.601 102.798C109.6 102.798 109.6 102.798 109.6 102.798C109.6 102.798 109.6 102.798 109.6 102.798C109.6 102.798 109.6 102.798 109.6 102.798C109.6 102.798 109.6 102.798 109.599 102.798C109.599 102.798 109.599 102.798 109.599 102.798C109.599 102.798 109.599 102.798 109.599 102.798C109.599 102.798 109.599 102.798 109.599 102.798C109.599 102.798 109.598 102.798 109.598 102.798C109.598 102.798 109.598 102.798 109.598 102.798C109.598 102.798 109.598 102.798 109.598 102.798C109.598 102.798 109.598 102.798 109.598 102.798C109.597 102.798 109.597 102.798 109.597 102.798C109.597 102.798 109.597 102.798 109.597 102.798C109.597 102.798 109.597 102.798 109.597 102.798C109.597 102.798 109.597 102.798 109.596 102.798C109.596 102.798 109.596 102.798 109.596 102.798C109.596 102.798 109.596 102.798 109.596 102.798C109.596 102.798 109.596 102.798 109.596 102.798V108.798C109.596 108.798 109.596 108.798 109.596 108.798C109.596 108.798 109.596 108.798 109.596 108.798C109.596 108.798 109.596 108.798 109.596 108.798C109.597 108.798 109.597 108.798 109.597 108.798C109.597 108.798 109.597 108.798 109.597 108.798C109.597 108.798 109.597 108.798 109.597 108.798C109.597 108.798 109.597 108.798 109.598 108.798C109.598 108.798 109.598 108.798 109.598 108.798C109.598 108.798 109.598 108.798 109.598 108.798C109.598 108.798 109.598 108.798 109.598 108.798C109.598 108.798 109.599 108.798 109.599 108.798C109.599 108.798 109.599 108.798 109.599 108.798C109.599 108.798 109.599 108.798 109.599 108.798C109.599 108.798 109.599 108.798 109.599 108.798C109.6 108.798 109.6 108.798 109.6 108.798C109.6 108.798 109.6 108.798 109.6 108.798C109.6 108.798 109.6 108.798 109.6 108.798C109.6 108.798 109.6 108.798 109.601 108.798C109.601 108.798 109.601 108.798 109.601 108.798C109.601 108.798 109.601 108.798 109.601 108.798C109.601 108.798 109.601 108.798 109.601 108.798C109.601 108.798 109.602 108.798 109.602 108.798C109.602 108.798 109.602 108.798 109.602 108.798C109.602 108.798 109.602 108.798 109.602 108.798C109.602 108.798 109.602 108.798 109.602 108.798C109.603 108.798 109.603 108.798 109.603 108.798C109.603 108.798 109.603 108.798 109.603 108.798C109.603 108.798 109.603 108.798 109.603 108.798C109.603 108.798 109.603 108.798 109.604 108.798C109.604 108.798 109.604 108.798 109.604 108.798C109.604 108.798 109.604 108.798 109.604 108.798C109.604 108.798 109.604 108.798 109.604 108.798C109.604 108.798 109.605 108.798 109.605 108.798C109.605 108.798 109.605 108.798 109.605 108.798C109.605 108.798 109.605 108.798 109.605 108.798C109.605 108.798 109.605 108.798 109.605 108.798C109.606 108.798 109.606 108.798 109.606 108.798C109.606 108.798 109.606 108.798 109.606 108.798C109.606 108.798 109.606 108.798 109.606 108.798C109.606 108.798 109.606 108.798 109.607 108.798C109.607 108.798 109.607 108.798 109.607 108.798C109.607 108.798 109.607 108.798 109.607 108.798C109.607 108.798 109.607 108.798 109.607 108.798C109.607 108.798 109.608 108.798 109.608 108.798C109.608 108.798 109.608 108.798 109.608 108.798C109.608 108.798 109.608 108.798 109.608 108.798C109.608 108.798 109.608 108.798 109.608 108.798C109.609 108.798 109.609 108.798 109.609 108.798C109.609 108.798 109.609 108.798 109.609 108.798C109.609 108.798 109.609 108.798 109.609 108.798C109.609 108.798 109.61 108.798 109.61 108.798C109.61 108.798 109.61 108.798 109.61 108.798C109.61 108.798 109.61 108.798 109.61 108.798C109.61 108.798 109.61 108.798 109.61 108.798C109.611 108.798 109.611 108.798 109.611 108.798C109.611 108.798 109.611 108.798 109.611 108.798C109.611 108.798 109.611 108.798 109.611 108.798C109.611 108.798 109.611 108.798 109.612 108.798C109.612 108.798 109.612 108.798 109.612 108.798C109.612 108.798 109.612 108.798 109.612 108.798C109.612 108.798 109.612 108.798 109.612 108.798C109.612 108.798 109.613 108.798 109.613 108.798C109.613 108.798 109.613 108.798 109.613 108.798C109.613 108.798 109.613 108.798 109.613 108.798C109.613 108.798 109.613 108.798 109.613 108.798C109.614 108.798 109.614 108.798 109.614 108.798C109.614 108.798 109.614 108.798 109.614 108.798C109.614 108.798 109.614 108.798 109.614 108.798C109.614 108.798 109.614 108.798 109.615 108.798C109.615 108.798 109.615 108.798 109.615 108.798C109.615 108.798 109.615 108.798 109.615 108.798C109.615 108.798 109.615 108.798 109.615 108.798C109.615 108.798 109.616 108.798 109.616 108.798C109.616 108.798 109.616 108.798 109.616 108.798C109.616 108.798 109.616 108.798 109.616 108.798C109.616 108.798 109.616 108.798 109.616 108.798C109.617 108.798 109.617 108.798 109.617 108.798C109.617 108.798 109.617 108.798 109.617 108.798C109.617 108.798 109.617 108.798 109.617 108.798C109.617 108.798 109.617 108.798 109.618 108.798C109.618 108.798 109.618 108.798 109.618 108.798C109.618 108.798 109.618 108.798 109.618 108.798C109.618 108.798 109.618 108.798 109.618 108.798C109.618 108.798 109.619 108.798 109.619 108.798C109.619 108.798 109.619 108.798 109.619 108.798C109.619 108.798 109.619 108.798 109.619 108.798C109.619 108.798 109.619 108.798 109.619 108.798C109.62 108.798 109.62 108.798 109.62 108.798C109.62 108.798 109.62 108.798 109.62 108.798C109.62 108.798 109.62 108.798 109.62 108.798C109.62 108.798 109.62 108.798 109.621 108.798C109.621 108.798 109.621 108.798 109.621 108.798C109.621 108.798 109.621 108.798 109.621 108.798C109.621 108.798 109.621 108.798 109.621 108.798C109.621 108.798 109.622 108.798 109.622 108.798C109.622 108.798 109.622 108.798 109.622 108.798C109.622 108.798 109.622 108.798 109.622 108.798C109.622 108.798 109.622 108.798 109.622 108.798C109.623 108.798 109.623 108.798 109.623 108.798C109.623 108.798 109.623 108.798 109.623 108.798C109.623 108.798 109.623 108.798 109.623 108.798C109.623 108.798 109.623 108.798 109.624 108.798C109.624 108.798 109.624 108.798 109.624 108.798C109.624 108.798 109.624 108.798 109.624 108.798C109.624 108.798 109.624 108.798 109.624 108.798C109.624 108.798 109.625 108.798 109.625 108.798C109.625 108.798 109.625 108.798 109.625 108.798C109.625 108.798 109.625 108.798 109.625 108.798C109.625 108.798 109.625 108.798 109.625 108.798C109.626 108.798 109.626 108.798 109.626 108.798C109.626 108.798 109.626 108.798 109.626 108.798C109.626 108.798 109.626 108.798 109.626 108.798C109.626 108.798 109.626 108.798 109.627 108.798C109.627 108.798 109.627 108.798 109.627 108.798C109.627 108.798 109.627 108.798 109.627 108.798C109.627 108.798 109.627 108.798 109.627 108.798C109.627 108.798 109.628 108.798 109.628 108.798C109.628 108.798 109.628 108.798 109.628 108.798C109.628 108.798 109.628 108.798 109.628 108.798C109.628 108.798 109.628 108.798 109.628 108.798C109.629 108.798 109.629 108.798 109.629 108.798C109.629 108.798 109.629 108.798 109.629 108.798C109.629 108.798 109.629 108.798 109.629 108.798C109.629 108.798 109.629 108.798 109.63 108.798C109.63 108.798 109.63 108.798 109.63 108.798C109.63 108.798 109.63 108.798 109.63 108.798C109.63 108.798 109.63 108.798 109.63 108.798C109.63 108.798 109.631 108.798 109.631 108.798C109.631 108.798 109.631 108.798 109.631 108.798C109.631 108.798 109.631 108.798 109.631 108.798C109.631 108.798 109.631 108.798 109.631 108.798C109.632 108.798 109.632 108.798 109.632 108.798C109.632 108.798 109.632 108.798 109.632 108.798C109.632 108.798 109.632 108.798 109.632 108.798C109.632 108.798 109.632 108.798 109.633 108.798C109.633 108.798 109.633 108.798 109.633 108.798C109.633 108.798 109.633 108.798 109.633 108.798C109.633 108.798 109.633 108.798 109.633 108.798C109.633 108.798 109.634 108.798 109.634 108.798C109.634 108.798 109.634 108.798 109.634 108.798C109.634 108.798 109.634 108.798 109.634 108.798C109.634 108.798 109.634 108.798 109.634 108.798C109.635 108.798 109.635 108.798 109.635 108.798C109.635 108.798 109.635 108.798 109.635 108.798C109.635 108.798 109.635 108.798 109.635 108.798C109.635 108.798 109.635 108.798 109.636 108.798C109.636 108.798 109.636 108.798 109.636 108.798C109.636 108.798 109.636 108.798 109.636 108.798C109.636 108.798 109.636 108.798 109.636 108.798C109.636 108.798 109.637 108.798 109.637 108.798C109.637 108.798 109.637 108.798 109.637 108.798C109.637 108.798 109.637 108.798 109.637 108.798C109.637 108.798 109.637 108.798 109.637 108.798C109.638 108.798 109.638 108.798 109.638 108.798C109.638 108.798 109.638 108.798 109.638 108.798C109.638 108.798 109.638 108.798 109.638 108.798C109.638 108.798 109.638 108.798 109.639 108.798C109.639 108.798 109.639 108.798 109.639 108.798C109.639 108.798 109.639 108.798 109.639 108.798C109.639 108.798 109.639 108.798 109.639 108.798C109.639 108.798 109.64 108.798 109.64 108.798C109.64 108.798 109.64 108.798 109.64 108.798C109.64 108.798 109.64 108.798 109.64 108.798C109.64 108.798 109.64 108.798 109.64 108.798C109.641 108.798 109.641 108.798 109.641 108.798C109.641 108.798 109.641 108.798 109.641 108.798C109.641 108.798 109.641 108.798 109.641 108.798C109.641 108.798 109.641 108.798 109.642 108.798C109.642 108.798 109.642 108.798 109.642 108.798C109.642 108.798 109.642 108.798 109.642 108.798C109.642 108.798 109.642 108.798 109.642 108.798C109.642 108.798 109.643 108.798 109.643 108.798C109.643 108.798 109.643 108.798 109.643 108.798C109.643 108.798 109.643 108.798 109.643 108.798C109.643 108.798 109.643 108.798 109.644 108.798C109.644 108.798 109.644 108.798 109.644 108.798C109.644 108.798 109.644 108.798 109.644 108.798C109.644 108.798 109.644 108.798 109.644 108.798C109.644 108.798 109.645 108.798 109.645 108.798C109.645 108.798 109.645 108.798 109.645 108.798C109.645 108.798 109.645 108.798 109.645 108.798C109.645 108.798 109.645 108.798 109.645 108.798C109.646 108.798 109.646 108.798 109.646 108.798C109.646 108.798 109.646 108.798 109.646 108.798C109.646 108.798 109.646 108.798 109.646 108.798C109.646 108.798 109.646 108.798 109.647 108.798C109.647 108.798 109.647 108.798 109.647 108.798C109.647 108.798 109.647 108.798 109.647 108.798C109.647 108.798 109.647 108.798 109.647 108.798C109.647 108.798 109.648 108.798 109.648 108.798C109.648 108.798 109.648 108.798 109.648 108.798C109.648 108.798 109.648 108.798 109.648 108.798C109.648 108.798 109.648 108.798 109.648 108.798C109.649 108.798 109.649 108.798 109.649 108.798C109.649 108.798 109.649 108.798 109.649 108.798C109.649 108.798 109.649 108.798 109.649 108.798C109.649 108.798 109.649 108.798 109.65 108.798C109.65 108.798 109.65 108.798 109.65 108.798C109.65 108.798 109.65 108.798 109.65 108.798C109.65 108.798 109.65 108.798 109.65 108.798C109.65 108.798 109.651 108.798 109.651 108.798C109.651 108.798 109.651 108.798 109.651 108.798C109.651 108.798 109.651 108.798 109.651 108.798C109.651 108.798 109.651 108.798 109.651 108.798C109.652 108.798 109.652 108.798 109.652 108.798C109.652 108.798 109.652 108.798 109.652 108.798C109.652 108.798 109.652 108.798 109.652 108.798C109.652 108.798 109.652 108.798 109.653 108.798C109.653 108.798 109.653 108.798 109.653 108.798C109.653 108.798 109.653 108.798 109.653 108.798C109.653 108.798 109.653 108.798 109.653 108.798C109.653 108.798 109.654 108.798 109.654 108.798C109.654 108.798 109.654 108.798 109.654 108.798C109.654 108.798 109.654 108.798 109.654 108.798C109.654 108.798 109.654 108.798 109.654 108.798C109.655 108.798 109.655 108.798 109.655 108.798C109.655 108.798 109.655 108.798 109.655 108.798C109.655 108.798 109.655 108.798 109.655 108.798C109.655 108.798 109.655 108.798 109.656 108.798C109.656 108.798 109.656 108.798 109.656 108.798C109.656 108.798 109.656 108.798 109.656 108.798C109.656 108.798 109.656 108.798 109.656 108.798C109.656 108.798 109.657 108.798 109.657 108.798C109.657 108.798 109.657 108.798 109.657 108.798C109.657 108.798 109.657 108.798 109.657 108.798C109.657 108.798 109.657 108.798 109.657 108.798C109.658 108.798 109.658 108.798 109.658 108.798C109.658 108.798 109.658 108.798 109.658 108.798C109.658 108.798 109.658 108.798 109.658 108.798C109.658 108.798 109.658 108.798 109.659 108.798C109.659 108.798 109.659 108.798 109.659 108.798C109.659 108.798 109.659 108.798 109.659 108.798C109.659 108.798 109.659 108.798 109.659 108.798C109.659 108.798 109.66 108.798 109.66 108.798C109.66 108.798 109.66 108.798 109.66 108.798C109.66 108.798 109.66 108.798 109.66 108.798C109.66 108.798 109.66 108.798 109.66 108.798C109.661 108.798 109.661 108.798 109.661 108.798C109.661 108.798 109.661 108.798 109.661 108.798C109.661 108.798 109.661 108.798 109.661 108.798C109.661 108.798 109.661 108.798 109.662 108.798C109.662 108.798 109.662 108.798 109.662 108.798C109.662 108.798 109.662 108.798 109.662 108.798C109.662 108.798 109.662 108.798 109.662 108.798C109.662 108.798 109.663 108.798 109.663 108.798C109.663 108.798 109.663 108.798 109.663 108.798C109.663 108.798 109.663 108.798 109.663 108.798C109.663 108.798 109.663 108.798 109.663 108.798C109.664 108.798 109.664 108.798 109.664 108.798C109.664 108.798 109.664 108.798 109.664 108.798C109.664 108.798 109.664 108.798 109.664 108.798C109.664 108.798 109.664 108.798 109.665 108.798C109.665 108.798 109.665 108.798 109.665 108.798C109.665 108.798 109.665 108.798 109.665 108.798C109.665 108.798 109.665 108.798 109.665 108.798C109.665 108.798 109.666 108.798 109.666 108.798C109.666 108.798 109.666 108.798 109.666 108.798C109.666 108.798 109.666 108.798 109.666 108.798C109.666 108.798 109.666 108.798 109.666 108.798C109.667 108.798 109.667 108.798 109.667 108.798C109.667 108.798 109.667 108.798 109.667 108.798C109.667 108.798 109.667 108.798 109.667 108.798C109.667 108.798 109.667 108.798 109.668 108.798C109.668 108.798 109.668 108.798 109.668 108.798C109.668 108.798 109.668 108.798 109.668 108.798C109.668 108.798 109.668 108.798 109.668 108.798C109.668 108.798 109.669 108.798 109.669 108.798C109.669 108.798 109.669 108.798 109.669 108.798C109.669 108.798 109.669 108.798 109.669 108.798C109.669 108.798 109.669 108.798 109.669 108.798C109.67 108.798 109.67 108.798 109.67 108.798C109.67 108.798 109.67 108.798 109.67 108.798C109.67 108.798 109.67 108.798 109.67 108.798C109.67 108.798 109.67 108.798 109.671 108.798C109.671 108.798 109.671 108.798 109.671 108.798C109.671 108.798 109.671 108.798 109.671 108.798C109.671 108.798 109.671 108.798 109.671 108.798C109.671 108.798 109.672 108.798 109.672 108.798C109.672 108.798 109.672 108.798 109.672 108.798C109.672 108.798 109.672 108.798 109.672 108.798C109.672 108.798 109.672 108.798 109.672 108.798C109.673 108.798 109.673 108.798 109.673 108.798C109.673 108.798 109.673 108.798 109.673 108.798C109.673 108.798 109.673 108.798 109.673 108.798C109.673 108.798 109.673 108.798 109.674 108.798C109.674 108.798 109.674 108.798 109.674 108.798C109.674 108.798 109.674 108.798 109.674 108.798C109.674 108.798 109.674 108.798 109.674 108.798C109.674 108.798 109.675 108.798 109.675 108.798C109.675 108.798 109.675 108.798 109.675 108.798C109.675 108.798 109.675 108.798 109.675 108.798C109.675 108.798 109.675 108.798 109.675 108.798C109.676 108.798 109.676 108.798 109.676 108.798C109.676 108.798 109.676 108.798 109.676 108.798C109.676 108.798 109.676 108.798 109.676 108.798C109.676 108.798 109.676 108.798 109.677 108.798C109.677 108.798 109.677 108.798 109.677 108.798C109.677 108.798 109.677 108.798 109.677 108.798C109.677 108.798 109.677 108.798 109.677 108.798C109.677 108.798 109.678 108.798 109.678 108.798C109.678 108.798 109.678 108.798 109.678 108.798C109.678 108.798 109.678 108.798 109.678 108.798C109.678 108.798 109.678 108.798 109.678 108.798C109.679 108.798 109.679 108.798 109.679 108.798C109.679 108.798 109.679 108.798 109.679 108.798C109.679 108.798 109.679 108.798 109.679 108.798C109.679 108.798 109.68 108.798 109.68 108.798C109.68 108.798 109.68 108.798 109.68 108.798C109.68 108.798 109.68 108.798 109.68 108.798C109.68 108.798 109.68 108.798 109.68 108.798C109.681 108.798 109.681 108.798 109.681 108.798C109.681 108.798 109.681 108.798 109.681 108.798C109.681 108.798 109.681 108.798 109.681 108.798C109.681 108.798 109.681 108.798 109.682 108.798C109.682 108.798 109.682 108.798 109.682 108.798C109.682 108.798 109.682 108.798 109.682 108.798C109.682 108.798 109.682 108.798 109.682 108.798C109.682 108.798 109.683 108.798 109.683 108.798C109.683 108.798 109.683 108.798 109.683 108.798C109.683 108.798 109.683 108.798 109.683 108.798C109.683 108.798 109.683 108.798 109.683 108.798C109.684 108.798 109.684 108.798 109.684 108.798C109.684 108.798 109.684 108.798 109.684 108.798C109.684 108.798 109.684 108.798 109.684 108.798C109.684 108.798 109.684 108.798 109.685 108.798C109.685 108.798 109.685 108.798 109.685 108.798C109.685 108.798 109.685 108.798 109.685 108.798C109.685 108.798 109.685 108.798 109.685 108.798C109.685 108.798 109.686 108.798 109.686 108.798C109.686 108.798 109.686 108.798 109.686 108.798C109.686 108.798 109.686 108.798 109.686 108.798C109.686 108.798 109.686 108.798 109.686 108.798C109.687 108.798 109.687 108.798 109.687 108.798C109.687 108.798 109.687 108.798 109.687 108.798C109.687 108.798 109.687 108.798 109.687 108.798C109.687 108.798 109.687 108.798 109.688 108.798C109.688 108.798 109.688 108.798 109.688 108.798C109.688 108.798 109.688 108.798 109.688 108.798C109.688 108.798 109.688 108.798 109.688 108.798C109.688 108.798 109.689 108.798 109.689 108.798C109.689 108.798 109.689 108.798 109.689 108.798C109.689 108.798 109.689 108.798 109.689 108.798C109.689 108.798 109.689 108.798 109.689 108.798C109.69 108.798 109.69 108.798 109.69 108.798C109.69 108.798 109.69 108.798 109.69 108.798C109.69 108.798 109.69 108.798 109.69 108.798C109.69 108.798 109.69 108.798 109.691 108.798C109.691 108.798 109.691 108.798 109.691 108.798C109.691 108.798 109.691 108.798 109.691 108.798C109.691 108.798 109.691 108.798 109.691 108.798C109.691 108.798 109.692 108.798 109.692 108.798C109.692 108.798 109.692 108.798 109.692 108.798C109.692 108.798 109.692 108.798 109.692 108.798C109.692 108.798 109.692 108.798 109.692 108.798C109.693 108.798 109.693 108.798 109.693 108.798C109.693 108.798 109.693 108.798 109.693 108.798C109.693 108.798 109.693 108.798 109.693 108.798C109.693 108.798 109.693 108.798 109.694 108.798C109.694 108.798 109.694 108.798 109.694 108.798C109.694 108.798 109.694 108.798 109.694 108.798C109.694 108.798 109.694 108.798 109.694 108.798C109.694 108.798 109.695 108.798 109.695 108.798C109.695 108.798 109.695 108.798 109.695 108.798C109.695 108.798 109.695 108.798 109.695 108.798C109.695 108.798 109.695 108.798 109.695 108.798C109.696 108.798 109.696 108.798 109.696 108.798C109.696 108.798 109.696 108.798 109.696 108.798C109.696 108.798 109.696 108.798 109.696 108.798C109.696 108.798 109.696 108.798 109.697 108.798C109.697 108.798 109.697 108.798 109.697 108.798C109.697 108.798 109.697 108.798 109.697 108.798C109.697 108.798 109.697 108.798 109.697 108.798C109.697 108.798 109.698 108.798 109.698 108.798C109.698 108.798 109.698 108.798 109.698 108.798C109.698 108.798 109.698 108.798 109.698 108.798C109.698 108.798 109.698 108.798 109.698 108.798C109.699 108.798 109.699 108.798 109.699 108.798C109.699 108.798 109.699 108.798 109.699 108.798C109.699 108.798 109.699 108.798 109.699 108.798C109.699 108.798 109.699 108.798 109.7 108.798C109.7 108.798 109.7 108.798 109.7 108.798C109.7 108.798 109.7 108.798 109.7 108.798C109.7 108.798 109.7 108.798 109.7 108.798C109.7 108.798 109.701 108.798 109.701 108.798C109.701 108.798 109.701 108.798 109.701 108.798C109.701 108.798 109.701 108.798 109.701 108.798C109.701 108.798 109.701 108.798 109.701 108.798C109.702 108.798 109.702 108.798 109.702 108.798C109.702 108.798 109.702 108.798 109.702 108.798C109.702 108.798 109.702 108.798 109.702 108.798C109.702 108.798 109.702 108.798 109.703 108.798C109.703 108.798 109.703 108.798 109.703 108.798C109.703 108.798 109.703 108.798 109.703 108.798C109.703 108.798 109.703 108.798 109.703 108.798C109.703 108.798 109.704 108.798 109.704 108.798C109.704 108.798 109.704 108.798 109.704 108.798C109.704 108.798 109.704 108.798 109.704 108.798C109.704 108.798 109.704 108.798 109.704 108.798C109.705 108.798 109.705 108.798 109.705 108.798C109.705 108.798 109.705 108.798 109.705 108.798C109.705 108.798 109.705 108.798 109.705 108.798C109.705 108.798 109.705 108.798 109.706 108.798C109.706 108.798 109.706 108.798 109.706 108.798C109.706 108.798 109.706 108.798 109.706 108.798C109.706 108.798 109.706 108.798 109.706 108.798C109.706 108.798 109.707 108.798 109.707 108.798C109.707 108.798 109.707 108.798 109.707 108.798C109.707 108.798 109.707 108.798 109.707 108.798C109.707 108.798 109.707 108.798 109.707 108.798C109.708 108.798 109.708 108.798 109.708 108.798C109.708 108.798 109.708 108.798 109.708 108.798C109.708 108.798 109.708 108.798 109.708 108.798C109.708 108.798 109.708 108.798 109.709 108.798C109.709 108.798 109.709 108.798 109.709 108.798C109.709 108.798 109.709 108.798 109.709 108.798C109.709 108.798 109.709 108.798 109.709 108.798C109.709 108.798 109.71 108.798 109.71 108.798C109.71 108.798 109.71 108.798 109.71 108.798C109.71 108.798 109.71 108.798 109.71 108.798C109.71 108.798 109.71 108.798 109.71 108.798C109.711 108.798 109.711 108.798 109.711 108.798C109.711 108.798 109.711 108.798 109.711 108.798C109.711 108.798 109.711 108.798 109.711 108.798C109.711 108.798 109.711 108.798 109.712 108.798C109.712 108.798 109.712 108.798 109.712 108.798C109.712 108.798 109.712 108.798 109.712 108.798C109.712 108.798 109.712 108.798 109.712 108.798C109.713 108.798 109.713 108.798 109.713 108.798C109.713 108.798 109.713 108.798 109.713 108.798C109.713 108.798 109.713 108.798 109.713 108.798C109.713 108.798 109.713 108.798 109.714 108.798C109.714 108.798 109.714 108.798 109.714 108.798C109.714 108.798 109.714 108.798 109.714 108.798C109.714 108.798 109.714 108.798 109.714 108.798C109.714 108.798 109.715 108.798 109.715 108.798C109.715 108.798 109.715 108.798 109.715 108.798C109.715 108.798 109.715 108.798 109.715 108.798C109.715 108.798 109.715 108.798 109.715 108.798C109.716 108.798 109.716 108.798 109.716 108.798C109.716 108.798 109.716 108.798 109.716 108.798C109.716 108.798 109.716 108.798 109.716 108.798C109.716 108.798 109.716 108.798 109.717 108.798C109.717 108.798 109.717 108.798 109.717 108.798C109.717 108.798 109.717 108.798 109.717 108.798C109.717 108.798 109.717 108.798 109.717 108.798C109.717 108.798 109.718 108.798 109.718 108.798C109.718 108.798 109.718 108.798 109.718 108.798C109.718 108.798 109.718 108.798 109.718 108.798C109.718 108.798 109.718 108.798 109.718 108.798C109.719 108.798 109.719 108.798 109.719 108.798C109.719 108.798 109.719 108.798 109.719 108.798C109.719 108.798 109.719 108.798 109.719 108.798C109.719 108.798 109.719 108.798 109.72 108.798C109.72 108.798 109.72 108.798 109.72 108.798C109.72 108.798 109.72 108.798 109.72 108.798C109.72 108.798 109.72 108.798 109.72 108.798C109.72 108.798 109.721 108.798 109.721 108.798C109.721 108.798 109.721 108.798 109.721 108.798C109.721 108.798 109.721 108.798 109.721 108.798C109.721 108.798 109.721 108.798 109.721 108.798C109.722 108.798 109.722 108.798 109.722 108.798C109.722 108.798 109.722 108.798 109.722 108.798C109.722 108.798 109.722 108.798 109.722 108.798C109.722 108.798 109.722 108.798 109.723 108.798C109.723 108.798 109.723 108.798 109.723 108.798C109.723 108.798 109.723 108.798 109.723 108.798C109.723 108.798 109.723 108.798 109.723 108.798C109.723 108.798 109.724 108.798 109.724 108.798C109.724 108.798 109.724 108.798 109.724 108.798C109.724 108.798 109.724 108.798 109.724 108.798C109.724 108.798 109.724 108.798 109.724 108.798C109.725 108.798 109.725 108.798 109.725 108.798C109.725 108.798 109.725 108.798 109.725 108.798C109.725 108.798 109.725 108.798 109.725 108.798C109.725 108.798 109.725 108.798 109.726 108.798C109.726 108.798 109.726 108.798 109.726 108.798C109.726 108.798 109.726 108.798 109.726 108.798C109.726 108.798 109.726 108.798 109.726 108.798C109.726 108.798 109.727 108.798 109.727 108.798C109.727 108.798 109.727 108.798 109.727 108.798C109.727 108.798 109.727 108.798 109.727 108.798C109.727 108.798 109.727 108.798 109.727 108.798C109.728 108.798 109.728 108.798 109.728 108.798C109.728 108.798 109.728 108.798 109.728 108.798C109.728 108.798 109.728 108.798 109.728 108.798C109.728 108.798 109.728 108.798 109.729 108.798C109.729 108.798 109.729 108.798 109.729 108.798C109.729 108.798 109.729 108.798 109.729 108.798C109.729 108.798 109.729 108.798 109.729 108.798C109.729 108.798 109.73 108.798 109.73 108.798C109.73 108.798 109.73 108.798 109.73 108.798C109.73 108.798 109.73 108.798 109.73 108.798C109.73 108.798 109.73 108.798 109.73 108.798C109.731 108.798 109.731 108.798 109.731 108.798C109.731 108.798 109.731 108.798 109.731 108.798C109.731 108.798 109.731 108.798 109.731 108.798C109.731 108.798 109.731 108.798 109.732 108.798C109.732 108.798 109.732 108.798 109.732 108.798C109.732 108.798 109.732 108.798 109.732 108.798C109.732 108.798 109.732 108.798 109.732 108.798C109.732 108.798 109.733 108.798 109.733 108.798C109.733 108.798 109.733 108.798 109.733 108.798C109.733 108.798 109.733 108.798 109.733 108.798C109.733 108.798 109.733 108.798 109.733 108.798C109.734 108.798 109.734 108.798 109.734 108.798C109.734 108.798 109.734 108.798 109.734 108.798C109.734 108.798 109.734 108.798 109.734 108.798C109.734 108.798 109.734 108.798 109.735 108.798C109.735 108.798 109.735 108.798 109.735 108.798C109.735 108.798 109.735 108.798 109.735 108.798C109.735 108.798 109.735 108.798 109.735 108.798C109.735 108.798 109.736 108.798 109.736 108.798V102.798ZM109.596 102.798C108.24 102.798 106.837 103.226 105.743 104.344L110.032 108.54C109.932 108.642 109.807 108.721 109.688 108.766C109.579 108.807 109.534 108.798 109.596 108.798V102.798ZM105.743 104.344C104.604 105.508 104.258 106.991 104.258 108.304H110.258C110.258 108.15 110.278 108.128 110.257 108.191C110.245 108.225 110.223 108.278 110.185 108.343C110.145 108.409 110.094 108.477 110.032 108.54L105.743 104.344ZM104.258 108.304V112H110.258V108.304H104.258ZM107.258 109H105.914V115H107.258V109ZM115.619 112H112.619V115H115.619V112ZM115.619 110.432H118.619V110.08L118.538 109.737L115.619 110.432ZM115.549 110.138H112.549V110.49L112.631 110.833L115.549 110.138ZM115.045 106.148L112.955 108.3L112.986 108.33L113.018 108.359L115.045 106.148ZM112.273 105.896L113.222 108.742L113.25 108.733L113.278 108.723L112.273 105.896ZM111.209 106.47L108.587 107.927L110.352 111.104L113.137 108.769L111.209 106.47ZM110.649 105.462L108.768 103.125L106.799 104.71L108.027 106.919L110.649 105.462ZM112.021 104.762L112.879 107.637L112.895 107.632L112.91 107.627L112.021 104.762ZM116.893 112V115H119.893V112H116.893ZM111.727 111.804L110.486 114.535L110.497 114.54L110.509 114.545L111.727 111.804ZM110.775 111.034L108.279 112.698L108.29 112.714L108.301 112.731L110.775 111.034ZM110.719 108.808L108.147 107.265L108.13 107.292L108.115 107.32L110.719 108.808ZM111.657 108.024L110.433 105.285L110.422 105.29L110.411 105.295L111.657 108.024ZM115.773 107.73H118.773V104.73H115.773V107.73ZM115.773 108.696V111.696H118.773V108.696H115.773ZM112.119 109.032L110.042 106.868V106.868L112.119 109.032ZM112.203 110.726L110.367 113.098L110.391 113.117L110.416 113.135L112.203 110.726ZM114.723 110.712L113.208 108.123L113.194 108.131L113.18 108.14L114.723 110.712ZM115.549 109.732L118.432 108.902L115.982 100.392L112.756 108.639L115.549 109.732ZM115.815 110.656L118.597 111.78L118.985 110.821L118.698 109.826L115.815 110.656ZM114.877 111.706L116.348 114.321L116.369 114.309L116.389 114.297L114.877 111.706ZM118.619 112V110.432H112.619V112H118.619ZM118.538 109.737L118.468 109.443L112.631 110.833L112.701 111.127L118.538 109.737ZM118.549 110.138V107.464H112.549V110.138H118.549ZM118.549 107.464C118.549 106.278 118.176 104.948 117.072 103.937L113.018 108.359C112.833 108.189 112.699 107.982 112.622 107.781C112.55 107.594 112.549 107.471 112.549 107.464H118.549ZM117.136 103.996C116.038 102.93 114.651 102.672 113.561 102.672V108.672C113.663 108.672 113.63 108.685 113.513 108.648C113.382 108.606 113.167 108.506 112.955 108.3L117.136 103.996ZM113.561 102.672C112.775 102.672 112.006 102.807 111.268 103.069L113.278 108.723C113.381 108.686 113.471 108.672 113.561 108.672V102.672ZM111.325 103.05C110.607 103.289 109.905 103.648 109.281 104.171L113.137 108.769C113.092 108.806 113.099 108.783 113.222 108.742L111.325 103.05ZM113.832 105.013L113.272 104.005L108.027 106.919L108.587 107.927L113.832 105.013ZM112.53 107.799C112.573 107.765 112.671 107.699 112.879 107.637L111.164 101.887C110.307 102.143 109.491 102.543 108.768 103.125L112.53 107.799ZM112.91 107.627C113.153 107.552 113.417 107.51 113.715 107.51V101.51C112.837 101.51 111.972 101.636 111.132 101.897L112.91 107.627ZM113.715 107.51C113.987 107.51 114.123 107.544 114.164 107.557C114.193 107.566 114.139 107.553 114.062 107.484L118.072 103.02C116.794 101.872 115.194 101.51 113.715 101.51V107.51ZM114.062 107.484C114.008 107.435 113.961 107.38 113.925 107.325C113.89 107.272 113.874 107.232 113.868 107.217C113.863 107.202 113.869 107.216 113.877 107.266C113.885 107.317 113.893 107.4 113.893 107.52H119.893C119.893 105.983 119.467 104.273 118.072 103.02L114.062 107.484ZM113.893 107.52V112H119.893V107.52H113.893ZM116.893 109H115.619V115H116.893V109ZM113.183 109.084C112.971 109.084 112.914 109.048 112.946 109.063L110.509 114.545C111.381 114.933 112.295 115.084 113.183 115.084V109.084ZM112.969 109.073C112.97 109.074 113.01 109.092 113.068 109.139C113.128 109.187 113.192 109.254 113.249 109.337L108.301 112.731C108.875 113.568 109.648 114.154 110.486 114.535L112.969 109.073ZM113.271 109.37C113.322 109.446 113.368 109.54 113.4 109.646C113.431 109.751 113.439 109.84 113.439 109.9H107.439C107.439 110.887 107.713 111.849 108.279 112.698L113.271 109.37ZM113.439 109.9C113.439 109.934 113.435 109.994 113.415 110.071C113.395 110.15 113.364 110.227 113.324 110.296L108.115 107.32C107.652 108.13 107.439 109.013 107.439 109.9H113.439ZM113.292 110.351C113.108 110.658 112.893 110.758 112.903 110.753L110.411 105.295C109.563 105.682 108.722 106.305 108.147 107.265L113.292 110.351ZM112.881 110.763C112.819 110.791 112.821 110.779 112.92 110.763C113.019 110.746 113.181 110.73 113.421 110.73V104.73C112.465 104.73 111.407 104.85 110.433 105.285L112.881 110.763ZM113.421 110.73H115.773V104.73H113.421V110.73ZM112.773 107.73V108.696H118.773V107.73H112.773ZM115.773 105.696H113.477V111.696H115.773V105.696ZM113.477 105.696C112.995 105.696 112.454 105.734 111.913 105.868C111.389 105.998 110.669 106.266 110.042 106.868L114.197 111.196C113.803 111.574 113.426 111.674 113.354 111.692C113.267 111.714 113.287 111.696 113.477 111.696V105.696ZM110.042 106.868C109.232 107.645 108.769 108.692 108.769 109.844H114.769C114.769 110.062 114.727 110.323 114.612 110.59C114.497 110.857 114.341 111.058 114.197 111.196L110.042 106.868ZM108.769 109.844C108.769 111.142 109.348 112.309 110.367 113.098L114.04 108.354C114.214 108.488 114.418 108.705 114.57 109.013C114.722 109.322 114.769 109.618 114.769 109.844H108.769ZM110.416 113.135C111.401 113.866 112.515 114.048 113.407 114.048V108.048C113.273 108.048 113.585 108.015 113.991 108.317L110.416 113.135ZM113.407 114.048C114.368 114.048 115.358 113.83 116.267 113.284L113.18 108.14C113.252 108.096 113.321 108.07 113.372 108.057C113.421 108.045 113.437 108.048 113.407 108.048V114.048ZM116.239 113.301C117.228 112.722 117.94 111.856 118.343 110.825L112.756 108.639C112.782 108.572 112.833 108.472 112.923 108.366C113.014 108.258 113.115 108.177 113.208 108.123L116.239 113.301ZM112.666 110.562L112.932 111.486L118.698 109.826L118.432 108.902L112.666 110.562ZM113.034 109.532C113.074 109.433 113.135 109.334 113.21 109.249C113.284 109.166 113.347 109.126 113.366 109.115L116.389 114.297C117.352 113.735 118.146 112.895 118.597 111.78L113.034 109.532ZM113.406 109.091C113.468 109.057 113.496 109.055 113.464 109.062C113.43 109.069 113.342 109.084 113.183 109.084V115.084C114.218 115.084 115.328 114.894 116.348 114.321L113.406 109.091ZM124.938 104.86L123.575 107.532L123.586 107.538L123.597 107.543L124.938 104.86ZM126.03 105.924L128.66 104.48L126.03 105.924ZM126.422 112V115H129.422V112H126.422ZM125.078 112H122.078V115H125.078V112ZM124.546 106.26L122.37 108.325L122.384 108.339L122.398 108.354L124.546 106.26ZM121.83 105.994L120.433 103.339L121.83 105.994ZM121.004 106.82L118.363 105.398L118.349 105.424L118.335 105.451L121.004 106.82ZM120.724 112V115H123.724V112H120.724ZM119.38 112H116.38V115H119.38V112ZM119.38 104.58V101.58H116.38V104.58H119.38ZM120.668 104.58H123.668V101.58H120.668V104.58ZM120.668 106.582L117.878 107.683L123.668 106.582H120.668ZM120.458 106.05L117.775 104.708L117.176 105.906L117.668 107.151L120.458 106.05ZM121.578 104.916L120.159 102.273V102.273L121.578 104.916ZM123.342 107.51C123.454 107.51 123.521 107.521 123.554 107.528C123.585 107.535 123.588 107.539 123.575 107.532L126.302 102.188C125.352 101.703 124.337 101.51 123.342 101.51V107.51ZM123.597 107.543C123.561 107.525 123.513 107.494 123.468 107.45C123.423 107.406 123.403 107.372 123.401 107.368L128.66 104.48C128.118 103.493 127.315 102.694 126.28 102.177L123.597 107.543ZM123.401 107.368C123.35 107.276 123.422 107.342 123.422 107.73H129.422C129.422 106.662 129.233 105.524 128.66 104.48L123.401 107.368ZM123.422 107.73V112H129.422V107.73H123.422ZM126.422 109H125.078V115H126.422V109ZM128.078 112V107.884H122.078V112H128.078ZM128.078 107.884C128.078 106.709 127.787 105.287 126.695 104.166L122.398 108.354C122.219 108.17 122.131 107.984 122.095 107.873C122.062 107.775 122.078 107.763 122.078 107.884H128.078ZM126.723 104.195C125.669 103.085 124.303 102.714 123.076 102.714V108.714C123.111 108.714 123.028 108.719 122.875 108.663C122.709 108.601 122.526 108.489 122.37 108.325L126.723 104.195ZM123.076 102.714C122.205 102.714 121.293 102.887 120.433 103.339L123.228 108.649C123.158 108.686 123.099 108.703 123.066 108.711C123.034 108.718 123.034 108.714 123.076 108.714V102.714ZM120.433 103.339C119.533 103.813 118.832 104.526 118.363 105.398L123.646 108.242C123.614 108.301 123.56 108.381 123.479 108.462C123.398 108.544 123.309 108.606 123.228 108.649L120.433 103.339ZM118.335 105.451C117.872 106.353 117.724 107.308 117.724 108.178H123.724C123.724 108.129 123.727 108.093 123.729 108.069C123.731 108.046 123.733 108.036 123.733 108.038C123.732 108.044 123.719 108.101 123.674 108.189L118.335 105.451ZM117.724 108.178V112H123.724V108.178H117.724ZM120.724 109H119.38V115H120.724V109ZM122.38 112V104.58H116.38V112H122.38ZM119.38 107.58H120.668V101.58H119.38V107.58ZM117.668 104.58V106.582H123.668V104.58H117.668ZM123.459 105.48L123.249 104.948L117.668 107.151L117.878 107.683L123.459 105.48ZM123.142 107.392C123.125 107.426 123.095 107.47 123.055 107.511C123.016 107.55 122.989 107.564 122.998 107.559L120.159 102.273C119.141 102.82 118.31 103.638 117.775 104.708L123.142 107.392ZM122.998 107.559C123.002 107.557 123.022 107.546 123.07 107.535C123.12 107.524 123.208 107.51 123.342 107.51V101.51C122.262 101.51 121.17 101.73 120.159 102.273L122.998 107.559Z" fill="white" mask="url(#path-2-outside-1_1_11358)"/>
<circle cx="91.5" cy="57.5" r="21.5" fill="#C3FF93" stroke="#8ED654" stroke-width="2"/>
<defs>
<filter id="filter0_d_1_11358" x="0" y="0" width="183" height="148" filterUnits="userSpaceOnUse" color-interpolation-filters="sRGB">
<feFlood flood-opacity="0" result="BackgroundImageFix"/>
<feColorMatrix in="SourceAlpha" type="matrix" values="0 0 0 0 0 0 0 0 0 0 0 0 0 0 0 0 0 0 127 0" result="hardAlpha"/>
<feOffset dy="4"/>
<feGaussianBlur stdDeviation="8"/>
<feComposite in2="hardAlpha" operator="out"/>
<feColorMatrix type="matrix" values="0 0 0 0 0 0 0 0 0 0 0 0 0 0 0 0 0 0 0.25 0"/>
<feBlend mode="normal" in2="BackgroundImageFix" result="effect1_dropShadow_1_11358"/>
<feBlend mode="normal" in="SourceGraphic" in2="effect1_dropShadow_1_11358" result="shape"/>
</filter>
</defs>
</svg>
