<svg width="183" height="148" viewBox="0 0 183 148" fill="none" xmlns="http://www.w3.org/2000/svg">
<g filter="url(#filter0_d_1_11346)">
<rect x="16" y="12" width="151" height="116" rx="16" fill="#FAEAD1"/>
</g>
<mask id="path-2-outside-1_1_11346" maskUnits="userSpaceOnUse" x="60" y="94" width="61" height="24" fill="black">
<rect fill="white" x="60" y="94" width="61" height="24"/>
<path d="M66.7688 112V102.2H70.5908C71.4495 102.2 72.1822 102.335 72.7888 102.606C73.3955 102.877 73.8622 103.269 74.1888 103.782C74.5155 104.295 74.6788 104.907 74.6788 105.616C74.6788 106.325 74.5155 106.937 74.1888 107.45C73.8622 107.954 73.3955 108.346 72.7888 108.626C72.1822 108.897 71.4495 109.032 70.5908 109.032H67.5388L68.1688 108.374V112H66.7688ZM68.1688 108.514L67.5388 107.814H70.5488C71.4448 107.814 72.1215 107.623 72.5788 107.24C73.0455 106.857 73.2788 106.316 73.2788 105.616C73.2788 104.916 73.0455 104.375 72.5788 103.992C72.1215 103.609 71.4448 103.418 70.5488 103.418H67.5388L68.1688 102.718V108.514ZM79.8163 112.084C79.0229 112.084 78.3229 111.921 77.7163 111.594C77.1189 111.267 76.6523 110.819 76.3163 110.25C75.9896 109.681 75.8263 109.027 75.8263 108.29C75.8263 107.553 75.9849 106.899 76.3023 106.33C76.6289 105.761 77.0723 105.317 77.6323 105C78.2016 104.673 78.8409 104.51 79.5503 104.51C80.2689 104.51 80.9036 104.669 81.4543 104.986C82.0049 105.303 82.4343 105.751 82.7423 106.33C83.0596 106.899 83.2183 107.567 83.2183 108.332C83.2183 108.388 83.2136 108.453 83.2043 108.528C83.2043 108.603 83.1996 108.673 83.1903 108.738H76.8763V107.772H82.4903L81.9443 108.108C81.9536 107.632 81.8556 107.207 81.6503 106.834C81.4449 106.461 81.1603 106.171 80.7963 105.966C80.4416 105.751 80.0263 105.644 79.5503 105.644C79.0836 105.644 78.6683 105.751 78.3043 105.966C77.9403 106.171 77.6556 106.465 77.4503 106.848C77.2449 107.221 77.1423 107.651 77.1423 108.136V108.36C77.1423 108.855 77.2543 109.298 77.4783 109.69C77.7116 110.073 78.0336 110.371 78.4443 110.586C78.8549 110.801 79.3263 110.908 79.8583 110.908C80.2969 110.908 80.6936 110.833 81.0483 110.684C81.4123 110.535 81.7296 110.311 82.0003 110.012L82.7423 110.88C82.4063 111.272 81.9863 111.571 81.4823 111.776C80.9876 111.981 80.4323 112.084 79.8163 112.084ZM85.0845 112V104.58H86.3725V106.596L86.2465 106.092C86.4519 105.579 86.7972 105.187 87.2825 104.916C87.7679 104.645 88.3652 104.51 89.0745 104.51V105.812C89.0185 105.803 88.9625 105.798 88.9065 105.798C88.8599 105.798 88.8132 105.798 88.7665 105.798C88.0479 105.798 87.4785 106.013 87.0585 106.442C86.6385 106.871 86.4285 107.492 86.4285 108.304V112H85.0845ZM92.9411 112.084C92.3251 112.084 91.7371 112 91.1771 111.832C90.6264 111.664 90.1924 111.459 89.8751 111.216L90.4351 110.152C90.7524 110.367 91.1444 110.549 91.6111 110.698C92.0777 110.847 92.5537 110.922 93.0391 110.922C93.6644 110.922 94.1124 110.833 94.3831 110.656C94.6631 110.479 94.8031 110.231 94.8031 109.914C94.8031 109.681 94.7191 109.499 94.5511 109.368C94.3831 109.237 94.1591 109.139 93.8791 109.074C93.6084 109.009 93.3051 108.953 92.9691 108.906C92.6331 108.85 92.2971 108.785 91.9611 108.71C91.6251 108.626 91.3171 108.514 91.0371 108.374C90.7571 108.225 90.5331 108.024 90.3651 107.772C90.1971 107.511 90.1131 107.165 90.1131 106.736C90.1131 106.288 90.2391 105.896 90.4911 105.56C90.7431 105.224 91.0977 104.967 91.5551 104.79C92.0217 104.603 92.5724 104.51 93.2071 104.51C93.6924 104.51 94.1824 104.571 94.6771 104.692C95.1811 104.804 95.5917 104.967 95.9091 105.182L95.3351 106.246C94.9991 106.022 94.6491 105.868 94.2851 105.784C93.9211 105.7 93.5571 105.658 93.1931 105.658C92.6051 105.658 92.1664 105.756 91.8771 105.952C91.5877 106.139 91.4431 106.381 91.4431 106.68C91.4431 106.932 91.5271 107.128 91.6951 107.268C91.8724 107.399 92.0964 107.501 92.3671 107.576C92.6471 107.651 92.9551 107.716 93.2911 107.772C93.6271 107.819 93.9631 107.884 94.2991 107.968C94.6351 108.043 94.9384 108.15 95.2091 108.29C95.4891 108.43 95.7131 108.626 95.8811 108.878C96.0584 109.13 96.1471 109.466 96.1471 109.886C96.1471 110.334 96.0164 110.721 95.7551 111.048C95.4937 111.375 95.1251 111.631 94.6491 111.818C94.1731 111.995 93.6037 112.084 92.9411 112.084ZM101.131 112.084C100.337 112.084 99.6374 111.921 99.0307 111.594C98.4334 111.267 97.9667 110.819 97.6307 110.25C97.3041 109.681 97.1407 109.027 97.1407 108.29C97.1407 107.553 97.2994 106.899 97.6167 106.33C97.9434 105.761 98.3867 105.317 98.9467 105C99.5161 104.673 100.155 104.51 100.865 104.51C101.583 104.51 102.218 104.669 102.769 104.986C103.319 105.303 103.749 105.751 104.057 106.33C104.374 106.899 104.533 107.567 104.533 108.332C104.533 108.388 104.528 108.453 104.519 108.528C104.519 108.603 104.514 108.673 104.505 108.738H98.1907V107.772H103.805L103.259 108.108C103.268 107.632 103.17 107.207 102.965 106.834C102.759 106.461 102.475 106.171 102.111 105.966C101.756 105.751 101.341 105.644 100.865 105.644C100.398 105.644 99.9827 105.751 99.6187 105.966C99.2547 106.171 98.9701 106.465 98.7647 106.848C98.5594 107.221 98.4567 107.651 98.4567 108.136V108.36C98.4567 108.855 98.5687 109.298 98.7927 109.69C99.0261 110.073 99.3481 110.371 99.7587 110.586C100.169 110.801 100.641 110.908 101.173 110.908C101.611 110.908 102.008 110.833 102.363 110.684C102.727 110.535 103.044 110.311 103.315 110.012L104.057 110.88C103.721 111.272 103.301 111.571 102.797 111.776C102.302 111.981 101.747 112.084 101.131 112.084ZM109.647 114.8C108.966 114.8 108.303 114.702 107.659 114.506C107.024 114.319 106.506 114.049 106.105 113.694L106.749 112.658C107.094 112.957 107.519 113.19 108.023 113.358C108.527 113.535 109.054 113.624 109.605 113.624C110.482 113.624 111.126 113.419 111.537 113.008C111.948 112.597 112.153 111.972 112.153 111.132V109.564L112.293 108.094L112.223 106.61V104.58H113.497V110.992C113.497 112.299 113.17 113.26 112.517 113.876C111.864 114.492 110.907 114.8 109.647 114.8ZM109.479 111.692C108.76 111.692 108.116 111.543 107.547 111.244C106.987 110.936 106.539 110.511 106.203 109.97C105.876 109.429 105.713 108.803 105.713 108.094C105.713 107.375 105.876 106.75 106.203 106.218C106.539 105.677 106.987 105.257 107.547 104.958C108.116 104.659 108.76 104.51 109.479 104.51C110.114 104.51 110.692 104.641 111.215 104.902C111.738 105.154 112.153 105.546 112.461 106.078C112.778 106.61 112.937 107.282 112.937 108.094C112.937 108.897 112.778 109.564 112.461 110.096C112.153 110.628 111.738 111.029 111.215 111.3C110.692 111.561 110.114 111.692 109.479 111.692ZM109.633 110.516C110.128 110.516 110.566 110.413 110.949 110.208C111.332 110.003 111.63 109.718 111.845 109.354C112.069 108.99 112.181 108.57 112.181 108.094C112.181 107.618 112.069 107.198 111.845 106.834C111.63 106.47 111.332 106.19 110.949 105.994C110.566 105.789 110.128 105.686 109.633 105.686C109.138 105.686 108.695 105.789 108.303 105.994C107.92 106.19 107.617 106.47 107.393 106.834C107.178 107.198 107.071 107.618 107.071 108.094C107.071 108.57 107.178 108.99 107.393 109.354C107.617 109.718 107.92 110.003 108.303 110.208C108.695 110.413 109.138 110.516 109.633 110.516ZM116.065 112V104.58H117.409V112H116.065ZM116.737 103.152C116.476 103.152 116.256 103.068 116.079 102.9C115.911 102.732 115.827 102.527 115.827 102.284C115.827 102.032 115.911 101.822 116.079 101.654C116.256 101.486 116.476 101.402 116.737 101.402C116.998 101.402 117.213 101.486 117.381 101.654C117.558 101.813 117.647 102.013 117.647 102.256C117.647 102.508 117.563 102.723 117.395 102.9C117.227 103.068 117.008 103.152 116.737 103.152Z"/>
</mask>
<path d="M66.7688 112V102.2H70.5908C71.4495 102.2 72.1822 102.335 72.7888 102.606C73.3955 102.877 73.8622 103.269 74.1888 103.782C74.5155 104.295 74.6788 104.907 74.6788 105.616C74.6788 106.325 74.5155 106.937 74.1888 107.45C73.8622 107.954 73.3955 108.346 72.7888 108.626C72.1822 108.897 71.4495 109.032 70.5908 109.032H67.5388L68.1688 108.374V112H66.7688ZM68.1688 108.514L67.5388 107.814H70.5488C71.4448 107.814 72.1215 107.623 72.5788 107.24C73.0455 106.857 73.2788 106.316 73.2788 105.616C73.2788 104.916 73.0455 104.375 72.5788 103.992C72.1215 103.609 71.4448 103.418 70.5488 103.418H67.5388L68.1688 102.718V108.514ZM79.8163 112.084C79.0229 112.084 78.3229 111.921 77.7163 111.594C77.1189 111.267 76.6523 110.819 76.3163 110.25C75.9896 109.681 75.8263 109.027 75.8263 108.29C75.8263 107.553 75.9849 106.899 76.3023 106.33C76.6289 105.761 77.0723 105.317 77.6323 105C78.2016 104.673 78.8409 104.51 79.5503 104.51C80.2689 104.51 80.9036 104.669 81.4543 104.986C82.0049 105.303 82.4343 105.751 82.7423 106.33C83.0596 106.899 83.2183 107.567 83.2183 108.332C83.2183 108.388 83.2136 108.453 83.2043 108.528C83.2043 108.603 83.1996 108.673 83.1903 108.738H76.8763V107.772H82.4903L81.9443 108.108C81.9536 107.632 81.8556 107.207 81.6503 106.834C81.4449 106.461 81.1603 106.171 80.7963 105.966C80.4416 105.751 80.0263 105.644 79.5503 105.644C79.0836 105.644 78.6683 105.751 78.3043 105.966C77.9403 106.171 77.6556 106.465 77.4503 106.848C77.2449 107.221 77.1423 107.651 77.1423 108.136V108.36C77.1423 108.855 77.2543 109.298 77.4783 109.69C77.7116 110.073 78.0336 110.371 78.4443 110.586C78.8549 110.801 79.3263 110.908 79.8583 110.908C80.2969 110.908 80.6936 110.833 81.0483 110.684C81.4123 110.535 81.7296 110.311 82.0003 110.012L82.7423 110.88C82.4063 111.272 81.9863 111.571 81.4823 111.776C80.9876 111.981 80.4323 112.084 79.8163 112.084ZM85.0845 112V104.58H86.3725V106.596L86.2465 106.092C86.4519 105.579 86.7972 105.187 87.2825 104.916C87.7679 104.645 88.3652 104.51 89.0745 104.51V105.812C89.0185 105.803 88.9625 105.798 88.9065 105.798C88.8599 105.798 88.8132 105.798 88.7665 105.798C88.0479 105.798 87.4785 106.013 87.0585 106.442C86.6385 106.871 86.4285 107.492 86.4285 108.304V112H85.0845ZM92.9411 112.084C92.3251 112.084 91.7371 112 91.1771 111.832C90.6264 111.664 90.1924 111.459 89.8751 111.216L90.4351 110.152C90.7524 110.367 91.1444 110.549 91.6111 110.698C92.0777 110.847 92.5537 110.922 93.0391 110.922C93.6644 110.922 94.1124 110.833 94.3831 110.656C94.6631 110.479 94.8031 110.231 94.8031 109.914C94.8031 109.681 94.7191 109.499 94.5511 109.368C94.3831 109.237 94.1591 109.139 93.8791 109.074C93.6084 109.009 93.3051 108.953 92.9691 108.906C92.6331 108.85 92.2971 108.785 91.9611 108.71C91.6251 108.626 91.3171 108.514 91.0371 108.374C90.7571 108.225 90.5331 108.024 90.3651 107.772C90.1971 107.511 90.1131 107.165 90.1131 106.736C90.1131 106.288 90.2391 105.896 90.4911 105.56C90.7431 105.224 91.0977 104.967 91.5551 104.79C92.0217 104.603 92.5724 104.51 93.2071 104.51C93.6924 104.51 94.1824 104.571 94.6771 104.692C95.1811 104.804 95.5917 104.967 95.9091 105.182L95.3351 106.246C94.9991 106.022 94.6491 105.868 94.2851 105.784C93.9211 105.7 93.5571 105.658 93.1931 105.658C92.6051 105.658 92.1664 105.756 91.8771 105.952C91.5877 106.139 91.4431 106.381 91.4431 106.68C91.4431 106.932 91.5271 107.128 91.6951 107.268C91.8724 107.399 92.0964 107.501 92.3671 107.576C92.6471 107.651 92.9551 107.716 93.2911 107.772C93.6271 107.819 93.9631 107.884 94.2991 107.968C94.6351 108.043 94.9384 108.15 95.2091 108.29C95.4891 108.43 95.7131 108.626 95.8811 108.878C96.0584 109.13 96.1471 109.466 96.1471 109.886C96.1471 110.334 96.0164 110.721 95.7551 111.048C95.4937 111.375 95.1251 111.631 94.6491 111.818C94.1731 111.995 93.6037 112.084 92.9411 112.084ZM101.131 112.084C100.337 112.084 99.6374 111.921 99.0307 111.594C98.4334 111.267 97.9667 110.819 97.6307 110.25C97.3041 109.681 97.1407 109.027 97.1407 108.29C97.1407 107.553 97.2994 106.899 97.6167 106.33C97.9434 105.761 98.3867 105.317 98.9467 105C99.5161 104.673 100.155 104.51 100.865 104.51C101.583 104.51 102.218 104.669 102.769 104.986C103.319 105.303 103.749 105.751 104.057 106.33C104.374 106.899 104.533 107.567 104.533 108.332C104.533 108.388 104.528 108.453 104.519 108.528C104.519 108.603 104.514 108.673 104.505 108.738H98.1907V107.772H103.805L103.259 108.108C103.268 107.632 103.17 107.207 102.965 106.834C102.759 106.461 102.475 106.171 102.111 105.966C101.756 105.751 101.341 105.644 100.865 105.644C100.398 105.644 99.9827 105.751 99.6187 105.966C99.2547 106.171 98.9701 106.465 98.7647 106.848C98.5594 107.221 98.4567 107.651 98.4567 108.136V108.36C98.4567 108.855 98.5687 109.298 98.7927 109.69C99.0261 110.073 99.3481 110.371 99.7587 110.586C100.169 110.801 100.641 110.908 101.173 110.908C101.611 110.908 102.008 110.833 102.363 110.684C102.727 110.535 103.044 110.311 103.315 110.012L104.057 110.88C103.721 111.272 103.301 111.571 102.797 111.776C102.302 111.981 101.747 112.084 101.131 112.084ZM109.647 114.8C108.966 114.8 108.303 114.702 107.659 114.506C107.024 114.319 106.506 114.049 106.105 113.694L106.749 112.658C107.094 112.957 107.519 113.19 108.023 113.358C108.527 113.535 109.054 113.624 109.605 113.624C110.482 113.624 111.126 113.419 111.537 113.008C111.948 112.597 112.153 111.972 112.153 111.132V109.564L112.293 108.094L112.223 106.61V104.58H113.497V110.992C113.497 112.299 113.17 113.26 112.517 113.876C111.864 114.492 110.907 114.8 109.647 114.8ZM109.479 111.692C108.76 111.692 108.116 111.543 107.547 111.244C106.987 110.936 106.539 110.511 106.203 109.97C105.876 109.429 105.713 108.803 105.713 108.094C105.713 107.375 105.876 106.75 106.203 106.218C106.539 105.677 106.987 105.257 107.547 104.958C108.116 104.659 108.76 104.51 109.479 104.51C110.114 104.51 110.692 104.641 111.215 104.902C111.738 105.154 112.153 105.546 112.461 106.078C112.778 106.61 112.937 107.282 112.937 108.094C112.937 108.897 112.778 109.564 112.461 110.096C112.153 110.628 111.738 111.029 111.215 111.3C110.692 111.561 110.114 111.692 109.479 111.692ZM109.633 110.516C110.128 110.516 110.566 110.413 110.949 110.208C111.332 110.003 111.63 109.718 111.845 109.354C112.069 108.99 112.181 108.57 112.181 108.094C112.181 107.618 112.069 107.198 111.845 106.834C111.63 106.47 111.332 106.19 110.949 105.994C110.566 105.789 110.128 105.686 109.633 105.686C109.138 105.686 108.695 105.789 108.303 105.994C107.92 106.19 107.617 106.47 107.393 106.834C107.178 107.198 107.071 107.618 107.071 108.094C107.071 108.57 107.178 108.99 107.393 109.354C107.617 109.718 107.92 110.003 108.303 110.208C108.695 110.413 109.138 110.516 109.633 110.516ZM116.065 112V104.58H117.409V112H116.065ZM116.737 103.152C116.476 103.152 116.256 103.068 116.079 102.9C115.911 102.732 115.827 102.527 115.827 102.284C115.827 102.032 115.911 101.822 116.079 101.654C116.256 101.486 116.476 101.402 116.737 101.402C116.998 101.402 117.213 101.486 117.381 101.654C117.558 101.813 117.647 102.013 117.647 102.256C117.647 102.508 117.563 102.723 117.395 102.9C117.227 103.068 117.008 103.152 116.737 103.152Z" fill="#EAA336"/>
<path d="M66.7688 112H63.7688V115H66.7688V112ZM66.7688 102.2V99.2H63.7688V102.2H66.7688ZM72.7888 102.606L71.5665 105.346L71.5665 105.346L72.7888 102.606ZM74.1888 103.782L76.7198 102.171V102.171L74.1888 103.782ZM74.1888 107.45L76.7063 109.082L76.7131 109.071L76.7198 109.061L74.1888 107.45ZM72.7888 108.626L74.0112 111.366L74.0286 111.358L74.046 111.35L72.7888 108.626ZM67.5388 109.032L65.3719 106.957L60.5131 112.032H67.5388V109.032ZM68.1688 108.374H71.1688V100.903L66.0019 106.299L68.1688 108.374ZM68.1688 112V115H71.1688V112H68.1688ZM68.1688 108.514L65.9389 110.521L71.1688 116.332V108.514H68.1688ZM67.5388 107.814V104.814H60.8027L65.3089 109.821L67.5388 107.814ZM72.5788 107.24L70.6766 104.92L70.6651 104.93L70.6537 104.939L72.5788 107.24ZM72.5788 103.992L70.6537 106.293L70.6651 106.302L70.6766 106.312L72.5788 103.992ZM67.5388 103.418L65.3089 101.411L60.8027 106.418H67.5388V103.418ZM68.1688 102.718H71.1688V94.9001L65.9389 100.711L68.1688 102.718ZM69.7688 112V102.2H63.7688V112H69.7688ZM66.7688 105.2H70.5908V99.2H66.7688V105.2ZM70.5908 105.2C71.1465 105.2 71.4395 105.289 71.5665 105.346L74.0112 99.8663C72.9248 99.3816 71.7525 99.2 70.5908 99.2V105.2ZM71.5665 105.346C71.6374 105.377 71.6632 105.399 71.6643 105.4C71.6655 105.401 71.664 105.4 71.6613 105.397C71.6586 105.394 71.6574 105.392 71.6578 105.393L76.7198 102.171C76.0482 101.116 75.1039 100.354 74.0112 99.8663L71.5665 105.346ZM71.6578 105.393C71.6503 105.381 71.6522 105.378 71.658 105.4C71.6646 105.425 71.6788 105.492 71.6788 105.616H77.6788C77.6788 104.433 77.4007 103.241 76.7198 102.171L71.6578 105.393ZM71.6788 105.616C71.6788 105.74 71.6646 105.807 71.658 105.832C71.6522 105.854 71.6503 105.851 71.6578 105.839L76.7198 109.061C77.4007 107.991 77.6788 106.799 77.6788 105.616H71.6788ZM71.6714 105.818C71.6708 105.819 71.671 105.819 71.6715 105.818C71.6719 105.818 71.6701 105.82 71.6643 105.825C71.6537 105.834 71.6159 105.863 71.5317 105.902L74.046 111.35C75.1077 110.86 76.0372 110.114 76.7063 109.082L71.6714 105.818ZM71.5665 105.886C71.4395 105.943 71.1465 106.032 70.5908 106.032V112.032C71.7525 112.032 72.9248 111.85 74.0112 111.366L71.5665 105.886ZM70.5908 106.032H67.5388V112.032H70.5908V106.032ZM69.7058 111.107L70.3358 110.449L66.0019 106.299L65.3719 106.957L69.7058 111.107ZM65.1688 108.374V112H71.1688V108.374H65.1688ZM68.1688 109H66.7688V115H68.1688V109ZM70.3987 106.507L69.7687 105.807L65.3089 109.821L65.9389 110.521L70.3987 106.507ZM67.5388 110.814H70.5488V104.814H67.5388V110.814ZM70.5488 110.814C71.8081 110.814 73.2932 110.554 74.504 109.541L70.6537 104.939C70.8021 104.815 70.9156 104.783 70.9121 104.784C70.9089 104.785 70.8794 104.793 70.8174 104.8C70.7554 104.808 70.6671 104.814 70.5488 104.814V110.814ZM74.4811 109.56C75.758 108.513 76.2788 107.054 76.2788 105.616H70.2788C70.2788 105.633 70.2765 105.527 70.3489 105.36C70.4265 105.179 70.5485 105.025 70.6766 104.92L74.4811 109.56ZM76.2788 105.616C76.2788 104.178 75.758 102.719 74.4811 101.672L70.6766 106.312C70.5485 106.207 70.4265 106.053 70.3489 105.872C70.2765 105.705 70.2788 105.599 70.2788 105.616H76.2788ZM74.504 101.691C73.2932 100.678 71.8081 100.418 70.5488 100.418V106.418C70.6671 106.418 70.7554 106.424 70.8174 106.432C70.8794 106.439 70.9089 106.447 70.9121 106.448C70.9156 106.449 70.8021 106.417 70.6537 106.293L74.504 101.691ZM70.5488 100.418H67.5388V106.418H70.5488V100.418ZM69.7687 105.425L70.3987 104.725L65.9389 100.711L65.3089 101.411L69.7687 105.425ZM65.1688 102.718V108.514H71.1688V102.718H65.1688ZM77.7163 111.594L76.2768 114.226L76.2854 114.231L76.294 114.235L77.7163 111.594ZM76.3163 110.25L73.7142 111.743L73.7233 111.759L73.7327 111.775L76.3163 110.25ZM76.3023 106.33L73.7002 104.837L73.6909 104.853L73.6818 104.869L76.3023 106.33ZM77.6323 105L79.1113 107.61L79.1183 107.606L79.1253 107.602L77.6323 105ZM81.4543 104.986L82.9522 102.387L82.9522 102.387L81.4543 104.986ZM82.7423 106.33L80.094 107.74L80.1077 107.765L80.1218 107.791L82.7423 106.33ZM83.2043 108.528L80.2275 108.156L80.2043 108.341V108.528H83.2043ZM83.1903 108.738V111.738H85.7922L86.1601 109.162L83.1903 108.738ZM76.8763 108.738H73.8763V111.738H76.8763V108.738ZM76.8763 107.772V104.772H73.8763V107.772H76.8763ZM82.4903 107.772L84.0626 110.327L93.0894 104.772H82.4903V107.772ZM81.9443 108.108L78.9449 108.049L78.8371 113.543L83.5166 110.663L81.9443 108.108ZM81.6503 106.834L84.2789 105.388V105.388L81.6503 106.834ZM80.7963 105.966L79.2429 108.532L79.2822 108.556L79.3223 108.579L80.7963 105.966ZM78.3043 105.966L79.7782 108.579L79.8034 108.565L79.8282 108.55L78.3043 105.966ZM77.4503 106.848L80.0789 108.294L80.0864 108.28L80.0938 108.266L77.4503 106.848ZM77.4783 109.69L74.8736 111.178L74.8947 111.215L74.9169 111.252L77.4783 109.69ZM78.4443 110.586L79.834 107.927V107.927L78.4443 110.586ZM81.0483 110.684L79.9096 107.908L79.8968 107.914L79.8841 107.919L81.0483 110.684ZM82.0003 110.012L84.2806 108.063L82.066 105.472L79.7773 107.997L82.0003 110.012ZM82.7423 110.88L85.0201 112.832L86.6913 110.883L85.0226 108.931L82.7423 110.88ZM81.4823 111.776L80.3504 108.998L80.3413 109.001L80.3321 109.005L81.4823 111.776ZM79.8163 109.084C79.4437 109.084 79.246 109.01 79.1386 108.953L76.294 114.235C77.3999 114.831 78.6022 115.084 79.8163 115.084V109.084ZM79.1557 108.962C79.0177 108.886 78.9527 108.815 78.8999 108.725L73.7327 111.775C74.3518 112.824 75.2202 113.648 76.2768 114.226L79.1557 108.962ZM78.9184 108.757C78.8834 108.696 78.8263 108.569 78.8263 108.29H72.8263C72.8263 109.485 73.0958 110.665 73.7142 111.743L78.9184 108.757ZM78.8263 108.29C78.8263 107.996 78.8855 107.857 78.9227 107.791L73.6818 104.869C73.0844 105.941 72.8263 107.11 72.8263 108.29H78.8263ZM78.9044 107.823C78.9691 107.71 79.0286 107.657 79.1113 107.61L76.1532 102.39C75.1159 102.978 74.2888 103.811 73.7002 104.837L78.9044 107.823ZM79.1253 107.602C79.2039 107.557 79.3212 107.51 79.5503 107.51V101.51C78.3607 101.51 77.1994 101.79 76.1393 102.398L79.1253 107.602ZM79.5503 107.51C79.8132 107.51 79.9184 107.563 79.9564 107.585L82.9522 102.387C81.8889 101.774 80.7247 101.51 79.5503 101.51V107.51ZM79.9564 107.585C80.0038 107.613 80.0416 107.641 80.094 107.74L85.3905 104.92C84.827 103.862 84.0061 102.994 82.9522 102.387L79.9564 107.585ZM80.1218 107.791C80.1501 107.841 80.2183 107.988 80.2183 108.332H86.2183C86.2183 107.145 85.9692 105.957 85.3627 104.869L80.1218 107.791ZM80.2183 108.332C80.2183 108.278 80.2205 108.236 80.2224 108.209C80.2244 108.182 80.2265 108.164 80.2275 108.156L86.1811 108.9C86.201 108.741 86.2183 108.546 86.2183 108.332H80.2183ZM80.2043 108.528C80.2043 108.479 80.2073 108.406 80.2204 108.314L86.1601 109.162C86.1919 108.94 86.2043 108.727 86.2043 108.528H80.2043ZM83.1903 105.738H76.8763V111.738H83.1903V105.738ZM79.8763 108.738V107.772H73.8763V108.738H79.8763ZM76.8763 110.772H82.4903V104.772H76.8763V110.772ZM80.918 105.217L80.372 105.553L83.5166 110.663L84.0626 110.327L80.918 105.217ZM84.9437 108.167C84.9621 107.229 84.7662 106.274 84.2789 105.388L79.0216 108.28C78.988 108.219 78.9663 108.158 78.9546 108.107C78.9433 108.058 78.9451 108.035 78.9449 108.049L84.9437 108.167ZM84.2789 105.388C83.8103 104.536 83.1301 103.838 82.2702 103.353L79.3223 108.579C79.2674 108.548 79.2044 108.502 79.1443 108.441C79.0845 108.38 79.0448 108.322 79.0216 108.28L84.2789 105.388ZM82.3497 103.399C81.4605 102.861 80.4913 102.644 79.5503 102.644V108.644C79.5624 108.644 79.5308 108.645 79.4682 108.629C79.4031 108.612 79.3239 108.582 79.2429 108.532L82.3497 103.399ZM79.5503 102.644C78.6051 102.644 77.6531 102.867 76.7803 103.382L79.8282 108.55C79.765 108.587 79.6991 108.614 79.6394 108.629C79.5814 108.644 79.5482 108.644 79.5503 108.644V102.644ZM76.8303 103.353C75.9512 103.849 75.2699 104.567 74.8068 105.43L80.0938 108.266C80.0734 108.304 80.035 108.363 79.973 108.427C79.9105 108.492 79.8421 108.543 79.7782 108.579L76.8303 103.353ZM74.8216 105.402C74.3405 106.277 74.1423 107.216 74.1423 108.136H80.1423C80.1423 108.105 80.1454 108.112 80.137 108.148C80.1282 108.185 80.1103 108.237 80.0789 108.294L74.8216 105.402ZM74.1423 108.136V108.36H80.1423V108.136H74.1423ZM74.1423 108.36C74.1423 109.325 74.3662 110.291 74.8736 111.178L80.083 108.202C80.1077 108.245 80.1251 108.29 80.1349 108.329C80.1443 108.366 80.1423 108.38 80.1423 108.36H74.1423ZM74.9169 111.252C75.4438 112.116 76.1781 112.787 77.0545 113.245L79.834 107.927C79.8519 107.937 79.89 107.96 79.9349 108.001C79.9803 108.044 80.0157 108.089 80.0397 108.128L74.9169 111.252ZM77.0545 113.245C77.9538 113.715 78.9144 113.908 79.8583 113.908V107.908C79.7942 107.908 79.7684 107.902 79.7719 107.902C79.7735 107.903 79.7807 107.905 79.7925 107.909C79.8043 107.913 79.8185 107.919 79.834 107.927L77.0545 113.245ZM79.8583 113.908C80.6412 113.908 81.4412 113.774 82.2125 113.449L79.8841 107.919C79.8976 107.913 79.9089 107.91 79.9173 107.907C79.9256 107.905 79.9301 107.904 79.9298 107.904C79.9295 107.904 79.9073 107.908 79.8583 107.908V113.908ZM82.187 113.46C82.9749 113.136 83.6599 112.648 84.2232 112.027L79.7773 107.997C79.7842 107.99 79.8014 107.973 79.8292 107.953C79.8572 107.933 79.8856 107.918 79.9096 107.908L82.187 113.46ZM79.7199 111.961L80.4619 112.829L85.0226 108.931L84.2806 108.063L79.7199 111.961ZM80.4645 108.928C80.4562 108.937 80.4368 108.963 80.3504 108.998L82.6142 114.554C83.5358 114.179 84.3564 113.607 85.0201 112.832L80.4645 108.928ZM80.3321 109.005C80.2526 109.038 80.0963 109.084 79.8163 109.084V115.084C80.7683 115.084 81.7226 114.924 82.6324 114.547L80.3321 109.005ZM85.0845 112H82.0845V115H85.0845V112ZM85.0845 104.58V101.58H82.0845V104.58H85.0845ZM86.3725 104.58H89.3725V101.58H86.3725V104.58ZM86.3725 106.596L83.4621 107.324L89.3725 106.596H86.3725ZM86.2465 106.092L83.4611 104.978L83.1008 105.879L83.3361 106.82L86.2465 106.092ZM87.2825 104.916L85.8213 102.296V102.296L87.2825 104.916ZM89.0745 104.51H92.0745V101.51H89.0745V104.51ZM89.0745 105.812L88.5814 108.771L92.0745 109.353V105.812H89.0745ZM86.4285 112V115H89.4285V112H86.4285ZM88.0845 112V104.58H82.0845V112H88.0845ZM85.0845 107.58H86.3725V101.58H85.0845V107.58ZM83.3725 104.58V106.596H89.3725V104.58H83.3725ZM89.283 105.868L89.157 105.364L83.3361 106.82L83.4621 107.324L89.283 105.868ZM89.032 107.206C89.0149 107.249 88.9773 107.32 88.9106 107.396C88.8441 107.472 88.7796 107.516 88.7438 107.536L85.8213 102.296C84.7383 102.9 83.9235 103.822 83.4611 104.978L89.032 107.206ZM88.7438 107.536C88.6754 107.574 88.7384 107.51 89.0745 107.51V101.51C87.9921 101.51 86.8604 101.716 85.8213 102.296L88.7438 107.536ZM86.0745 104.51V105.812H92.0745V104.51H86.0745ZM89.5677 102.853C89.351 102.817 89.1301 102.798 88.9065 102.798V108.798C88.795 108.798 88.6861 108.789 88.5814 108.771L89.5677 102.853ZM88.9065 102.798C88.9065 102.798 88.9064 102.798 88.9063 102.798C88.9062 102.798 88.9061 102.798 88.906 102.798C88.9059 102.798 88.9058 102.798 88.9057 102.798C88.9056 102.798 88.9055 102.798 88.9055 102.798C88.9054 102.798 88.9053 102.798 88.9052 102.798C88.9051 102.798 88.905 102.798 88.9049 102.798C88.9048 102.798 88.9047 102.798 88.9046 102.798C88.9045 102.798 88.9044 102.798 88.9044 102.798C88.9043 102.798 88.9042 102.798 88.9041 102.798C88.904 102.798 88.9039 102.798 88.9038 102.798C88.9037 102.798 88.9036 102.798 88.9035 102.798C88.9035 102.798 88.9034 102.798 88.9033 102.798C88.9032 102.798 88.9031 102.798 88.903 102.798C88.9029 102.798 88.9028 102.798 88.9027 102.798C88.9026 102.798 88.9025 102.798 88.9024 102.798C88.9024 102.798 88.9023 102.798 88.9022 102.798C88.9021 102.798 88.902 102.798 88.9019 102.798C88.9018 102.798 88.9017 102.798 88.9016 102.798C88.9015 102.798 88.9014 102.798 88.9014 102.798C88.9013 102.798 88.9012 102.798 88.9011 102.798C88.901 102.798 88.9009 102.798 88.9008 102.798C88.9007 102.798 88.9006 102.798 88.9005 102.798C88.9004 102.798 88.9003 102.798 88.9003 102.798C88.9002 102.798 88.9001 102.798 88.9 102.798C88.8999 102.798 88.8998 102.798 88.8997 102.798C88.8996 102.798 88.8995 102.798 88.8994 102.798C88.8993 102.798 88.8993 102.798 88.8992 102.798C88.8991 102.798 88.899 102.798 88.8989 102.798C88.8988 102.798 88.8987 102.798 88.8986 102.798C88.8985 102.798 88.8984 102.798 88.8983 102.798C88.8983 102.798 88.8982 102.798 88.8981 102.798C88.898 102.798 88.8979 102.798 88.8978 102.798C88.8977 102.798 88.8976 102.798 88.8975 102.798C88.8974 102.798 88.8973 102.798 88.8973 102.798C88.8972 102.798 88.8971 102.798 88.897 102.798C88.8969 102.798 88.8968 102.798 88.8967 102.798C88.8966 102.798 88.8965 102.798 88.8964 102.798C88.8963 102.798 88.8962 102.798 88.8962 102.798C88.8961 102.798 88.896 102.798 88.8959 102.798C88.8958 102.798 88.8957 102.798 88.8956 102.798C88.8955 102.798 88.8954 102.798 88.8953 102.798C88.8952 102.798 88.8952 102.798 88.8951 102.798C88.895 102.798 88.8949 102.798 88.8948 102.798C88.8947 102.798 88.8946 102.798 88.8945 102.798C88.8944 102.798 88.8943 102.798 88.8942 102.798C88.8941 102.798 88.8941 102.798 88.894 102.798C88.8939 102.798 88.8938 102.798 88.8937 102.798C88.8936 102.798 88.8935 102.798 88.8934 102.798C88.8933 102.798 88.8932 102.798 88.8932 102.798C88.8931 102.798 88.893 102.798 88.8929 102.798C88.8928 102.798 88.8927 102.798 88.8926 102.798C88.8925 102.798 88.8924 102.798 88.8923 102.798C88.8922 102.798 88.8921 102.798 88.8921 102.798C88.892 102.798 88.8919 102.798 88.8918 102.798C88.8917 102.798 88.8916 102.798 88.8915 102.798C88.8914 102.798 88.8913 102.798 88.8912 102.798C88.8911 102.798 88.8911 102.798 88.891 102.798C88.8909 102.798 88.8908 102.798 88.8907 102.798C88.8906 102.798 88.8905 102.798 88.8904 102.798C88.8903 102.798 88.8902 102.798 88.8901 102.798C88.89 102.798 88.89 102.798 88.8899 102.798C88.8898 102.798 88.8897 102.798 88.8896 102.798C88.8895 102.798 88.8894 102.798 88.8893 102.798C88.8892 102.798 88.8891 102.798 88.889 102.798C88.889 102.798 88.8889 102.798 88.8888 102.798C88.8887 102.798 88.8886 102.798 88.8885 102.798C88.8884 102.798 88.8883 102.798 88.8882 102.798C88.8881 102.798 88.888 102.798 88.888 102.798C88.8879 102.798 88.8878 102.798 88.8877 102.798C88.8876 102.798 88.8875 102.798 88.8874 102.798C88.8873 102.798 88.8872 102.798 88.8871 102.798C88.887 102.798 88.887 102.798 88.8869 102.798C88.8868 102.798 88.8867 102.798 88.8866 102.798C88.8865 102.798 88.8864 102.798 88.8863 102.798C88.8862 102.798 88.8861 102.798 88.886 102.798C88.8859 102.798 88.8859 102.798 88.8858 102.798C88.8857 102.798 88.8856 102.798 88.8855 102.798C88.8854 102.798 88.8853 102.798 88.8852 102.798C88.8851 102.798 88.885 102.798 88.8849 102.798C88.8849 102.798 88.8848 102.798 88.8847 102.798C88.8846 102.798 88.8845 102.798 88.8844 102.798C88.8843 102.798 88.8842 102.798 88.8841 102.798C88.884 102.798 88.8839 102.798 88.8839 102.798C88.8838 102.798 88.8837 102.798 88.8836 102.798C88.8835 102.798 88.8834 102.798 88.8833 102.798C88.8832 102.798 88.8831 102.798 88.883 102.798C88.8829 102.798 88.8829 102.798 88.8828 102.798C88.8827 102.798 88.8826 102.798 88.8825 102.798C88.8824 102.798 88.8823 102.798 88.8822 102.798C88.8821 102.798 88.882 102.798 88.8819 102.798C88.8818 102.798 88.8818 102.798 88.8817 102.798C88.8816 102.798 88.8815 102.798 88.8814 102.798C88.8813 102.798 88.8812 102.798 88.8811 102.798C88.881 102.798 88.8809 102.798 88.8808 102.798C88.8808 102.798 88.8807 102.798 88.8806 102.798C88.8805 102.798 88.8804 102.798 88.8803 102.798C88.8802 102.798 88.8801 102.798 88.88 102.798C88.8799 102.798 88.8798 102.798 88.8797 102.798C88.8797 102.798 88.8796 102.798 88.8795 102.798C88.8794 102.798 88.8793 102.798 88.8792 102.798C88.8791 102.798 88.879 102.798 88.8789 102.798C88.8788 102.798 88.8787 102.798 88.8787 102.798C88.8786 102.798 88.8785 102.798 88.8784 102.798C88.8783 102.798 88.8782 102.798 88.8781 102.798C88.878 102.798 88.8779 102.798 88.8778 102.798C88.8777 102.798 88.8777 102.798 88.8776 102.798C88.8775 102.798 88.8774 102.798 88.8773 102.798C88.8772 102.798 88.8771 102.798 88.877 102.798C88.8769 102.798 88.8768 102.798 88.8767 102.798C88.8767 102.798 88.8766 102.798 88.8765 102.798C88.8764 102.798 88.8763 102.798 88.8762 102.798C88.8761 102.798 88.876 102.798 88.8759 102.798C88.8758 102.798 88.8757 102.798 88.8756 102.798C88.8756 102.798 88.8755 102.798 88.8754 102.798C88.8753 102.798 88.8752 102.798 88.8751 102.798C88.875 102.798 88.8749 102.798 88.8748 102.798C88.8747 102.798 88.8746 102.798 88.8746 102.798C88.8745 102.798 88.8744 102.798 88.8743 102.798C88.8742 102.798 88.8741 102.798 88.874 102.798C88.8739 102.798 88.8738 102.798 88.8737 102.798C88.8736 102.798 88.8736 102.798 88.8735 102.798C88.8734 102.798 88.8733 102.798 88.8732 102.798C88.8731 102.798 88.873 102.798 88.8729 102.798C88.8728 102.798 88.8727 102.798 88.8726 102.798C88.8726 102.798 88.8725 102.798 88.8724 102.798C88.8723 102.798 88.8722 102.798 88.8721 102.798C88.872 102.798 88.8719 102.798 88.8718 102.798C88.8717 102.798 88.8716 102.798 88.8715 102.798C88.8715 102.798 88.8714 102.798 88.8713 102.798C88.8712 102.798 88.8711 102.798 88.871 102.798C88.8709 102.798 88.8708 102.798 88.8707 102.798C88.8706 102.798 88.8705 102.798 88.8705 102.798C88.8704 102.798 88.8703 102.798 88.8702 102.798C88.8701 102.798 88.87 102.798 88.8699 102.798C88.8698 102.798 88.8697 102.798 88.8696 102.798C88.8695 102.798 88.8694 102.798 88.8694 102.798C88.8693 102.798 88.8692 102.798 88.8691 102.798C88.869 102.798 88.8689 102.798 88.8688 102.798C88.8687 102.798 88.8686 102.798 88.8685 102.798C88.8684 102.798 88.8684 102.798 88.8683 102.798C88.8682 102.798 88.8681 102.798 88.868 102.798C88.8679 102.798 88.8678 102.798 88.8677 102.798C88.8676 102.798 88.8675 102.798 88.8674 102.798C88.8674 102.798 88.8673 102.798 88.8672 102.798C88.8671 102.798 88.867 102.798 88.8669 102.798C88.8668 102.798 88.8667 102.798 88.8666 102.798C88.8665 102.798 88.8664 102.798 88.8664 102.798C88.8663 102.798 88.8662 102.798 88.8661 102.798C88.866 102.798 88.8659 102.798 88.8658 102.798C88.8657 102.798 88.8656 102.798 88.8655 102.798C88.8654 102.798 88.8653 102.798 88.8653 102.798C88.8652 102.798 88.8651 102.798 88.865 102.798C88.8649 102.798 88.8648 102.798 88.8647 102.798C88.8646 102.798 88.8645 102.798 88.8644 102.798C88.8643 102.798 88.8643 102.798 88.8642 102.798C88.8641 102.798 88.864 102.798 88.8639 102.798C88.8638 102.798 88.8637 102.798 88.8636 102.798C88.8635 102.798 88.8634 102.798 88.8633 102.798C88.8633 102.798 88.8632 102.798 88.8631 102.798C88.863 102.798 88.8629 102.798 88.8628 102.798C88.8627 102.798 88.8626 102.798 88.8625 102.798C88.8624 102.798 88.8623 102.798 88.8623 102.798C88.8622 102.798 88.8621 102.798 88.862 102.798C88.8619 102.798 88.8618 102.798 88.8617 102.798C88.8616 102.798 88.8615 102.798 88.8614 102.798C88.8613 102.798 88.8612 102.798 88.8612 102.798C88.8611 102.798 88.861 102.798 88.8609 102.798C88.8608 102.798 88.8607 102.798 88.8606 102.798C88.8605 102.798 88.8604 102.798 88.8603 102.798C88.8602 102.798 88.8602 102.798 88.8601 102.798C88.86 102.798 88.8599 102.798 88.8598 102.798C88.8597 102.798 88.8596 102.798 88.8595 102.798C88.8594 102.798 88.8593 102.798 88.8592 102.798C88.8591 102.798 88.8591 102.798 88.859 102.798C88.8589 102.798 88.8588 102.798 88.8587 102.798C88.8586 102.798 88.8585 102.798 88.8584 102.798C88.8583 102.798 88.8582 102.798 88.8582 102.798C88.8581 102.798 88.858 102.798 88.8579 102.798C88.8578 102.798 88.8577 102.798 88.8576 102.798C88.8575 102.798 88.8574 102.798 88.8573 102.798C88.8572 102.798 88.8571 102.798 88.8571 102.798C88.857 102.798 88.8569 102.798 88.8568 102.798C88.8567 102.798 88.8566 102.798 88.8565 102.798C88.8564 102.798 88.8563 102.798 88.8562 102.798C88.8561 102.798 88.8561 102.798 88.856 102.798C88.8559 102.798 88.8558 102.798 88.8557 102.798C88.8556 102.798 88.8555 102.798 88.8554 102.798C88.8553 102.798 88.8552 102.798 88.8551 102.798C88.855 102.798 88.855 102.798 88.8549 102.798C88.8548 102.798 88.8547 102.798 88.8546 102.798C88.8545 102.798 88.8544 102.798 88.8543 102.798C88.8542 102.798 88.8541 102.798 88.854 102.798C88.854 102.798 88.8539 102.798 88.8538 102.798C88.8537 102.798 88.8536 102.798 88.8535 102.798C88.8534 102.798 88.8533 102.798 88.8532 102.798C88.8531 102.798 88.853 102.798 88.853 102.798C88.8529 102.798 88.8528 102.798 88.8527 102.798C88.8526 102.798 88.8525 102.798 88.8524 102.798C88.8523 102.798 88.8522 102.798 88.8521 102.798C88.852 102.798 88.852 102.798 88.8519 102.798C88.8518 102.798 88.8517 102.798 88.8516 102.798C88.8515 102.798 88.8514 102.798 88.8513 102.798C88.8512 102.798 88.8511 102.798 88.851 102.798C88.8509 102.798 88.8509 102.798 88.8508 102.798C88.8507 102.798 88.8506 102.798 88.8505 102.798C88.8504 102.798 88.8503 102.798 88.8502 102.798C88.8501 102.798 88.85 102.798 88.8499 102.798C88.8499 102.798 88.8498 102.798 88.8497 102.798C88.8496 102.798 88.8495 102.798 88.8494 102.798C88.8493 102.798 88.8492 102.798 88.8491 102.798C88.849 102.798 88.8489 102.798 88.8489 102.798C88.8488 102.798 88.8487 102.798 88.8486 102.798C88.8485 102.798 88.8484 102.798 88.8483 102.798C88.8482 102.798 88.8481 102.798 88.848 102.798C88.8479 102.798 88.8479 102.798 88.8478 102.798C88.8477 102.798 88.8476 102.798 88.8475 102.798C88.8474 102.798 88.8473 102.798 88.8472 102.798C88.8471 102.798 88.847 102.798 88.8469 102.798C88.8468 102.798 88.8468 102.798 88.8467 102.798C88.8466 102.798 88.8465 102.798 88.8464 102.798C88.8463 102.798 88.8462 102.798 88.8461 102.798C88.846 102.798 88.8459 102.798 88.8458 102.798C88.8458 102.798 88.8457 102.798 88.8456 102.798C88.8455 102.798 88.8454 102.798 88.8453 102.798C88.8452 102.798 88.8451 102.798 88.845 102.798C88.8449 102.798 88.8448 102.798 88.8447 102.798C88.8447 102.798 88.8446 102.798 88.8445 102.798C88.8444 102.798 88.8443 102.798 88.8442 102.798C88.8441 102.798 88.844 102.798 88.8439 102.798C88.8438 102.798 88.8437 102.798 88.8437 102.798C88.8436 102.798 88.8435 102.798 88.8434 102.798C88.8433 102.798 88.8432 102.798 88.8431 102.798C88.843 102.798 88.8429 102.798 88.8428 102.798C88.8427 102.798 88.8427 102.798 88.8426 102.798C88.8425 102.798 88.8424 102.798 88.8423 102.798C88.8422 102.798 88.8421 102.798 88.842 102.798C88.8419 102.798 88.8418 102.798 88.8417 102.798C88.8417 102.798 88.8416 102.798 88.8415 102.798C88.8414 102.798 88.8413 102.798 88.8412 102.798C88.8411 102.798 88.841 102.798 88.8409 102.798C88.8408 102.798 88.8407 102.798 88.8406 102.798C88.8406 102.798 88.8405 102.798 88.8404 102.798C88.8403 102.798 88.8402 102.798 88.8401 102.798C88.84 102.798 88.8399 102.798 88.8398 102.798C88.8397 102.798 88.8396 102.798 88.8396 102.798C88.8395 102.798 88.8394 102.798 88.8393 102.798C88.8392 102.798 88.8391 102.798 88.839 102.798C88.8389 102.798 88.8388 102.798 88.8387 102.798C88.8386 102.798 88.8386 102.798 88.8385 102.798C88.8384 102.798 88.8383 102.798 88.8382 102.798C88.8381 102.798 88.838 102.798 88.8379 102.798C88.8378 102.798 88.8377 102.798 88.8376 102.798C88.8376 102.798 88.8375 102.798 88.8374 102.798C88.8373 102.798 88.8372 102.798 88.8371 102.798C88.837 102.798 88.8369 102.798 88.8368 102.798C88.8367 102.798 88.8366 102.798 88.8365 102.798C88.8365 102.798 88.8364 102.798 88.8363 102.798C88.8362 102.798 88.8361 102.798 88.836 102.798C88.8359 102.798 88.8358 102.798 88.8357 102.798C88.8356 102.798 88.8355 102.798 88.8355 102.798C88.8354 102.798 88.8353 102.798 88.8352 102.798C88.8351 102.798 88.835 102.798 88.8349 102.798C88.8348 102.798 88.8347 102.798 88.8346 102.798C88.8345 102.798 88.8344 102.798 88.8344 102.798C88.8343 102.798 88.8342 102.798 88.8341 102.798C88.834 102.798 88.8339 102.798 88.8338 102.798C88.8337 102.798 88.8336 102.798 88.8335 102.798C88.8334 102.798 88.8334 102.798 88.8333 102.798C88.8332 102.798 88.8331 102.798 88.833 102.798C88.8329 102.798 88.8328 102.798 88.8327 102.798C88.8326 102.798 88.8325 102.798 88.8324 102.798C88.8324 102.798 88.8323 102.798 88.8322 102.798C88.8321 102.798 88.832 102.798 88.8319 102.798C88.8318 102.798 88.8317 102.798 88.8316 102.798C88.8315 102.798 88.8314 102.798 88.8314 102.798C88.8313 102.798 88.8312 102.798 88.8311 102.798C88.831 102.798 88.8309 102.798 88.8308 102.798C88.8307 102.798 88.8306 102.798 88.8305 102.798C88.8304 102.798 88.8303 102.798 88.8303 102.798C88.8302 102.798 88.8301 102.798 88.83 102.798C88.8299 102.798 88.8298 102.798 88.8297 102.798C88.8296 102.798 88.8295 102.798 88.8294 102.798C88.8293 102.798 88.8293 102.798 88.8292 102.798C88.8291 102.798 88.829 102.798 88.8289 102.798C88.8288 102.798 88.8287 102.798 88.8286 102.798C88.8285 102.798 88.8284 102.798 88.8283 102.798C88.8283 102.798 88.8282 102.798 88.8281 102.798C88.828 102.798 88.8279 102.798 88.8278 102.798C88.8277 102.798 88.8276 102.798 88.8275 102.798C88.8274 102.798 88.8273 102.798 88.8273 102.798C88.8272 102.798 88.8271 102.798 88.827 102.798C88.8269 102.798 88.8268 102.798 88.8267 102.798C88.8266 102.798 88.8265 102.798 88.8264 102.798C88.8263 102.798 88.8262 102.798 88.8262 102.798C88.8261 102.798 88.826 102.798 88.8259 102.798C88.8258 102.798 88.8257 102.798 88.8256 102.798C88.8255 102.798 88.8254 102.798 88.8253 102.798C88.8252 102.798 88.8252 102.798 88.8251 102.798C88.825 102.798 88.8249 102.798 88.8248 102.798C88.8247 102.798 88.8246 102.798 88.8245 102.798C88.8244 102.798 88.8243 102.798 88.8242 102.798C88.8242 102.798 88.8241 102.798 88.824 102.798C88.8239 102.798 88.8238 102.798 88.8237 102.798C88.8236 102.798 88.8235 102.798 88.8234 102.798C88.8233 102.798 88.8232 102.798 88.8231 102.798C88.8231 102.798 88.823 102.798 88.8229 102.798C88.8228 102.798 88.8227 102.798 88.8226 102.798C88.8225 102.798 88.8224 102.798 88.8223 102.798C88.8222 102.798 88.8221 102.798 88.8221 102.798C88.822 102.798 88.8219 102.798 88.8218 102.798C88.8217 102.798 88.8216 102.798 88.8215 102.798C88.8214 102.798 88.8213 102.798 88.8212 102.798C88.8211 102.798 88.8211 102.798 88.821 102.798C88.8209 102.798 88.8208 102.798 88.8207 102.798C88.8206 102.798 88.8205 102.798 88.8204 102.798C88.8203 102.798 88.8202 102.798 88.8201 102.798C88.82 102.798 88.82 102.798 88.8199 102.798C88.8198 102.798 88.8197 102.798 88.8196 102.798C88.8195 102.798 88.8194 102.798 88.8193 102.798C88.8192 102.798 88.8191 102.798 88.819 102.798C88.819 102.798 88.8189 102.798 88.8188 102.798C88.8187 102.798 88.8186 102.798 88.8185 102.798C88.8184 102.798 88.8183 102.798 88.8182 102.798C88.8181 102.798 88.818 102.798 88.818 102.798C88.8179 102.798 88.8178 102.798 88.8177 102.798C88.8176 102.798 88.8175 102.798 88.8174 102.798C88.8173 102.798 88.8172 102.798 88.8171 102.798C88.817 102.798 88.817 102.798 88.8169 102.798C88.8168 102.798 88.8167 102.798 88.8166 102.798C88.8165 102.798 88.8164 102.798 88.8163 102.798C88.8162 102.798 88.8161 102.798 88.816 102.798C88.8159 102.798 88.8159 102.798 88.8158 102.798C88.8157 102.798 88.8156 102.798 88.8155 102.798C88.8154 102.798 88.8153 102.798 88.8152 102.798C88.8151 102.798 88.815 102.798 88.8149 102.798C88.8149 102.798 88.8148 102.798 88.8147 102.798C88.8146 102.798 88.8145 102.798 88.8144 102.798C88.8143 102.798 88.8142 102.798 88.8141 102.798C88.814 102.798 88.8139 102.798 88.8139 102.798C88.8138 102.798 88.8137 102.798 88.8136 102.798C88.8135 102.798 88.8134 102.798 88.8133 102.798C88.8132 102.798 88.8131 102.798 88.813 102.798C88.8129 102.798 88.8129 102.798 88.8128 102.798C88.8127 102.798 88.8126 102.798 88.8125 102.798C88.8124 102.798 88.8123 102.798 88.8122 102.798C88.8121 102.798 88.812 102.798 88.8119 102.798C88.8118 102.798 88.8118 102.798 88.8117 102.798C88.8116 102.798 88.8115 102.798 88.8114 102.798C88.8113 102.798 88.8112 102.798 88.8111 102.798C88.811 102.798 88.8109 102.798 88.8108 102.798C88.8108 102.798 88.8107 102.798 88.8106 102.798C88.8105 102.798 88.8104 102.798 88.8103 102.798C88.8102 102.798 88.8101 102.798 88.81 102.798C88.8099 102.798 88.8098 102.798 88.8097 102.798C88.8097 102.798 88.8096 102.798 88.8095 102.798C88.8094 102.798 88.8093 102.798 88.8092 102.798C88.8091 102.798 88.809 102.798 88.8089 102.798C88.8088 102.798 88.8087 102.798 88.8087 102.798C88.8086 102.798 88.8085 102.798 88.8084 102.798C88.8083 102.798 88.8082 102.798 88.8081 102.798C88.808 102.798 88.8079 102.798 88.8078 102.798C88.8077 102.798 88.8077 102.798 88.8076 102.798C88.8075 102.798 88.8074 102.798 88.8073 102.798C88.8072 102.798 88.8071 102.798 88.807 102.798C88.8069 102.798 88.8068 102.798 88.8067 102.798C88.8067 102.798 88.8066 102.798 88.8065 102.798C88.8064 102.798 88.8063 102.798 88.8062 102.798C88.8061 102.798 88.806 102.798 88.8059 102.798C88.8058 102.798 88.8057 102.798 88.8056 102.798C88.8056 102.798 88.8055 102.798 88.8054 102.798C88.8053 102.798 88.8052 102.798 88.8051 102.798C88.805 102.798 88.8049 102.798 88.8048 102.798C88.8047 102.798 88.8046 102.798 88.8046 102.798C88.8045 102.798 88.8044 102.798 88.8043 102.798C88.8042 102.798 88.8041 102.798 88.804 102.798C88.8039 102.798 88.8038 102.798 88.8037 102.798C88.8036 102.798 88.8036 102.798 88.8035 102.798C88.8034 102.798 88.8033 102.798 88.8032 102.798C88.8031 102.798 88.803 102.798 88.8029 102.798C88.8028 102.798 88.8027 102.798 88.8026 102.798C88.8026 102.798 88.8025 102.798 88.8024 102.798C88.8023 102.798 88.8022 102.798 88.8021 102.798C88.802 102.798 88.8019 102.798 88.8018 102.798C88.8017 102.798 88.8016 102.798 88.8015 102.798C88.8015 102.798 88.8014 102.798 88.8013 102.798C88.8012 102.798 88.8011 102.798 88.801 102.798C88.8009 102.798 88.8008 102.798 88.8007 102.798C88.8006 102.798 88.8005 102.798 88.8005 102.798C88.8004 102.798 88.8003 102.798 88.8002 102.798C88.8001 102.798 88.8 102.798 88.7999 102.798C88.7998 102.798 88.7997 102.798 88.7996 102.798C88.7995 102.798 88.7994 102.798 88.7994 102.798C88.7993 102.798 88.7992 102.798 88.7991 102.798C88.799 102.798 88.7989 102.798 88.7988 102.798C88.7987 102.798 88.7986 102.798 88.7985 102.798C88.7984 102.798 88.7984 102.798 88.7983 102.798C88.7982 102.798 88.7981 102.798 88.798 102.798C88.7979 102.798 88.7978 102.798 88.7977 102.798C88.7976 102.798 88.7975 102.798 88.7974 102.798C88.7974 102.798 88.7973 102.798 88.7972 102.798C88.7971 102.798 88.797 102.798 88.7969 102.798C88.7968 102.798 88.7967 102.798 88.7966 102.798C88.7965 102.798 88.7964 102.798 88.7964 102.798C88.7963 102.798 88.7962 102.798 88.7961 102.798C88.796 102.798 88.7959 102.798 88.7958 102.798C88.7957 102.798 88.7956 102.798 88.7955 102.798C88.7954 102.798 88.7953 102.798 88.7953 102.798C88.7952 102.798 88.7951 102.798 88.795 102.798C88.7949 102.798 88.7948 102.798 88.7947 102.798C88.7946 102.798 88.7945 102.798 88.7944 102.798C88.7943 102.798 88.7943 102.798 88.7942 102.798C88.7941 102.798 88.794 102.798 88.7939 102.798C88.7938 102.798 88.7937 102.798 88.7936 102.798C88.7935 102.798 88.7934 102.798 88.7933 102.798C88.7933 102.798 88.7932 102.798 88.7931 102.798C88.793 102.798 88.7929 102.798 88.7928 102.798C88.7927 102.798 88.7926 102.798 88.7925 102.798C88.7924 102.798 88.7923 102.798 88.7923 102.798C88.7922 102.798 88.7921 102.798 88.792 102.798C88.7919 102.798 88.7918 102.798 88.7917 102.798C88.7916 102.798 88.7915 102.798 88.7914 102.798C88.7913 102.798 88.7912 102.798 88.7912 102.798C88.7911 102.798 88.791 102.798 88.7909 102.798C88.7908 102.798 88.7907 102.798 88.7906 102.798C88.7905 102.798 88.7904 102.798 88.7903 102.798C88.7902 102.798 88.7902 102.798 88.7901 102.798C88.79 102.798 88.7899 102.798 88.7898 102.798C88.7897 102.798 88.7896 102.798 88.7895 102.798C88.7894 102.798 88.7893 102.798 88.7892 102.798C88.7892 102.798 88.7891 102.798 88.789 102.798C88.7889 102.798 88.7888 102.798 88.7887 102.798C88.7886 102.798 88.7885 102.798 88.7884 102.798C88.7883 102.798 88.7882 102.798 88.7881 102.798C88.7881 102.798 88.788 102.798 88.7879 102.798C88.7878 102.798 88.7877 102.798 88.7876 102.798C88.7875 102.798 88.7874 102.798 88.7873 102.798C88.7872 102.798 88.7871 102.798 88.7871 102.798C88.787 102.798 88.7869 102.798 88.7868 102.798C88.7867 102.798 88.7866 102.798 88.7865 102.798C88.7864 102.798 88.7863 102.798 88.7862 102.798C88.7861 102.798 88.7861 102.798 88.786 102.798C88.7859 102.798 88.7858 102.798 88.7857 102.798C88.7856 102.798 88.7855 102.798 88.7854 102.798C88.7853 102.798 88.7852 102.798 88.7851 102.798C88.785 102.798 88.785 102.798 88.7849 102.798C88.7848 102.798 88.7847 102.798 88.7846 102.798C88.7845 102.798 88.7844 102.798 88.7843 102.798C88.7842 102.798 88.7841 102.798 88.784 102.798C88.784 102.798 88.7839 102.798 88.7838 102.798C88.7837 102.798 88.7836 102.798 88.7835 102.798C88.7834 102.798 88.7833 102.798 88.7832 102.798C88.7831 102.798 88.783 102.798 88.783 102.798C88.7829 102.798 88.7828 102.798 88.7827 102.798C88.7826 102.798 88.7825 102.798 88.7824 102.798C88.7823 102.798 88.7822 102.798 88.7821 102.798C88.782 102.798 88.782 102.798 88.7819 102.798C88.7818 102.798 88.7817 102.798 88.7816 102.798C88.7815 102.798 88.7814 102.798 88.7813 102.798C88.7812 102.798 88.7811 102.798 88.781 102.798C88.7809 102.798 88.7809 102.798 88.7808 102.798C88.7807 102.798 88.7806 102.798 88.7805 102.798C88.7804 102.798 88.7803 102.798 88.7802 102.798C88.7801 102.798 88.78 102.798 88.7799 102.798C88.7799 102.798 88.7798 102.798 88.7797 102.798C88.7796 102.798 88.7795 102.798 88.7794 102.798C88.7793 102.798 88.7792 102.798 88.7791 102.798C88.779 102.798 88.7789 102.798 88.7789 102.798C88.7788 102.798 88.7787 102.798 88.7786 102.798C88.7785 102.798 88.7784 102.798 88.7783 102.798C88.7782 102.798 88.7781 102.798 88.778 102.798C88.7779 102.798 88.7778 102.798 88.7778 102.798C88.7777 102.798 88.7776 102.798 88.7775 102.798C88.7774 102.798 88.7773 102.798 88.7772 102.798C88.7771 102.798 88.777 102.798 88.7769 102.798C88.7768 102.798 88.7768 102.798 88.7767 102.798C88.7766 102.798 88.7765 102.798 88.7764 102.798C88.7763 102.798 88.7762 102.798 88.7761 102.798C88.776 102.798 88.7759 102.798 88.7758 102.798C88.7758 102.798 88.7757 102.798 88.7756 102.798C88.7755 102.798 88.7754 102.798 88.7753 102.798C88.7752 102.798 88.7751 102.798 88.775 102.798C88.7749 102.798 88.7748 102.798 88.7747 102.798C88.7747 102.798 88.7746 102.798 88.7745 102.798C88.7744 102.798 88.7743 102.798 88.7742 102.798C88.7741 102.798 88.774 102.798 88.7739 102.798C88.7738 102.798 88.7737 102.798 88.7737 102.798C88.7736 102.798 88.7735 102.798 88.7734 102.798C88.7733 102.798 88.7732 102.798 88.7731 102.798C88.773 102.798 88.7729 102.798 88.7728 102.798C88.7727 102.798 88.7727 102.798 88.7726 102.798C88.7725 102.798 88.7724 102.798 88.7723 102.798C88.7722 102.798 88.7721 102.798 88.772 102.798C88.7719 102.798 88.7718 102.798 88.7717 102.798C88.7717 102.798 88.7716 102.798 88.7715 102.798C88.7714 102.798 88.7713 102.798 88.7712 102.798C88.7711 102.798 88.771 102.798 88.7709 102.798C88.7708 102.798 88.7707 102.798 88.7706 102.798C88.7706 102.798 88.7705 102.798 88.7704 102.798C88.7703 102.798 88.7702 102.798 88.7701 102.798C88.77 102.798 88.7699 102.798 88.7698 102.798C88.7697 102.798 88.7696 102.798 88.7696 102.798C88.7695 102.798 88.7694 102.798 88.7693 102.798C88.7692 102.798 88.7691 102.798 88.769 102.798C88.7689 102.798 88.7688 102.798 88.7687 102.798C88.7686 102.798 88.7686 102.798 88.7685 102.798C88.7684 102.798 88.7683 102.798 88.7682 102.798C88.7681 102.798 88.768 102.798 88.7679 102.798C88.7678 102.798 88.7677 102.798 88.7676 102.798C88.7675 102.798 88.7675 102.798 88.7674 102.798C88.7673 102.798 88.7672 102.798 88.7671 102.798C88.767 102.798 88.7669 102.798 88.7668 102.798C88.7667 102.798 88.7666 102.798 88.7665 102.798V108.798C88.7666 108.798 88.7667 108.798 88.7668 108.798C88.7669 108.798 88.767 108.798 88.7671 108.798C88.7672 108.798 88.7673 108.798 88.7674 108.798C88.7675 108.798 88.7675 108.798 88.7676 108.798C88.7677 108.798 88.7678 108.798 88.7679 108.798C88.768 108.798 88.7681 108.798 88.7682 108.798C88.7683 108.798 88.7684 108.798 88.7685 108.798C88.7686 108.798 88.7686 108.798 88.7687 108.798C88.7688 108.798 88.7689 108.798 88.769 108.798C88.7691 108.798 88.7692 108.798 88.7693 108.798C88.7694 108.798 88.7695 108.798 88.7696 108.798C88.7696 108.798 88.7697 108.798 88.7698 108.798C88.7699 108.798 88.77 108.798 88.7701 108.798C88.7702 108.798 88.7703 108.798 88.7704 108.798C88.7705 108.798 88.7706 108.798 88.7706 108.798C88.7707 108.798 88.7708 108.798 88.7709 108.798C88.771 108.798 88.7711 108.798 88.7712 108.798C88.7713 108.798 88.7714 108.798 88.7715 108.798C88.7716 108.798 88.7717 108.798 88.7717 108.798C88.7718 108.798 88.7719 108.798 88.772 108.798C88.7721 108.798 88.7722 108.798 88.7723 108.798C88.7724 108.798 88.7725 108.798 88.7726 108.798C88.7727 108.798 88.7727 108.798 88.7728 108.798C88.7729 108.798 88.773 108.798 88.7731 108.798C88.7732 108.798 88.7733 108.798 88.7734 108.798C88.7735 108.798 88.7736 108.798 88.7737 108.798C88.7737 108.798 88.7738 108.798 88.7739 108.798C88.774 108.798 88.7741 108.798 88.7742 108.798C88.7743 108.798 88.7744 108.798 88.7745 108.798C88.7746 108.798 88.7747 108.798 88.7747 108.798C88.7748 108.798 88.7749 108.798 88.775 108.798C88.7751 108.798 88.7752 108.798 88.7753 108.798C88.7754 108.798 88.7755 108.798 88.7756 108.798C88.7757 108.798 88.7758 108.798 88.7758 108.798C88.7759 108.798 88.776 108.798 88.7761 108.798C88.7762 108.798 88.7763 108.798 88.7764 108.798C88.7765 108.798 88.7766 108.798 88.7767 108.798C88.7768 108.798 88.7768 108.798 88.7769 108.798C88.777 108.798 88.7771 108.798 88.7772 108.798C88.7773 108.798 88.7774 108.798 88.7775 108.798C88.7776 108.798 88.7777 108.798 88.7778 108.798C88.7778 108.798 88.7779 108.798 88.778 108.798C88.7781 108.798 88.7782 108.798 88.7783 108.798C88.7784 108.798 88.7785 108.798 88.7786 108.798C88.7787 108.798 88.7788 108.798 88.7789 108.798C88.7789 108.798 88.779 108.798 88.7791 108.798C88.7792 108.798 88.7793 108.798 88.7794 108.798C88.7795 108.798 88.7796 108.798 88.7797 108.798C88.7798 108.798 88.7799 108.798 88.7799 108.798C88.78 108.798 88.7801 108.798 88.7802 108.798C88.7803 108.798 88.7804 108.798 88.7805 108.798C88.7806 108.798 88.7807 108.798 88.7808 108.798C88.7809 108.798 88.7809 108.798 88.781 108.798C88.7811 108.798 88.7812 108.798 88.7813 108.798C88.7814 108.798 88.7815 108.798 88.7816 108.798C88.7817 108.798 88.7818 108.798 88.7819 108.798C88.782 108.798 88.782 108.798 88.7821 108.798C88.7822 108.798 88.7823 108.798 88.7824 108.798C88.7825 108.798 88.7826 108.798 88.7827 108.798C88.7828 108.798 88.7829 108.798 88.783 108.798C88.783 108.798 88.7831 108.798 88.7832 108.798C88.7833 108.798 88.7834 108.798 88.7835 108.798C88.7836 108.798 88.7837 108.798 88.7838 108.798C88.7839 108.798 88.784 108.798 88.784 108.798C88.7841 108.798 88.7842 108.798 88.7843 108.798C88.7844 108.798 88.7845 108.798 88.7846 108.798C88.7847 108.798 88.7848 108.798 88.7849 108.798C88.785 108.798 88.785 108.798 88.7851 108.798C88.7852 108.798 88.7853 108.798 88.7854 108.798C88.7855 108.798 88.7856 108.798 88.7857 108.798C88.7858 108.798 88.7859 108.798 88.786 108.798C88.7861 108.798 88.7861 108.798 88.7862 108.798C88.7863 108.798 88.7864 108.798 88.7865 108.798C88.7866 108.798 88.7867 108.798 88.7868 108.798C88.7869 108.798 88.787 108.798 88.7871 108.798C88.7871 108.798 88.7872 108.798 88.7873 108.798C88.7874 108.798 88.7875 108.798 88.7876 108.798C88.7877 108.798 88.7878 108.798 88.7879 108.798C88.788 108.798 88.7881 108.798 88.7881 108.798C88.7882 108.798 88.7883 108.798 88.7884 108.798C88.7885 108.798 88.7886 108.798 88.7887 108.798C88.7888 108.798 88.7889 108.798 88.789 108.798C88.7891 108.798 88.7892 108.798 88.7892 108.798C88.7893 108.798 88.7894 108.798 88.7895 108.798C88.7896 108.798 88.7897 108.798 88.7898 108.798C88.7899 108.798 88.79 108.798 88.7901 108.798C88.7902 108.798 88.7902 108.798 88.7903 108.798C88.7904 108.798 88.7905 108.798 88.7906 108.798C88.7907 108.798 88.7908 108.798 88.7909 108.798C88.791 108.798 88.7911 108.798 88.7912 108.798C88.7912 108.798 88.7913 108.798 88.7914 108.798C88.7915 108.798 88.7916 108.798 88.7917 108.798C88.7918 108.798 88.7919 108.798 88.792 108.798C88.7921 108.798 88.7922 108.798 88.7923 108.798C88.7923 108.798 88.7924 108.798 88.7925 108.798C88.7926 108.798 88.7927 108.798 88.7928 108.798C88.7929 108.798 88.793 108.798 88.7931 108.798C88.7932 108.798 88.7933 108.798 88.7933 108.798C88.7934 108.798 88.7935 108.798 88.7936 108.798C88.7937 108.798 88.7938 108.798 88.7939 108.798C88.794 108.798 88.7941 108.798 88.7942 108.798C88.7943 108.798 88.7943 108.798 88.7944 108.798C88.7945 108.798 88.7946 108.798 88.7947 108.798C88.7948 108.798 88.7949 108.798 88.795 108.798C88.7951 108.798 88.7952 108.798 88.7953 108.798C88.7953 108.798 88.7954 108.798 88.7955 108.798C88.7956 108.798 88.7957 108.798 88.7958 108.798C88.7959 108.798 88.796 108.798 88.7961 108.798C88.7962 108.798 88.7963 108.798 88.7964 108.798C88.7964 108.798 88.7965 108.798 88.7966 108.798C88.7967 108.798 88.7968 108.798 88.7969 108.798C88.797 108.798 88.7971 108.798 88.7972 108.798C88.7973 108.798 88.7974 108.798 88.7974 108.798C88.7975 108.798 88.7976 108.798 88.7977 108.798C88.7978 108.798 88.7979 108.798 88.798 108.798C88.7981 108.798 88.7982 108.798 88.7983 108.798C88.7984 108.798 88.7984 108.798 88.7985 108.798C88.7986 108.798 88.7987 108.798 88.7988 108.798C88.7989 108.798 88.799 108.798 88.7991 108.798C88.7992 108.798 88.7993 108.798 88.7994 108.798C88.7994 108.798 88.7995 108.798 88.7996 108.798C88.7997 108.798 88.7998 108.798 88.7999 108.798C88.8 108.798 88.8001 108.798 88.8002 108.798C88.8003 108.798 88.8004 108.798 88.8005 108.798C88.8005 108.798 88.8006 108.798 88.8007 108.798C88.8008 108.798 88.8009 108.798 88.801 108.798C88.8011 108.798 88.8012 108.798 88.8013 108.798C88.8014 108.798 88.8015 108.798 88.8015 108.798C88.8016 108.798 88.8017 108.798 88.8018 108.798C88.8019 108.798 88.802 108.798 88.8021 108.798C88.8022 108.798 88.8023 108.798 88.8024 108.798C88.8025 108.798 88.8026 108.798 88.8026 108.798C88.8027 108.798 88.8028 108.798 88.8029 108.798C88.803 108.798 88.8031 108.798 88.8032 108.798C88.8033 108.798 88.8034 108.798 88.8035 108.798C88.8036 108.798 88.8036 108.798 88.8037 108.798C88.8038 108.798 88.8039 108.798 88.804 108.798C88.8041 108.798 88.8042 108.798 88.8043 108.798C88.8044 108.798 88.8045 108.798 88.8046 108.798C88.8046 108.798 88.8047 108.798 88.8048 108.798C88.8049 108.798 88.805 108.798 88.8051 108.798C88.8052 108.798 88.8053 108.798 88.8054 108.798C88.8055 108.798 88.8056 108.798 88.8056 108.798C88.8057 108.798 88.8058 108.798 88.8059 108.798C88.806 108.798 88.8061 108.798 88.8062 108.798C88.8063 108.798 88.8064 108.798 88.8065 108.798C88.8066 108.798 88.8067 108.798 88.8067 108.798C88.8068 108.798 88.8069 108.798 88.807 108.798C88.8071 108.798 88.8072 108.798 88.8073 108.798C88.8074 108.798 88.8075 108.798 88.8076 108.798C88.8077 108.798 88.8077 108.798 88.8078 108.798C88.8079 108.798 88.808 108.798 88.8081 108.798C88.8082 108.798 88.8083 108.798 88.8084 108.798C88.8085 108.798 88.8086 108.798 88.8087 108.798C88.8087 108.798 88.8088 108.798 88.8089 108.798C88.809 108.798 88.8091 108.798 88.8092 108.798C88.8093 108.798 88.8094 108.798 88.8095 108.798C88.8096 108.798 88.8097 108.798 88.8097 108.798C88.8098 108.798 88.8099 108.798 88.81 108.798C88.8101 108.798 88.8102 108.798 88.8103 108.798C88.8104 108.798 88.8105 108.798 88.8106 108.798C88.8107 108.798 88.8108 108.798 88.8108 108.798C88.8109 108.798 88.811 108.798 88.8111 108.798C88.8112 108.798 88.8113 108.798 88.8114 108.798C88.8115 108.798 88.8116 108.798 88.8117 108.798C88.8118 108.798 88.8118 108.798 88.8119 108.798C88.812 108.798 88.8121 108.798 88.8122 108.798C88.8123 108.798 88.8124 108.798 88.8125 108.798C88.8126 108.798 88.8127 108.798 88.8128 108.798C88.8129 108.798 88.8129 108.798 88.813 108.798C88.8131 108.798 88.8132 108.798 88.8133 108.798C88.8134 108.798 88.8135 108.798 88.8136 108.798C88.8137 108.798 88.8138 108.798 88.8139 108.798C88.8139 108.798 88.814 108.798 88.8141 108.798C88.8142 108.798 88.8143 108.798 88.8144 108.798C88.8145 108.798 88.8146 108.798 88.8147 108.798C88.8148 108.798 88.8149 108.798 88.8149 108.798C88.815 108.798 88.8151 108.798 88.8152 108.798C88.8153 108.798 88.8154 108.798 88.8155 108.798C88.8156 108.798 88.8157 108.798 88.8158 108.798C88.8159 108.798 88.8159 108.798 88.816 108.798C88.8161 108.798 88.8162 108.798 88.8163 108.798C88.8164 108.798 88.8165 108.798 88.8166 108.798C88.8167 108.798 88.8168 108.798 88.8169 108.798C88.817 108.798 88.817 108.798 88.8171 108.798C88.8172 108.798 88.8173 108.798 88.8174 108.798C88.8175 108.798 88.8176 108.798 88.8177 108.798C88.8178 108.798 88.8179 108.798 88.818 108.798C88.818 108.798 88.8181 108.798 88.8182 108.798C88.8183 108.798 88.8184 108.798 88.8185 108.798C88.8186 108.798 88.8187 108.798 88.8188 108.798C88.8189 108.798 88.819 108.798 88.819 108.798C88.8191 108.798 88.8192 108.798 88.8193 108.798C88.8194 108.798 88.8195 108.798 88.8196 108.798C88.8197 108.798 88.8198 108.798 88.8199 108.798C88.82 108.798 88.82 108.798 88.8201 108.798C88.8202 108.798 88.8203 108.798 88.8204 108.798C88.8205 108.798 88.8206 108.798 88.8207 108.798C88.8208 108.798 88.8209 108.798 88.821 108.798C88.8211 108.798 88.8211 108.798 88.8212 108.798C88.8213 108.798 88.8214 108.798 88.8215 108.798C88.8216 108.798 88.8217 108.798 88.8218 108.798C88.8219 108.798 88.822 108.798 88.8221 108.798C88.8221 108.798 88.8222 108.798 88.8223 108.798C88.8224 108.798 88.8225 108.798 88.8226 108.798C88.8227 108.798 88.8228 108.798 88.8229 108.798C88.823 108.798 88.8231 108.798 88.8231 108.798C88.8232 108.798 88.8233 108.798 88.8234 108.798C88.8235 108.798 88.8236 108.798 88.8237 108.798C88.8238 108.798 88.8239 108.798 88.824 108.798C88.8241 108.798 88.8242 108.798 88.8242 108.798C88.8243 108.798 88.8244 108.798 88.8245 108.798C88.8246 108.798 88.8247 108.798 88.8248 108.798C88.8249 108.798 88.825 108.798 88.8251 108.798C88.8252 108.798 88.8252 108.798 88.8253 108.798C88.8254 108.798 88.8255 108.798 88.8256 108.798C88.8257 108.798 88.8258 108.798 88.8259 108.798C88.826 108.798 88.8261 108.798 88.8262 108.798C88.8262 108.798 88.8263 108.798 88.8264 108.798C88.8265 108.798 88.8266 108.798 88.8267 108.798C88.8268 108.798 88.8269 108.798 88.827 108.798C88.8271 108.798 88.8272 108.798 88.8273 108.798C88.8273 108.798 88.8274 108.798 88.8275 108.798C88.8276 108.798 88.8277 108.798 88.8278 108.798C88.8279 108.798 88.828 108.798 88.8281 108.798C88.8282 108.798 88.8283 108.798 88.8283 108.798C88.8284 108.798 88.8285 108.798 88.8286 108.798C88.8287 108.798 88.8288 108.798 88.8289 108.798C88.829 108.798 88.8291 108.798 88.8292 108.798C88.8293 108.798 88.8293 108.798 88.8294 108.798C88.8295 108.798 88.8296 108.798 88.8297 108.798C88.8298 108.798 88.8299 108.798 88.83 108.798C88.8301 108.798 88.8302 108.798 88.8303 108.798C88.8303 108.798 88.8304 108.798 88.8305 108.798C88.8306 108.798 88.8307 108.798 88.8308 108.798C88.8309 108.798 88.831 108.798 88.8311 108.798C88.8312 108.798 88.8313 108.798 88.8314 108.798C88.8314 108.798 88.8315 108.798 88.8316 108.798C88.8317 108.798 88.8318 108.798 88.8319 108.798C88.832 108.798 88.8321 108.798 88.8322 108.798C88.8323 108.798 88.8324 108.798 88.8324 108.798C88.8325 108.798 88.8326 108.798 88.8327 108.798C88.8328 108.798 88.8329 108.798 88.833 108.798C88.8331 108.798 88.8332 108.798 88.8333 108.798C88.8334 108.798 88.8334 108.798 88.8335 108.798C88.8336 108.798 88.8337 108.798 88.8338 108.798C88.8339 108.798 88.834 108.798 88.8341 108.798C88.8342 108.798 88.8343 108.798 88.8344 108.798C88.8344 108.798 88.8345 108.798 88.8346 108.798C88.8347 108.798 88.8348 108.798 88.8349 108.798C88.835 108.798 88.8351 108.798 88.8352 108.798C88.8353 108.798 88.8354 108.798 88.8355 108.798C88.8355 108.798 88.8356 108.798 88.8357 108.798C88.8358 108.798 88.8359 108.798 88.836 108.798C88.8361 108.798 88.8362 108.798 88.8363 108.798C88.8364 108.798 88.8365 108.798 88.8365 108.798C88.8366 108.798 88.8367 108.798 88.8368 108.798C88.8369 108.798 88.837 108.798 88.8371 108.798C88.8372 108.798 88.8373 108.798 88.8374 108.798C88.8375 108.798 88.8376 108.798 88.8376 108.798C88.8377 108.798 88.8378 108.798 88.8379 108.798C88.838 108.798 88.8381 108.798 88.8382 108.798C88.8383 108.798 88.8384 108.798 88.8385 108.798C88.8386 108.798 88.8386 108.798 88.8387 108.798C88.8388 108.798 88.8389 108.798 88.839 108.798C88.8391 108.798 88.8392 108.798 88.8393 108.798C88.8394 108.798 88.8395 108.798 88.8396 108.798C88.8396 108.798 88.8397 108.798 88.8398 108.798C88.8399 108.798 88.84 108.798 88.8401 108.798C88.8402 108.798 88.8403 108.798 88.8404 108.798C88.8405 108.798 88.8406 108.798 88.8406 108.798C88.8407 108.798 88.8408 108.798 88.8409 108.798C88.841 108.798 88.8411 108.798 88.8412 108.798C88.8413 108.798 88.8414 108.798 88.8415 108.798C88.8416 108.798 88.8417 108.798 88.8417 108.798C88.8418 108.798 88.8419 108.798 88.842 108.798C88.8421 108.798 88.8422 108.798 88.8423 108.798C88.8424 108.798 88.8425 108.798 88.8426 108.798C88.8427 108.798 88.8427 108.798 88.8428 108.798C88.8429 108.798 88.843 108.798 88.8431 108.798C88.8432 108.798 88.8433 108.798 88.8434 108.798C88.8435 108.798 88.8436 108.798 88.8437 108.798C88.8437 108.798 88.8438 108.798 88.8439 108.798C88.844 108.798 88.8441 108.798 88.8442 108.798C88.8443 108.798 88.8444 108.798 88.8445 108.798C88.8446 108.798 88.8447 108.798 88.8447 108.798C88.8448 108.798 88.8449 108.798 88.845 108.798C88.8451 108.798 88.8452 108.798 88.8453 108.798C88.8454 108.798 88.8455 108.798 88.8456 108.798C88.8457 108.798 88.8458 108.798 88.8458 108.798C88.8459 108.798 88.846 108.798 88.8461 108.798C88.8462 108.798 88.8463 108.798 88.8464 108.798C88.8465 108.798 88.8466 108.798 88.8467 108.798C88.8468 108.798 88.8468 108.798 88.8469 108.798C88.847 108.798 88.8471 108.798 88.8472 108.798C88.8473 108.798 88.8474 108.798 88.8475 108.798C88.8476 108.798 88.8477 108.798 88.8478 108.798C88.8479 108.798 88.8479 108.798 88.848 108.798C88.8481 108.798 88.8482 108.798 88.8483 108.798C88.8484 108.798 88.8485 108.798 88.8486 108.798C88.8487 108.798 88.8488 108.798 88.8489 108.798C88.8489 108.798 88.849 108.798 88.8491 108.798C88.8492 108.798 88.8493 108.798 88.8494 108.798C88.8495 108.798 88.8496 108.798 88.8497 108.798C88.8498 108.798 88.8499 108.798 88.8499 108.798C88.85 108.798 88.8501 108.798 88.8502 108.798C88.8503 108.798 88.8504 108.798 88.8505 108.798C88.8506 108.798 88.8507 108.798 88.8508 108.798C88.8509 108.798 88.8509 108.798 88.851 108.798C88.8511 108.798 88.8512 108.798 88.8513 108.798C88.8514 108.798 88.8515 108.798 88.8516 108.798C88.8517 108.798 88.8518 108.798 88.8519 108.798C88.852 108.798 88.852 108.798 88.8521 108.798C88.8522 108.798 88.8523 108.798 88.8524 108.798C88.8525 108.798 88.8526 108.798 88.8527 108.798C88.8528 108.798 88.8529 108.798 88.853 108.798C88.853 108.798 88.8531 108.798 88.8532 108.798C88.8533 108.798 88.8534 108.798 88.8535 108.798C88.8536 108.798 88.8537 108.798 88.8538 108.798C88.8539 108.798 88.854 108.798 88.854 108.798C88.8541 108.798 88.8542 108.798 88.8543 108.798C88.8544 108.798 88.8545 108.798 88.8546 108.798C88.8547 108.798 88.8548 108.798 88.8549 108.798C88.855 108.798 88.855 108.798 88.8551 108.798C88.8552 108.798 88.8553 108.798 88.8554 108.798C88.8555 108.798 88.8556 108.798 88.8557 108.798C88.8558 108.798 88.8559 108.798 88.856 108.798C88.8561 108.798 88.8561 108.798 88.8562 108.798C88.8563 108.798 88.8564 108.798 88.8565 108.798C88.8566 108.798 88.8567 108.798 88.8568 108.798C88.8569 108.798 88.857 108.798 88.8571 108.798C88.8571 108.798 88.8572 108.798 88.8573 108.798C88.8574 108.798 88.8575 108.798 88.8576 108.798C88.8577 108.798 88.8578 108.798 88.8579 108.798C88.858 108.798 88.8581 108.798 88.8582 108.798C88.8582 108.798 88.8583 108.798 88.8584 108.798C88.8585 108.798 88.8586 108.798 88.8587 108.798C88.8588 108.798 88.8589 108.798 88.859 108.798C88.8591 108.798 88.8591 108.798 88.8592 108.798C88.8593 108.798 88.8594 108.798 88.8595 108.798C88.8596 108.798 88.8597 108.798 88.8598 108.798C88.8599 108.798 88.86 108.798 88.8601 108.798C88.8602 108.798 88.8602 108.798 88.8603 108.798C88.8604 108.798 88.8605 108.798 88.8606 108.798C88.8607 108.798 88.8608 108.798 88.8609 108.798C88.861 108.798 88.8611 108.798 88.8612 108.798C88.8612 108.798 88.8613 108.798 88.8614 108.798C88.8615 108.798 88.8616 108.798 88.8617 108.798C88.8618 108.798 88.8619 108.798 88.862 108.798C88.8621 108.798 88.8622 108.798 88.8623 108.798C88.8623 108.798 88.8624 108.798 88.8625 108.798C88.8626 108.798 88.8627 108.798 88.8628 108.798C88.8629 108.798 88.863 108.798 88.8631 108.798C88.8632 108.798 88.8633 108.798 88.8633 108.798C88.8634 108.798 88.8635 108.798 88.8636 108.798C88.8637 108.798 88.8638 108.798 88.8639 108.798C88.864 108.798 88.8641 108.798 88.8642 108.798C88.8643 108.798 88.8643 108.798 88.8644 108.798C88.8645 108.798 88.8646 108.798 88.8647 108.798C88.8648 108.798 88.8649 108.798 88.865 108.798C88.8651 108.798 88.8652 108.798 88.8653 108.798C88.8653 108.798 88.8654 108.798 88.8655 108.798C88.8656 108.798 88.8657 108.798 88.8658 108.798C88.8659 108.798 88.866 108.798 88.8661 108.798C88.8662 108.798 88.8663 108.798 88.8664 108.798C88.8664 108.798 88.8665 108.798 88.8666 108.798C88.8667 108.798 88.8668 108.798 88.8669 108.798C88.867 108.798 88.8671 108.798 88.8672 108.798C88.8673 108.798 88.8674 108.798 88.8674 108.798C88.8675 108.798 88.8676 108.798 88.8677 108.798C88.8678 108.798 88.8679 108.798 88.868 108.798C88.8681 108.798 88.8682 108.798 88.8683 108.798C88.8684 108.798 88.8684 108.798 88.8685 108.798C88.8686 108.798 88.8687 108.798 88.8688 108.798C88.8689 108.798 88.869 108.798 88.8691 108.798C88.8692 108.798 88.8693 108.798 88.8694 108.798C88.8694 108.798 88.8695 108.798 88.8696 108.798C88.8697 108.798 88.8698 108.798 88.8699 108.798C88.87 108.798 88.8701 108.798 88.8702 108.798C88.8703 108.798 88.8704 108.798 88.8705 108.798C88.8705 108.798 88.8706 108.798 88.8707 108.798C88.8708 108.798 88.8709 108.798 88.871 108.798C88.8711 108.798 88.8712 108.798 88.8713 108.798C88.8714 108.798 88.8715 108.798 88.8715 108.798C88.8716 108.798 88.8717 108.798 88.8718 108.798C88.8719 108.798 88.872 108.798 88.8721 108.798C88.8722 108.798 88.8723 108.798 88.8724 108.798C88.8725 108.798 88.8726 108.798 88.8726 108.798C88.8727 108.798 88.8728 108.798 88.8729 108.798C88.873 108.798 88.8731 108.798 88.8732 108.798C88.8733 108.798 88.8734 108.798 88.8735 108.798C88.8736 108.798 88.8736 108.798 88.8737 108.798C88.8738 108.798 88.8739 108.798 88.874 108.798C88.8741 108.798 88.8742 108.798 88.8743 108.798C88.8744 108.798 88.8745 108.798 88.8746 108.798C88.8746 108.798 88.8747 108.798 88.8748 108.798C88.8749 108.798 88.875 108.798 88.8751 108.798C88.8752 108.798 88.8753 108.798 88.8754 108.798C88.8755 108.798 88.8756 108.798 88.8756 108.798C88.8757 108.798 88.8758 108.798 88.8759 108.798C88.876 108.798 88.8761 108.798 88.8762 108.798C88.8763 108.798 88.8764 108.798 88.8765 108.798C88.8766 108.798 88.8767 108.798 88.8767 108.798C88.8768 108.798 88.8769 108.798 88.877 108.798C88.8771 108.798 88.8772 108.798 88.8773 108.798C88.8774 108.798 88.8775 108.798 88.8776 108.798C88.8777 108.798 88.8777 108.798 88.8778 108.798C88.8779 108.798 88.878 108.798 88.8781 108.798C88.8782 108.798 88.8783 108.798 88.8784 108.798C88.8785 108.798 88.8786 108.798 88.8787 108.798C88.8787 108.798 88.8788 108.798 88.8789 108.798C88.879 108.798 88.8791 108.798 88.8792 108.798C88.8793 108.798 88.8794 108.798 88.8795 108.798C88.8796 108.798 88.8797 108.798 88.8797 108.798C88.8798 108.798 88.8799 108.798 88.88 108.798C88.8801 108.798 88.8802 108.798 88.8803 108.798C88.8804 108.798 88.8805 108.798 88.8806 108.798C88.8807 108.798 88.8808 108.798 88.8808 108.798C88.8809 108.798 88.881 108.798 88.8811 108.798C88.8812 108.798 88.8813 108.798 88.8814 108.798C88.8815 108.798 88.8816 108.798 88.8817 108.798C88.8818 108.798 88.8818 108.798 88.8819 108.798C88.882 108.798 88.8821 108.798 88.8822 108.798C88.8823 108.798 88.8824 108.798 88.8825 108.798C88.8826 108.798 88.8827 108.798 88.8828 108.798C88.8829 108.798 88.8829 108.798 88.883 108.798C88.8831 108.798 88.8832 108.798 88.8833 108.798C88.8834 108.798 88.8835 108.798 88.8836 108.798C88.8837 108.798 88.8838 108.798 88.8839 108.798C88.8839 108.798 88.884 108.798 88.8841 108.798C88.8842 108.798 88.8843 108.798 88.8844 108.798C88.8845 108.798 88.8846 108.798 88.8847 108.798C88.8848 108.798 88.8849 108.798 88.8849 108.798C88.885 108.798 88.8851 108.798 88.8852 108.798C88.8853 108.798 88.8854 108.798 88.8855 108.798C88.8856 108.798 88.8857 108.798 88.8858 108.798C88.8859 108.798 88.8859 108.798 88.886 108.798C88.8861 108.798 88.8862 108.798 88.8863 108.798C88.8864 108.798 88.8865 108.798 88.8866 108.798C88.8867 108.798 88.8868 108.798 88.8869 108.798C88.887 108.798 88.887 108.798 88.8871 108.798C88.8872 108.798 88.8873 108.798 88.8874 108.798C88.8875 108.798 88.8876 108.798 88.8877 108.798C88.8878 108.798 88.8879 108.798 88.888 108.798C88.888 108.798 88.8881 108.798 88.8882 108.798C88.8883 108.798 88.8884 108.798 88.8885 108.798C88.8886 108.798 88.8887 108.798 88.8888 108.798C88.8889 108.798 88.889 108.798 88.889 108.798C88.8891 108.798 88.8892 108.798 88.8893 108.798C88.8894 108.798 88.8895 108.798 88.8896 108.798C88.8897 108.798 88.8898 108.798 88.8899 108.798C88.89 108.798 88.89 108.798 88.8901 108.798C88.8902 108.798 88.8903 108.798 88.8904 108.798C88.8905 108.798 88.8906 108.798 88.8907 108.798C88.8908 108.798 88.8909 108.798 88.891 108.798C88.8911 108.798 88.8911 108.798 88.8912 108.798C88.8913 108.798 88.8914 108.798 88.8915 108.798C88.8916 108.798 88.8917 108.798 88.8918 108.798C88.8919 108.798 88.892 108.798 88.8921 108.798C88.8921 108.798 88.8922 108.798 88.8923 108.798C88.8924 108.798 88.8925 108.798 88.8926 108.798C88.8927 108.798 88.8928 108.798 88.8929 108.798C88.893 108.798 88.8931 108.798 88.8932 108.798C88.8932 108.798 88.8933 108.798 88.8934 108.798C88.8935 108.798 88.8936 108.798 88.8937 108.798C88.8938 108.798 88.8939 108.798 88.894 108.798C88.8941 108.798 88.8941 108.798 88.8942 108.798C88.8943 108.798 88.8944 108.798 88.8945 108.798C88.8946 108.798 88.8947 108.798 88.8948 108.798C88.8949 108.798 88.895 108.798 88.8951 108.798C88.8952 108.798 88.8952 108.798 88.8953 108.798C88.8954 108.798 88.8955 108.798 88.8956 108.798C88.8957 108.798 88.8958 108.798 88.8959 108.798C88.896 108.798 88.8961 108.798 88.8962 108.798C88.8962 108.798 88.8963 108.798 88.8964 108.798C88.8965 108.798 88.8966 108.798 88.8967 108.798C88.8968 108.798 88.8969 108.798 88.897 108.798C88.8971 108.798 88.8972 108.798 88.8973 108.798C88.8973 108.798 88.8974 108.798 88.8975 108.798C88.8976 108.798 88.8977 108.798 88.8978 108.798C88.8979 108.798 88.898 108.798 88.8981 108.798C88.8982 108.798 88.8983 108.798 88.8983 108.798C88.8984 108.798 88.8985 108.798 88.8986 108.798C88.8987 108.798 88.8988 108.798 88.8989 108.798C88.899 108.798 88.8991 108.798 88.8992 108.798C88.8993 108.798 88.8993 108.798 88.8994 108.798C88.8995 108.798 88.8996 108.798 88.8997 108.798C88.8998 108.798 88.8999 108.798 88.9 108.798C88.9001 108.798 88.9002 108.798 88.9003 108.798C88.9003 108.798 88.9004 108.798 88.9005 108.798C88.9006 108.798 88.9007 108.798 88.9008 108.798C88.9009 108.798 88.901 108.798 88.9011 108.798C88.9012 108.798 88.9013 108.798 88.9014 108.798C88.9014 108.798 88.9015 108.798 88.9016 108.798C88.9017 108.798 88.9018 108.798 88.9019 108.798C88.902 108.798 88.9021 108.798 88.9022 108.798C88.9023 108.798 88.9024 108.798 88.9024 108.798C88.9025 108.798 88.9026 108.798 88.9027 108.798C88.9028 108.798 88.9029 108.798 88.903 108.798C88.9031 108.798 88.9032 108.798 88.9033 108.798C88.9034 108.798 88.9035 108.798 88.9035 108.798C88.9036 108.798 88.9037 108.798 88.9038 108.798C88.9039 108.798 88.904 108.798 88.9041 108.798C88.9042 108.798 88.9043 108.798 88.9044 108.798C88.9044 108.798 88.9045 108.798 88.9046 108.798C88.9047 108.798 88.9048 108.798 88.9049 108.798C88.905 108.798 88.9051 108.798 88.9052 108.798C88.9053 108.798 88.9054 108.798 88.9055 108.798C88.9055 108.798 88.9056 108.798 88.9057 108.798C88.9058 108.798 88.9059 108.798 88.906 108.798C88.9061 108.798 88.9062 108.798 88.9063 108.798C88.9064 108.798 88.9065 108.798 88.9065 108.798V102.798ZM88.7665 102.798C87.4114 102.798 86.0075 103.226 84.914 104.344L89.203 108.54C89.103 108.642 88.9782 108.721 88.859 108.766C88.7501 108.807 88.7047 108.798 88.7665 108.798V102.798ZM84.914 104.344C83.7754 105.508 83.4285 106.991 83.4285 108.304H89.4285C89.4285 108.15 89.4492 108.128 89.4278 108.191C89.4164 108.225 89.3944 108.278 89.3554 108.343C89.316 108.409 89.265 108.477 89.203 108.54L84.914 104.344ZM83.4285 108.304V112H89.4285V108.304H83.4285ZM86.4285 109H85.0845V115H86.4285V109ZM91.1771 111.832L90.3016 114.701L90.315 114.705L91.1771 111.832ZM89.8751 111.216L87.2203 109.819L86.0405 112.06L88.0527 113.599L89.8751 111.216ZM90.4351 110.152L92.116 107.667L89.3408 105.79L87.7803 108.755L90.4351 110.152ZM91.6111 110.698L90.6967 113.555L91.6111 110.698ZM94.3831 110.656L92.7779 108.122L92.7583 108.134L92.739 108.147L94.3831 110.656ZM93.8791 109.074L93.1751 111.99L93.1862 111.993L93.1974 111.996L93.8791 109.074ZM92.9691 108.906L92.4759 111.865L92.516 111.872L92.5564 111.877L92.9691 108.906ZM91.9611 108.71L91.2335 111.62L91.2717 111.63L91.3103 111.639L91.9611 108.71ZM91.0371 108.374L89.6253 111.021L89.6601 111.04L89.6954 111.057L91.0371 108.374ZM90.3651 107.772L87.8415 109.394L87.855 109.415L87.8689 109.436L90.3651 107.772ZM90.4911 105.56L92.8911 107.36V107.36L90.4911 105.56ZM91.5551 104.79L92.6396 107.587L92.6545 107.581L92.6692 107.575L91.5551 104.79ZM94.6771 104.692L93.9624 107.606L93.9943 107.613L94.0263 107.621L94.6771 104.692ZM95.9091 105.182L98.5494 106.606L99.8379 104.218L97.59 102.697L95.9091 105.182ZM95.3351 106.246L93.671 108.742L96.4115 110.569L97.9754 107.67L95.3351 106.246ZM94.2851 105.784L94.9596 102.861V102.861L94.2851 105.784ZM91.8771 105.952L93.5034 108.473L93.5317 108.455L93.5596 108.436L91.8771 105.952ZM91.6951 107.268L89.7745 109.573L89.8433 109.63L89.9155 109.683L91.6951 107.268ZM92.3671 107.576L91.5693 110.468L91.5817 110.471L91.5941 110.475L92.3671 107.576ZM93.2911 107.772L92.7979 110.731L92.838 110.738L92.8784 110.743L93.2911 107.772ZM94.2991 107.968L93.5715 110.878L93.6097 110.888L93.6483 110.897L94.2991 107.968ZM95.2091 108.29L93.8308 110.955L93.849 110.964L93.8674 110.973L95.2091 108.29ZM95.8811 108.878L93.3849 110.542L93.4059 110.574L93.4276 110.604L95.8811 108.878ZM95.7551 111.048L98.0977 112.922V112.922L95.7551 111.048ZM94.6491 111.818L95.6964 114.629L95.7204 114.62L95.7443 114.611L94.6491 111.818ZM92.9411 109.084C92.6013 109.084 92.3048 109.038 92.0391 108.959L90.315 114.705C91.1693 114.962 92.0488 115.084 92.9411 115.084V109.084ZM92.0525 108.963C91.8901 108.913 91.7838 108.87 91.7216 108.84C91.6585 108.81 91.6588 108.803 91.6974 108.833L88.0527 113.599C88.7498 114.132 89.5469 114.471 90.3016 114.701L92.0525 108.963ZM92.5298 112.613L93.0898 111.549L87.7803 108.755L87.2203 109.819L92.5298 112.613ZM88.7541 112.637C89.3632 113.049 90.0298 113.342 90.6967 113.555L92.5254 107.841C92.259 107.755 92.1416 107.684 92.116 107.667L88.7541 112.637ZM90.6967 113.555C91.4561 113.798 92.2404 113.922 93.0391 113.922V107.922C92.8671 107.922 92.6994 107.896 92.5254 107.841L90.6967 113.555ZM93.0391 113.922C93.7916 113.922 94.9904 113.845 96.0271 113.165L92.739 108.147C92.8909 108.047 93.0211 107.99 93.1055 107.959C93.19 107.928 93.2461 107.916 93.2616 107.913C93.285 107.908 93.2224 107.922 93.0391 107.922V113.922ZM95.9882 113.19C97.0901 112.493 97.8031 111.313 97.8031 109.914H91.8031C91.8031 109.616 91.8734 109.238 92.0873 108.86C92.298 108.487 92.5704 108.253 92.7779 108.122L95.9882 113.19ZM97.8031 109.914C97.8031 108.857 97.3688 107.759 96.3929 107L92.7092 111.736C92.4387 111.526 92.1876 111.231 92.0162 110.86C91.8488 110.497 91.8031 110.161 91.8031 109.914H97.8031ZM96.3929 107C95.7848 106.527 95.1227 106.284 94.5608 106.152L93.1974 111.996C93.1954 111.995 92.9813 111.948 92.7092 111.736L96.3929 107ZM94.583 106.158C94.1982 106.065 93.7954 105.992 93.3818 105.935L92.5564 111.877C92.8147 111.913 93.0186 111.952 93.1751 111.99L94.583 106.158ZM93.4623 105.947C93.1796 105.9 92.8961 105.845 92.6119 105.781L91.3103 111.639C91.698 111.725 92.0865 111.8 92.4759 111.865L93.4623 105.947ZM92.6887 105.8C92.5428 105.763 92.4435 105.723 92.3787 105.691L89.6954 111.057C90.1906 111.305 90.7073 111.489 91.2335 111.62L92.6887 105.8ZM92.4488 105.727C92.5843 105.799 92.7412 105.928 92.8612 106.108L87.8689 109.436C88.3249 110.12 88.9298 110.65 89.6253 111.021L92.4488 105.727ZM92.8886 106.15C93.1292 106.524 93.1131 106.802 93.1131 106.736H87.1131C87.1131 107.529 87.2649 108.497 87.8415 109.394L92.8886 106.15ZM93.1131 106.736C93.1131 106.796 93.104 106.898 93.0636 107.024C93.0226 107.152 92.961 107.267 92.8911 107.36L88.0911 103.76C87.4228 104.651 87.1131 105.685 87.1131 106.736H93.1131ZM92.8911 107.36C92.8287 107.443 92.7613 107.505 92.7049 107.546C92.6508 107.585 92.6222 107.594 92.6396 107.587L90.4705 101.993C89.5793 102.338 88.7328 102.904 88.0911 103.76L92.8911 107.36ZM92.6692 107.575C92.7019 107.562 92.8577 107.51 93.2071 107.51V101.51C92.2871 101.51 91.3416 101.644 90.4409 102.005L92.6692 107.575ZM93.2071 107.51C93.44 107.51 93.6901 107.539 93.9624 107.606L95.3917 101.778C94.6747 101.602 93.9448 101.51 93.2071 101.51V107.51ZM94.0263 107.621C94.1474 107.647 94.2199 107.672 94.2544 107.686C94.2886 107.7 94.2736 107.698 94.2281 107.667L97.59 102.697C96.8723 102.212 96.0798 101.931 95.3279 101.763L94.0263 107.621ZM93.2688 103.758L92.6948 104.822L97.9754 107.67L98.5494 106.606L93.2688 103.758ZM96.9992 103.75C96.3863 103.341 95.7042 103.033 94.9596 102.861L93.6105 108.707C93.6052 108.706 93.6052 108.705 93.6123 108.708C93.6199 108.712 93.6394 108.721 93.671 108.742L96.9992 103.75ZM94.9596 102.861C94.3802 102.727 93.79 102.658 93.1931 102.658V108.658C93.3241 108.658 93.4619 108.673 93.6105 108.707L94.9596 102.861ZM93.1931 102.658C92.3722 102.658 91.2158 102.776 90.1945 103.468L93.5596 108.436C93.3172 108.6 93.1251 108.649 93.0771 108.659C93.0278 108.67 93.0558 108.658 93.1931 108.658V102.658ZM90.2507 103.431C89.2583 104.071 88.4431 105.192 88.4431 106.68H94.4431C94.4431 107.039 94.3491 107.44 94.1284 107.81C93.9178 108.163 93.6636 108.37 93.5034 108.473L90.2507 103.431ZM88.4431 106.68C88.4431 107.671 88.8141 108.772 89.7745 109.573L93.6156 104.963C93.8856 105.188 94.1142 105.486 94.2635 105.834C94.4079 106.171 94.4431 106.472 94.4431 106.68H88.4431ZM89.9155 109.683C90.4569 110.082 91.0378 110.321 91.5693 110.468L93.1648 104.684C93.155 104.681 93.2879 104.715 93.4747 104.853L89.9155 109.683ZM91.5941 110.475C91.9806 110.578 92.3835 110.662 92.7979 110.731L93.7843 104.813C93.5266 104.77 93.3135 104.724 93.1401 104.677L91.5941 110.475ZM92.8784 110.743C93.1062 110.775 93.3371 110.82 93.5715 110.878L95.0267 105.058C94.589 104.948 94.1479 104.862 93.7038 104.801L92.8784 110.743ZM93.6483 110.897C93.7635 110.922 93.8177 110.948 93.8308 110.955L96.5873 105.625C96.0591 105.352 95.5066 105.163 94.9499 105.039L93.6483 110.897ZM93.8674 110.973C93.7907 110.935 93.7016 110.878 93.6115 110.8C93.5211 110.721 93.4449 110.632 93.3849 110.542L98.3772 107.214C97.9096 106.513 97.2813 105.972 96.5507 105.607L93.8674 110.973ZM93.4276 110.604C93.2869 110.404 93.2149 110.217 93.1799 110.084C93.1628 110.02 93.1547 109.969 93.1509 109.936C93.1489 109.92 93.148 109.907 93.1475 109.899C93.1471 109.891 93.1471 109.886 93.1471 109.886H99.1471C99.1471 109.067 98.9758 108.063 98.3345 107.152L93.4276 110.604ZM93.1471 109.886C93.1471 109.815 93.158 109.697 93.2065 109.554C93.2557 109.408 93.3295 109.278 93.4125 109.174L98.0977 112.922C98.8158 112.024 99.1471 110.963 99.1471 109.886H93.1471ZM93.4125 109.174C93.4747 109.096 93.5335 109.048 93.5685 109.023C93.6011 109.001 93.6027 109.006 93.5538 109.025L95.7443 114.611C96.6013 114.275 97.4425 113.741 98.0977 112.922L93.4125 109.174ZM93.6017 109.007C93.5455 109.028 93.3493 109.084 92.9411 109.084V115.084C93.8581 115.084 94.8006 114.963 95.6964 114.629L93.6017 109.007ZM99.0307 111.594L97.5913 114.226L97.5999 114.231L97.6084 114.235L99.0307 111.594ZM97.6307 110.25L95.0286 111.743L95.0378 111.759L95.0471 111.775L97.6307 110.25ZM97.6167 106.33L95.0146 104.837L95.0054 104.853L94.9963 104.869L97.6167 106.33ZM98.9467 105L100.426 107.61L100.433 107.606L100.44 107.602L98.9467 105ZM102.769 104.986L104.267 102.387V102.387L102.769 104.986ZM104.057 106.33L101.408 107.74L101.422 107.765L101.436 107.791L104.057 106.33ZM104.519 108.528L101.542 108.156L101.519 108.341V108.528H104.519ZM104.505 108.738V111.738H107.107L107.475 109.162L104.505 108.738ZM98.1907 108.738H95.1907V111.738H98.1907V108.738ZM98.1907 107.772V104.772H95.1907V107.772H98.1907ZM103.805 107.772L105.377 110.327L114.404 104.772H103.805V107.772ZM103.259 108.108L100.259 108.049L100.152 113.543L104.831 110.663L103.259 108.108ZM102.965 106.834L105.593 105.388V105.388L102.965 106.834ZM102.111 105.966L100.557 108.532L100.597 108.556L100.637 108.579L102.111 105.966ZM99.6187 105.966L101.093 108.579L101.118 108.565L101.143 108.55L99.6187 105.966ZM98.7647 106.848L101.393 108.294L101.401 108.28L101.408 108.266L98.7647 106.848ZM98.7927 109.69L96.188 111.178L96.2092 111.215L96.2313 111.252L98.7927 109.69ZM99.7587 110.586L101.148 107.927V107.927L99.7587 110.586ZM102.363 110.684L101.224 107.908L101.211 107.914L101.199 107.919L102.363 110.684ZM103.315 110.012L105.595 108.063L103.38 105.472L101.092 107.997L103.315 110.012ZM104.057 110.88L106.335 112.832L108.006 110.883L106.337 108.931L104.057 110.88ZM102.797 111.776L101.665 108.998L101.656 109.001L101.647 109.005L102.797 111.776ZM101.131 109.084C100.758 109.084 100.56 109.01 100.453 108.953L97.6084 114.235C98.7144 114.831 99.9167 115.084 101.131 115.084V109.084ZM100.47 108.962C100.332 108.886 100.267 108.815 100.214 108.725L95.0471 111.775C95.6663 112.824 96.5346 113.648 97.5913 114.226L100.47 108.962ZM100.233 108.757C100.198 108.696 100.141 108.569 100.141 108.29H94.1407C94.1407 109.485 94.4103 110.665 95.0286 111.743L100.233 108.757ZM100.141 108.29C100.141 107.996 100.2 107.857 100.237 107.791L94.9963 104.869C94.3988 105.941 94.1407 107.11 94.1407 108.29H100.141ZM100.219 107.823C100.284 107.71 100.343 107.657 100.426 107.61L97.4677 102.39C96.4304 102.978 95.6033 103.811 95.0146 104.837L100.219 107.823ZM100.44 107.602C100.518 107.557 100.636 107.51 100.865 107.51V101.51C99.6751 101.51 98.5138 101.79 97.4537 102.398L100.44 107.602ZM100.865 107.51C101.128 107.51 101.233 107.563 101.271 107.585L104.267 102.387C103.203 101.774 102.039 101.51 100.865 101.51V107.51ZM101.271 107.585C101.318 107.613 101.356 107.641 101.408 107.74L106.705 104.92C106.141 103.862 105.321 102.994 104.267 102.387L101.271 107.585ZM101.436 107.791C101.465 107.841 101.533 107.988 101.533 108.332H107.533C107.533 107.145 107.284 105.957 106.677 104.869L101.436 107.791ZM101.533 108.332C101.533 108.278 101.535 108.236 101.537 108.209C101.539 108.182 101.541 108.164 101.542 108.156L107.496 108.9C107.515 108.741 107.533 108.546 107.533 108.332H101.533ZM101.519 108.528C101.519 108.479 101.522 108.406 101.535 108.314L107.475 109.162C107.506 108.94 107.519 108.727 107.519 108.528H101.519ZM104.505 105.738H98.1907V111.738H104.505V105.738ZM101.191 108.738V107.772H95.1907V108.738H101.191ZM98.1907 110.772H103.805V104.772H98.1907V110.772ZM102.232 105.217L101.686 105.553L104.831 110.663L105.377 110.327L102.232 105.217ZM106.258 108.167C106.277 107.229 106.081 106.274 105.593 105.388L100.336 108.28C100.302 108.219 100.281 108.158 100.269 108.107C100.258 108.058 100.26 108.035 100.259 108.049L106.258 108.167ZM105.593 105.388C105.125 104.536 104.445 103.838 103.585 103.353L100.637 108.579C100.582 108.548 100.519 108.502 100.459 108.441C100.399 108.38 100.359 108.322 100.336 108.28L105.593 105.388ZM103.664 103.399C102.775 102.861 101.806 102.644 100.865 102.644V108.644C100.877 108.644 100.845 108.645 100.783 108.629C100.718 108.612 100.638 108.582 100.557 108.532L103.664 103.399ZM100.865 102.644C99.9195 102.644 98.9676 102.867 98.0948 103.382L101.143 108.55C101.079 108.587 101.014 108.614 100.954 108.629C100.896 108.644 100.863 108.644 100.865 108.644V102.644ZM98.1448 103.353C97.2656 103.849 96.5843 104.567 96.1213 105.43L101.408 108.266C101.388 108.304 101.349 108.363 101.287 108.427C101.225 108.492 101.157 108.543 101.093 108.579L98.1448 103.353ZM96.1361 105.402C95.655 106.277 95.4567 107.216 95.4567 108.136H101.457C101.457 108.105 101.46 108.112 101.451 108.148C101.443 108.185 101.425 108.237 101.393 108.294L96.1361 105.402ZM95.4567 108.136V108.36H101.457V108.136H95.4567ZM95.4567 108.36C95.4567 109.325 95.6807 110.291 96.188 111.178L101.397 108.202C101.422 108.245 101.44 108.29 101.449 108.329C101.459 108.366 101.457 108.38 101.457 108.36H95.4567ZM96.2313 111.252C96.7583 112.116 97.4926 112.787 98.369 113.245L101.148 107.927C101.166 107.937 101.204 107.96 101.249 108.001C101.295 108.044 101.33 108.089 101.354 108.128L96.2313 111.252ZM98.369 113.245C99.2682 113.715 100.229 113.908 101.173 113.908V107.908C101.109 107.908 101.083 107.902 101.086 107.902C101.088 107.903 101.095 107.905 101.107 107.909C101.119 107.913 101.133 107.919 101.148 107.927L98.369 113.245ZM101.173 113.908C101.956 113.908 102.756 113.774 103.527 113.449L101.199 107.919C101.212 107.913 101.223 107.91 101.232 107.907C101.24 107.905 101.245 107.904 101.244 107.904C101.244 107.904 101.222 107.908 101.173 107.908V113.908ZM103.501 113.46C104.289 113.136 104.974 112.648 105.538 112.027L101.092 107.997C101.099 107.99 101.116 107.973 101.144 107.953C101.172 107.933 101.2 107.918 101.224 107.908L103.501 113.46ZM101.034 111.961L101.776 112.829L106.337 108.931L105.595 108.063L101.034 111.961ZM101.779 108.928C101.771 108.937 101.751 108.963 101.665 108.998L103.929 114.554C104.85 114.179 105.671 113.607 106.335 112.832L101.779 108.928ZM101.647 109.005C101.567 109.038 101.411 109.084 101.131 109.084V115.084C102.083 115.084 103.037 114.924 103.947 114.547L101.647 109.005ZM107.659 114.506L108.532 111.636L108.519 111.632L108.506 111.628L107.659 114.506ZM106.105 113.694L103.557 112.11L102.219 114.263L104.118 115.942L106.105 113.694ZM106.749 112.658L108.711 110.389L106.055 108.092L104.201 111.074L106.749 112.658ZM108.023 113.358L109.019 110.528L108.995 110.52L108.972 110.512L108.023 113.358ZM111.537 113.008L113.658 115.129L111.537 113.008ZM112.153 109.564L109.167 109.28L109.153 109.421V109.564H112.153ZM112.293 108.094L115.279 108.378L115.3 108.166L115.29 107.953L112.293 108.094ZM112.223 106.61H109.223V106.681L109.226 106.751L112.223 106.61ZM112.223 104.58V101.58H109.223V104.58H112.223ZM113.497 104.58H116.497V101.58H113.497V104.58ZM112.517 113.876L110.459 111.693V111.693L112.517 113.876ZM107.547 111.244L106.101 113.873L106.127 113.887L106.153 113.901L107.547 111.244ZM106.203 109.97L103.634 111.52L103.644 111.536L103.654 111.552L106.203 109.97ZM106.203 106.218L103.654 104.636L103.65 104.642L103.646 104.648L106.203 106.218ZM107.547 104.958L106.153 102.301L106.144 102.306L106.135 102.311L107.547 104.958ZM111.215 104.902L109.873 107.585L109.893 107.595L109.912 107.604L111.215 104.902ZM112.461 106.078L109.865 107.581L109.875 107.598L109.885 107.615L112.461 106.078ZM112.461 110.096L109.885 108.559L109.875 108.576L109.865 108.593L112.461 110.096ZM111.215 111.3L112.557 113.983L112.576 113.974L112.595 113.964L111.215 111.3ZM110.949 110.208L109.531 107.565V107.565L110.949 110.208ZM111.845 109.354L109.29 107.782L109.275 107.806L109.261 107.83L111.845 109.354ZM111.845 106.834L109.261 108.358L109.275 108.382L109.29 108.406L111.845 106.834ZM110.949 105.994L109.531 108.637L109.556 108.651L109.581 108.664L110.949 105.994ZM108.303 105.994L109.671 108.664L109.683 108.658L109.695 108.651L108.303 105.994ZM107.393 106.834L104.838 105.262L104.823 105.286L104.809 105.31L107.393 106.834ZM107.393 109.354L104.809 110.878L104.823 110.902L104.838 110.926L107.393 109.354ZM108.303 110.208L106.885 112.851L106.898 112.859L106.911 112.865L108.303 110.208ZM109.647 111.8C109.258 111.8 108.89 111.745 108.532 111.636L106.786 117.376C107.716 117.659 108.673 117.8 109.647 117.8V111.8ZM108.506 111.628C108.196 111.537 108.096 111.45 108.092 111.446L104.118 115.942C104.917 116.648 105.853 117.102 106.812 117.384L108.506 111.628ZM108.653 115.278L109.297 114.242L104.201 111.074L103.557 112.11L108.653 115.278ZM104.787 114.927C105.473 115.521 106.258 115.932 107.074 116.204L108.972 110.512C108.78 110.448 108.715 110.392 108.711 110.389L104.787 114.927ZM107.027 116.188C107.861 116.481 108.726 116.624 109.605 116.624V110.624C109.383 110.624 109.193 110.589 109.019 110.528L107.027 116.188ZM109.605 116.624C110.878 116.624 112.454 116.334 113.658 115.129L109.416 110.887C109.601 110.702 109.775 110.631 109.835 110.612C109.88 110.597 109.821 110.624 109.605 110.624V116.624ZM113.658 115.129C114.841 113.946 115.153 112.412 115.153 111.132H109.153C109.153 111.317 109.129 111.355 109.149 111.295C109.173 111.221 109.247 111.056 109.416 110.887L113.658 115.129ZM115.153 111.132V109.564H109.153V111.132H115.153ZM115.139 109.848L115.279 108.378L109.307 107.81L109.167 109.28L115.139 109.848ZM115.29 107.953L115.22 106.469L109.226 106.751L109.296 108.235L115.29 107.953ZM115.223 106.61V104.58H109.223V106.61H115.223ZM112.223 107.58H113.497V101.58H112.223V107.58ZM110.497 104.58V110.992H116.497V104.58H110.497ZM110.497 110.992C110.497 111.406 110.444 111.633 110.412 111.728C110.385 111.806 110.385 111.763 110.459 111.693L114.575 116.059C116.059 114.66 116.497 112.745 116.497 110.992H110.497ZM110.459 111.693C110.553 111.605 110.452 111.8 109.647 111.8V117.8C111.362 117.8 113.174 117.379 114.575 116.059L110.459 111.693ZM109.479 108.692C109.188 108.692 109.031 108.635 108.941 108.587L106.153 113.901C107.201 114.45 108.333 114.692 109.479 114.692V108.692ZM108.993 108.615C108.883 108.555 108.815 108.49 108.752 108.388L103.654 111.552C104.263 112.533 105.091 113.317 106.101 113.873L108.993 108.615ZM108.772 108.42C108.76 108.402 108.713 108.325 108.713 108.094H102.713C102.713 109.281 102.992 110.456 103.634 111.52L108.772 108.42ZM108.713 108.094C108.713 107.962 108.728 107.883 108.738 107.844C108.748 107.807 108.756 107.793 108.76 107.788L103.646 104.648C102.988 105.72 102.713 106.907 102.713 108.094H108.713ZM108.752 107.8C108.81 107.706 108.867 107.654 108.959 107.605L106.135 102.311C105.107 102.859 104.268 103.647 103.654 104.636L108.752 107.8ZM108.941 107.615C109.031 107.567 109.188 107.51 109.479 107.51V101.51C108.333 101.51 107.201 101.752 106.153 102.301L108.941 107.615ZM109.479 107.51C109.689 107.51 109.802 107.55 109.873 107.585L112.557 102.219C111.582 101.732 110.539 101.51 109.479 101.51V107.51ZM109.912 107.604C109.908 107.602 109.9 107.598 109.889 107.59C109.878 107.583 109.868 107.575 109.859 107.567C109.851 107.559 109.847 107.554 109.848 107.554C109.848 107.555 109.854 107.563 109.865 107.581L115.057 104.575C114.467 103.555 113.615 102.729 112.518 102.2L109.912 107.604ZM109.885 107.615C109.851 107.559 109.937 107.659 109.937 108.094H115.937C115.937 106.905 115.705 105.661 115.037 104.541L109.885 107.615ZM109.937 108.094C109.937 108.512 109.854 108.61 109.885 108.559L115.037 111.633C115.703 110.518 115.937 109.281 115.937 108.094H109.937ZM109.865 108.593C109.852 108.614 109.843 108.627 109.839 108.633C109.834 108.639 109.832 108.64 109.834 108.639C109.835 108.637 109.838 108.635 109.84 108.634C109.842 108.632 109.841 108.633 109.835 108.636L112.595 113.964C113.648 113.418 114.476 112.603 115.057 111.599L109.865 108.593ZM109.873 108.617C109.802 108.652 109.689 108.692 109.479 108.692V114.692C110.539 114.692 111.582 114.47 112.557 113.983L109.873 108.617ZM109.633 113.516C110.553 113.516 111.491 113.322 112.367 112.851L109.531 107.565C109.579 107.538 109.622 107.524 109.649 107.518C109.675 107.512 109.672 107.516 109.633 107.516V113.516ZM112.367 112.851C113.22 112.394 113.928 111.728 114.429 110.878L109.261 107.83C109.291 107.779 109.334 107.722 109.39 107.669C109.446 107.616 109.497 107.582 109.531 107.565L112.367 112.851ZM114.4 110.926C114.947 110.037 115.181 109.06 115.181 108.094H109.181C109.181 108.096 109.181 108.058 109.198 107.993C109.216 107.926 109.247 107.852 109.29 107.782L114.4 110.926ZM115.181 108.094C115.181 107.128 114.947 106.151 114.4 105.262L109.29 108.406C109.247 108.336 109.216 108.262 109.198 108.195C109.181 108.13 109.181 108.092 109.181 108.094H115.181ZM114.429 105.31C113.92 104.448 113.196 103.774 112.317 103.324L109.581 108.664C109.536 108.641 109.473 108.601 109.408 108.54C109.343 108.478 109.294 108.414 109.261 108.358L114.429 105.31ZM112.367 103.351C111.491 102.88 110.553 102.686 109.633 102.686V108.686C109.672 108.686 109.675 108.69 109.649 108.684C109.622 108.678 109.579 108.664 109.531 108.637L112.367 103.351ZM109.633 102.686C108.711 102.686 107.781 102.881 106.911 103.337L109.695 108.651C109.678 108.661 109.661 108.668 109.644 108.674C109.628 108.68 109.615 108.684 109.606 108.686C109.588 108.69 109.594 108.686 109.633 108.686V102.686ZM106.935 103.324C106.067 103.769 105.352 104.427 104.838 105.262L109.948 108.406C109.921 108.449 109.88 108.503 109.823 108.555C109.767 108.608 109.712 108.643 109.671 108.664L106.935 103.324ZM104.809 105.31C104.289 106.192 104.071 107.151 104.071 108.094H110.071C110.071 108.082 110.072 108.11 110.058 108.165C110.043 108.222 110.017 108.29 109.977 108.358L104.809 105.31ZM104.071 108.094C104.071 109.037 104.289 109.996 104.809 110.878L109.977 107.83C110.017 107.898 110.043 107.966 110.058 108.023C110.072 108.078 110.071 108.106 110.071 108.094H104.071ZM104.838 110.926C105.344 111.749 106.043 112.4 106.885 112.851L109.721 107.565C109.75 107.58 109.794 107.609 109.841 107.653C109.889 107.697 109.924 107.744 109.948 107.782L104.838 110.926ZM106.911 112.865C107.781 113.321 108.711 113.516 109.633 113.516V107.516C109.594 107.516 109.588 107.512 109.606 107.516C109.615 107.518 109.628 107.522 109.644 107.528C109.661 107.534 109.678 107.541 109.695 107.551L106.911 112.865ZM116.065 112H113.065V115H116.065V112ZM116.065 104.58V101.58H113.065V104.58H116.065ZM117.409 104.58H120.409V101.58H117.409V104.58ZM117.409 112V115H120.409V112H117.409ZM116.079 102.9L113.958 105.021L113.986 105.05L114.016 105.078L116.079 102.9ZM116.079 101.654L114.016 99.4761L113.986 99.504L113.958 99.5327L116.079 101.654ZM117.381 101.654L115.26 103.775L115.319 103.834L115.381 103.89L117.381 101.654ZM117.395 102.9L119.516 105.021L119.545 104.993L119.573 104.963L117.395 102.9ZM119.065 112V104.58H113.065V112H119.065ZM116.065 107.58H117.409V101.58H116.065V107.58ZM114.409 104.58V112H120.409V104.58H114.409ZM117.409 109H116.065V115H117.409V109ZM116.737 100.152C116.932 100.152 117.18 100.184 117.449 100.287C117.722 100.392 117.957 100.546 118.142 100.722L114.016 105.078C114.792 105.813 115.767 106.152 116.737 106.152V100.152ZM118.2 100.779C118.378 100.956 118.547 101.192 118.667 101.484C118.785 101.774 118.827 102.053 118.827 102.284H112.827C112.827 103.303 113.214 104.277 113.958 105.021L118.2 100.779ZM118.827 102.284C118.827 102.496 118.79 102.764 118.675 103.052C118.559 103.343 118.389 103.587 118.2 103.775L113.958 99.5327C113.19 100.3 112.827 101.29 112.827 102.284H118.827ZM118.142 103.832C117.957 104.008 117.722 104.162 117.449 104.267C117.18 104.37 116.932 104.402 116.737 104.402V98.402C115.767 98.402 114.792 98.7411 114.016 99.4761L118.142 103.832ZM116.737 104.402C116.543 104.402 116.285 104.37 116.001 104.259C115.711 104.145 115.459 103.975 115.26 103.775L119.502 99.5327C118.713 98.7432 117.707 98.402 116.737 98.402V104.402ZM115.381 103.89C115.179 103.709 114.979 103.458 114.836 103.136C114.695 102.816 114.647 102.508 114.647 102.256H120.647C120.647 101.179 120.209 100.159 119.381 99.4183L115.381 103.89ZM114.647 102.256C114.647 102.043 114.684 101.785 114.79 101.513C114.897 101.239 115.051 101.012 115.217 100.837L119.573 104.963C120.287 104.209 120.647 103.249 120.647 102.256H114.647ZM115.274 100.779C115.484 100.568 115.743 100.398 116.032 100.287C116.312 100.18 116.561 100.152 116.737 100.152V106.152C117.683 106.152 118.706 105.832 119.516 105.021L115.274 100.779Z" fill="white" mask="url(#path-2-outside-1_1_11346)"/>
<rect x="70" y="36" width="43" height="43" fill="#F3B95F" stroke="#EAA336" stroke-width="2"/>
<defs>
<filter id="filter0_d_1_11346" x="0" y="0" width="183" height="148" filterUnits="userSpaceOnUse" color-interpolation-filters="sRGB">
<feFlood flood-opacity="0" result="BackgroundImageFix"/>
<feColorMatrix in="SourceAlpha" type="matrix" values="0 0 0 0 0 0 0 0 0 0 0 0 0 0 0 0 0 0 127 0" result="hardAlpha"/>
<feOffset dy="4"/>
<feGaussianBlur stdDeviation="8"/>
<feComposite in2="hardAlpha" operator="out"/>
<feColorMatrix type="matrix" values="0 0 0 0 0 0 0 0 0 0 0 0 0 0 0 0 0 0 0.25 0"/>
<feBlend mode="normal" in2="BackgroundImageFix" result="effect1_dropShadow_1_11346"/>
<feBlend mode="normal" in="SourceGraphic" in2="effect1_dropShadow_1_11346" result="shape"/>
</filter>
</defs>
</svg>
