<svg width="183" height="148" viewBox="0 0 183 148" fill="none" xmlns="http://www.w3.org/2000/svg">
<g filter="url(#filter0_d_1_11370)">
<rect x="16" y="12" width="151" height="116" rx="16" fill="#FFD9E9"/>
</g>
<mask id="path-2-outside-1_1_11370" maskUnits="userSpaceOnUse" x="59" y="98" width="65" height="20" fill="black">
<rect fill="white" x="59" y="98" width="65" height="20"/>
<path d="M67.034 112.112C66.2873 112.112 65.5733 112 64.892 111.776C64.2107 111.543 63.674 111.244 63.282 110.88L63.8 109.788C64.1733 110.115 64.6493 110.385 65.228 110.6C65.8067 110.815 66.4087 110.922 67.034 110.922C67.6033 110.922 68.0653 110.857 68.42 110.726C68.7747 110.595 69.036 110.418 69.204 110.194C69.372 109.961 69.456 109.699 69.456 109.41C69.456 109.074 69.344 108.803 69.12 108.598C68.9053 108.393 68.6207 108.229 68.266 108.108C67.9207 107.977 67.538 107.865 67.118 107.772C66.698 107.679 66.2733 107.571 65.844 107.45C65.424 107.319 65.0367 107.156 64.682 106.96C64.3367 106.764 64.0567 106.503 63.842 106.176C63.6273 105.84 63.52 105.411 63.52 104.888C63.52 104.384 63.6507 103.922 63.912 103.502C64.1827 103.073 64.5933 102.732 65.144 102.48C65.704 102.219 66.4133 102.088 67.272 102.088C67.8413 102.088 68.406 102.163 68.966 102.312C69.526 102.461 70.0113 102.676 70.422 102.956L69.96 104.076C69.54 103.796 69.0967 103.595 68.63 103.474C68.1633 103.343 67.7107 103.278 67.272 103.278C66.7213 103.278 66.2687 103.348 65.914 103.488C65.5593 103.628 65.298 103.815 65.13 104.048C64.9713 104.281 64.892 104.543 64.892 104.832C64.892 105.177 64.9993 105.453 65.214 105.658C65.438 105.863 65.7227 106.027 66.068 106.148C66.4227 106.269 66.81 106.381 67.23 106.484C67.65 106.577 68.07 106.685 68.49 106.806C68.9193 106.927 69.3067 107.086 69.652 107.282C70.0067 107.478 70.2913 107.739 70.506 108.066C70.7207 108.393 70.828 108.813 70.828 109.326C70.828 109.821 70.6927 110.283 70.422 110.712C70.1513 111.132 69.7313 111.473 69.162 111.734C68.602 111.986 67.8927 112.112 67.034 112.112ZM75.9813 112.084C75.188 112.084 74.488 111.921 73.8813 111.594C73.284 111.267 72.8173 110.819 72.4813 110.25C72.1547 109.681 71.9913 109.027 71.9913 108.29C71.9913 107.553 72.15 106.899 72.4673 106.33C72.794 105.761 73.2373 105.317 73.7973 105C74.3667 104.673 75.006 104.51 75.7153 104.51C76.434 104.51 77.0687 104.669 77.6193 104.986C78.17 105.303 78.5993 105.751 78.9073 106.33C79.2247 106.899 79.3833 107.567 79.3833 108.332C79.3833 108.388 79.3787 108.453 79.3693 108.528C79.3693 108.603 79.3647 108.673 79.3553 108.738H73.0413V107.772H78.6553L78.1093 108.108C78.1187 107.632 78.0207 107.207 77.8153 106.834C77.61 106.461 77.3253 106.171 76.9613 105.966C76.6067 105.751 76.1913 105.644 75.7153 105.644C75.2487 105.644 74.8333 105.751 74.4693 105.966C74.1053 106.171 73.8207 106.465 73.6153 106.848C73.41 107.221 73.3073 107.651 73.3073 108.136V108.36C73.3073 108.855 73.4193 109.298 73.6433 109.69C73.8767 110.073 74.1987 110.371 74.6093 110.586C75.02 110.801 75.4913 110.908 76.0233 110.908C76.462 110.908 76.8587 110.833 77.2133 110.684C77.5773 110.535 77.8947 110.311 78.1653 110.012L78.9073 110.88C78.5713 111.272 78.1513 111.571 77.6473 111.776C77.1527 111.981 76.5973 112.084 75.9813 112.084ZM84.4976 114.8C83.8163 114.8 83.1536 114.702 82.5096 114.506C81.8749 114.319 81.3569 114.049 80.9556 113.694L81.5996 112.658C81.9449 112.957 82.3696 113.19 82.8736 113.358C83.3776 113.535 83.9049 113.624 84.4556 113.624C85.3329 113.624 85.9769 113.419 86.3876 113.008C86.7983 112.597 87.0036 111.972 87.0036 111.132V109.564L87.1436 108.094L87.0736 106.61V104.58H88.3476V110.992C88.3476 112.299 88.0209 113.26 87.3676 113.876C86.7143 114.492 85.7576 114.8 84.4976 114.8ZM84.3296 111.692C83.6109 111.692 82.9669 111.543 82.3976 111.244C81.8376 110.936 81.3896 110.511 81.0536 109.97C80.7269 109.429 80.5636 108.803 80.5636 108.094C80.5636 107.375 80.7269 106.75 81.0536 106.218C81.3896 105.677 81.8376 105.257 82.3976 104.958C82.9669 104.659 83.6109 104.51 84.3296 104.51C84.9643 104.51 85.5429 104.641 86.0656 104.902C86.5883 105.154 87.0036 105.546 87.3116 106.078C87.6289 106.61 87.7876 107.282 87.7876 108.094C87.7876 108.897 87.6289 109.564 87.3116 110.096C87.0036 110.628 86.5883 111.029 86.0656 111.3C85.5429 111.561 84.9643 111.692 84.3296 111.692ZM84.4836 110.516C84.9783 110.516 85.4169 110.413 85.7996 110.208C86.1823 110.003 86.4809 109.718 86.6956 109.354C86.9196 108.99 87.0316 108.57 87.0316 108.094C87.0316 107.618 86.9196 107.198 86.6956 106.834C86.4809 106.47 86.1823 106.19 85.7996 105.994C85.4169 105.789 84.9783 105.686 84.4836 105.686C83.9889 105.686 83.5456 105.789 83.1536 105.994C82.7709 106.19 82.4676 106.47 82.2436 106.834C82.0289 107.198 81.9216 107.618 81.9216 108.094C81.9216 108.57 82.0289 108.99 82.2436 109.354C82.4676 109.718 82.7709 110.003 83.1536 110.208C83.5456 110.413 83.9889 110.516 84.4836 110.516ZM90.9156 112V104.58H92.2596V112H90.9156ZM91.5876 103.152C91.3263 103.152 91.1069 103.068 90.9296 102.9C90.7616 102.732 90.6776 102.527 90.6776 102.284C90.6776 102.032 90.7616 101.822 90.9296 101.654C91.1069 101.486 91.3263 101.402 91.5876 101.402C91.8489 101.402 92.0636 101.486 92.2316 101.654C92.4089 101.813 92.4976 102.013 92.4976 102.256C92.4976 102.508 92.4136 102.723 92.2456 102.9C92.0776 103.068 91.8583 103.152 91.5876 103.152ZM97.3738 112.084C96.6271 112.084 96.0484 111.883 95.6378 111.482C95.2271 111.081 95.0218 110.507 95.0218 109.76V102.956H96.3658V109.704C96.3658 110.105 96.4638 110.413 96.6598 110.628C96.8651 110.843 97.1544 110.95 97.5278 110.95C97.9478 110.95 98.2978 110.833 98.5778 110.6L98.9978 111.566C98.7924 111.743 98.5451 111.874 98.2558 111.958C97.9758 112.042 97.6818 112.084 97.3738 112.084ZM93.7618 105.686V104.58H98.4938V105.686H93.7618ZM100.623 112V104.58H101.967V112H100.623ZM101.295 103.152C101.033 103.152 100.814 103.068 100.637 102.9C100.469 102.732 100.385 102.527 100.385 102.284C100.385 102.032 100.469 101.822 100.637 101.654C100.814 101.486 101.033 101.402 101.295 101.402C101.556 101.402 101.771 101.486 101.939 101.654C102.116 101.813 102.205 102.013 102.205 102.256C102.205 102.508 102.121 102.723 101.953 102.9C101.785 103.068 101.565 103.152 101.295 103.152ZM107.781 114.8C107.099 114.8 106.437 114.702 105.793 114.506C105.158 114.319 104.64 114.049 104.239 113.694L104.883 112.658C105.228 112.957 105.653 113.19 106.157 113.358C106.661 113.535 107.188 113.624 107.739 113.624C108.616 113.624 109.26 113.419 109.671 113.008C110.081 112.597 110.287 111.972 110.287 111.132V109.564L110.427 108.094L110.357 106.61V104.58H111.631V110.992C111.631 112.299 111.304 113.26 110.651 113.876C109.997 114.492 109.041 114.8 107.781 114.8ZM107.613 111.692C106.894 111.692 106.25 111.543 105.681 111.244C105.121 110.936 104.673 110.511 104.337 109.97C104.01 109.429 103.847 108.803 103.847 108.094C103.847 107.375 104.01 106.75 104.337 106.218C104.673 105.677 105.121 105.257 105.681 104.958C106.25 104.659 106.894 104.51 107.613 104.51C108.247 104.51 108.826 104.641 109.349 104.902C109.871 105.154 110.287 105.546 110.595 106.078C110.912 106.61 111.071 107.282 111.071 108.094C111.071 108.897 110.912 109.564 110.595 110.096C110.287 110.628 109.871 111.029 109.349 111.3C108.826 111.561 108.247 111.692 107.613 111.692ZM107.767 110.516C108.261 110.516 108.7 110.413 109.083 110.208C109.465 110.003 109.764 109.718 109.979 109.354C110.203 108.99 110.315 108.57 110.315 108.094C110.315 107.618 110.203 107.198 109.979 106.834C109.764 106.47 109.465 106.19 109.083 105.994C108.7 105.789 108.261 105.686 107.767 105.686C107.272 105.686 106.829 105.789 106.437 105.994C106.054 106.19 105.751 106.47 105.527 106.834C105.312 107.198 105.205 107.618 105.205 108.094C105.205 108.57 105.312 108.99 105.527 109.354C105.751 109.718 106.054 110.003 106.437 110.208C106.829 110.413 107.272 110.516 107.767 110.516ZM118.805 112V110.432L118.735 110.138V107.464C118.735 106.895 118.567 106.456 118.231 106.148C117.904 105.831 117.409 105.672 116.747 105.672C116.308 105.672 115.879 105.747 115.459 105.896C115.039 106.036 114.684 106.227 114.395 106.47L113.835 105.462C114.217 105.154 114.675 104.921 115.207 104.762C115.748 104.594 116.313 104.51 116.901 104.51C117.918 104.51 118.702 104.757 119.253 105.252C119.803 105.747 120.079 106.503 120.079 107.52V112H118.805ZM116.369 112.084C115.818 112.084 115.333 111.991 114.913 111.804C114.502 111.617 114.185 111.361 113.961 111.034C113.737 110.698 113.625 110.32 113.625 109.9C113.625 109.499 113.718 109.135 113.905 108.808C114.101 108.481 114.413 108.22 114.843 108.024C115.281 107.828 115.869 107.73 116.607 107.73H118.959V108.696H116.663C115.991 108.696 115.538 108.808 115.305 109.032C115.071 109.256 114.955 109.527 114.955 109.844C114.955 110.208 115.099 110.502 115.389 110.726C115.678 110.941 116.079 111.048 116.593 111.048C117.097 111.048 117.535 110.936 117.909 110.712C118.291 110.488 118.567 110.161 118.735 109.732L119.001 110.656C118.823 111.095 118.511 111.445 118.063 111.706C117.615 111.958 117.05 112.084 116.369 112.084Z"/>
</mask>
<path d="M67.034 112.112C66.2873 112.112 65.5733 112 64.892 111.776C64.2107 111.543 63.674 111.244 63.282 110.88L63.8 109.788C64.1733 110.115 64.6493 110.385 65.228 110.6C65.8067 110.815 66.4087 110.922 67.034 110.922C67.6033 110.922 68.0653 110.857 68.42 110.726C68.7747 110.595 69.036 110.418 69.204 110.194C69.372 109.961 69.456 109.699 69.456 109.41C69.456 109.074 69.344 108.803 69.12 108.598C68.9053 108.393 68.6207 108.229 68.266 108.108C67.9207 107.977 67.538 107.865 67.118 107.772C66.698 107.679 66.2733 107.571 65.844 107.45C65.424 107.319 65.0367 107.156 64.682 106.96C64.3367 106.764 64.0567 106.503 63.842 106.176C63.6273 105.84 63.52 105.411 63.52 104.888C63.52 104.384 63.6507 103.922 63.912 103.502C64.1827 103.073 64.5933 102.732 65.144 102.48C65.704 102.219 66.4133 102.088 67.272 102.088C67.8413 102.088 68.406 102.163 68.966 102.312C69.526 102.461 70.0113 102.676 70.422 102.956L69.96 104.076C69.54 103.796 69.0967 103.595 68.63 103.474C68.1633 103.343 67.7107 103.278 67.272 103.278C66.7213 103.278 66.2687 103.348 65.914 103.488C65.5593 103.628 65.298 103.815 65.13 104.048C64.9713 104.281 64.892 104.543 64.892 104.832C64.892 105.177 64.9993 105.453 65.214 105.658C65.438 105.863 65.7227 106.027 66.068 106.148C66.4227 106.269 66.81 106.381 67.23 106.484C67.65 106.577 68.07 106.685 68.49 106.806C68.9193 106.927 69.3067 107.086 69.652 107.282C70.0067 107.478 70.2913 107.739 70.506 108.066C70.7207 108.393 70.828 108.813 70.828 109.326C70.828 109.821 70.6927 110.283 70.422 110.712C70.1513 111.132 69.7313 111.473 69.162 111.734C68.602 111.986 67.8927 112.112 67.034 112.112ZM75.9813 112.084C75.188 112.084 74.488 111.921 73.8813 111.594C73.284 111.267 72.8173 110.819 72.4813 110.25C72.1547 109.681 71.9913 109.027 71.9913 108.29C71.9913 107.553 72.15 106.899 72.4673 106.33C72.794 105.761 73.2373 105.317 73.7973 105C74.3667 104.673 75.006 104.51 75.7153 104.51C76.434 104.51 77.0687 104.669 77.6193 104.986C78.17 105.303 78.5993 105.751 78.9073 106.33C79.2247 106.899 79.3833 107.567 79.3833 108.332C79.3833 108.388 79.3787 108.453 79.3693 108.528C79.3693 108.603 79.3647 108.673 79.3553 108.738H73.0413V107.772H78.6553L78.1093 108.108C78.1187 107.632 78.0207 107.207 77.8153 106.834C77.61 106.461 77.3253 106.171 76.9613 105.966C76.6067 105.751 76.1913 105.644 75.7153 105.644C75.2487 105.644 74.8333 105.751 74.4693 105.966C74.1053 106.171 73.8207 106.465 73.6153 106.848C73.41 107.221 73.3073 107.651 73.3073 108.136V108.36C73.3073 108.855 73.4193 109.298 73.6433 109.69C73.8767 110.073 74.1987 110.371 74.6093 110.586C75.02 110.801 75.4913 110.908 76.0233 110.908C76.462 110.908 76.8587 110.833 77.2133 110.684C77.5773 110.535 77.8947 110.311 78.1653 110.012L78.9073 110.88C78.5713 111.272 78.1513 111.571 77.6473 111.776C77.1527 111.981 76.5973 112.084 75.9813 112.084ZM84.4976 114.8C83.8163 114.8 83.1536 114.702 82.5096 114.506C81.8749 114.319 81.3569 114.049 80.9556 113.694L81.5996 112.658C81.9449 112.957 82.3696 113.19 82.8736 113.358C83.3776 113.535 83.9049 113.624 84.4556 113.624C85.3329 113.624 85.9769 113.419 86.3876 113.008C86.7983 112.597 87.0036 111.972 87.0036 111.132V109.564L87.1436 108.094L87.0736 106.61V104.58H88.3476V110.992C88.3476 112.299 88.0209 113.26 87.3676 113.876C86.7143 114.492 85.7576 114.8 84.4976 114.8ZM84.3296 111.692C83.6109 111.692 82.9669 111.543 82.3976 111.244C81.8376 110.936 81.3896 110.511 81.0536 109.97C80.7269 109.429 80.5636 108.803 80.5636 108.094C80.5636 107.375 80.7269 106.75 81.0536 106.218C81.3896 105.677 81.8376 105.257 82.3976 104.958C82.9669 104.659 83.6109 104.51 84.3296 104.51C84.9643 104.51 85.5429 104.641 86.0656 104.902C86.5883 105.154 87.0036 105.546 87.3116 106.078C87.6289 106.61 87.7876 107.282 87.7876 108.094C87.7876 108.897 87.6289 109.564 87.3116 110.096C87.0036 110.628 86.5883 111.029 86.0656 111.3C85.5429 111.561 84.9643 111.692 84.3296 111.692ZM84.4836 110.516C84.9783 110.516 85.4169 110.413 85.7996 110.208C86.1823 110.003 86.4809 109.718 86.6956 109.354C86.9196 108.99 87.0316 108.57 87.0316 108.094C87.0316 107.618 86.9196 107.198 86.6956 106.834C86.4809 106.47 86.1823 106.19 85.7996 105.994C85.4169 105.789 84.9783 105.686 84.4836 105.686C83.9889 105.686 83.5456 105.789 83.1536 105.994C82.7709 106.19 82.4676 106.47 82.2436 106.834C82.0289 107.198 81.9216 107.618 81.9216 108.094C81.9216 108.57 82.0289 108.99 82.2436 109.354C82.4676 109.718 82.7709 110.003 83.1536 110.208C83.5456 110.413 83.9889 110.516 84.4836 110.516ZM90.9156 112V104.58H92.2596V112H90.9156ZM91.5876 103.152C91.3263 103.152 91.1069 103.068 90.9296 102.9C90.7616 102.732 90.6776 102.527 90.6776 102.284C90.6776 102.032 90.7616 101.822 90.9296 101.654C91.1069 101.486 91.3263 101.402 91.5876 101.402C91.8489 101.402 92.0636 101.486 92.2316 101.654C92.4089 101.813 92.4976 102.013 92.4976 102.256C92.4976 102.508 92.4136 102.723 92.2456 102.9C92.0776 103.068 91.8583 103.152 91.5876 103.152ZM97.3738 112.084C96.6271 112.084 96.0484 111.883 95.6378 111.482C95.2271 111.081 95.0218 110.507 95.0218 109.76V102.956H96.3658V109.704C96.3658 110.105 96.4638 110.413 96.6598 110.628C96.8651 110.843 97.1544 110.95 97.5278 110.95C97.9478 110.95 98.2978 110.833 98.5778 110.6L98.9978 111.566C98.7924 111.743 98.5451 111.874 98.2558 111.958C97.9758 112.042 97.6818 112.084 97.3738 112.084ZM93.7618 105.686V104.58H98.4938V105.686H93.7618ZM100.623 112V104.58H101.967V112H100.623ZM101.295 103.152C101.033 103.152 100.814 103.068 100.637 102.9C100.469 102.732 100.385 102.527 100.385 102.284C100.385 102.032 100.469 101.822 100.637 101.654C100.814 101.486 101.033 101.402 101.295 101.402C101.556 101.402 101.771 101.486 101.939 101.654C102.116 101.813 102.205 102.013 102.205 102.256C102.205 102.508 102.121 102.723 101.953 102.9C101.785 103.068 101.565 103.152 101.295 103.152ZM107.781 114.8C107.099 114.8 106.437 114.702 105.793 114.506C105.158 114.319 104.64 114.049 104.239 113.694L104.883 112.658C105.228 112.957 105.653 113.19 106.157 113.358C106.661 113.535 107.188 113.624 107.739 113.624C108.616 113.624 109.26 113.419 109.671 113.008C110.081 112.597 110.287 111.972 110.287 111.132V109.564L110.427 108.094L110.357 106.61V104.58H111.631V110.992C111.631 112.299 111.304 113.26 110.651 113.876C109.997 114.492 109.041 114.8 107.781 114.8ZM107.613 111.692C106.894 111.692 106.25 111.543 105.681 111.244C105.121 110.936 104.673 110.511 104.337 109.97C104.01 109.429 103.847 108.803 103.847 108.094C103.847 107.375 104.01 106.75 104.337 106.218C104.673 105.677 105.121 105.257 105.681 104.958C106.25 104.659 106.894 104.51 107.613 104.51C108.247 104.51 108.826 104.641 109.349 104.902C109.871 105.154 110.287 105.546 110.595 106.078C110.912 106.61 111.071 107.282 111.071 108.094C111.071 108.897 110.912 109.564 110.595 110.096C110.287 110.628 109.871 111.029 109.349 111.3C108.826 111.561 108.247 111.692 107.613 111.692ZM107.767 110.516C108.261 110.516 108.7 110.413 109.083 110.208C109.465 110.003 109.764 109.718 109.979 109.354C110.203 108.99 110.315 108.57 110.315 108.094C110.315 107.618 110.203 107.198 109.979 106.834C109.764 106.47 109.465 106.19 109.083 105.994C108.7 105.789 108.261 105.686 107.767 105.686C107.272 105.686 106.829 105.789 106.437 105.994C106.054 106.19 105.751 106.47 105.527 106.834C105.312 107.198 105.205 107.618 105.205 108.094C105.205 108.57 105.312 108.99 105.527 109.354C105.751 109.718 106.054 110.003 106.437 110.208C106.829 110.413 107.272 110.516 107.767 110.516ZM118.805 112V110.432L118.735 110.138V107.464C118.735 106.895 118.567 106.456 118.231 106.148C117.904 105.831 117.409 105.672 116.747 105.672C116.308 105.672 115.879 105.747 115.459 105.896C115.039 106.036 114.684 106.227 114.395 106.47L113.835 105.462C114.217 105.154 114.675 104.921 115.207 104.762C115.748 104.594 116.313 104.51 116.901 104.51C117.918 104.51 118.702 104.757 119.253 105.252C119.803 105.747 120.079 106.503 120.079 107.52V112H118.805ZM116.369 112.084C115.818 112.084 115.333 111.991 114.913 111.804C114.502 111.617 114.185 111.361 113.961 111.034C113.737 110.698 113.625 110.32 113.625 109.9C113.625 109.499 113.718 109.135 113.905 108.808C114.101 108.481 114.413 108.22 114.843 108.024C115.281 107.828 115.869 107.73 116.607 107.73H118.959V108.696H116.663C115.991 108.696 115.538 108.808 115.305 109.032C115.071 109.256 114.955 109.527 114.955 109.844C114.955 110.208 115.099 110.502 115.389 110.726C115.678 110.941 116.079 111.048 116.593 111.048C117.097 111.048 117.535 110.936 117.909 110.712C118.291 110.488 118.567 110.161 118.735 109.732L119.001 110.656C118.823 111.095 118.511 111.445 118.063 111.706C117.615 111.958 117.05 112.084 116.369 112.084Z" fill="#C54278"/>
<path d="M64.892 111.776L63.92 114.614L63.9375 114.62L63.955 114.626L64.892 111.776ZM63.282 110.88L60.5715 109.594L59.6288 111.582L61.2407 113.078L63.282 110.88ZM63.8 109.788L65.7755 107.53L62.7898 104.918L61.0895 108.502L63.8 109.788ZM65.228 110.6L64.1846 113.413H64.1846L65.228 110.6ZM68.42 110.726L69.4571 113.541L68.42 110.726ZM69.204 110.194L71.604 111.994L71.6215 111.971L71.6386 111.947L69.204 110.194ZM69.12 108.598L67.0463 110.766L67.0694 110.788L67.0928 110.809L69.12 108.598ZM68.266 108.108L67.2043 110.914L67.2494 110.931L67.2949 110.946L68.266 108.108ZM67.118 107.772L67.7688 104.843L67.118 107.772ZM65.844 107.45L64.9528 110.315L64.9903 110.326L65.0281 110.337L65.844 107.45ZM64.682 106.96L63.2012 109.569L63.216 109.577L63.2309 109.586L64.682 106.96ZM63.842 106.176L61.3139 107.791L61.3243 107.807L61.3349 107.824L63.842 106.176ZM63.912 103.502L61.3742 101.902L61.3695 101.91L61.3648 101.917L63.912 103.502ZM65.144 102.48L66.3924 105.208L66.4025 105.203L66.4127 105.199L65.144 102.48ZM70.422 102.956L73.1953 104.1L74.1238 101.849L72.112 100.477L70.422 102.956ZM69.96 104.076L68.2959 106.572L71.3388 108.601L72.7333 105.22L69.96 104.076ZM68.63 103.474L67.8211 106.363L67.848 106.37L67.8751 106.377L68.63 103.474ZM65.13 104.048L62.6954 102.295L62.6719 102.328L62.6492 102.361L65.13 104.048ZM65.214 105.658L63.1403 107.826L63.1634 107.848L63.1868 107.869L65.214 105.658ZM66.068 106.148L65.0735 108.978L65.0852 108.982L65.0969 108.986L66.068 106.148ZM67.23 106.484L66.5176 109.398L66.5484 109.406L66.5792 109.413L67.23 106.484ZM68.49 106.806L67.6574 109.688L67.6658 109.691L67.6741 109.693L68.49 106.806ZM69.652 107.282L68.1712 109.891L68.186 109.899L68.201 109.908L69.652 107.282ZM70.506 108.066L73.0131 106.418V106.418L70.506 108.066ZM70.422 110.712L72.9437 112.337L72.9518 112.325L72.9598 112.312L70.422 110.712ZM69.162 111.734L70.3931 114.47L70.4033 114.465L70.4135 114.46L69.162 111.734ZM67.034 109.112C66.5925 109.112 66.1956 109.047 65.829 108.926L63.955 114.626C64.951 114.953 65.9822 115.112 67.034 115.112V109.112ZM65.864 108.938C65.4499 108.796 65.3207 108.679 65.3234 108.682L61.2407 113.078C62.0273 113.809 62.9715 114.289 63.92 114.614L65.864 108.938ZM65.9925 112.166L66.5105 111.074L61.0895 108.502L60.5715 109.594L65.9925 112.166ZM61.8245 112.046C62.5301 112.663 63.3445 113.101 64.1846 113.413L66.2714 107.787C65.9542 107.67 65.8166 107.566 65.7755 107.53L61.8245 112.046ZM64.1846 113.413C65.1016 113.753 66.0573 113.922 67.034 113.922V107.922C66.7601 107.922 66.5117 107.876 66.2714 107.787L64.1846 113.413ZM67.034 113.922C67.7962 113.922 68.647 113.84 69.4571 113.541L67.3829 107.911C67.4452 107.888 67.4547 107.893 67.3874 107.903C67.3219 107.912 67.2075 107.922 67.034 107.922V113.922ZM69.4571 113.541C70.1697 113.278 70.9873 112.816 71.604 111.994L66.804 108.394C67.0847 108.02 67.3796 107.912 67.3829 107.911L69.4571 113.541ZM71.6386 111.947C72.1767 111.2 72.456 110.324 72.456 109.41H66.456C66.456 109.26 66.4785 109.087 66.5369 108.905C66.5954 108.723 66.6789 108.567 66.7694 108.441L71.6386 111.947ZM72.456 109.41C72.456 108.332 72.0604 107.224 71.1472 106.387L67.0928 110.809C66.8942 110.627 66.7178 110.387 66.6 110.102C66.485 109.824 66.456 109.578 66.456 109.41H72.456ZM71.1937 106.43C70.5934 105.856 69.8991 105.496 69.2371 105.27L67.2949 110.946C67.3423 110.963 67.2173 110.929 67.0463 110.766L71.1937 106.43ZM69.3277 105.302C68.8288 105.113 68.3063 104.963 67.7688 104.843L66.4672 110.701C66.7697 110.768 67.0126 110.841 67.2043 110.914L69.3277 105.302ZM67.7688 104.843C67.4062 104.763 67.0366 104.67 66.6599 104.563L65.0281 110.337C65.5101 110.473 65.9898 110.594 66.4672 110.701L67.7688 104.843ZM66.7352 104.585C66.4931 104.51 66.2953 104.424 66.1331 104.334L63.2309 109.586C63.7781 109.888 64.3549 110.129 64.9528 110.315L66.7352 104.585ZM66.1628 104.351C66.187 104.365 66.222 104.388 66.26 104.424C66.2981 104.459 66.328 104.496 66.3491 104.528L61.3349 107.824C61.8149 108.554 62.4492 109.142 63.2012 109.569L66.1628 104.351ZM66.3701 104.561C66.5458 104.836 66.52 105.013 66.52 104.888H60.52C60.52 105.808 60.7089 106.844 61.3139 107.791L66.3701 104.561ZM66.52 104.888C66.52 104.898 66.5182 104.932 66.5048 104.98C66.4912 105.028 66.4727 105.065 66.4592 105.087L61.3648 101.917C60.8017 102.822 60.52 103.835 60.52 104.888H66.52ZM66.4498 105.102C66.43 105.133 66.4088 105.161 66.388 105.185C66.3673 105.208 66.3498 105.224 66.3384 105.233C66.3156 105.252 66.3251 105.239 66.3924 105.208L63.8956 99.7521C62.9186 100.199 62.0117 100.891 61.3742 101.902L66.4498 105.102ZM66.4127 105.199C66.4522 105.18 66.6916 105.088 67.272 105.088V99.088C66.1351 99.088 64.9558 99.2572 63.8754 99.7615L66.4127 105.199ZM67.272 105.088C67.5757 105.088 67.8806 105.127 68.193 105.211L69.739 99.4133C68.9314 99.1979 68.107 99.088 67.272 99.088V105.088ZM68.193 105.211C68.479 105.287 68.6433 105.374 68.732 105.435L72.112 100.477C71.3794 99.9778 70.573 99.6357 69.739 99.4133L68.193 105.211ZM67.6487 101.812L67.1867 102.932L72.7333 105.22L73.1953 104.1L67.6487 101.812ZM71.6241 101.58C70.939 101.123 70.1902 100.78 69.3849 100.571L67.8751 106.377C68.0032 106.411 68.141 106.469 68.2959 106.572L71.6241 101.58ZM69.4389 100.585C68.7362 100.388 68.011 100.278 67.272 100.278V106.278C67.4103 106.278 67.5905 106.298 67.8211 106.363L69.4389 100.585ZM67.272 100.278C66.4977 100.278 65.6369 100.372 64.8125 100.698L67.0155 106.278C66.9491 106.305 66.9293 106.303 66.978 106.295C67.0259 106.288 67.1206 106.278 67.272 106.278V100.278ZM64.8125 100.698C64.0938 100.981 63.2923 101.466 62.6954 102.295L67.5646 105.801C67.3037 106.163 67.0249 106.275 67.0155 106.278L64.8125 100.698ZM62.6492 102.361C62.1432 103.105 61.892 103.957 61.892 104.832H67.892C67.892 104.965 67.8732 105.122 67.8222 105.29C67.7709 105.459 67.6961 105.609 67.6108 105.735L62.6492 102.361ZM61.892 104.832C61.892 105.851 62.2369 106.962 63.1403 107.826L67.2877 103.49C67.4949 103.688 67.6615 103.936 67.7676 104.208C67.8701 104.471 67.892 104.694 67.892 104.832H61.892ZM63.1868 107.869C63.7643 108.399 64.4223 108.75 65.0735 108.978L67.0625 103.318C67.0231 103.304 67.1118 103.328 67.2412 103.447L63.1868 107.869ZM65.0969 108.986C65.5484 109.141 66.0232 109.277 66.5176 109.398L67.9424 103.57C67.5968 103.485 67.297 103.398 67.0391 103.31L65.0969 108.986ZM66.5792 109.413C66.9372 109.492 67.2965 109.584 67.6574 109.688L69.3226 103.924C68.8435 103.785 68.3629 103.663 67.8808 103.555L66.5792 109.413ZM67.6741 109.693C67.8996 109.757 68.0595 109.828 68.1712 109.891L71.1328 104.673C70.5539 104.344 69.9391 104.098 69.3059 103.919L67.6741 109.693ZM68.201 109.908C68.18 109.896 68.1441 109.873 68.1027 109.835C68.0609 109.797 68.0257 109.754 67.9989 109.714L73.0131 106.418C72.5211 105.67 71.8677 105.079 71.1031 104.656L68.201 109.908ZM67.9989 109.714C67.8055 109.419 67.828 109.218 67.828 109.326H73.828C73.828 108.408 73.6359 107.366 73.0131 106.418L67.9989 109.714ZM67.828 109.326C67.828 109.296 67.8327 109.251 67.8475 109.2C67.8621 109.15 67.8794 109.12 67.8842 109.112L72.9598 112.312C73.5241 111.417 73.828 110.402 73.828 109.326H67.828ZM67.9003 109.087C67.9244 109.05 67.9486 109.019 67.97 108.995C67.9911 108.972 68.0072 108.958 68.0142 108.953C68.0274 108.942 68.0018 108.966 67.9105 109.008L70.4135 114.46C71.3712 114.021 72.2933 113.346 72.9437 112.337L67.9003 109.087ZM67.9309 108.998C67.8798 109.021 67.6261 109.112 67.034 109.112V115.112C68.1593 115.112 69.3242 114.951 70.3931 114.47L67.9309 108.998ZM73.8813 111.594L72.4419 114.226L72.4504 114.231L72.459 114.235L73.8813 111.594ZM72.4813 110.25L69.8792 111.743L69.8884 111.759L69.8977 111.775L72.4813 110.25ZM72.4673 106.33L69.8652 104.837L69.8559 104.853L69.8469 104.869L72.4673 106.33ZM73.7973 105L75.2764 107.61L75.2834 107.606L75.2903 107.602L73.7973 105ZM77.6193 104.986L79.1172 102.387L79.1172 102.387L77.6193 104.986ZM78.9073 106.33L76.2591 107.74L76.2727 107.765L76.2869 107.791L78.9073 106.33ZM79.3693 108.528L76.3925 108.156L76.3693 108.341V108.528H79.3693ZM79.3553 108.738V111.738H81.9572L82.3252 109.162L79.3553 108.738ZM73.0413 108.738H70.0413V111.738H73.0413V108.738ZM73.0413 107.772V104.772H70.0413V107.772H73.0413ZM78.6553 107.772L80.2276 110.327L89.2544 104.772H78.6553V107.772ZM78.1093 108.108L75.1099 108.049L75.0022 113.543L79.6816 110.663L78.1093 108.108ZM77.8153 106.834L80.444 105.388V105.388L77.8153 106.834ZM76.9613 105.966L75.4079 108.532L75.4473 108.556L75.4874 108.579L76.9613 105.966ZM74.4693 105.966L75.9433 108.579L75.9684 108.565L75.9933 108.55L74.4693 105.966ZM73.6153 106.848L76.244 108.294L76.2515 108.28L76.2588 108.266L73.6153 106.848ZM73.6433 109.69L71.0386 111.178L71.0597 111.215L71.0819 111.252L73.6433 109.69ZM74.6093 110.586L75.9991 107.927V107.927L74.6093 110.586ZM77.2133 110.684L76.0746 107.908L76.0619 107.914L76.0491 107.919L77.2133 110.684ZM78.1653 110.012L80.4457 108.063L78.2311 105.472L75.9424 107.997L78.1653 110.012ZM78.9073 110.88L81.1851 112.832L82.8563 110.883L81.1877 108.931L78.9073 110.88ZM77.6473 111.776L76.5154 108.998L76.5063 109.001L76.4972 109.005L77.6473 111.776ZM75.9813 109.084C75.6087 109.084 75.411 109.01 75.3036 108.953L72.459 114.235C73.565 114.831 74.7673 115.084 75.9813 115.084V109.084ZM75.3208 108.962C75.1828 108.886 75.1178 108.815 75.0649 108.725L69.8977 111.775C70.5169 112.824 71.3852 113.648 72.4419 114.226L75.3208 108.962ZM75.0834 108.757C75.0484 108.696 74.9913 108.569 74.9913 108.29H68.9913C68.9913 109.485 69.2609 110.665 69.8792 111.743L75.0834 108.757ZM74.9913 108.29C74.9913 107.996 75.0505 107.857 75.0878 107.791L69.8469 104.869C69.2494 105.941 68.9913 107.11 68.9913 108.29H74.9913ZM75.0694 107.823C75.1341 107.71 75.1937 107.657 75.2764 107.61L72.3183 102.39C71.281 102.978 70.4538 103.811 69.8652 104.837L75.0694 107.823ZM75.2903 107.602C75.3689 107.557 75.4863 107.51 75.7153 107.51V101.51C74.5257 101.51 73.3644 101.79 72.3043 102.398L75.2903 107.602ZM75.7153 107.51C75.9783 107.51 76.0834 107.563 76.1214 107.585L79.1172 102.387C78.0539 101.774 76.8897 101.51 75.7153 101.51V107.51ZM76.1214 107.585C76.1688 107.613 76.2066 107.641 76.2591 107.74L81.5556 104.92C80.992 103.862 80.1712 102.994 79.1172 102.387L76.1214 107.585ZM76.2869 107.791C76.3151 107.841 76.3833 107.988 76.3833 108.332H82.3833C82.3833 107.145 82.1342 105.957 81.5278 104.869L76.2869 107.791ZM76.3833 108.332C76.3833 108.278 76.3855 108.236 76.3874 108.209C76.3894 108.182 76.3915 108.164 76.3925 108.156L82.3462 108.9C82.366 108.741 82.3833 108.546 82.3833 108.332H76.3833ZM76.3693 108.528C76.3693 108.479 76.3723 108.406 76.3855 108.314L82.3252 109.162C82.357 108.94 82.3693 108.727 82.3693 108.528H76.3693ZM79.3553 105.738H73.0413V111.738H79.3553V105.738ZM76.0413 108.738V107.772H70.0413V108.738H76.0413ZM73.0413 110.772H78.6553V104.772H73.0413V110.772ZM77.083 105.217L76.537 105.553L79.6816 110.663L80.2276 110.327L77.083 105.217ZM81.1087 108.167C81.1271 107.229 80.9313 106.274 80.444 105.388L75.1867 108.28C75.1531 108.219 75.1314 108.158 75.1196 108.107C75.1083 108.058 75.1102 108.035 75.1099 108.049L81.1087 108.167ZM80.444 105.388C79.9753 104.536 79.2951 103.838 78.4353 103.353L75.4874 108.579C75.4324 108.548 75.3694 108.502 75.3093 108.441C75.2495 108.38 75.2099 108.322 75.1867 108.28L80.444 105.388ZM78.5147 103.399C77.6255 102.861 76.6563 102.644 75.7153 102.644V108.644C75.7274 108.644 75.6958 108.645 75.6332 108.629C75.5681 108.612 75.4889 108.582 75.4079 108.532L78.5147 103.399ZM75.7153 102.644C74.7701 102.644 73.8182 102.867 72.9454 103.382L75.9933 108.55C75.9301 108.587 75.8641 108.614 75.8044 108.629C75.7465 108.644 75.7132 108.644 75.7153 108.644V102.644ZM72.9954 103.353C72.1162 103.849 71.4349 104.567 70.9718 105.43L76.2588 108.266C76.2384 108.304 76.2 108.363 76.1381 108.427C76.0755 108.492 76.0071 108.543 75.9433 108.579L72.9954 103.353ZM70.9867 105.402C70.5056 106.277 70.3073 107.216 70.3073 108.136H76.3073C76.3073 108.105 76.3105 108.112 76.3021 108.148C76.2932 108.185 76.2753 108.237 76.244 108.294L70.9867 105.402ZM70.3073 108.136V108.36H76.3073V108.136H70.3073ZM70.3073 108.36C70.3073 109.325 70.5312 110.291 71.0386 111.178L76.2481 108.202C76.2728 108.245 76.2901 108.29 76.2999 108.329C76.3094 108.366 76.3073 108.38 76.3073 108.36H70.3073ZM71.0819 111.252C71.6089 112.116 72.3431 112.787 73.2196 113.245L75.9991 107.927C76.017 107.937 76.055 107.96 76.0999 108.001C76.1453 108.044 76.1807 108.089 76.2047 108.128L71.0819 111.252ZM73.2196 113.245C74.1188 113.715 75.0794 113.908 76.0233 113.908V107.908C75.9593 107.908 75.9334 107.902 75.9369 107.902C75.9385 107.903 75.9458 107.905 75.9575 107.909C75.9693 107.913 75.9835 107.919 75.9991 107.927L73.2196 113.245ZM76.0233 113.908C76.8062 113.908 77.6063 113.774 78.3775 113.449L76.0491 107.919C76.0626 107.913 76.0739 107.91 76.0823 107.907C76.0907 107.905 76.0951 107.904 76.0949 107.904C76.0945 107.904 76.0724 107.908 76.0233 107.908V113.908ZM78.352 113.46C79.1399 113.136 79.825 112.648 80.3883 112.027L75.9424 107.997C75.9493 107.99 75.9665 107.973 75.9943 107.953C76.0223 107.933 76.0507 107.918 76.0746 107.908L78.352 113.46ZM75.885 111.961L76.627 112.829L81.1877 108.931L80.4457 108.063L75.885 111.961ZM76.6296 108.928C76.6212 108.937 76.6018 108.963 76.5154 108.998L78.7792 114.554C79.7008 114.179 80.5215 113.607 81.1851 112.832L76.6296 108.928ZM76.4972 109.005C76.4177 109.038 76.2613 109.084 75.9813 109.084V115.084C76.9333 115.084 77.8876 114.924 78.7975 114.547L76.4972 109.005ZM82.5096 114.506L83.3831 111.636L83.3696 111.632L83.3561 111.628L82.5096 114.506ZM80.9556 113.694L78.4077 112.11L77.0694 114.263L78.969 115.942L80.9556 113.694ZM81.5996 112.658L83.562 110.389L80.9058 108.092L79.0517 111.074L81.5996 112.658ZM82.8736 113.358L83.8693 110.528L83.8459 110.52L83.8223 110.512L82.8736 113.358ZM86.3876 113.008L88.5089 115.129L86.3876 113.008ZM87.0036 109.564L84.0171 109.28L84.0036 109.421V109.564H87.0036ZM87.1436 108.094L90.1301 108.378L90.1503 108.166L90.1403 107.953L87.1436 108.094ZM87.0736 106.61H84.0736V106.681L84.0769 106.751L87.0736 106.61ZM87.0736 104.58V101.58H84.0736V104.58H87.0736ZM88.3476 104.58H91.3476V101.58H88.3476V104.58ZM87.3676 113.876L85.3095 111.693V111.693L87.3676 113.876ZM82.3976 111.244L80.9518 113.873L80.9777 113.887L81.0039 113.901L82.3976 111.244ZM81.0536 109.97L78.485 111.52L78.4947 111.536L78.5047 111.552L81.0536 109.97ZM81.0536 106.218L78.5047 104.636L78.5009 104.642L78.4971 104.648L81.0536 106.218ZM82.3976 104.958L81.0039 102.301L80.9949 102.306L80.9858 102.311L82.3976 104.958ZM86.0656 104.902L84.7239 107.585L84.7432 107.595L84.7627 107.604L86.0656 104.902ZM87.3116 106.078L84.7153 107.581L84.7251 107.598L84.7351 107.615L87.3116 106.078ZM87.3116 110.096L84.7351 108.559L84.7251 108.576L84.7153 108.593L87.3116 110.096ZM86.0656 111.3L87.4072 113.983L87.4263 113.974L87.4451 113.964L86.0656 111.3ZM85.7996 110.208L84.3811 107.565V107.565L85.7996 110.208ZM86.6956 109.354L84.1406 107.782L84.1258 107.806L84.1115 107.83L86.6956 109.354ZM86.6956 106.834L84.1115 108.358L84.1258 108.382L84.1406 108.406L86.6956 106.834ZM85.7996 105.994L84.3811 108.637L84.4064 108.651L84.432 108.664L85.7996 105.994ZM83.1536 105.994L84.5212 108.664L84.5334 108.658L84.5456 108.651L83.1536 105.994ZM82.2436 106.834L79.6886 105.262L79.6738 105.286L79.6595 105.31L82.2436 106.834ZM82.2436 109.354L79.6595 110.878L79.6738 110.902L79.6886 110.926L82.2436 109.354ZM83.1536 110.208L81.7351 112.851L81.7483 112.859L81.7616 112.865L83.1536 110.208ZM84.4976 111.8C84.1086 111.8 83.7405 111.745 83.3831 111.636L81.6361 117.376C82.5667 117.659 83.5239 117.8 84.4976 117.8V111.8ZM83.3561 111.628C83.0462 111.537 82.9462 111.45 82.9422 111.446L78.969 115.942C79.7677 116.648 80.7036 117.102 81.6631 117.384L83.3561 111.628ZM83.5034 115.278L84.1474 114.242L79.0517 111.074L78.4077 112.11L83.5034 115.278ZM79.6371 114.927C80.3239 115.521 81.1086 115.932 81.9249 116.204L83.8223 110.512C83.6305 110.448 83.566 110.392 83.562 110.389L79.6371 114.927ZM81.8779 116.188C82.7116 116.481 83.5763 116.624 84.4556 116.624V110.624C84.2335 110.624 84.0436 110.589 83.8693 110.528L81.8779 116.188ZM84.4556 116.624C85.7282 116.624 87.3047 116.334 88.5089 115.129L84.2663 110.887C84.4512 110.702 84.6258 110.631 84.6853 110.612C84.7306 110.597 84.6719 110.624 84.4556 110.624V116.624ZM88.5089 115.129C89.6919 113.946 90.0036 112.412 90.0036 111.132H84.0036C84.0036 111.317 83.9797 111.355 83.9993 111.295C84.0237 111.221 84.0971 111.056 84.2663 110.887L88.5089 115.129ZM90.0036 111.132V109.564H84.0036V111.132H90.0036ZM89.9901 109.848L90.1301 108.378L84.1571 107.81L84.0171 109.28L89.9901 109.848ZM90.1403 107.953L90.0703 106.469L84.0769 106.751L84.1469 108.235L90.1403 107.953ZM90.0736 106.61V104.58H84.0736V106.61H90.0736ZM87.0736 107.58H88.3476V101.58H87.0736V107.58ZM85.3476 104.58V110.992H91.3476V104.58H85.3476ZM85.3476 110.992C85.3476 111.406 85.2945 111.633 85.2621 111.728C85.2355 111.806 85.2356 111.763 85.3095 111.693L89.4256 116.059C90.9095 114.66 91.3476 112.745 91.3476 110.992H85.3476ZM85.3095 111.693C85.4036 111.605 85.3025 111.8 84.4976 111.8V117.8C86.2126 117.8 88.0249 117.379 89.4256 116.059L85.3095 111.693ZM84.3296 108.692C84.0384 108.692 83.882 108.635 83.7912 108.587L81.0039 113.901C82.0518 114.45 83.1835 114.692 84.3296 114.692V108.692ZM83.8433 108.615C83.7334 108.555 83.6659 108.49 83.6025 108.388L78.5047 111.552C79.1133 112.533 79.9418 113.317 80.9518 113.873L83.8433 108.615ZM83.6222 108.42C83.6111 108.402 83.5636 108.325 83.5636 108.094H77.5636C77.5636 109.281 77.8428 110.456 78.485 111.52L83.6222 108.42ZM83.5636 108.094C83.5636 107.962 83.5784 107.883 83.5887 107.844C83.5983 107.807 83.6069 107.793 83.6101 107.788L78.4971 104.648C77.8388 105.72 77.5636 106.907 77.5636 108.094H83.5636ZM83.6025 107.8C83.661 107.706 83.7175 107.654 83.8093 107.605L80.9858 102.311C79.9577 102.859 79.1182 103.647 78.5047 104.636L83.6025 107.8ZM83.7912 107.615C83.882 107.567 84.0384 107.51 84.3296 107.51V101.51C83.1835 101.51 82.0518 101.752 81.0039 102.301L83.7912 107.615ZM84.3296 107.51C84.5394 107.51 84.6529 107.55 84.7239 107.585L87.4072 102.219C86.4329 101.732 85.3891 101.51 84.3296 101.51V107.51ZM84.7627 107.604C84.7588 107.602 84.7504 107.598 84.7394 107.59C84.7285 107.583 84.7183 107.575 84.7099 107.567C84.7016 107.559 84.6978 107.554 84.6982 107.554C84.6987 107.555 84.7049 107.563 84.7153 107.581L89.9079 104.575C89.3175 103.555 88.4657 102.729 87.3685 102.2L84.7627 107.604ZM84.7351 107.615C84.7018 107.559 84.7876 107.659 84.7876 108.094H90.7876C90.7876 106.905 90.556 105.661 89.888 104.541L84.7351 107.615ZM84.7876 108.094C84.7876 108.512 84.7047 108.61 84.7351 108.559L89.888 111.633C90.5531 110.518 90.7876 109.281 90.7876 108.094H84.7876ZM84.7153 108.593C84.703 108.614 84.6939 108.627 84.6892 108.633C84.6846 108.639 84.683 108.64 84.6844 108.639C84.686 108.637 84.6882 108.635 84.6903 108.634C84.6924 108.632 84.6915 108.633 84.686 108.636L87.4451 113.964C88.499 113.418 89.3266 112.603 89.9079 111.599L84.7153 108.593ZM84.7239 108.617C84.6529 108.652 84.5394 108.692 84.3296 108.692V114.692C85.3891 114.692 86.4329 114.47 87.4072 113.983L84.7239 108.617ZM84.4836 113.516C85.4037 113.516 86.3418 113.322 87.218 112.851L84.3811 107.565C84.43 107.538 84.4728 107.524 84.4999 107.518C84.5253 107.512 84.523 107.516 84.4836 107.516V113.516ZM87.218 112.851C88.0703 112.394 88.7782 111.728 89.2797 110.878L84.1115 107.83C84.1414 107.779 84.1848 107.722 84.2408 107.669C84.2964 107.616 84.3476 107.582 84.3811 107.565L87.218 112.851ZM89.2506 110.926C89.7978 110.037 90.0316 109.06 90.0316 108.094H84.0316C84.0316 108.096 84.0316 108.058 84.0489 107.993C84.0667 107.926 84.0972 107.852 84.1406 107.782L89.2506 110.926ZM90.0316 108.094C90.0316 107.128 89.7978 106.151 89.2506 105.262L84.1406 108.406C84.0972 108.336 84.0667 108.262 84.0489 108.195C84.0316 108.13 84.0316 108.092 84.0316 108.094H90.0316ZM89.2797 105.31C88.771 104.448 88.0464 103.774 87.1672 103.324L84.432 108.664C84.3864 108.641 84.3239 108.601 84.2588 108.54C84.1933 108.478 84.1444 108.414 84.1115 108.358L89.2797 105.31ZM87.218 103.351C86.3418 102.88 85.4037 102.686 84.4836 102.686V108.686C84.523 108.686 84.5253 108.69 84.4999 108.684C84.4728 108.678 84.43 108.664 84.3811 108.637L87.218 103.351ZM84.4836 102.686C83.562 102.686 82.6316 102.881 81.7616 103.337L84.5456 108.651C84.5284 108.661 84.5112 108.668 84.4951 108.674C84.4789 108.68 84.4658 108.684 84.4569 108.686C84.4383 108.69 84.4445 108.686 84.4836 108.686V102.686ZM81.786 103.324C80.9176 103.769 80.2022 104.427 79.6886 105.262L84.7986 108.406C84.772 108.449 84.7307 108.503 84.6739 108.555C84.6172 108.608 84.5623 108.643 84.5212 108.664L81.786 103.324ZM79.6595 105.31C79.1394 106.192 78.9216 107.151 78.9216 108.094H84.9216C84.9216 108.082 84.9228 108.11 84.9087 108.165C84.8941 108.222 84.8679 108.29 84.8277 108.358L79.6595 105.31ZM78.9216 108.094C78.9216 109.037 79.1394 109.996 79.6595 110.878L84.8277 107.83C84.8679 107.898 84.8941 107.966 84.9087 108.023C84.9228 108.078 84.9216 108.106 84.9216 108.094H78.9216ZM79.6886 110.926C80.1949 111.749 80.8936 112.4 81.7351 112.851L84.572 107.565C84.601 107.58 84.6448 107.609 84.692 107.653C84.7395 107.697 84.7751 107.744 84.7986 107.782L79.6886 110.926ZM81.7616 112.865C82.6316 113.321 83.562 113.516 84.4836 113.516V107.516C84.4445 107.516 84.4383 107.512 84.4569 107.516C84.4658 107.518 84.4789 107.522 84.4951 107.528C84.5112 107.534 84.5284 107.541 84.5456 107.551L81.7616 112.865ZM90.9156 112H87.9156V115H90.9156V112ZM90.9156 104.58V101.58H87.9156V104.58H90.9156ZM92.2596 104.58H95.2596V101.58H92.2596V104.58ZM92.2596 112V115H95.2596V112H92.2596ZM90.9296 102.9L88.8083 105.021L88.8369 105.05L88.8664 105.078L90.9296 102.9ZM90.9296 101.654L88.8664 99.4761L88.8369 99.504L88.8083 99.5327L90.9296 101.654ZM92.2316 101.654L90.1103 103.775L90.1692 103.834L90.2312 103.89L92.2316 101.654ZM92.2456 102.9L94.3669 105.021L94.3956 104.993L94.4235 104.963L92.2456 102.9ZM93.9156 112V104.58H87.9156V112H93.9156ZM90.9156 107.58H92.2596V101.58H90.9156V107.58ZM89.2596 104.58V112H95.2596V104.58H89.2596ZM92.2596 109H90.9156V115H92.2596V109ZM91.5876 100.152C91.7825 100.152 92.0307 100.184 92.3 100.287C92.5729 100.392 92.8072 100.546 92.9928 100.722L88.8664 105.078C89.6422 105.813 90.6175 106.152 91.5876 106.152V100.152ZM93.0509 100.779C93.2284 100.956 93.3979 101.192 93.5172 101.484C93.636 101.774 93.6776 102.053 93.6776 102.284H87.6776C87.6776 103.303 88.0643 104.277 88.8083 105.021L93.0509 100.779ZM93.6776 102.284C93.6776 102.496 93.6411 102.764 93.526 103.052C93.4096 103.343 93.2394 103.587 93.0509 103.775L88.8083 99.5327C88.0409 100.3 87.6776 101.29 87.6776 102.284H93.6776ZM92.9928 103.832C92.8072 104.008 92.5729 104.162 92.3 104.267C92.0307 104.37 91.7825 104.402 91.5876 104.402V98.402C90.6175 98.402 89.6422 98.7411 88.8664 99.4761L92.9928 103.832ZM91.5876 104.402C91.3938 104.402 91.1358 104.37 90.8514 104.259C90.5614 104.145 90.3097 103.975 90.1103 103.775L94.3529 99.5327C93.5634 98.7432 92.5572 98.402 91.5876 98.402V104.402ZM90.2312 103.89C90.0293 103.709 89.8293 103.458 89.687 103.136C89.5455 102.816 89.4976 102.508 89.4976 102.256H95.4976C95.4976 101.179 95.0596 100.159 94.232 99.4183L90.2312 103.89ZM89.4976 102.256C89.4976 102.043 89.5344 101.785 89.6409 101.513C89.748 101.239 89.902 101.012 90.0677 100.837L94.4235 104.963C95.1376 104.209 95.4976 103.249 95.4976 102.256H89.4976ZM90.1243 100.779C90.3346 100.568 90.5938 100.398 90.8822 100.287C91.163 100.18 91.4113 100.152 91.5876 100.152V106.152C92.5334 106.152 93.5565 105.832 94.3669 105.021L90.1243 100.779ZM95.6378 111.482L93.541 113.628L95.6378 111.482ZM95.0218 102.956V99.956H92.0218V102.956H95.0218ZM96.3658 102.956H99.3658V99.956H96.3658V102.956ZM96.6598 110.628L94.4443 112.651L94.4678 112.677L94.4918 112.702L96.6598 110.628ZM98.5778 110.6L101.329 109.404L99.7327 105.732L96.6572 108.295L98.5778 110.6ZM98.9978 111.566L100.959 113.836L102.629 112.394L101.749 110.37L98.9978 111.566ZM98.2558 111.958L97.4193 109.077L97.4065 109.081L97.3937 109.085L98.2558 111.958ZM93.7618 105.686H90.7618V108.686H93.7618V105.686ZM93.7618 104.58V101.58H90.7618V104.58H93.7618ZM98.4938 104.58H101.494V101.58H98.4938V104.58ZM98.4938 105.686V108.686H101.494V105.686H98.4938ZM97.3738 109.084C97.2642 109.084 97.2753 109.069 97.3627 109.099C97.4624 109.134 97.6031 109.208 97.7346 109.336L93.541 113.628C94.6655 114.727 96.0878 115.084 97.3738 115.084V109.084ZM97.7346 109.336C97.8748 109.473 97.9595 109.625 98.0005 109.74C98.0366 109.841 98.0218 109.864 98.0218 109.76H92.0218C92.0218 111.061 92.3935 112.506 93.541 113.628L97.7346 109.336ZM98.0218 109.76V102.956H92.0218V109.76H98.0218ZM95.0218 105.956H96.3658V99.956H95.0218V105.956ZM93.3658 102.956V109.704H99.3658V102.956H93.3658ZM93.3658 109.704C93.3658 110.567 93.5788 111.703 94.4443 112.651L98.8752 108.605C99.3487 109.124 99.3658 109.644 99.3658 109.704H93.3658ZM94.4918 112.702C95.4008 113.652 96.5589 113.95 97.5278 113.95V107.95C97.6247 107.95 97.8231 107.964 98.0742 108.057C98.3384 108.155 98.604 108.32 98.8277 108.554L94.4918 112.702ZM97.5278 113.95C98.5367 113.95 99.5984 113.655 100.498 112.905L96.6572 108.295C96.8082 108.17 96.9811 108.075 97.1566 108.016C97.3265 107.96 97.4593 107.95 97.5278 107.95V113.95ZM95.8265 111.796L96.2466 112.762L101.749 110.37L101.329 109.404L95.8265 111.796ZM97.0369 109.296C97.1926 109.161 97.3404 109.1 97.4193 109.077L99.0922 114.839C99.7498 114.648 100.392 114.326 100.959 113.836L97.0369 109.296ZM97.3937 109.085C97.3993 109.083 97.4022 109.082 97.401 109.083C97.3996 109.083 97.391 109.084 97.3738 109.084V115.084C97.958 115.084 98.5435 115.004 99.1178 114.831L97.3937 109.085ZM96.7618 105.686V104.58H90.7618V105.686H96.7618ZM93.7618 107.58H98.4938V101.58H93.7618V107.58ZM95.4938 104.58V105.686H101.494V104.58H95.4938ZM98.4938 102.686H93.7618V108.686H98.4938V102.686ZM100.623 112H97.6226V115H100.623V112ZM100.623 104.58V101.58H97.6226V104.58H100.623ZM101.967 104.58H104.967V101.58H101.967V104.58ZM101.967 112V115H104.967V112H101.967ZM100.637 102.9L98.5153 105.021L98.544 105.05L98.5734 105.078L100.637 102.9ZM100.637 101.654L98.5734 99.4761L98.544 99.504L98.5153 99.5327L100.637 101.654ZM101.939 101.654L99.8173 103.775L99.8762 103.834L99.9382 103.89L101.939 101.654ZM101.953 102.9L104.074 105.021L104.103 104.993L104.13 104.963L101.953 102.9ZM103.623 112V104.58H97.6226V112H103.623ZM100.623 107.58H101.967V101.58H100.623V107.58ZM98.9666 104.58V112H104.967V104.58H98.9666ZM101.967 109H100.623V115H101.967V109ZM101.295 100.152C101.49 100.152 101.738 100.184 102.007 100.287C102.28 100.392 102.514 100.546 102.7 100.722L98.5734 105.078C99.3493 105.813 100.325 106.152 101.295 106.152V100.152ZM102.758 100.779C102.935 100.956 103.105 101.192 103.224 101.484C103.343 101.774 103.385 102.053 103.385 102.284H97.3846C97.3846 103.303 97.7714 104.277 98.5153 105.021L102.758 100.779ZM103.385 102.284C103.385 102.496 103.348 102.764 103.233 103.052C103.117 103.343 102.946 103.587 102.758 103.775L98.5153 99.5327C97.7479 100.3 97.3846 101.29 97.3846 102.284H103.385ZM102.7 103.832C102.514 104.008 102.28 104.162 102.007 104.267C101.738 104.37 101.49 104.402 101.295 104.402V98.402C100.325 98.402 99.3493 98.7411 98.5734 99.4761L102.7 103.832ZM101.295 104.402C101.101 104.402 100.843 104.37 100.558 104.259C100.268 104.145 100.017 103.975 99.8173 103.775L104.06 99.5327C103.27 98.7432 102.264 98.402 101.295 98.402V104.402ZM99.9382 103.89C99.7364 103.709 99.5363 103.458 99.3941 103.136C99.2525 102.816 99.2046 102.508 99.2046 102.256H105.205C105.205 101.179 104.767 100.159 103.939 99.4183L99.9382 103.89ZM99.2046 102.256C99.2046 102.043 99.2414 101.785 99.3479 101.513C99.4551 101.239 99.609 101.012 99.7748 100.837L104.13 104.963C104.845 104.209 105.205 103.249 105.205 102.256H99.2046ZM99.8313 100.779C100.042 100.568 100.301 100.398 100.589 100.287C100.87 100.18 101.118 100.152 101.295 100.152V106.152C102.24 106.152 103.264 105.832 104.074 105.021L99.8313 100.779ZM105.793 114.506L106.666 111.636L106.653 111.632L106.639 111.628L105.793 114.506ZM104.239 113.694L101.691 112.11L100.353 114.263L102.252 115.942L104.239 113.694ZM104.883 112.658L106.845 110.389L104.189 108.092L102.335 111.074L104.883 112.658ZM106.157 113.358L107.153 110.528L107.129 110.52L107.105 110.512L106.157 113.358ZM109.671 113.008L111.792 115.129L109.671 113.008ZM110.287 109.564L107.3 109.28L107.287 109.421V109.564H110.287ZM110.427 108.094L113.413 108.378L113.434 108.166L113.423 107.953L110.427 108.094ZM110.357 106.61H107.357V106.681L107.36 106.751L110.357 106.61ZM110.357 104.58V101.58H107.357V104.58H110.357ZM111.631 104.58H114.631V101.58H111.631V104.58ZM110.651 113.876L108.593 111.693V111.693L110.651 113.876ZM105.681 111.244L104.235 113.873L104.261 113.887L104.287 113.901L105.681 111.244ZM104.337 109.97L101.768 111.52L101.778 111.536L101.788 111.552L104.337 109.97ZM104.337 106.218L101.788 104.636L101.784 104.642L101.78 104.648L104.337 106.218ZM105.681 104.958L104.287 102.301L104.278 102.306L104.269 102.311L105.681 104.958ZM109.349 104.902L108.007 107.585L108.026 107.595L108.046 107.604L109.349 104.902ZM110.595 106.078L107.999 107.581L108.008 107.598L108.018 107.615L110.595 106.078ZM110.595 110.096L108.018 108.559L108.008 108.576L107.999 108.593L110.595 110.096ZM109.349 111.3L110.69 113.983L110.709 113.974L110.728 113.964L109.349 111.3ZM109.083 110.208L107.664 107.565V107.565L109.083 110.208ZM109.979 109.354L107.424 107.782L107.409 107.806L107.395 107.83L109.979 109.354ZM109.979 106.834L107.395 108.358L107.409 108.382L107.424 108.406L109.979 106.834ZM109.083 105.994L107.664 108.637L107.69 108.651L107.715 108.664L109.083 105.994ZM106.437 105.994L107.804 108.664L107.817 108.658L107.829 108.651L106.437 105.994ZM105.527 106.834L102.972 105.262L102.957 105.286L102.943 105.31L105.527 106.834ZM105.527 109.354L102.943 110.878L102.957 110.902L102.972 110.926L105.527 109.354ZM106.437 110.208L105.018 112.851L105.032 112.859L105.045 112.865L106.437 110.208ZM107.781 111.8C107.392 111.8 107.024 111.745 106.666 111.636L104.919 117.376C105.85 117.659 106.807 117.8 107.781 117.8V111.8ZM106.639 111.628C106.329 111.537 106.229 111.45 106.225 111.446L102.252 115.942C103.051 116.648 103.987 117.102 104.946 117.384L106.639 111.628ZM106.787 115.278L107.431 114.242L102.335 111.074L101.691 112.11L106.787 115.278ZM102.92 114.927C103.607 115.521 104.392 115.932 105.208 116.204L107.105 110.512C106.914 110.448 106.849 110.392 106.845 110.389L102.92 114.927ZM105.161 116.188C105.995 116.481 106.86 116.624 107.739 116.624V110.624C107.517 110.624 107.327 110.589 107.153 110.528L105.161 116.188ZM107.739 116.624C109.011 116.624 110.588 116.334 111.792 115.129L107.549 110.887C107.734 110.702 107.909 110.631 107.968 110.612C108.014 110.597 107.955 110.624 107.739 110.624V116.624ZM111.792 115.129C112.975 113.946 113.287 112.412 113.287 111.132H107.287C107.287 111.317 107.263 111.355 107.283 111.295C107.307 111.221 107.38 111.056 107.549 110.887L111.792 115.129ZM113.287 111.132V109.564H107.287V111.132H113.287ZM113.273 109.848L113.413 108.378L107.44 107.81L107.3 109.28L113.273 109.848ZM113.423 107.953L113.353 106.469L107.36 106.751L107.43 108.235L113.423 107.953ZM113.357 106.61V104.58H107.357V106.61H113.357ZM110.357 107.58H111.631V101.58H110.357V107.58ZM108.631 104.58V110.992H114.631V104.58H108.631ZM108.631 110.992C108.631 111.406 108.578 111.633 108.545 111.728C108.519 111.806 108.519 111.763 108.593 111.693L112.709 116.059C114.193 114.66 114.631 112.745 114.631 110.992H108.631ZM108.593 111.693C108.687 111.605 108.586 111.8 107.781 111.8V117.8C109.496 117.8 111.308 117.379 112.709 116.059L108.593 111.693ZM107.613 108.692C107.322 108.692 107.165 108.635 107.074 108.587L104.287 113.901C105.335 114.45 106.467 114.692 107.613 114.692V108.692ZM107.127 108.615C107.017 108.555 106.949 108.49 106.886 108.388L101.788 111.552C102.396 112.533 103.225 113.317 104.235 113.873L107.127 108.615ZM106.905 108.42C106.894 108.402 106.847 108.325 106.847 108.094H100.847C100.847 109.281 101.126 110.456 101.768 111.52L106.905 108.42ZM106.847 108.094C106.847 107.962 106.862 107.883 106.872 107.844C106.882 107.807 106.89 107.793 106.893 107.788L101.78 104.648C101.122 105.72 100.847 106.907 100.847 108.094H106.847ZM106.886 107.8C106.944 107.706 107.001 107.654 107.093 107.605L104.269 102.311C103.241 102.859 102.401 103.647 101.788 104.636L106.886 107.8ZM107.074 107.615C107.165 107.567 107.322 107.51 107.613 107.51V101.51C106.467 101.51 105.335 101.752 104.287 102.301L107.074 107.615ZM107.613 107.51C107.823 107.51 107.936 107.55 108.007 107.585L110.69 102.219C109.716 101.732 108.672 101.51 107.613 101.51V107.51ZM108.046 107.604C108.042 107.602 108.034 107.598 108.023 107.59C108.012 107.583 108.002 107.575 107.993 107.567C107.985 107.559 107.981 107.554 107.981 107.554C107.982 107.555 107.988 107.563 107.999 107.581L113.191 104.575C112.601 103.555 111.749 102.729 110.652 102.2L108.046 107.604ZM108.018 107.615C107.985 107.559 108.071 107.659 108.071 108.094H114.071C114.071 106.905 113.839 105.661 113.171 104.541L108.018 107.615ZM108.071 108.094C108.071 108.512 107.988 108.61 108.018 108.559L113.171 111.633C113.836 110.518 114.071 109.281 114.071 108.094H108.071ZM107.999 108.593C107.986 108.614 107.977 108.627 107.972 108.633C107.968 108.639 107.966 108.64 107.968 108.639C107.969 108.637 107.971 108.635 107.974 108.634C107.976 108.632 107.975 108.633 107.969 108.636L110.728 113.964C111.782 113.418 112.61 112.603 113.191 111.599L107.999 108.593ZM108.007 108.617C107.936 108.652 107.823 108.692 107.613 108.692V114.692C108.672 114.692 109.716 114.47 110.69 113.983L108.007 108.617ZM107.767 113.516C108.687 113.516 109.625 113.322 110.501 112.851L107.664 107.565C107.713 107.538 107.756 107.524 107.783 107.518C107.809 107.512 107.806 107.516 107.767 107.516V113.516ZM110.501 112.851C111.353 112.394 112.061 111.728 112.563 110.878L107.395 107.83C107.425 107.779 107.468 107.722 107.524 107.669C107.58 107.616 107.631 107.582 107.664 107.565L110.501 112.851ZM112.534 110.926C113.081 110.037 113.315 109.06 113.315 108.094H107.315C107.315 108.096 107.315 108.058 107.332 107.993C107.35 107.926 107.38 107.852 107.424 107.782L112.534 110.926ZM113.315 108.094C113.315 107.128 113.081 106.151 112.534 105.262L107.424 108.406C107.38 108.336 107.35 108.262 107.332 108.195C107.315 108.13 107.315 108.092 107.315 108.094H113.315ZM112.563 105.31C112.054 104.448 111.33 103.774 110.45 103.324L107.715 108.664C107.67 108.641 107.607 108.601 107.542 108.54C107.477 108.478 107.428 108.414 107.395 108.358L112.563 105.31ZM110.501 103.351C109.625 102.88 108.687 102.686 107.767 102.686V108.686C107.806 108.686 107.809 108.69 107.783 108.684C107.756 108.678 107.713 108.664 107.664 108.637L110.501 103.351ZM107.767 102.686C106.845 102.686 105.915 102.881 105.045 103.337L107.829 108.651C107.812 108.661 107.794 108.668 107.778 108.674C107.762 108.68 107.749 108.684 107.74 108.686C107.722 108.69 107.728 108.686 107.767 108.686V102.686ZM105.069 103.324C104.201 103.769 103.485 104.427 102.972 105.262L108.082 108.406C108.055 108.449 108.014 108.503 107.957 108.555C107.9 108.608 107.846 108.643 107.804 108.664L105.069 103.324ZM102.943 105.31C102.423 106.192 102.205 107.151 102.205 108.094H108.205C108.205 108.082 108.206 108.11 108.192 108.165C108.177 108.222 108.151 108.29 108.111 108.358L102.943 105.31ZM102.205 108.094C102.205 109.037 102.423 109.996 102.943 110.878L108.111 107.83C108.151 107.898 108.177 107.966 108.192 108.023C108.206 108.078 108.205 108.106 108.205 108.094H102.205ZM102.972 110.926C103.478 111.749 104.177 112.4 105.018 112.851L107.855 107.565C107.884 107.58 107.928 107.609 107.975 107.653C108.023 107.697 108.058 107.744 108.082 107.782L102.972 110.926ZM105.045 112.865C105.915 113.321 106.845 113.516 107.767 113.516V107.516C107.728 107.516 107.722 107.512 107.74 107.516C107.749 107.518 107.762 107.522 107.778 107.528C107.794 107.534 107.812 107.541 107.829 107.551L105.045 112.865ZM118.805 112H115.805V115H118.805V112ZM118.805 110.432H121.805V110.08L121.723 109.737L118.805 110.432ZM118.735 110.138H115.735V110.49L115.816 110.833L118.735 110.138ZM118.231 106.148L116.14 108.3L116.172 108.33L116.204 108.359L118.231 106.148ZM115.459 105.896L116.407 108.742L116.436 108.733L116.464 108.723L115.459 105.896ZM114.395 106.47L111.772 107.927L113.538 111.104L116.323 108.769L114.395 106.47ZM113.835 105.462L111.954 103.125L109.985 104.71L111.212 106.919L113.835 105.462ZM115.207 104.762L116.064 107.637L116.08 107.632L116.096 107.627L115.207 104.762ZM120.079 112V115H123.079V112H120.079ZM114.913 111.804L113.671 114.535L113.683 114.54L113.694 114.545L114.913 111.804ZM113.961 111.034L111.465 112.698L111.476 112.714L111.487 112.731L113.961 111.034ZM113.905 108.808L111.332 107.265L111.316 107.292L111.3 107.32L113.905 108.808ZM114.843 108.024L113.619 105.285L113.608 105.29L113.597 105.295L114.843 108.024ZM118.959 107.73H121.959V104.73H118.959V107.73ZM118.959 108.696V111.696H121.959V108.696H118.959ZM115.305 109.032L113.227 106.868V106.868L115.305 109.032ZM115.389 110.726L113.552 113.098L113.577 113.117L113.601 113.135L115.389 110.726ZM117.909 110.712L116.393 108.123L116.379 108.131L116.365 108.14L117.909 110.712ZM118.735 109.732L121.618 108.902L119.168 100.392L115.941 108.639L118.735 109.732ZM119.001 110.656L121.782 111.78L122.17 110.821L121.884 109.826L119.001 110.656ZM118.063 111.706L119.534 114.321L119.554 114.309L119.574 114.297L118.063 111.706ZM121.805 112V110.432H115.805V112H121.805ZM121.723 109.737L121.653 109.443L115.816 110.833L115.886 111.127L121.723 109.737ZM121.735 110.138V107.464H115.735V110.138H121.735ZM121.735 107.464C121.735 106.278 121.362 104.948 120.258 103.937L116.204 108.359C116.018 108.189 115.884 107.982 115.807 107.781C115.736 107.594 115.735 107.471 115.735 107.464H121.735ZM120.321 103.996C119.224 102.93 117.836 102.672 116.747 102.672V108.672C116.848 108.672 116.816 108.685 116.699 108.648C116.568 108.606 116.353 108.506 116.14 108.3L120.321 103.996ZM116.747 102.672C115.96 102.672 115.191 102.807 114.454 103.069L116.464 108.723C116.566 108.686 116.656 108.672 116.747 108.672V102.672ZM114.51 103.05C113.793 103.289 113.091 103.648 112.467 104.171L116.323 108.769C116.278 108.806 116.285 108.783 116.407 108.742L114.51 103.05ZM117.017 105.013L116.457 104.005L111.212 106.919L111.772 107.927L117.017 105.013ZM115.716 107.799C115.758 107.765 115.857 107.699 116.064 107.637L114.349 101.887C113.493 102.143 112.676 102.543 111.954 103.125L115.716 107.799ZM116.096 107.627C116.339 107.552 116.603 107.51 116.901 107.51V101.51C116.023 101.51 115.158 101.636 114.318 101.897L116.096 107.627ZM116.901 107.51C117.173 107.51 117.309 107.544 117.349 107.557C117.379 107.566 117.325 107.553 117.248 107.484L121.258 103.02C119.979 101.872 118.38 101.51 116.901 101.51V107.51ZM117.248 107.484C117.193 107.435 117.147 107.38 117.111 107.325C117.076 107.272 117.059 107.232 117.053 107.217C117.048 107.202 117.055 107.216 117.063 107.266C117.071 107.317 117.079 107.4 117.079 107.52H123.079C123.079 105.983 122.652 104.273 121.258 103.02L117.248 107.484ZM117.079 107.52V112H123.079V107.52H117.079ZM120.079 109H118.805V115H120.079V109ZM116.369 109.084C116.156 109.084 116.099 109.048 116.131 109.063L113.694 114.545C114.566 114.933 115.48 115.084 116.369 115.084V109.084ZM116.154 109.073C116.156 109.074 116.195 109.092 116.253 109.139C116.313 109.187 116.378 109.254 116.435 109.337L111.487 112.731C112.061 113.568 112.834 114.154 113.671 114.535L116.154 109.073ZM116.457 109.37C116.508 109.446 116.554 109.54 116.585 109.646C116.616 109.751 116.625 109.84 116.625 109.9H110.625C110.625 110.887 110.898 111.849 111.465 112.698L116.457 109.37ZM116.625 109.9C116.625 109.934 116.621 109.994 116.601 110.071C116.581 110.15 116.549 110.227 116.51 110.296L111.3 107.32C110.837 108.13 110.625 109.013 110.625 109.9H116.625ZM116.477 110.351C116.294 110.658 116.078 110.758 116.089 110.753L113.597 105.295C112.749 105.682 111.908 106.305 111.332 107.265L116.477 110.351ZM116.067 110.763C116.005 110.791 116.006 110.779 116.106 110.763C116.204 110.746 116.366 110.73 116.607 110.73V104.73C115.651 104.73 114.593 104.85 113.619 105.285L116.067 110.763ZM116.607 110.73H118.959V104.73H116.607V110.73ZM115.959 107.73V108.696H121.959V107.73H115.959ZM118.959 105.696H116.663V111.696H118.959V105.696ZM116.663 105.696C116.181 105.696 115.639 105.734 115.099 105.868C114.574 105.998 113.854 106.266 113.227 106.868L117.382 111.196C116.989 111.574 116.612 111.674 116.54 111.692C116.452 111.714 116.473 111.696 116.663 111.696V105.696ZM113.227 106.868C112.417 107.645 111.955 108.692 111.955 109.844H117.955C117.955 110.062 117.913 110.323 117.797 110.59C117.682 110.857 117.526 111.058 117.382 111.196L113.227 106.868ZM111.955 109.844C111.955 111.142 112.534 112.309 113.552 113.098L117.225 108.354C117.399 108.488 117.603 108.705 117.755 109.013C117.907 109.322 117.955 109.618 117.955 109.844H111.955ZM113.601 113.135C114.586 113.866 115.7 114.048 116.593 114.048V108.048C116.458 108.048 116.77 108.015 117.176 108.317L113.601 113.135ZM116.593 114.048C117.554 114.048 118.543 113.83 119.452 113.284L116.365 108.14C116.438 108.096 116.506 108.07 116.558 108.057C116.606 108.045 116.622 108.048 116.593 108.048V114.048ZM119.424 113.301C120.414 112.722 121.125 111.856 121.529 110.825L115.941 108.639C115.967 108.572 116.019 108.472 116.108 108.366C116.199 108.258 116.301 108.177 116.393 108.123L119.424 113.301ZM115.852 110.562L116.118 111.486L121.884 109.826L121.618 108.902L115.852 110.562ZM116.219 109.532C116.259 109.433 116.32 109.334 116.396 109.249C116.47 109.166 116.532 109.126 116.551 109.115L119.574 114.297C120.538 113.735 121.331 112.895 121.782 111.78L116.219 109.532ZM116.592 109.091C116.654 109.057 116.681 109.055 116.65 109.062C116.616 109.069 116.527 109.084 116.369 109.084V115.084C117.403 115.084 118.514 114.894 119.534 114.321L116.592 109.091Z" fill="white" mask="url(#path-2-outside-1_1_11370)"/>
<path d="M45.4656 79L88.5 36.407L131.534 79H45.4656Z" fill="#FF70AB" stroke="#C54278" stroke-width="2"/>
<defs>
<filter id="filter0_d_1_11370" x="0" y="0" width="183" height="148" filterUnits="userSpaceOnUse" color-interpolation-filters="sRGB">
<feFlood flood-opacity="0" result="BackgroundImageFix"/>
<feColorMatrix in="SourceAlpha" type="matrix" values="0 0 0 0 0 0 0 0 0 0 0 0 0 0 0 0 0 0 127 0" result="hardAlpha"/>
<feOffset dy="4"/>
<feGaussianBlur stdDeviation="8"/>
<feComposite in2="hardAlpha" operator="out"/>
<feColorMatrix type="matrix" values="0 0 0 0 0 0 0 0 0 0 0 0 0 0 0 0 0 0 0.25 0"/>
<feBlend mode="normal" in2="BackgroundImageFix" result="effect1_dropShadow_1_11370"/>
<feBlend mode="normal" in="SourceGraphic" in2="effect1_dropShadow_1_11370" result="shape"/>
</filter>
</defs>
</svg>
