<svg width="230" height="239" viewBox="0 0 230 239" fill="none" xmlns="http://www.w3.org/2000/svg">
<path d="M109.687 224.749L114.097 214.949H115.889L120.313 224.749H118.409L114.615 215.915H115.343L111.563 224.749H109.687ZM111.717 222.481L112.207 221.053H117.499L117.989 222.481H111.717Z" fill="black"/>
<path d="M7.82839 119.151V109.351H12.1124C13.1764 109.351 14.1097 109.556 14.9124 109.967C15.7151 110.378 16.3404 110.947 16.7884 111.675C17.2364 112.403 17.4604 113.262 17.4604 114.251C17.4604 115.231 17.2364 116.09 16.7884 116.827C16.3404 117.555 15.7151 118.124 14.9124 118.535C14.1097 118.946 13.1764 119.151 12.1124 119.151H7.82839ZM9.64839 117.611H12.0284C12.7657 117.611 13.4004 117.471 13.9324 117.191C14.4737 116.911 14.8891 116.519 15.1784 116.015C15.4771 115.511 15.6264 114.923 15.6264 114.251C15.6264 113.57 15.4771 112.982 15.1784 112.487C14.8891 111.983 14.4737 111.591 13.9324 111.311C13.4004 111.031 12.7657 110.891 12.0284 110.891H9.64839V117.611Z" fill="black"/>
<path d="M213.695 119.151V109.351H218.287C219.463 109.351 220.359 109.584 220.975 110.051C221.591 110.508 221.899 111.124 221.899 111.899C221.899 112.422 221.778 112.87 221.535 113.243C221.292 113.607 220.966 113.892 220.555 114.097C220.154 114.293 219.715 114.391 219.239 114.391L219.491 113.887C220.042 113.887 220.536 113.99 220.975 114.195C221.414 114.391 221.759 114.68 222.011 115.063C222.272 115.446 222.403 115.922 222.403 116.491C222.403 117.331 222.081 117.984 221.437 118.451C220.793 118.918 219.836 119.151 218.567 119.151H213.695ZM215.515 117.723H218.455C219.136 117.723 219.659 117.611 220.023 117.387C220.387 117.163 220.569 116.804 220.569 116.309C220.569 115.824 220.387 115.469 220.023 115.245C219.659 115.012 219.136 114.895 218.455 114.895H215.375V113.481H218.091C218.726 113.481 219.211 113.369 219.547 113.145C219.892 112.921 220.065 112.585 220.065 112.137C220.065 111.68 219.892 111.339 219.547 111.115C219.211 110.891 218.726 110.779 218.091 110.779H215.515V117.723Z" fill="black"/>
<path d="M115.766 15.14C115.02 15.14 114.324 15.0187 113.68 14.776C113.046 14.524 112.49 14.174 112.014 13.726C111.548 13.2687 111.184 12.732 110.922 12.116C110.661 11.5 110.53 10.828 110.53 10.1C110.53 9.372 110.661 8.7 110.922 8.084C111.184 7.468 111.552 6.936 112.028 6.488C112.504 6.03067 113.06 5.68067 113.694 5.438C114.329 5.186 115.024 5.06 115.78 5.06C116.583 5.06 117.316 5.2 117.978 5.48C118.641 5.75067 119.201 6.15667 119.658 6.698L118.482 7.804C118.128 7.42133 117.731 7.13667 117.292 6.95C116.854 6.754 116.378 6.656 115.864 6.656C115.351 6.656 114.88 6.74 114.45 6.908C114.03 7.076 113.662 7.314 113.344 7.622C113.036 7.93 112.794 8.294 112.616 8.714C112.448 9.134 112.364 9.596 112.364 10.1C112.364 10.604 112.448 11.066 112.616 11.486C112.794 11.906 113.036 12.27 113.344 12.578C113.662 12.886 114.03 13.124 114.45 13.292C114.88 13.46 115.351 13.544 115.864 13.544C116.378 13.544 116.854 13.4507 117.292 13.264C117.731 13.068 118.128 12.774 118.482 12.382L119.658 13.502C119.201 14.034 118.641 14.44 117.978 14.72C117.316 15 116.578 15.14 115.766 15.14Z" fill="black"/>
<path d="M24.5913 119.34L115 28.9309L205.409 119.34L115 209.749L24.5913 119.34Z" fill="white" stroke="black" stroke-width="2"/>
<path d="M115 30.3774V208.302" stroke="#FFC100" stroke-width="2" stroke-dasharray="2 2"/>
<path d="M25.3145 119.34H204.686" stroke="#DF2828" stroke-width="2" stroke-dasharray="2 2"/>
<path d="M84.1145 97.3226C84.7385 97.2746 85.0465 97.2506 85.0385 97.2506C85.1105 97.2506 85.1585 97.2786 85.1825 97.3346C85.1905 97.3666 84.9025 98.5586 84.3185 100.911L83.4065 104.559C83.3905 104.743 83.3905 104.891 83.4065 105.003C83.4225 105.043 83.4465 105.075 83.4785 105.099C83.5025 105.123 83.5385 105.135 83.5865 105.135C83.6425 105.135 83.6865 105.127 83.7185 105.111C83.8705 104.999 84.0265 104.635 84.1865 104.019C84.2265 103.867 84.2585 103.783 84.2825 103.767C84.2985 103.751 84.3945 103.743 84.5705 103.743C84.7465 103.743 84.8465 103.751 84.8705 103.767C84.8865 103.783 84.8945 103.815 84.8945 103.863C84.8945 103.911 84.8745 104.007 84.8345 104.151C84.5385 105.159 84.1185 105.679 83.5745 105.711C83.1665 105.735 82.8385 105.595 82.5905 105.291C82.5505 105.243 82.5145 105.191 82.4825 105.135C82.4665 105.087 82.4545 105.063 82.4465 105.063L82.3625 105.135C82.0825 105.383 81.8065 105.547 81.5345 105.627C81.0145 105.803 80.5465 105.723 80.1305 105.387C80.0825 105.347 80.0385 105.303 79.9985 105.255C79.8785 105.135 79.7785 104.991 79.6985 104.823C79.4985 104.415 79.4345 103.931 79.5065 103.371C79.6345 102.459 80.0225 101.691 80.6705 101.067C81.0865 100.667 81.5385 100.415 82.0265 100.311C82.0985 100.295 82.2105 100.287 82.3625 100.287C82.5625 100.287 82.7345 100.319 82.8785 100.383C82.9905 100.439 83.0945 100.515 83.1905 100.611C83.2545 100.675 83.2865 100.699 83.2865 100.683C83.2945 100.675 83.3945 100.291 83.5865 99.5306C83.7705 98.7866 83.8665 98.3706 83.8745 98.2826C83.8745 98.2106 83.8665 98.1666 83.8505 98.1506C83.7945 98.0946 83.6225 98.0626 83.3345 98.0546C83.1425 98.0546 83.0305 98.0266 82.9985 97.9706L82.9865 97.9346L83.0465 97.6946C83.0785 97.5426 83.1105 97.4506 83.1425 97.4186C83.1665 97.3946 83.1905 97.3826 83.2145 97.3826L84.1145 97.3226ZM82.4105 100.851C82.0825 100.795 81.7665 100.951 81.4625 101.319C81.3825 101.423 81.3105 101.535 81.2465 101.655C81.1265 101.887 80.9825 102.343 80.8145 103.023C80.7105 103.407 80.6345 103.743 80.5865 104.031C80.5545 104.303 80.5545 104.511 80.5865 104.655C80.6665 104.935 80.8225 105.095 81.0545 105.135C81.1905 105.159 81.3545 105.131 81.5465 105.051C81.8345 104.891 82.1065 104.623 82.3625 104.247L82.4225 104.163L82.7225 102.963L83.0225 101.763L82.9985 101.679C82.9265 101.223 82.7505 100.951 82.4705 100.863C82.4545 100.855 82.4345 100.851 82.4105 100.851ZM87.5395 100.259L87.6115 100.251H87.6195C87.6781 100.251 87.7155 100.269 87.7315 100.307C87.7368 100.328 87.5448 101.125 87.1555 102.699C86.7555 104.277 86.5555 105.069 86.5555 105.075C86.5501 105.091 86.5875 105.104 86.6675 105.115C86.7475 105.12 86.8781 105.125 87.0595 105.131C87.2675 105.131 87.3795 105.149 87.3955 105.187C87.4061 105.203 87.3981 105.264 87.3715 105.371C87.3395 105.483 87.3181 105.544 87.3075 105.555L87.2835 105.579H87.1555C86.5688 105.552 85.8835 105.549 85.0995 105.571C84.9181 105.576 84.8168 105.56 84.7955 105.523C84.7901 105.507 84.7981 105.445 84.8195 105.339C84.8515 105.232 84.8728 105.171 84.8835 105.155L84.9155 105.131H85.2195C85.5448 105.125 85.7341 105.104 85.7875 105.067C85.8088 105.056 85.9661 104.453 86.2595 103.259L86.7075 101.467L86.6035 101.523C86.3688 101.64 86.1368 101.707 85.9075 101.723C85.8061 101.733 85.7421 101.717 85.7155 101.675L85.7075 101.651L85.7395 101.507C85.7715 101.379 85.8008 101.307 85.8275 101.291C85.8328 101.291 85.8781 101.285 85.9635 101.275C86.1608 101.259 86.3661 101.2 86.5795 101.099C86.9261 100.923 87.2248 100.667 87.4755 100.331C87.4915 100.309 87.5128 100.285 87.5395 100.259Z" fill="black"/>
<path d="M126.064 140.719C126.688 140.671 126.996 140.647 126.988 140.647C127.06 140.647 127.108 140.675 127.132 140.731C127.14 140.763 126.852 141.955 126.268 144.307L125.356 147.955C125.34 148.139 125.34 148.287 125.356 148.399C125.372 148.439 125.396 148.471 125.428 148.495C125.452 148.519 125.488 148.531 125.536 148.531C125.592 148.531 125.636 148.523 125.668 148.507C125.82 148.395 125.976 148.031 126.136 147.415C126.176 147.263 126.208 147.179 126.232 147.163C126.248 147.147 126.344 147.139 126.52 147.139C126.696 147.139 126.796 147.147 126.82 147.163C126.836 147.179 126.844 147.211 126.844 147.259C126.844 147.307 126.824 147.403 126.784 147.547C126.488 148.555 126.068 149.075 125.524 149.107C125.116 149.131 124.788 148.991 124.54 148.687C124.5 148.639 124.464 148.587 124.432 148.531C124.416 148.483 124.404 148.459 124.396 148.459L124.312 148.531C124.032 148.779 123.756 148.943 123.484 149.023C122.964 149.199 122.496 149.119 122.08 148.783C122.032 148.743 121.988 148.699 121.948 148.651C121.828 148.531 121.728 148.387 121.648 148.219C121.448 147.811 121.384 147.327 121.456 146.767C121.584 145.855 121.972 145.087 122.62 144.463C123.036 144.063 123.488 143.811 123.976 143.707C124.048 143.691 124.16 143.683 124.312 143.683C124.512 143.683 124.684 143.715 124.828 143.779C124.94 143.835 125.044 143.911 125.14 144.007C125.204 144.071 125.236 144.095 125.236 144.079C125.244 144.071 125.344 143.687 125.536 142.927C125.72 142.183 125.816 141.767 125.824 141.679C125.824 141.607 125.816 141.563 125.8 141.547C125.744 141.491 125.572 141.459 125.284 141.451C125.092 141.451 124.98 141.423 124.948 141.367L124.936 141.331L124.996 141.091C125.028 140.939 125.06 140.847 125.092 140.815C125.116 140.791 125.14 140.779 125.164 140.779L126.064 140.719ZM124.36 144.247C124.032 144.191 123.716 144.347 123.412 144.715C123.332 144.819 123.26 144.931 123.196 145.051C123.076 145.283 122.932 145.739 122.764 146.419C122.66 146.803 122.584 147.139 122.536 147.427C122.504 147.699 122.504 147.907 122.536 148.051C122.616 148.331 122.772 148.491 123.004 148.531C123.14 148.555 123.304 148.527 123.496 148.447C123.784 148.287 124.056 148.019 124.312 147.643L124.372 147.559L124.672 146.359L124.972 145.159L124.948 145.075C124.876 144.619 124.7 144.347 124.42 144.259C124.404 144.251 124.384 144.247 124.36 144.247ZM128.873 143.655L129.081 143.647H129.089C129.27 143.652 129.441 143.692 129.601 143.767C129.836 143.884 130.014 144.063 130.137 144.303C130.244 144.511 130.297 144.748 130.297 145.015C130.297 145.154 130.284 145.287 130.257 145.415C130.204 145.682 130.084 145.932 129.897 146.167C129.838 146.247 129.713 146.375 129.521 146.551C129.286 146.738 128.977 146.948 128.593 147.183C128.465 147.252 128.35 147.322 128.249 147.391C127.94 147.572 127.66 147.815 127.409 148.119C127.414 148.162 127.425 148.186 127.441 148.191C127.542 148.191 127.761 148.223 128.097 148.287C128.545 148.372 128.838 148.404 128.977 148.383C129.217 148.346 129.414 148.191 129.569 147.919C129.606 147.85 129.638 147.78 129.665 147.711C129.686 147.642 129.71 147.604 129.737 147.599C129.753 147.594 129.809 147.591 129.905 147.591H130.081L130.105 147.615C130.121 147.631 130.129 147.65 130.129 147.671C130.118 147.73 130.081 147.842 130.017 148.007C129.793 148.572 129.478 148.932 129.073 149.087C129.025 149.103 128.98 149.116 128.937 149.127C128.894 149.138 128.825 149.143 128.729 149.143C128.633 149.143 128.561 149.138 128.513 149.127C128.364 149.09 128.185 149.002 127.977 148.863C127.705 148.687 127.489 148.588 127.329 148.567C127.222 148.551 127.137 148.586 127.073 148.671C127.036 148.724 126.99 148.836 126.937 149.007C126.91 149.092 126.884 149.138 126.857 149.143C126.836 149.148 126.777 149.151 126.681 149.151H126.513L126.489 149.127C126.468 149.1 126.47 149.044 126.497 148.959C126.689 148.287 127.094 147.719 127.713 147.255C127.825 147.17 127.94 147.092 128.057 147.023C128.665 146.66 129.078 146.255 129.297 145.807C129.361 145.674 129.425 145.458 129.489 145.159C129.526 144.978 129.545 144.815 129.545 144.671C129.545 144.522 129.524 144.402 129.481 144.311C129.412 144.172 129.3 144.082 129.145 144.039C129.065 144.018 128.961 144.018 128.833 144.039C128.721 144.066 128.636 144.095 128.577 144.127C128.342 144.239 128.137 144.434 127.961 144.711C127.886 144.818 127.804 144.975 127.713 145.183C127.548 145.588 127.518 145.828 127.625 145.903C127.657 145.924 127.713 145.919 127.793 145.887C127.969 145.828 128.113 145.655 128.225 145.367C128.23 145.351 128.236 145.338 128.241 145.327C128.321 145.119 128.329 144.954 128.265 144.831C128.233 144.778 128.225 144.738 128.241 144.711C128.3 144.652 128.377 144.591 128.473 144.527C128.505 144.506 128.534 144.514 128.561 144.551C128.593 144.588 128.622 144.65 128.649 144.735C128.713 144.916 128.697 145.138 128.601 145.399C128.436 145.831 128.196 146.108 127.881 146.231C127.854 146.242 127.825 146.252 127.793 146.263C127.692 146.29 127.596 146.295 127.505 146.279C127.297 146.231 127.174 146.09 127.137 145.855C127.121 145.748 127.126 145.639 127.153 145.527C127.212 145.25 127.326 144.972 127.497 144.695C127.801 144.172 128.193 143.842 128.673 143.703C128.742 143.682 128.809 143.666 128.873 143.655Z" fill="black"/>
<path d="M178.214 49.6697C178.75 49.5897 179.174 49.7017 179.486 50.0057C179.558 50.0697 179.614 50.1457 179.654 50.2337C179.726 50.3697 179.762 50.5177 179.762 50.6777C179.762 51.1097 179.578 51.3697 179.21 51.4577C179.114 51.4817 179.022 51.4817 178.934 51.4577C178.726 51.4097 178.614 51.2817 178.598 51.0737C178.598 50.9537 178.622 50.8417 178.67 50.7377C178.75 50.5937 178.834 50.5017 178.922 50.4617C178.946 50.4457 178.962 50.4337 178.97 50.4257C178.97 50.3937 178.894 50.3417 178.742 50.2697C178.566 50.1977 178.382 50.1857 178.19 50.2337C177.926 50.3057 177.738 50.4897 177.626 50.7857C177.594 50.8897 177.578 50.9977 177.578 51.1097C177.594 51.2377 177.634 51.3377 177.698 51.4097C177.754 51.4737 177.906 51.5337 178.154 51.5897C178.458 51.6617 178.658 51.7217 178.754 51.7697C179.09 51.9377 179.314 52.1977 179.426 52.5497C179.466 52.6777 179.486 52.8377 179.486 53.0297C179.478 53.1977 179.442 53.3857 179.378 53.5937C179.314 53.7857 179.21 53.9857 179.066 54.1937C178.922 54.3937 178.758 54.5577 178.574 54.6857C178.294 54.8777 177.97 55.0017 177.602 55.0577C177.378 55.0897 177.134 55.0937 176.87 55.0697C176.854 55.0617 176.838 55.0577 176.822 55.0577C176.35 54.9617 176.026 54.7857 175.85 54.5297C175.754 54.3857 175.698 54.2697 175.682 54.1817C175.666 54.1337 175.658 54.0497 175.658 53.9297C175.65 53.7537 175.682 53.5977 175.754 53.4617C175.866 53.2217 176.058 53.0777 176.33 53.0297C176.41 53.0217 176.478 53.0217 176.534 53.0297C176.782 53.0697 176.926 53.2017 176.966 53.4257C177.006 53.6657 176.918 53.8897 176.702 54.0977C176.654 54.1377 176.606 54.1697 176.558 54.1937L176.474 54.2417L176.546 54.2897C176.682 54.4017 176.85 54.4697 177.05 54.4937C177.458 54.5577 177.802 54.4817 178.082 54.2657C178.258 54.1217 178.382 53.9217 178.454 53.6657C178.47 53.5457 178.47 53.4297 178.454 53.3177C178.398 53.1337 178.27 53.0017 178.07 52.9217C177.974 52.8897 177.846 52.8577 177.686 52.8257C177.486 52.7857 177.35 52.7497 177.278 52.7177C176.934 52.5897 176.706 52.3297 176.594 51.9377C176.578 51.8657 176.57 51.7497 176.57 51.5897C176.57 51.4297 176.578 51.3097 176.594 51.2297C176.714 50.7577 176.926 50.3817 177.23 50.1017C177.494 49.8617 177.822 49.7177 178.214 49.6697Z" fill="black"/>
<path d="M157.673 150.44L172.862 169.245" stroke="black"/>
<path d="M63.6477 62.2012L78.8364 81.0062" stroke="black"/>
<path d="M73.0505 150.44L57.8618 169.245" stroke="black"/>
<path d="M167.075 62.2012L151.887 81.0062" stroke="black"/>
</svg>
