<svg width="300" height="176" viewBox="0 0 300 176" fill="none" xmlns="http://www.w3.org/2000/svg">
<path d="M77.3503 25.1045L21.3389 150.628H222.98L278.991 25.1045H77.3503Z" fill="white" stroke="black" stroke-width="3"/>
<path d="M5.35629 165.628L9.76629 155.828H11.5583L15.9823 165.628H14.0783L10.2843 156.794H11.0123L7.23229 165.628H5.35629ZM7.38629 163.36L7.87629 161.932H13.1683L13.6583 163.36H7.38629Z" fill="black"/>
<path d="M74.976 159.274H79.848V160.772H74.976V159.274ZM75.116 163.474H80.646V165H73.296V155.2H80.45V156.726H75.116V163.474Z" fill="black"/>
<path d="M62.6876 15V5.2H66.9716C68.0356 5.2 68.9689 5.40533 69.7716 5.816C70.5743 6.22667 71.1996 6.796 71.6476 7.524C72.0956 8.252 72.3196 9.11067 72.3196 10.1C72.3196 11.08 72.0956 11.9387 71.6476 12.676C71.1996 13.404 70.5743 13.9733 69.7716 14.384C68.9689 14.7947 68.0356 15 66.9716 15H62.6876ZM64.5076 13.46H66.8876C67.6249 13.46 68.2596 13.32 68.7916 13.04C69.3329 12.76 69.7483 12.368 70.0376 11.864C70.3363 11.36 70.4856 10.772 70.4856 10.1C70.4856 9.41867 70.3363 8.83067 70.0376 8.336C69.7483 7.832 69.3329 7.44 68.7916 7.16C68.2596 6.88 67.6249 6.74 66.8876 6.74H64.5076V13.46Z" fill="black"/>
<path d="M228.836 165.628V155.828H233.428C234.604 155.828 235.5 156.061 236.116 156.528C236.732 156.985 237.04 157.601 237.04 158.376C237.04 158.898 236.919 159.346 236.676 159.72C236.433 160.084 236.107 160.368 235.696 160.574C235.295 160.77 234.856 160.868 234.38 160.868L234.632 160.364C235.183 160.364 235.677 160.466 236.116 160.672C236.555 160.868 236.9 161.157 237.152 161.54C237.413 161.922 237.544 162.398 237.544 162.968C237.544 163.808 237.222 164.461 236.578 164.928C235.934 165.394 234.977 165.628 233.708 165.628H228.836ZM230.656 164.2H233.596C234.277 164.2 234.8 164.088 235.164 163.864C235.528 163.64 235.71 163.28 235.71 162.786C235.71 162.3 235.528 161.946 235.164 161.722C234.8 161.488 234.277 161.372 233.596 161.372H230.516V159.958H233.232C233.867 159.958 234.352 159.846 234.688 159.622C235.033 159.398 235.206 159.062 235.206 158.614C235.206 158.156 235.033 157.816 234.688 157.592C234.352 157.368 233.867 157.256 233.232 157.256H230.656V164.2Z" fill="black"/>
<path d="M290.097 15.14C289.35 15.14 288.655 15.0187 288.011 14.776C287.376 14.524 286.821 14.174 286.345 13.726C285.878 13.2687 285.514 12.732 285.253 12.116C284.991 11.5 284.861 10.828 284.861 10.1C284.861 9.372 284.991 8.7 285.253 8.084C285.514 7.468 285.883 6.936 286.359 6.488C286.835 6.03067 287.39 5.68067 288.025 5.438C288.659 5.186 289.355 5.06 290.111 5.06C290.913 5.06 291.646 5.2 292.309 5.48C292.971 5.75067 293.531 6.15667 293.989 6.698L292.813 7.804C292.458 7.42133 292.061 7.13667 291.623 6.95C291.184 6.754 290.708 6.656 290.195 6.656C289.681 6.656 289.21 6.74 288.781 6.908C288.361 7.076 287.992 7.314 287.675 7.622C287.367 7.93 287.124 8.294 286.947 8.714C286.779 9.134 286.695 9.596 286.695 10.1C286.695 10.604 286.779 11.066 286.947 11.486C287.124 11.906 287.367 12.27 287.675 12.578C287.992 12.886 288.361 13.124 288.781 13.292C289.21 13.46 289.681 13.544 290.195 13.544C290.708 13.544 291.184 13.4507 291.623 13.264C292.061 13.068 292.458 12.774 292.813 12.382L293.989 13.502C293.531 14.034 292.971 14.44 292.309 14.72C291.646 15 290.909 15.14 290.097 15.14Z" fill="black"/>
<path d="M77.8242 25.1045V150.627" stroke="#FF0000" stroke-width="2" stroke-dasharray="2 2"/>
<path d="M89.7175 80.8257C89.8295 80.7857 89.9455 80.7897 90.0655 80.8377C90.1695 80.8777 90.2455 80.9457 90.2935 81.0417C90.3335 81.1297 90.3215 81.2977 90.2575 81.5457C90.2335 81.6497 90.1815 81.8697 90.1015 82.2057C89.9335 82.8217 89.8535 83.1257 89.8615 83.1177C89.8615 83.1337 90.0335 83.1417 90.3775 83.1417H90.8935L90.9295 83.1777C90.9775 83.2097 90.9775 83.3137 90.9295 83.4897C90.9055 83.6097 90.8815 83.6937 90.8575 83.7417C90.8335 83.7817 90.7575 83.8057 90.6295 83.8137C90.5735 83.8137 90.4415 83.8137 90.2335 83.8137H89.6935L89.6815 83.8617C89.1455 85.9497 88.8655 87.0857 88.8415 87.2697C88.8255 87.3657 88.8175 87.4537 88.8175 87.5337C88.8175 87.7577 88.8815 87.8737 89.0095 87.8817C89.0575 87.8817 89.1135 87.8737 89.1775 87.8577C89.2895 87.8497 89.4095 87.7937 89.5375 87.6897C89.8175 87.4737 90.0495 87.1257 90.2335 86.6457C90.2735 86.5497 90.3175 86.4977 90.3655 86.4897C90.3895 86.4817 90.4695 86.4777 90.6055 86.4777C90.7815 86.4777 90.8775 86.4857 90.8935 86.5017C90.9415 86.5417 90.9415 86.6217 90.8935 86.7417C90.7415 87.1097 90.5615 87.4137 90.3535 87.6537C90.0335 88.0617 89.6655 88.3137 89.2495 88.4097C89.1855 88.4257 89.0815 88.4337 88.9375 88.4337C88.7935 88.4337 88.6935 88.4257 88.6375 88.4097C88.4135 88.3457 88.2335 88.2497 88.0975 88.1217C87.9695 87.9937 87.8775 87.8377 87.8215 87.6537C87.8055 87.5897 87.7975 87.4817 87.7975 87.3297V87.1017L88.2055 85.4697C88.4775 84.3977 88.6135 83.8497 88.6135 83.8257C88.6135 83.8177 88.4455 83.8137 88.1095 83.8137C87.7575 83.8137 87.5655 83.7857 87.5335 83.7297C87.5175 83.7057 87.5255 83.6177 87.5575 83.4657C87.6055 83.3057 87.6335 83.2217 87.6415 83.2137C87.6655 83.1657 87.7495 83.1417 87.8935 83.1417C87.9495 83.1417 88.0695 83.1417 88.2535 83.1417H88.7935L89.0215 82.2057C89.1735 81.5897 89.2695 81.2417 89.3095 81.1617C89.3815 81.0017 89.5175 80.8897 89.7175 80.8257Z" fill="black"/>
<path d="M121.905 158.336L122.145 158.324H122.157C122.333 158.332 122.489 158.372 122.625 158.444C122.761 158.508 122.881 158.596 122.985 158.708L123.081 158.804L123.153 158.744C123.345 158.56 123.553 158.512 123.777 158.6C123.889 158.64 123.965 158.708 124.005 158.804C124.037 158.892 124.029 159.048 123.981 159.272C123.941 159.448 123.817 159.944 123.609 160.76C123.321 161.928 123.173 162.536 123.165 162.584C123.133 162.808 123.129 162.964 123.153 163.052C123.169 163.092 123.193 163.124 123.225 163.148C123.249 163.172 123.285 163.184 123.333 163.184C123.389 163.184 123.433 163.176 123.465 163.16C123.617 163.048 123.773 162.684 123.933 162.068C123.973 161.916 124.005 161.832 124.029 161.816C124.045 161.8 124.141 161.792 124.317 161.792C124.493 161.792 124.593 161.8 124.617 161.816C124.633 161.832 124.641 161.864 124.641 161.912C124.641 161.96 124.621 162.056 124.581 162.2C124.285 163.208 123.865 163.728 123.321 163.76C122.913 163.784 122.585 163.644 122.337 163.34C122.297 163.292 122.261 163.24 122.229 163.184C122.213 163.136 122.201 163.112 122.193 163.112L122.109 163.184C121.829 163.432 121.553 163.596 121.281 163.676C120.761 163.852 120.293 163.772 119.877 163.436C119.829 163.396 119.785 163.352 119.745 163.304C119.625 163.184 119.525 163.04 119.445 162.872C119.205 162.384 119.157 161.812 119.301 161.156C119.485 160.284 119.901 159.564 120.549 158.996C120.981 158.62 121.433 158.4 121.905 158.336ZM122.157 158.9C121.829 158.844 121.513 159 121.209 159.368C121.129 159.472 121.057 159.584 120.993 159.704C120.873 159.936 120.729 160.392 120.561 161.072C120.457 161.456 120.381 161.792 120.333 162.08C120.301 162.352 120.301 162.56 120.333 162.704C120.413 162.984 120.569 163.144 120.801 163.184C120.937 163.208 121.101 163.18 121.293 163.1C121.581 162.94 121.853 162.672 122.109 162.296L122.169 162.212L122.469 161.024L122.769 159.824L122.745 159.728C122.673 159.272 122.493 159 122.205 158.912C122.189 158.904 122.173 158.9 122.157 158.9Z" fill="black"/>
</svg>
