<svg width="183" height="268" viewBox="0 0 183 268" fill="none" xmlns="http://www.w3.org/2000/svg">
<path d="M86.187 253.632L90.597 243.832H92.389L96.813 253.632H94.909L91.115 244.798H91.843L88.063 253.632H86.187ZM88.217 251.364L88.707 249.936H93.999L94.489 251.364H88.217Z" fill="black"/>
<path d="M7.9768 95.52V85.72H12.2608C13.3248 85.72 14.2581 85.9254 15.0608 86.336C15.8635 86.7467 16.4888 87.316 16.9368 88.044C17.3848 88.772 17.6088 89.6307 17.6088 90.62C17.6088 91.6 17.3848 92.4587 16.9368 93.196C16.4888 93.924 15.8635 94.4934 15.0608 94.904C14.2581 95.3147 13.3248 95.52 12.2608 95.52H7.9768ZM9.7968 93.98H12.1768C12.9141 93.98 13.5488 93.84 14.0808 93.56C14.6221 93.28 15.0375 92.888 15.3268 92.384C15.6255 91.88 15.7748 91.292 15.7748 90.62C15.7748 89.9387 15.6255 89.3507 15.3268 88.856C15.0375 88.352 14.6221 87.96 14.0808 87.68C13.5488 87.4 12.9141 87.26 12.1768 87.26H9.7968V93.98Z" fill="black"/>
<path d="M166.547 95.52V85.72H171.139C172.315 85.72 173.211 85.9534 173.827 86.42C174.443 86.8774 174.751 87.4934 174.751 88.268C174.751 88.7907 174.629 89.2387 174.387 89.612C174.144 89.976 173.817 90.2607 173.407 90.466C173.005 90.662 172.567 90.76 172.091 90.76L172.343 90.256C172.893 90.256 173.388 90.3587 173.827 90.564C174.265 90.76 174.611 91.0494 174.863 91.432C175.124 91.8147 175.255 92.2907 175.255 92.86C175.255 93.7 174.933 94.3534 174.289 94.82C173.645 95.2867 172.688 95.52 171.419 95.52H166.547ZM168.367 94.092H171.307C171.988 94.092 172.511 93.98 172.875 93.756C173.239 93.532 173.421 93.1727 173.421 92.678C173.421 92.1927 173.239 91.838 172.875 91.614C172.511 91.3807 171.988 91.264 171.307 91.264H168.227V89.85H170.943C171.577 89.85 172.063 89.738 172.399 89.514C172.744 89.29 172.917 88.954 172.917 88.506C172.917 88.0487 172.744 87.708 172.399 87.484C172.063 87.26 171.577 87.148 170.943 87.148H168.367V94.092Z" fill="black"/>
<path d="M92.2662 15.14C91.5195 15.14 90.8242 15.0187 90.1802 14.776C89.5455 14.524 88.9902 14.174 88.5142 13.726C88.0475 13.2687 87.6835 12.732 87.4222 12.116C87.1609 11.5 87.0302 10.828 87.0302 10.1C87.0302 9.372 87.1609 8.7 87.4222 8.084C87.6835 7.468 88.0522 6.936 88.5282 6.488C89.0042 6.03067 89.5595 5.68067 90.1942 5.438C90.8289 5.186 91.5242 5.06 92.2802 5.06C93.0829 5.06 93.8155 5.2 94.4782 5.48C95.1409 5.75067 95.7009 6.15667 96.1582 6.698L94.9822 7.804C94.6275 7.42133 94.2309 7.13667 93.7922 6.95C93.3535 6.754 92.8775 6.656 92.3642 6.656C91.8509 6.656 91.3795 6.74 90.9502 6.908C90.5302 7.076 90.1615 7.314 89.8442 7.622C89.5362 7.93 89.2935 8.294 89.1162 8.714C88.9482 9.134 88.8642 9.596 88.8642 10.1C88.8642 10.604 88.9482 11.066 89.1162 11.486C89.2935 11.906 89.5362 12.27 89.8442 12.578C90.1615 12.886 90.5302 13.124 90.9502 13.292C91.3795 13.46 91.8509 13.544 92.3642 13.544C92.8775 13.544 93.3535 13.4507 93.7922 13.264C94.2309 13.068 94.6275 12.774 94.9822 12.382L96.1582 13.502C95.7009 14.034 95.1409 14.44 94.4782 14.72C93.8155 15 93.0782 15.14 92.2662 15.14Z" fill="black"/>
<path d="M91.4998 29.2798L158.112 93.2485L91.4998 238.632L24.8878 93.2485L91.4998 29.2798Z" fill="white" stroke="black" stroke-width="2"/>
<path d="M91.5 30.0122V237.168" stroke="#FFC100" stroke-width="2" stroke-dasharray="2 2"/>
<path d="M25.6201 93.6958H157.38" stroke="#D04848" stroke-width="2" stroke-dasharray="2 2"/>
<path d="M105.615 127.72C106.239 127.672 106.547 127.648 106.539 127.648C106.611 127.648 106.659 127.676 106.683 127.732C106.691 127.764 106.403 128.956 105.819 131.308L104.907 134.956C104.891 135.14 104.891 135.288 104.907 135.4C104.923 135.44 104.947 135.472 104.979 135.496C105.003 135.52 105.039 135.532 105.087 135.532C105.143 135.532 105.187 135.524 105.219 135.508C105.371 135.396 105.527 135.032 105.687 134.416C105.727 134.264 105.759 134.18 105.783 134.164C105.799 134.148 105.895 134.14 106.071 134.14C106.247 134.14 106.347 134.148 106.371 134.164C106.387 134.18 106.395 134.212 106.395 134.26C106.395 134.308 106.375 134.404 106.335 134.548C106.039 135.556 105.619 136.076 105.075 136.108C104.667 136.132 104.339 135.992 104.091 135.688C104.051 135.64 104.015 135.588 103.983 135.532C103.967 135.484 103.955 135.46 103.947 135.46L103.863 135.532C103.583 135.78 103.307 135.944 103.035 136.024C102.515 136.2 102.047 136.12 101.631 135.784C101.583 135.744 101.539 135.7 101.499 135.652C101.379 135.532 101.279 135.388 101.199 135.22C100.999 134.812 100.935 134.328 101.007 133.768C101.135 132.856 101.523 132.088 102.171 131.464C102.587 131.064 103.039 130.812 103.527 130.708C103.599 130.692 103.711 130.684 103.863 130.684C104.063 130.684 104.235 130.716 104.379 130.78C104.491 130.836 104.595 130.912 104.691 131.008C104.755 131.072 104.787 131.096 104.787 131.08C104.795 131.072 104.895 130.688 105.087 129.928C105.271 129.184 105.367 128.768 105.375 128.68C105.375 128.608 105.367 128.564 105.351 128.548C105.295 128.492 105.123 128.46 104.835 128.452C104.643 128.452 104.531 128.424 104.499 128.368L104.487 128.332L104.547 128.092C104.579 127.94 104.611 127.848 104.643 127.816C104.667 127.792 104.691 127.78 104.715 127.78L105.615 127.72ZM103.911 131.248C103.583 131.192 103.267 131.348 102.963 131.716C102.883 131.82 102.811 131.932 102.747 132.052C102.627 132.284 102.483 132.74 102.315 133.42C102.211 133.804 102.135 134.14 102.087 134.428C102.055 134.7 102.055 134.908 102.087 135.052C102.167 135.332 102.323 135.492 102.555 135.532C102.691 135.556 102.855 135.528 103.047 135.448C103.335 135.288 103.607 135.02 103.863 134.644L103.923 134.56L104.223 133.36L104.523 132.16L104.499 132.076C104.427 131.62 104.251 131.348 103.971 131.26C103.955 131.252 103.935 131.248 103.911 131.248ZM109.039 130.656L109.111 130.648H109.119C109.178 130.648 109.215 130.667 109.231 130.704C109.237 130.725 109.045 131.523 108.655 133.096C108.255 134.675 108.055 135.467 108.055 135.472C108.05 135.488 108.087 135.501 108.167 135.512C108.247 135.517 108.378 135.523 108.559 135.528C108.767 135.528 108.879 135.547 108.895 135.584C108.906 135.6 108.898 135.661 108.871 135.768C108.839 135.88 108.818 135.941 108.807 135.952L108.783 135.976H108.655C108.069 135.949 107.383 135.947 106.599 135.968C106.418 135.973 106.317 135.957 106.295 135.92C106.29 135.904 106.298 135.843 106.319 135.736C106.351 135.629 106.373 135.568 106.383 135.552L106.415 135.528H106.719C107.045 135.523 107.234 135.501 107.287 135.464C107.309 135.453 107.466 134.851 107.759 133.656L108.207 131.864L108.103 131.92C107.869 132.037 107.637 132.104 107.407 132.12C107.306 132.131 107.242 132.115 107.215 132.072L107.207 132.048L107.239 131.904C107.271 131.776 107.301 131.704 107.327 131.688C107.333 131.688 107.378 131.683 107.463 131.672C107.661 131.656 107.866 131.597 108.079 131.496C108.426 131.32 108.725 131.064 108.975 130.728C108.991 130.707 109.013 130.683 109.039 130.656Z" fill="black"/>
<path d="M76.3347 72.0882C76.9587 72.0402 77.2667 72.0162 77.2587 72.0162C77.3307 72.0162 77.3787 72.0442 77.4027 72.1002C77.4107 72.1322 77.1227 73.3242 76.5387 75.6762L75.6267 79.3242C75.6107 79.5082 75.6107 79.6562 75.6267 79.7682C75.6427 79.8082 75.6667 79.8402 75.6987 79.8642C75.7227 79.8882 75.7587 79.9002 75.8067 79.9002C75.8627 79.9002 75.9067 79.8922 75.9387 79.8762C76.0907 79.7642 76.2467 79.4002 76.4067 78.7842C76.4467 78.6322 76.4787 78.5482 76.5027 78.5322C76.5187 78.5162 76.6147 78.5082 76.7907 78.5082C76.9667 78.5082 77.0667 78.5162 77.0907 78.5322C77.1067 78.5482 77.1147 78.5802 77.1147 78.6282C77.1147 78.6762 77.0947 78.7722 77.0547 78.9162C76.7587 79.9242 76.3387 80.4442 75.7947 80.4762C75.3867 80.5002 75.0587 80.3602 74.8107 80.0562C74.7707 80.0082 74.7347 79.9562 74.7027 79.9002C74.6867 79.8522 74.6747 79.8282 74.6667 79.8282L74.5827 79.9002C74.3027 80.1482 74.0267 80.3122 73.7547 80.3922C73.2347 80.5682 72.7667 80.4882 72.3507 80.1522C72.3027 80.1122 72.2587 80.0682 72.2187 80.0202C72.0987 79.9002 71.9987 79.7562 71.9187 79.5882C71.7187 79.1802 71.6547 78.6962 71.7267 78.1362C71.8547 77.2242 72.2427 76.4562 72.8907 75.8322C73.3067 75.4322 73.7587 75.1802 74.2467 75.0762C74.3187 75.0602 74.4307 75.0522 74.5827 75.0522C74.7827 75.0522 74.9547 75.0842 75.0987 75.1482C75.2107 75.2042 75.3147 75.2802 75.4107 75.3762C75.4747 75.4402 75.5067 75.4642 75.5067 75.4482C75.5147 75.4402 75.6147 75.0562 75.8067 74.2962C75.9907 73.5522 76.0867 73.1362 76.0947 73.0482C76.0947 72.9762 76.0867 72.9322 76.0707 72.9162C76.0147 72.8602 75.8427 72.8282 75.5547 72.8202C75.3627 72.8202 75.2507 72.7922 75.2187 72.7362L75.2067 72.7002L75.2667 72.4602C75.2987 72.3082 75.3307 72.2162 75.3627 72.1842C75.3867 72.1602 75.4107 72.1482 75.4347 72.1482L76.3347 72.0882ZM74.6307 75.6162C74.3027 75.5602 73.9867 75.7162 73.6827 76.0842C73.6027 76.1882 73.5307 76.3002 73.4667 76.4202C73.3467 76.6522 73.2027 77.1082 73.0347 77.7882C72.9307 78.1722 72.8547 78.5082 72.8067 78.7962C72.7747 79.0682 72.7747 79.2762 72.8067 79.4202C72.8867 79.7002 73.0427 79.8602 73.2747 79.9002C73.4107 79.9242 73.5747 79.8962 73.7667 79.8162C74.0547 79.6562 74.3267 79.3882 74.5827 79.0122L74.6427 78.9282L74.9427 77.7282L75.2427 76.5282L75.2187 76.4442C75.1467 75.9882 74.9707 75.7162 74.6907 75.6282C74.6747 75.6202 74.6547 75.6162 74.6307 75.6162ZM79.1436 75.0242L79.3516 75.0162H79.3596C79.541 75.0216 79.7116 75.0616 79.8716 75.1362C80.1063 75.2536 80.285 75.4322 80.4076 75.6722C80.5143 75.8802 80.5676 76.1176 80.5676 76.3842C80.5676 76.5229 80.5543 76.6562 80.5276 76.7842C80.4743 77.0509 80.3543 77.3016 80.1676 77.5362C80.109 77.6162 79.9836 77.7442 79.7916 77.9202C79.557 78.1069 79.2476 78.3176 78.8636 78.5522C78.7356 78.6216 78.621 78.6909 78.5196 78.7602C78.2103 78.9416 77.9303 79.1842 77.6796 79.4882C77.685 79.5309 77.6956 79.5549 77.7116 79.5602C77.813 79.5602 78.0316 79.5922 78.3676 79.6562C78.8156 79.7416 79.109 79.7736 79.2476 79.7522C79.4876 79.7149 79.685 79.5602 79.8396 79.2882C79.877 79.2189 79.909 79.1496 79.9356 79.0802C79.957 79.0109 79.981 78.9736 80.0076 78.9682C80.0236 78.9629 80.0796 78.9602 80.1756 78.9602H80.3516L80.3756 78.9842C80.3916 79.0002 80.3996 79.0189 80.3996 79.0402C80.389 79.0989 80.3516 79.2109 80.2876 79.3762C80.0636 79.9416 79.749 80.3016 79.3436 80.4562C79.2956 80.4722 79.2503 80.4856 79.2076 80.4962C79.165 80.5069 79.0956 80.5122 78.9996 80.5122C78.9036 80.5122 78.8316 80.5069 78.7836 80.4962C78.6343 80.4589 78.4556 80.3709 78.2476 80.2322C77.9756 80.0562 77.7596 79.9576 77.5996 79.9362C77.493 79.9202 77.4076 79.9549 77.3436 80.0402C77.3063 80.0936 77.261 80.2056 77.2076 80.3762C77.181 80.4616 77.1543 80.5069 77.1276 80.5122C77.1063 80.5176 77.0476 80.5202 76.9516 80.5202H76.7836L76.7596 80.4962C76.7383 80.4696 76.741 80.4136 76.7676 80.3282C76.9596 79.6562 77.365 79.0882 77.9836 78.6242C78.0956 78.5389 78.2103 78.4616 78.3276 78.3922C78.9356 78.0296 79.349 77.6242 79.5676 77.1762C79.6316 77.0429 79.6956 76.8269 79.7596 76.5282C79.797 76.3469 79.8156 76.1842 79.8156 76.0402C79.8156 75.8909 79.7943 75.7709 79.7516 75.6802C79.6823 75.5416 79.5703 75.4509 79.4156 75.4082C79.3356 75.3869 79.2316 75.3869 79.1036 75.4082C78.9916 75.4349 78.9063 75.4642 78.8476 75.4962C78.613 75.6082 78.4076 75.8029 78.2316 76.0802C78.157 76.1869 78.0743 76.3442 77.9836 76.5522C77.8183 76.9576 77.789 77.1976 77.8956 77.2722C77.9276 77.2936 77.9836 77.2882 78.0636 77.2562C78.2396 77.1976 78.3836 77.0242 78.4956 76.7362C78.501 76.7202 78.5063 76.7069 78.5116 76.6962C78.5916 76.4882 78.5996 76.3229 78.5356 76.2002C78.5036 76.1469 78.4956 76.1069 78.5116 76.0802C78.5703 76.0216 78.6476 75.9602 78.7436 75.8962C78.7756 75.8749 78.805 75.8829 78.8316 75.9202C78.8636 75.9576 78.893 76.0189 78.9196 76.1042C78.9836 76.2856 78.9676 76.5069 78.8716 76.7682C78.7063 77.2002 78.4663 77.4776 78.1516 77.6002C78.125 77.6109 78.0956 77.6216 78.0636 77.6322C77.9623 77.6589 77.8663 77.6642 77.7756 77.6482C77.5676 77.6002 77.445 77.4589 77.4076 77.2242C77.3916 77.1176 77.397 77.0082 77.4236 76.8962C77.4823 76.6189 77.597 76.3416 77.7676 76.0642C78.0716 75.5416 78.4636 75.2109 78.9436 75.0722C79.013 75.0509 79.0796 75.0349 79.1436 75.0242Z" fill="black"/>
<path d="M62.2201 147.864L46.8481 166.896" stroke="black" stroke-width="2"/>
<path d="M121.512 147.864L136.884 166.896" stroke="black" stroke-width="2"/>
<path d="M136.884 58.5601L121.512 77.5921" stroke="black" stroke-width="2"/>
<path d="M136.884 48.312L121.512 67.344" stroke="black" stroke-width="2"/>
<path d="M46.8482 58.5601L62.2202 77.5921" stroke="black" stroke-width="2"/>
<path d="M46.8482 48.312L62.2202 67.344" stroke="black" stroke-width="2"/>
</svg>
