<svg width="214" height="214" viewBox="0 0 214 214" fill="none" xmlns="http://www.w3.org/2000/svg">
<circle cx="107" cy="107" r="106" fill="white" stroke="black" stroke-width="2"/>
<path d="M1.72559 107H212.274" stroke="#6895D2" stroke-width="2" stroke-dasharray="2 2"/>
<path d="M107 107V213.137" stroke="#FFC100" stroke-width="2" stroke-dasharray="2 2"/>
<path d="M88.3881 145.784C88.5241 145.744 88.6961 145.748 88.9041 145.796C89.0321 145.828 89.1601 145.888 89.2881 145.976C89.4161 146.072 89.5081 146.172 89.5641 146.276L89.6121 146.348L89.7201 146.24C89.8721 146.104 90.0241 145.996 90.1761 145.916C90.4641 145.772 90.7601 145.724 91.0641 145.772C91.6001 145.86 91.9361 146.112 92.0721 146.528C92.1121 146.648 92.1281 146.776 92.1201 146.912C92.0961 147.216 91.9921 147.44 91.8081 147.584C91.5361 147.784 91.2841 147.82 91.0521 147.692C90.9561 147.644 90.8881 147.572 90.8481 147.476C90.8241 147.436 90.8081 147.372 90.8001 147.284C90.8001 147.148 90.8281 147.024 90.8841 146.912C90.9721 146.752 91.0801 146.644 91.2081 146.588C91.2561 146.564 91.2801 146.544 91.2801 146.528C91.2561 146.48 91.1801 146.432 91.0521 146.384C90.8841 146.312 90.7081 146.304 90.5241 146.36C90.2361 146.464 89.9601 146.776 89.6961 147.296C89.6641 147.36 89.5041 147.956 89.2161 149.084C88.9281 150.244 88.7601 150.86 88.7121 150.932C88.7041 150.948 88.6841 150.972 88.6521 151.004C88.4841 151.172 88.2881 151.232 88.0641 151.184C87.8641 151.128 87.7561 151.004 87.7401 150.812C87.7401 150.74 87.8921 150.092 88.1961 148.868C88.5081 147.66 88.6721 147 88.6881 146.888C88.7121 146.68 88.7041 146.528 88.6641 146.432C88.6321 146.376 88.5801 146.34 88.5081 146.324C88.4601 146.324 88.4201 146.336 88.3881 146.36C88.3081 146.416 88.2321 146.512 88.1601 146.648C88.0801 146.84 87.9801 147.164 87.8601 147.62C87.8361 147.668 87.8201 147.696 87.8121 147.704C87.7961 147.72 87.7001 147.728 87.5241 147.728H87.2601L87.2241 147.692C87.2001 147.668 87.1881 147.636 87.1881 147.596L87.2601 147.308C87.4681 146.612 87.7241 146.156 88.0281 145.94C88.1561 145.86 88.2761 145.808 88.3881 145.784Z" fill="black"/>
<path d="M110.401 87.744C111.025 87.696 111.333 87.672 111.325 87.672C111.397 87.672 111.445 87.7 111.469 87.756C111.477 87.788 111.189 88.98 110.605 91.332L109.693 94.98C109.677 95.164 109.677 95.312 109.693 95.424C109.709 95.464 109.733 95.496 109.765 95.52C109.789 95.544 109.825 95.556 109.873 95.556C109.929 95.556 109.973 95.548 110.005 95.532C110.157 95.42 110.313 95.056 110.473 94.44C110.513 94.288 110.545 94.204 110.569 94.188C110.585 94.172 110.681 94.164 110.857 94.164C111.033 94.164 111.133 94.172 111.157 94.188C111.173 94.204 111.181 94.236 111.181 94.284C111.181 94.332 111.161 94.428 111.121 94.572C110.825 95.58 110.405 96.1 109.861 96.132C109.453 96.156 109.125 96.016 108.877 95.712C108.837 95.664 108.801 95.612 108.769 95.556C108.753 95.508 108.741 95.484 108.733 95.484L108.649 95.556C108.369 95.804 108.093 95.968 107.821 96.048C107.301 96.224 106.833 96.144 106.417 95.808C106.369 95.768 106.325 95.724 106.285 95.676C106.165 95.556 106.065 95.412 105.985 95.244C105.785 94.836 105.721 94.352 105.793 93.792C105.921 92.88 106.309 92.112 106.957 91.488C107.373 91.088 107.825 90.836 108.313 90.732C108.385 90.716 108.497 90.708 108.649 90.708C108.849 90.708 109.021 90.74 109.165 90.804C109.277 90.86 109.381 90.936 109.477 91.032C109.541 91.096 109.573 91.12 109.573 91.104C109.581 91.096 109.681 90.712 109.873 89.952C110.057 89.208 110.153 88.792 110.161 88.704C110.161 88.632 110.153 88.588 110.137 88.572C110.081 88.516 109.909 88.484 109.621 88.476C109.429 88.476 109.317 88.448 109.285 88.392L109.273 88.356L109.333 88.116C109.365 87.964 109.397 87.872 109.429 87.84C109.453 87.816 109.477 87.804 109.501 87.804L110.401 87.744ZM108.697 91.272C108.369 91.216 108.053 91.372 107.749 91.74C107.669 91.844 107.597 91.956 107.533 92.076C107.413 92.308 107.269 92.764 107.101 93.444C106.997 93.828 106.921 94.164 106.873 94.452C106.841 94.724 106.841 94.932 106.873 95.076C106.953 95.356 107.109 95.516 107.341 95.556C107.477 95.58 107.641 95.552 107.833 95.472C108.121 95.312 108.393 95.044 108.649 94.668L108.709 94.584L109.009 93.384L109.309 92.184L109.285 92.1C109.213 91.644 109.037 91.372 108.757 91.284C108.741 91.276 108.721 91.272 108.697 91.272Z" fill="black"/>
</svg>
