<svg width="333" height="180" viewBox="0 0 333 180" fill="none" xmlns="http://www.w3.org/2000/svg">
<rect x="-1.49682" y="-1.5" width="281.539" height="130" transform="matrix(1 0 -0.00212011 0.999998 27.9968 25)" fill="white" stroke="black" stroke-width="3"/>
<path d="M27.5 152.5L307 24.5" stroke="#DF2828" stroke-width="3"/>
<path d="M27.5 24.5L306.5 152" stroke="#0C356A" stroke-width="3"/>
<path d="M172.5 18.5L162 31.5" stroke="black"/>
<path d="M172.5 146L162 159" stroke="black"/>
<path d="M33.5 85L23 98" stroke="black"/>
<path d="M33.5 78L23 91" stroke="black"/>
<path d="M312.5 85L302 98" stroke="black"/>
<path d="M312.5 78L302 91" stroke="black"/>
<path d="M4.18684 175L8.59684 165.2H10.3888L14.8128 175H12.9088L9.11484 166.166H9.84284L6.06284 175H4.18684ZM6.21684 172.732L6.70684 171.304H11.9988L12.4888 172.732H6.21684Z" fill="black"/>
<path d="M7.47555 85.72C7.61155 85.68 7.78355 85.684 7.99155 85.732C8.18355 85.78 8.34755 85.868 8.48355 85.996C8.61155 86.124 8.68755 86.232 8.71155 86.32L8.72355 86.356L8.79555 86.284C9.05955 86.044 9.34755 85.872 9.65955 85.768C10.0275 85.648 10.3955 85.676 10.7635 85.852C11.0755 86.004 11.3155 86.252 11.4835 86.596C11.6275 86.892 11.6995 87.228 11.6995 87.604C11.6995 87.796 11.6955 87.924 11.6875 87.988C11.5915 88.724 11.3115 89.384 10.8475 89.968C10.6795 90.184 10.5035 90.364 10.3195 90.508C9.96755 90.804 9.57955 91 9.15555 91.096C8.92355 91.144 8.71155 91.144 8.51955 91.096C8.29555 91.032 8.11555 90.932 7.97955 90.796L7.89555 90.712L7.42755 92.596C7.42755 92.612 7.43955 92.62 7.46355 92.62C7.53555 92.644 7.72755 92.656 8.03955 92.656C8.19155 92.656 8.27555 92.664 8.29155 92.68C8.33955 92.696 8.36355 92.732 8.36355 92.788L8.24355 93.256C8.21155 93.304 8.13555 93.324 8.01555 93.316C7.98355 93.316 7.92355 93.316 7.83555 93.316C6.81955 93.284 6.08355 93.288 5.62755 93.328H5.53155L5.49555 93.292C5.46355 93.26 5.44755 93.232 5.44755 93.208L5.57955 92.716C5.57955 92.7 5.59555 92.684 5.62755 92.668L5.90355 92.656H5.91555C6.13955 92.648 6.27155 92.624 6.31155 92.584C6.33555 92.56 6.58355 91.616 7.05555 89.752C7.51955 87.888 7.75955 86.908 7.77555 86.812C7.79955 86.612 7.79155 86.464 7.75155 86.368C7.71955 86.312 7.66755 86.276 7.59555 86.26C7.54755 86.26 7.50755 86.272 7.47555 86.296C7.35555 86.368 7.24355 86.564 7.13955 86.884C7.09955 86.996 7.03555 87.22 6.94755 87.556C6.92355 87.604 6.90755 87.632 6.89955 87.64C6.88355 87.656 6.78755 87.664 6.61155 87.664H6.34755L6.31155 87.628C6.28755 87.604 6.27555 87.572 6.27555 87.532L6.34755 87.256C6.54755 86.56 6.80355 86.1 7.11555 85.876C7.24355 85.796 7.36355 85.744 7.47555 85.72ZM10.2115 86.296C10.1395 86.264 10.0235 86.256 9.86355 86.272C9.63155 86.336 9.39555 86.492 9.15555 86.74C8.98755 86.908 8.85955 87.068 8.77155 87.22C8.76355 87.252 8.65555 87.664 8.44755 88.456L8.15955 89.632L8.17155 89.74C8.25955 90.172 8.43155 90.436 8.68755 90.532C8.98355 90.644 9.29155 90.536 9.61155 90.208C9.73955 90.072 9.84755 89.912 9.93555 89.728C10.0475 89.512 10.1875 89.08 10.3555 88.432C10.5235 87.752 10.6075 87.284 10.6075 87.028C10.6075 86.86 10.5875 86.728 10.5475 86.632C10.4915 86.472 10.3795 86.36 10.2115 86.296Z" fill="black"/>
<path d="M168.701 164.744C169.325 164.696 169.633 164.672 169.625 164.672C169.697 164.672 169.745 164.7 169.769 164.756C169.777 164.788 169.489 165.98 168.905 168.332L167.993 171.98C167.977 172.164 167.977 172.312 167.993 172.424C168.009 172.464 168.033 172.496 168.065 172.52C168.089 172.544 168.125 172.556 168.173 172.556C168.229 172.556 168.273 172.548 168.305 172.532C168.457 172.42 168.613 172.056 168.773 171.44C168.813 171.288 168.845 171.204 168.869 171.188C168.885 171.172 168.981 171.164 169.157 171.164C169.333 171.164 169.433 171.172 169.457 171.188C169.473 171.204 169.481 171.236 169.481 171.284C169.481 171.332 169.461 171.428 169.421 171.572C169.117 172.604 168.677 173.124 168.101 173.132C168.045 173.132 167.989 173.128 167.933 173.12C167.437 173.056 167.121 172.796 166.985 172.34C166.937 172.164 166.929 171.976 166.961 171.776L167.717 168.74C168.229 166.692 168.469 165.636 168.437 165.572C168.381 165.516 168.209 165.484 167.921 165.476C167.729 165.476 167.617 165.448 167.585 165.392L167.573 165.356L167.633 165.116C167.665 164.964 167.697 164.872 167.729 164.84C167.753 164.816 167.777 164.804 167.801 164.804L168.701 164.744Z" fill="black"/>
<path d="M5.0328 15V5.2H9.3168C10.3808 5.2 11.3141 5.40533 12.1168 5.816C12.9195 6.22667 13.5448 6.796 13.9928 7.524C14.4408 8.252 14.6648 9.11067 14.6648 10.1C14.6648 11.08 14.4408 11.9387 13.9928 12.676C13.5448 13.404 12.9195 13.9733 12.1168 14.384C11.3141 14.7947 10.3808 15 9.3168 15H5.0328ZM6.8528 13.46H9.2328C9.97013 13.46 10.6048 13.32 11.1368 13.04C11.6781 12.76 12.0935 12.368 12.3828 11.864C12.6815 11.36 12.8308 10.772 12.8308 10.1C12.8308 9.41867 12.6815 8.83067 12.3828 8.336C12.0935 7.832 11.6781 7.44 11.1368 7.16C10.6048 6.88 9.97013 6.74 9.2328 6.74H6.8528V13.46Z" fill="black"/>
<path d="M320.491 170V160.2H325.083C326.259 160.2 327.155 160.433 327.771 160.9C328.387 161.357 328.695 161.973 328.695 162.748C328.695 163.271 328.573 163.719 328.331 164.092C328.088 164.456 327.761 164.741 327.351 164.946C326.949 165.142 326.511 165.24 326.035 165.24L326.287 164.736C326.837 164.736 327.332 164.839 327.771 165.044C328.209 165.24 328.555 165.529 328.807 165.912C329.068 166.295 329.199 166.771 329.199 167.34C329.199 168.18 328.877 168.833 328.233 169.3C327.589 169.767 326.632 170 325.363 170H320.491ZM322.311 168.572H325.251C325.932 168.572 326.455 168.46 326.819 168.236C327.183 168.012 327.365 167.653 327.365 167.158C327.365 166.673 327.183 166.318 326.819 166.094C326.455 165.861 325.932 165.744 325.251 165.744H322.171V164.33H324.887C325.521 164.33 326.007 164.218 326.343 163.994C326.688 163.77 326.861 163.434 326.861 162.986C326.861 162.529 326.688 162.188 326.343 161.964C326.007 161.74 325.521 161.628 324.887 161.628H322.311V168.572Z" fill="black"/>
<path d="M325.266 15.14C324.519 15.14 323.824 15.0187 323.18 14.776C322.545 14.524 321.99 14.174 321.514 13.726C321.047 13.2687 320.683 12.732 320.422 12.116C320.161 11.5 320.03 10.828 320.03 10.1C320.03 9.372 320.161 8.7 320.422 8.084C320.683 7.468 321.052 6.936 321.528 6.488C322.004 6.03067 322.559 5.68067 323.194 5.438C323.829 5.186 324.524 5.06 325.28 5.06C326.083 5.06 326.815 5.2 327.478 5.48C328.141 5.75067 328.701 6.15667 329.158 6.698L327.982 7.804C327.627 7.42133 327.231 7.13667 326.792 6.95C326.353 6.754 325.877 6.656 325.364 6.656C324.851 6.656 324.379 6.74 323.95 6.908C323.53 7.076 323.161 7.314 322.844 7.622C322.536 7.93 322.293 8.294 322.116 8.714C321.948 9.134 321.864 9.596 321.864 10.1C321.864 10.604 321.948 11.066 322.116 11.486C322.293 11.906 322.536 12.27 322.844 12.578C323.161 12.886 323.53 13.124 323.95 13.292C324.379 13.46 324.851 13.544 325.364 13.544C325.877 13.544 326.353 13.4507 326.792 13.264C327.231 13.068 327.627 12.774 327.982 12.382L329.158 13.502C328.701 14.034 328.141 14.44 327.478 14.72C326.815 15 326.078 15.14 325.266 15.14Z" fill="black"/>
</svg>
