<svg width="260" height="257" viewBox="0 0 260 257" fill="none" xmlns="http://www.w3.org/2000/svg">
<path d="M44.6445 107.289L28.3179 127.503" stroke="black"/>
<path d="M44.6445 96.4046L28.3179 116.618" stroke="black"/>
<path d="M144.159 12.5491L127.833 32.763" stroke="black"/>
<path d="M144.159 1.66473L127.833 21.8786" stroke="black"/>
<path d="M144.159 214.023L127.833 234.237" stroke="black"/>
<path d="M144.159 203.139L127.833 223.353" stroke="black"/>
<path d="M242.119 107.289L225.792 127.503" stroke="black"/>
<path d="M242.119 96.4046L225.792 116.618" stroke="black"/>
<path d="M34.1741 217.688L34.1709 219.188H35.6709H232.524L234.64 221.309L234.645 219.188H236.766L234.649 217.067L235.067 20.2139L235.07 18.7139H233.57H36.7173L34.6005 16.5925L34.596 18.7139H32.4746L34.5915 20.8352L34.1741 217.688Z" fill="white" stroke="black" stroke-width="3"/>
<path d="M9.78788 217.139L14.1979 207.339H15.9899L20.4139 217.139H18.5099L14.7159 208.305H15.4439L11.6639 217.139H9.78788ZM11.8179 214.871L12.3079 213.443H17.5999L18.0899 214.871H11.8179Z" fill="black"/>
<path d="M14.3985 108.909C15.0238 108.816 15.5185 108.947 15.8825 109.301C15.9665 109.376 16.0318 109.465 16.0785 109.567C16.1625 109.726 16.2045 109.899 16.2045 110.085C16.2045 110.589 15.9898 110.893 15.5605 110.995C15.4485 111.023 15.3412 111.023 15.2385 110.995C14.9958 110.939 14.8652 110.79 14.8465 110.547C14.8465 110.407 14.8745 110.277 14.9305 110.155C15.0238 109.987 15.1218 109.88 15.2245 109.833C15.2525 109.815 15.2712 109.801 15.2805 109.791C15.2805 109.754 15.1918 109.693 15.0145 109.609C14.8092 109.525 14.5945 109.511 14.3705 109.567C14.0625 109.651 13.8432 109.866 13.7125 110.211C13.6752 110.333 13.6565 110.459 13.6565 110.589C13.6752 110.739 13.7218 110.855 13.7965 110.939C13.8618 111.014 14.0392 111.084 14.3285 111.149C14.6832 111.233 14.9165 111.303 15.0285 111.359C15.4205 111.555 15.6818 111.859 15.8125 112.269C15.8592 112.419 15.8825 112.605 15.8825 112.829C15.8732 113.025 15.8312 113.245 15.7565 113.487C15.6818 113.711 15.5605 113.945 15.3925 114.187C15.2245 114.421 15.0332 114.612 14.8185 114.761C14.4918 114.985 14.1138 115.13 13.6845 115.195C13.4232 115.233 13.1385 115.237 12.8305 115.209C12.8118 115.2 12.7932 115.195 12.7745 115.195C12.2238 115.083 11.8458 114.878 11.6405 114.579C11.5285 114.411 11.4632 114.276 11.4445 114.173C11.4258 114.117 11.4165 114.019 11.4165 113.879C11.4072 113.674 11.4445 113.492 11.5285 113.333C11.6592 113.053 11.8832 112.885 12.2005 112.829C12.2938 112.82 12.3732 112.82 12.4385 112.829C12.7278 112.876 12.8958 113.03 12.9425 113.291C12.9892 113.571 12.8865 113.833 12.6345 114.075C12.5785 114.122 12.5225 114.159 12.4665 114.187L12.3685 114.243L12.4525 114.299C12.6112 114.43 12.8072 114.509 13.0405 114.537C13.5165 114.612 13.9178 114.523 14.2445 114.271C14.4498 114.103 14.5945 113.87 14.6785 113.571C14.6972 113.431 14.6972 113.296 14.6785 113.165C14.6132 112.951 14.4638 112.797 14.2305 112.703C14.1185 112.666 13.9692 112.629 13.7825 112.591C13.5492 112.545 13.3905 112.503 13.3065 112.465C12.9052 112.316 12.6392 112.013 12.5085 111.555C12.4898 111.471 12.4805 111.336 12.4805 111.149C12.4805 110.963 12.4898 110.823 12.5085 110.729C12.6485 110.179 12.8958 109.74 13.2505 109.413C13.5585 109.133 13.9412 108.965 14.3985 108.909Z" fill="black"/>
<path d="M136.182 241.84C136.807 241.747 137.302 241.877 137.666 242.232C137.75 242.307 137.815 242.395 137.862 242.498C137.946 242.657 137.988 242.829 137.988 243.016C137.988 243.52 137.773 243.823 137.344 243.926C137.232 243.954 137.124 243.954 137.022 243.926C136.779 243.87 136.648 243.721 136.63 243.478C136.63 243.338 136.658 243.207 136.714 243.086C136.807 242.918 136.905 242.811 137.008 242.764C137.036 242.745 137.054 242.731 137.064 242.722C137.064 242.685 136.975 242.624 136.798 242.54C136.592 242.456 136.378 242.442 136.154 242.498C135.846 242.582 135.626 242.797 135.496 243.142C135.458 243.263 135.44 243.389 135.44 243.52C135.458 243.669 135.505 243.786 135.58 243.87C135.645 243.945 135.822 244.015 136.112 244.08C136.466 244.164 136.7 244.234 136.812 244.29C137.204 244.486 137.465 244.789 137.596 245.2C137.642 245.349 137.666 245.536 137.666 245.76C137.656 245.956 137.614 246.175 137.54 246.418C137.465 246.642 137.344 246.875 137.176 247.118C137.008 247.351 136.816 247.543 136.602 247.692C136.275 247.916 135.897 248.061 135.468 248.126C135.206 248.163 134.922 248.168 134.614 248.14C134.595 248.131 134.576 248.126 134.558 248.126C134.007 248.014 133.629 247.809 133.424 247.51C133.312 247.342 133.246 247.207 133.228 247.104C133.209 247.048 133.2 246.95 133.2 246.81C133.19 246.605 133.228 246.423 133.312 246.264C133.442 245.984 133.666 245.816 133.984 245.76C134.077 245.751 134.156 245.751 134.222 245.76C134.511 245.807 134.679 245.961 134.726 246.222C134.772 246.502 134.67 246.763 134.418 247.006C134.362 247.053 134.306 247.09 134.25 247.118L134.152 247.174L134.236 247.23C134.394 247.361 134.59 247.44 134.824 247.468C135.3 247.543 135.701 247.454 136.028 247.202C136.233 247.034 136.378 246.801 136.462 246.502C136.48 246.362 136.48 246.227 136.462 246.096C136.396 245.881 136.247 245.727 136.014 245.634C135.902 245.597 135.752 245.559 135.566 245.522C135.332 245.475 135.174 245.433 135.09 245.396C134.688 245.247 134.422 244.943 134.292 244.486C134.273 244.402 134.264 244.267 134.264 244.08C134.264 243.893 134.273 243.753 134.292 243.66C134.432 243.109 134.679 242.671 135.034 242.344C135.342 242.064 135.724 241.896 136.182 241.84Z" fill="black"/>
<path d="M10.6338 15V5.2H14.9178C15.9818 5.2 16.9152 5.40533 17.7178 5.816C18.5205 6.22667 19.1458 6.796 19.5938 7.524C20.0418 8.252 20.2658 9.11067 20.2658 10.1C20.2658 11.08 20.0418 11.9387 19.5938 12.676C19.1458 13.404 18.5205 13.9733 17.7178 14.384C16.9152 14.7947 15.9818 15 14.9178 15H10.6338ZM12.4538 13.46H14.8338C15.5712 13.46 16.2058 13.32 16.7378 13.04C17.2792 12.76 17.6945 12.368 17.9838 11.864C18.2825 11.36 18.4318 10.772 18.4318 10.1C18.4318 9.41867 18.2825 8.83067 17.9838 8.336C17.6945 7.832 17.2792 7.44 16.7378 7.16C16.2058 6.88 15.5712 6.74 14.8338 6.74H12.4538V13.46Z" fill="black"/>
<path d="M242.774 218.694V208.894H247.366C248.542 208.894 249.438 209.127 250.054 209.594C250.67 210.051 250.978 210.667 250.978 211.442C250.978 211.964 250.857 212.412 250.614 212.786C250.371 213.15 250.045 213.434 249.634 213.64C249.233 213.836 248.794 213.934 248.318 213.934L248.57 213.43C249.121 213.43 249.615 213.532 250.054 213.738C250.493 213.934 250.838 214.223 251.09 214.606C251.351 214.988 251.482 215.464 251.482 216.034C251.482 216.874 251.16 217.527 250.516 217.994C249.872 218.46 248.915 218.694 247.646 218.694H242.774ZM244.594 217.266H247.534C248.215 217.266 248.738 217.154 249.102 216.93C249.466 216.706 249.648 216.346 249.648 215.852C249.648 215.366 249.466 215.012 249.102 214.788C248.738 214.554 248.215 214.438 247.534 214.438H244.454V213.024H247.17C247.805 213.024 248.29 212.912 248.626 212.688C248.971 212.464 249.144 212.128 249.144 211.68C249.144 211.222 248.971 210.882 248.626 210.658C248.29 210.434 247.805 210.322 247.17 210.322H244.594V217.266Z" fill="black"/>
<path d="M247.549 15.14C246.803 15.14 246.107 15.0187 245.463 14.776C244.829 14.524 244.273 14.174 243.797 13.726C243.331 13.2687 242.967 12.732 242.705 12.116C242.444 11.5 242.313 10.828 242.313 10.1C242.313 9.372 242.444 8.7 242.705 8.084C242.967 7.468 243.335 6.936 243.811 6.488C244.287 6.03067 244.843 5.68067 245.477 5.438C246.112 5.186 246.807 5.06 247.563 5.06C248.366 5.06 249.099 5.2 249.761 5.48C250.424 5.75067 250.984 6.15667 251.441 6.698L250.265 7.804C249.911 7.42133 249.514 7.13667 249.075 6.95C248.637 6.754 248.161 6.656 247.647 6.656C247.134 6.656 246.663 6.74 246.233 6.908C245.813 7.076 245.445 7.314 245.127 7.622C244.819 7.93 244.577 8.294 244.399 8.714C244.231 9.134 244.147 9.596 244.147 10.1C244.147 10.604 244.231 11.066 244.399 11.486C244.577 11.906 244.819 12.27 245.127 12.578C245.445 12.886 245.813 13.124 246.233 13.292C246.663 13.46 247.134 13.544 247.647 13.544C248.161 13.544 248.637 13.4507 249.075 13.264C249.514 13.068 249.911 12.774 250.265 12.382L251.441 13.502C250.984 14.034 250.424 14.44 249.761 14.72C249.099 15 248.361 15.14 247.549 15.14Z" fill="black"/>
<path d="M36.5 20.5L235 218.5" stroke="#0C356A" stroke-width="3"/>
<path d="M234.5 20L35.5 218.5" stroke="#0C356A" stroke-width="3"/>
</svg>
