<svg width="250" height="241" viewBox="0 0 250 241" fill="none" xmlns="http://www.w3.org/2000/svg">
<path d="M21.9574 184.406L125 20.5014L228.043 184.406L21.9574 184.406Z" fill="white" stroke="black" stroke-width="2"/>
<path d="M5.81249 192.464L10.2225 182.664H12.0145L16.4385 192.464H14.5345L10.7405 183.63H11.4685L7.68849 192.464H5.81249ZM7.84249 190.196L8.33249 188.768H13.6245L14.1145 190.196H7.84249Z" fill="black"/>
<path d="M139.313 109.58C139.425 109.54 139.541 109.544 139.661 109.592C139.765 109.632 139.841 109.7 139.889 109.796C139.929 109.884 139.917 110.052 139.853 110.3C139.829 110.404 139.777 110.624 139.697 110.96C139.529 111.576 139.449 111.88 139.457 111.872C139.457 111.888 139.629 111.896 139.973 111.896H140.489L140.525 111.932C140.573 111.964 140.573 112.068 140.525 112.244C140.501 112.364 140.477 112.448 140.453 112.496C140.429 112.536 140.353 112.56 140.225 112.568C140.169 112.568 140.037 112.568 139.829 112.568H139.289L139.277 112.616C138.741 114.704 138.461 115.84 138.437 116.024C138.421 116.12 138.413 116.208 138.413 116.288C138.413 116.512 138.477 116.628 138.605 116.636C138.653 116.636 138.709 116.628 138.773 116.612C138.885 116.604 139.005 116.548 139.133 116.444C139.413 116.228 139.645 115.88 139.829 115.4C139.869 115.304 139.913 115.252 139.961 115.244C139.985 115.236 140.065 115.232 140.201 115.232C140.377 115.232 140.473 115.24 140.489 115.256C140.537 115.296 140.537 115.376 140.489 115.496C140.337 115.864 140.157 116.168 139.949 116.408C139.629 116.816 139.261 117.068 138.845 117.164C138.781 117.18 138.677 117.188 138.533 117.188C138.389 117.188 138.289 117.18 138.233 117.164C138.009 117.1 137.829 117.004 137.693 116.876C137.565 116.748 137.473 116.592 137.417 116.408C137.401 116.344 137.393 116.236 137.393 116.084V115.856L137.801 114.224C138.073 113.152 138.209 112.604 138.209 112.58C138.209 112.572 138.041 112.568 137.705 112.568C137.353 112.568 137.161 112.54 137.129 112.484C137.113 112.46 137.121 112.372 137.153 112.22C137.201 112.06 137.229 111.976 137.237 111.968C137.261 111.92 137.345 111.896 137.489 111.896C137.545 111.896 137.665 111.896 137.849 111.896H138.389L138.617 110.96C138.769 110.344 138.865 109.996 138.905 109.916C138.977 109.756 139.113 109.644 139.313 109.58Z" fill="black"/>
<path d="M125.776 192.84L126.016 192.828H126.028C126.204 192.836 126.36 192.876 126.496 192.948C126.632 193.012 126.752 193.1 126.856 193.212L126.952 193.308L127.024 193.248C127.216 193.064 127.424 193.016 127.648 193.104C127.76 193.144 127.836 193.212 127.876 193.308C127.908 193.396 127.9 193.552 127.852 193.776C127.812 193.952 127.688 194.448 127.48 195.264C127.192 196.432 127.044 197.04 127.036 197.088C127.004 197.312 127 197.468 127.024 197.556C127.04 197.596 127.064 197.628 127.096 197.652C127.12 197.676 127.156 197.688 127.204 197.688C127.26 197.688 127.304 197.68 127.336 197.664C127.488 197.552 127.644 197.188 127.804 196.572C127.844 196.42 127.876 196.336 127.9 196.32C127.916 196.304 128.012 196.296 128.188 196.296C128.364 196.296 128.464 196.304 128.488 196.32C128.504 196.336 128.512 196.368 128.512 196.416C128.512 196.464 128.492 196.56 128.452 196.704C128.156 197.712 127.736 198.232 127.192 198.264C126.784 198.288 126.456 198.148 126.208 197.844C126.168 197.796 126.132 197.744 126.1 197.688C126.084 197.64 126.072 197.616 126.064 197.616L125.98 197.688C125.7 197.936 125.424 198.1 125.152 198.18C124.632 198.356 124.164 198.276 123.748 197.94C123.7 197.9 123.656 197.856 123.616 197.808C123.496 197.688 123.396 197.544 123.316 197.376C123.076 196.888 123.028 196.316 123.172 195.66C123.356 194.788 123.772 194.068 124.42 193.5C124.852 193.124 125.304 192.904 125.776 192.84ZM126.028 193.404C125.7 193.348 125.384 193.504 125.08 193.872C125 193.976 124.928 194.088 124.864 194.208C124.744 194.44 124.6 194.896 124.432 195.576C124.328 195.96 124.252 196.296 124.204 196.584C124.172 196.856 124.172 197.064 124.204 197.208C124.284 197.488 124.44 197.648 124.672 197.688C124.808 197.712 124.972 197.684 125.164 197.604C125.452 197.444 125.724 197.176 125.98 196.8L126.04 196.716L126.34 195.528L126.64 194.328L126.616 194.232C126.544 193.776 126.364 193.504 126.076 193.416C126.06 193.408 126.044 193.404 126.028 193.404Z" fill="black"/>
<path d="M234.865 186.986V177.186H239.457C240.633 177.186 241.529 177.42 242.145 177.886C242.761 178.344 243.069 178.96 243.069 179.734C243.069 180.257 242.948 180.705 242.705 181.078C242.462 181.442 242.136 181.727 241.725 181.932C241.324 182.128 240.885 182.226 240.409 182.226L240.661 181.722C241.212 181.722 241.706 181.825 242.145 182.03C242.584 182.226 242.929 182.516 243.181 182.898C243.442 183.281 243.573 183.757 243.573 184.326C243.573 185.166 243.251 185.82 242.607 186.286C241.963 186.753 241.006 186.986 239.737 186.986H234.865ZM236.685 185.558H239.625C240.306 185.558 240.829 185.446 241.193 185.222C241.557 184.998 241.739 184.639 241.739 184.144C241.739 183.659 241.557 183.304 241.193 183.08C240.829 182.847 240.306 182.73 239.625 182.73H236.545V181.316H239.261C239.896 181.316 240.381 181.204 240.717 180.98C241.062 180.756 241.235 180.42 241.235 179.972C241.235 179.515 241.062 179.174 240.717 178.95C240.381 178.726 239.896 178.614 239.261 178.614H236.685V185.558Z" fill="black"/>
<path d="M125.766 15.14C125.02 15.14 124.324 15.0187 123.68 14.776C123.046 14.524 122.49 14.174 122.014 13.726C121.548 13.2687 121.184 12.732 120.922 12.116C120.661 11.5 120.53 10.828 120.53 10.1C120.53 9.372 120.661 8.7 120.922 8.084C121.184 7.468 121.552 6.936 122.028 6.488C122.504 6.03067 123.06 5.68067 123.694 5.438C124.329 5.186 125.024 5.06 125.78 5.06C126.583 5.06 127.316 5.2 127.978 5.48C128.641 5.75067 129.201 6.15667 129.658 6.698L128.482 7.804C128.128 7.42133 127.731 7.13667 127.292 6.95C126.854 6.754 126.378 6.656 125.864 6.656C125.351 6.656 124.88 6.74 124.45 6.908C124.03 7.076 123.662 7.314 123.344 7.622C123.036 7.93 122.794 8.294 122.616 8.714C122.448 9.134 122.364 9.596 122.364 10.1C122.364 10.604 122.448 11.066 122.616 11.486C122.794 11.906 123.036 12.27 123.344 12.578C123.662 12.886 124.03 13.124 124.45 13.292C124.88 13.46 125.351 13.544 125.864 13.544C126.378 13.544 126.854 13.4507 127.292 13.264C127.731 13.068 128.128 12.774 128.482 12.382L129.658 13.502C129.201 14.034 128.641 14.44 127.978 14.72C127.316 15 126.578 15.14 125.766 15.14Z" fill="black"/>
<path d="M125 20.2661V184.584" stroke="#FFC100" stroke-width="2" stroke-dasharray="3 3"/>
</svg>
