<svg width="329" height="190" viewBox="0 0 329 190" fill="none" xmlns="http://www.w3.org/2000/svg">
<path d="M306.619 160.972L22.4307 160.972L84.2107 29.0278L244.839 29.0278L306.619 160.972Z" fill="white" stroke="black" stroke-width="3"/>
<path d="M5.90211 175.972L10.3121 166.172H12.1041L16.5281 175.972H14.6241L10.8301 167.138H11.5581L7.77811 175.972H5.90211ZM7.93211 173.704L8.42211 172.276H13.7141L14.2041 173.704H7.93211Z" fill="black"/>
<path d="M81.5218 171.274H86.3938V172.772H81.5218V171.274ZM81.6618 175.474H87.1918V177H79.8418V167.2H86.9958V168.726H81.6618V175.474Z" fill="black"/>
<path d="M68.7617 17.6388V7.83879H73.0457C74.1097 7.83879 75.0431 8.04413 75.8457 8.45479C76.6484 8.86546 77.2737 9.43479 77.7217 10.1628C78.1697 10.8908 78.3937 11.7495 78.3937 12.7388C78.3937 13.7188 78.1697 14.5775 77.7217 15.3148C77.2737 16.0428 76.6484 16.6121 75.8457 17.0228C75.0431 17.4335 74.1097 17.6388 73.0457 17.6388H68.7617ZM70.5817 16.0988H72.9617C73.6991 16.0988 74.3337 15.9588 74.8657 15.6788C75.4071 15.3988 75.8224 15.0068 76.1117 14.5028C76.4104 13.9988 76.5597 13.4108 76.5597 12.7388C76.5597 12.0575 76.4104 11.4695 76.1117 10.9748C75.8224 10.4708 75.4071 10.0788 74.8657 9.79879C74.3337 9.51879 73.6991 9.37879 72.9617 9.37879H70.5817V16.0988Z" fill="black"/>
<path d="M313.317 175.972V166.172H317.909C319.085 166.172 319.981 166.406 320.597 166.872C321.213 167.33 321.521 167.946 321.521 168.72C321.521 169.243 321.4 169.691 321.157 170.064C320.914 170.428 320.588 170.713 320.177 170.918C319.776 171.114 319.337 171.212 318.861 171.212L319.113 170.708C319.664 170.708 320.158 170.811 320.597 171.016C321.036 171.212 321.381 171.502 321.633 171.884C321.894 172.267 322.025 172.743 322.025 173.312C322.025 174.152 321.703 174.806 321.059 175.272C320.415 175.739 319.458 175.972 318.189 175.972H313.317ZM315.137 174.544H318.077C318.758 174.544 319.281 174.432 319.645 174.208C320.009 173.984 320.191 173.625 320.191 173.13C320.191 172.645 320.009 172.29 319.645 172.066C319.281 171.833 318.758 171.716 318.077 171.716H314.997V170.302H317.713C318.348 170.302 318.833 170.19 319.169 169.966C319.514 169.742 319.687 169.406 319.687 168.958C319.687 168.501 319.514 168.16 319.169 167.936C318.833 167.712 318.348 167.6 317.713 167.6H315.137V174.544Z" fill="black"/>
<path d="M256.079 17.7788C255.332 17.7788 254.637 17.6575 253.993 17.4148C253.358 17.1628 252.803 16.8128 252.327 16.3648C251.86 15.9075 251.496 15.3708 251.235 14.7548C250.973 14.1388 250.843 13.4668 250.843 12.7388C250.843 12.0108 250.973 11.3388 251.235 10.7228C251.496 10.1068 251.865 9.57479 252.341 9.12679C252.817 8.66946 253.372 8.31946 254.007 8.07679C254.641 7.82479 255.337 7.69879 256.093 7.69879C256.895 7.69879 257.628 7.83879 258.291 8.11879C258.953 8.38946 259.513 8.79546 259.971 9.33679L258.795 10.4428C258.44 10.0601 258.043 9.77546 257.605 9.58879C257.166 9.39279 256.69 9.29479 256.177 9.29479C255.663 9.29479 255.192 9.37879 254.763 9.54679C254.343 9.71479 253.974 9.95279 253.657 10.2608C253.349 10.5688 253.106 10.9328 252.929 11.3528C252.761 11.7728 252.677 12.2348 252.677 12.7388C252.677 13.2428 252.761 13.7048 252.929 14.1248C253.106 14.5448 253.349 14.9088 253.657 15.2168C253.974 15.5248 254.343 15.7628 254.763 15.9308C255.192 16.0988 255.663 16.1828 256.177 16.1828C256.69 16.1828 257.166 16.0895 257.605 15.9028C258.043 15.7068 258.44 15.4128 258.795 15.0208L259.971 16.1408C259.513 16.6728 258.953 17.0788 258.291 17.3588C257.628 17.6388 256.891 17.7788 256.079 17.7788Z" fill="black"/>
<path d="M84.4443 29.0278V160.972" stroke="#D04848" stroke-width="2" stroke-dasharray="5 5"/>
<path d="M166.366 171.319L166.606 171.307H166.618C166.794 171.315 166.95 171.355 167.086 171.427C167.222 171.491 167.342 171.579 167.446 171.691L167.542 171.787L167.614 171.727C167.806 171.543 168.014 171.495 168.238 171.583C168.35 171.623 168.426 171.691 168.466 171.787C168.498 171.875 168.49 172.031 168.442 172.255C168.402 172.431 168.278 172.927 168.07 173.743C167.782 174.911 167.634 175.519 167.626 175.567C167.594 175.791 167.59 175.947 167.614 176.035C167.63 176.075 167.654 176.107 167.686 176.131C167.71 176.155 167.746 176.167 167.794 176.167C167.85 176.167 167.894 176.159 167.926 176.143C168.078 176.031 168.234 175.667 168.394 175.051C168.434 174.899 168.466 174.815 168.49 174.799C168.506 174.783 168.602 174.775 168.778 174.775C168.954 174.775 169.054 174.783 169.078 174.799C169.094 174.815 169.102 174.847 169.102 174.895C169.102 174.943 169.082 175.039 169.042 175.183C168.746 176.191 168.326 176.711 167.782 176.743C167.374 176.767 167.046 176.627 166.798 176.323C166.758 176.275 166.722 176.223 166.69 176.167C166.674 176.119 166.662 176.095 166.654 176.095L166.57 176.167C166.29 176.415 166.014 176.579 165.742 176.659C165.222 176.835 164.754 176.755 164.338 176.419C164.29 176.379 164.246 176.335 164.206 176.287C164.086 176.167 163.986 176.023 163.906 175.855C163.666 175.367 163.618 174.795 163.762 174.139C163.946 173.267 164.362 172.547 165.01 171.979C165.442 171.603 165.894 171.383 166.366 171.319ZM166.618 171.883C166.29 171.827 165.974 171.983 165.67 172.351C165.59 172.455 165.518 172.567 165.454 172.687C165.334 172.919 165.19 173.375 165.022 174.055C164.918 174.439 164.842 174.775 164.794 175.063C164.762 175.335 164.762 175.543 164.794 175.687C164.874 175.967 165.03 176.127 165.262 176.167C165.398 176.191 165.562 176.163 165.754 176.083C166.042 175.923 166.314 175.655 166.57 175.279L166.63 175.195L166.93 174.007L167.23 172.807L167.206 172.711C167.134 172.255 166.954 171.983 166.666 171.895C166.65 171.887 166.634 171.883 166.618 171.883Z" fill="black"/>
<path d="M165.567 4.744C166.191 4.696 166.499 4.672 166.491 4.672C166.563 4.672 166.611 4.7 166.635 4.756C166.643 4.788 166.511 5.348 166.239 6.436L165.831 8.08L165.951 8.008C166.303 7.792 166.639 7.688 166.959 7.696C167.471 7.72 167.863 7.94 168.135 8.356C168.263 8.548 168.363 8.776 168.435 9.04C168.515 9.448 168.507 9.864 168.411 10.288C168.291 10.912 168.031 11.472 167.631 11.968C167.463 12.184 167.287 12.364 167.103 12.508C166.751 12.804 166.363 13 165.939 13.096C165.867 13.112 165.755 13.12 165.603 13.12C165.451 13.12 165.335 13.112 165.255 13.096C165.087 13.056 164.923 12.98 164.763 12.868C164.563 12.724 164.411 12.544 164.307 12.328C164.195 12.096 164.119 11.844 164.079 11.572C164.055 11.356 164.059 11.096 164.091 10.792C164.107 10.672 164.323 9.78 164.739 8.116C165.147 6.484 165.335 5.636 165.303 5.572C165.247 5.516 165.075 5.484 164.787 5.476C164.595 5.476 164.483 5.448 164.451 5.392L164.439 5.356L164.499 5.116C164.531 4.964 164.563 4.872 164.595 4.84C164.619 4.816 164.643 4.804 164.667 4.804L165.567 4.744ZM166.995 8.296C166.923 8.264 166.807 8.256 166.647 8.272C166.415 8.336 166.179 8.492 165.939 8.74C165.811 8.868 165.691 9.02 165.579 9.196C165.563 9.212 165.487 9.472 165.351 9.976L165.123 10.9C164.963 11.652 165.007 12.148 165.255 12.388C165.327 12.468 165.415 12.52 165.519 12.544C165.775 12.616 166.043 12.524 166.323 12.268C166.579 12.052 166.787 11.676 166.947 11.14C167.003 10.956 167.067 10.72 167.139 10.432C167.307 9.752 167.391 9.284 167.391 9.028C167.391 8.86 167.371 8.728 167.331 8.632C167.275 8.472 167.163 8.36 166.995 8.296Z" fill="black"/>
<path d="M96.8834 91.2758C96.9954 91.2358 97.1114 91.2398 97.2314 91.2878C97.3354 91.3278 97.4114 91.3958 97.4594 91.4918C97.4994 91.5798 97.4874 91.7478 97.4234 91.9958C97.3994 92.0998 97.3474 92.3198 97.2674 92.6558C97.0994 93.2718 97.0194 93.5758 97.0274 93.5678C97.0274 93.5838 97.1994 93.5918 97.5434 93.5918H98.0594L98.0954 93.6278C98.1434 93.6598 98.1434 93.7638 98.0954 93.9398C98.0714 94.0598 98.0474 94.1438 98.0234 94.1918C97.9994 94.2318 97.9234 94.2558 97.7954 94.2638C97.7394 94.2638 97.6074 94.2638 97.3994 94.2638H96.8594L96.8474 94.3118C96.3114 96.3998 96.0314 97.5358 96.0074 97.7198C95.9914 97.8158 95.9834 97.9038 95.9834 97.9838C95.9834 98.2078 96.0474 98.3238 96.1754 98.3318C96.2234 98.3318 96.2794 98.3238 96.3434 98.3078C96.4554 98.2998 96.5754 98.2438 96.7034 98.1398C96.9834 97.9238 97.2154 97.5758 97.3994 97.0958C97.4394 96.9998 97.4834 96.9478 97.5314 96.9398C97.5554 96.9318 97.6354 96.9278 97.7714 96.9278C97.9474 96.9278 98.0434 96.9358 98.0594 96.9518C98.1074 96.9918 98.1074 97.0718 98.0594 97.1918C97.9074 97.5598 97.7274 97.8638 97.5194 98.1038C97.1994 98.5118 96.8314 98.7638 96.4154 98.8598C96.3514 98.8758 96.2474 98.8838 96.1034 98.8838C95.9594 98.8838 95.8594 98.8758 95.8034 98.8598C95.5794 98.7958 95.3994 98.6998 95.2634 98.5718C95.1354 98.4438 95.0434 98.2878 94.9874 98.1038C94.9714 98.0398 94.9634 97.9318 94.9634 97.7798V97.5518L95.3714 95.9198C95.6434 94.8478 95.7794 94.2998 95.7794 94.2758C95.7794 94.2678 95.6114 94.2638 95.2754 94.2638C94.9234 94.2638 94.7314 94.2358 94.6994 94.1798C94.6834 94.1558 94.6914 94.0678 94.7234 93.9158C94.7714 93.7558 94.7994 93.6718 94.8074 93.6638C94.8314 93.6158 94.9154 93.5918 95.0594 93.5918C95.1154 93.5918 95.2354 93.5918 95.4194 93.5918H95.9594L96.1874 92.6558C96.3394 92.0398 96.4354 91.6918 96.4754 91.6118C96.5474 91.4518 96.6834 91.3398 96.8834 91.2758Z" fill="black"/>
<path d="M172.188 21.1112L158.333 38.264" stroke="black"/>
<path d="M172.847 153.056L158.993 170.208" stroke="black"/>
<path d="M280.382 81.8054L266.528 98.9582" stroke="black"/>
<path d="M280.382 72.5693L266.528 89.7221" stroke="black"/>
<path d="M47.4998 81.8054L61.354 98.9582" stroke="black"/>
<path d="M47.4998 72.5693L61.354 89.7221" stroke="black"/>
</svg>
