<svg width="147" height="178" viewBox="0 0 147 178" fill="none" xmlns="http://www.w3.org/2000/svg">
<path d="M147 178H0L0 122.516L36.9826 88.1551L0 54.3576L0 0H147V54.3576H75.1282L106.063 88.1551L75.1282 122.516H147V178Z" fill="#0C356A"/>
<path d="M147 117H98L120.927 87.1535L98 60H147V117Z" fill="#FFDD71"/>
<path d="M1.74072 65.8359L1.74072 108.898L20.9259 87.4959L1.74072 65.8359Z" fill="#FFDD71"/>
<path d="M74.2906 54H0L37.5983 88H106L74.2906 54Z" fill="#244F86"/>
<rect y="178" width="55" height="147" transform="rotate(-90 0 178)" fill="#244F86"/>
<path d="M147 117H98L121.139 87H147V117Z" fill="#FFC100"/>
<path d="M20.9259 87.7447L1.74072 108.898L1.74072 87.7447H20.9259Z" fill="#FFC100"/>
</svg>
