<svg width="247" height="35" viewBox="0 0 247 35" fill="none" xmlns="http://www.w3.org/2000/svg">
<path d="M9.49444 13.408H25.0944V20.512H9.49444V13.408ZM10.1664 26.656H27.7344V34H0.758438V0.399998H27.1104V7.744H10.1664V26.656ZM32.5084 34V0.399998H48.3964C52.1084 0.399998 55.3724 1.088 58.1884 2.464C61.0044 3.84 63.1964 5.776 64.7644 8.272C66.3644 10.768 67.1644 13.744 67.1644 17.2C67.1644 20.624 66.3644 23.6 64.7644 26.128C63.1964 28.624 61.0044 30.56 58.1884 31.936C55.3724 33.312 52.1084 34 48.3964 34H32.5084ZM42.0124 26.416H48.0124C49.9324 26.416 51.5964 26.064 53.0044 25.36C54.4444 24.624 55.5644 23.568 56.3644 22.192C57.1644 20.784 57.5644 19.12 57.5644 17.2C57.5644 15.248 57.1644 13.584 56.3644 12.208C55.5644 10.832 54.4444 9.792 53.0044 9.088C51.5964 8.352 49.9324 7.984 48.0124 7.984H42.0124V26.416ZM87.1687 34.672C82.2087 34.672 78.3367 33.312 75.5527 30.592C72.7687 27.872 71.3767 24.016 71.3767 19.024V0.399998H80.8807V18.736C80.8807 21.616 81.4407 23.68 82.5607 24.928C83.7127 26.176 85.2807 26.8 87.2647 26.8C89.2487 26.8 90.8007 26.176 91.9207 24.928C93.0407 23.68 93.6007 21.616 93.6007 18.736V0.399998H102.961V19.024C102.961 24.016 101.569 27.872 98.7847 30.592C96.0007 33.312 92.1287 34.672 87.1687 34.672Z" fill="#0C356A"/>
<path d="M108.899 34V0.399998H116.723L130.643 23.248H126.515L140.051 0.399998H147.875L147.971 34H139.235L139.139 13.696H140.627L130.499 30.688H126.275L115.859 13.696H117.683V34H108.899ZM150.164 34L164.996 0.399998H174.356L189.236 34H179.348L167.732 5.056H171.476L159.86 34H150.164ZM158.276 27.472L160.724 20.464H177.14L179.588 27.472H158.276ZM196.895 34V7.936H186.575V0.399998H216.671V7.936H206.399V34H196.895ZM228.448 13.408H244.048V20.512H228.448V13.408ZM229.12 26.656H246.688V34H219.712V0.399998H246.064V7.744H229.12V26.656Z" fill="#FFC100"/>
</svg>
