<svg width="43" height="45" viewBox="0 0 43 45" fill="none" xmlns="http://www.w3.org/2000/svg">
<path d="M3.42541 13.2753C3.0172 12.5682 3.58265 11.6964 4.39476 11.7807L12.5465 12.6273C14.7721 12.8585 16.9741 12.0117 18.4714 10.3489L23.9556 4.25868C24.5019 3.65194 25.5058 3.92029 25.6766 4.71873L27.3904 12.7331L30.3241 12.1057L27.3904 12.7331C27.8584 14.9212 29.3441 16.7537 31.3882 17.6639L38.8751 20.9977C39.6209 21.3299 39.676 22.3675 38.9694 22.7767L31.8769 26.8832C29.9404 28.0044 28.6567 29.9837 28.4227 32.209L27.5657 40.3597C27.4803 41.1717 26.5104 41.5446 25.9029 40.9991L19.8057 35.5227C18.141 34.0275 15.8618 33.4183 13.6731 33.8834L5.65658 35.587C4.85794 35.7567 4.20349 34.9495 4.53467 34.2032L7.85885 26.7121C8.76643 24.6668 8.64156 22.3109 7.52286 20.3731L3.42541 13.2753Z" fill="#FFDA67" stroke="#FFCD33" stroke-width="6"/>
</svg>
