<svg width="56" height="57" viewBox="0 0 56 57" fill="none" xmlns="http://www.w3.org/2000/svg">
<path d="M4.01872 15.8158C3.61052 15.1087 4.17596 14.2368 4.98807 14.3212L17.4714 15.6176C19.697 15.8488 21.899 15.002 23.3963 13.3392L31.7947 4.01278C32.341 3.40605 33.3449 3.6744 33.5157 4.47283L36.1402 16.7458C36.6082 18.9339 38.0939 20.7665 40.138 21.6767L51.6032 26.782C52.3491 27.1141 52.4041 28.1518 51.6975 28.5609L40.8362 34.8496C38.8998 35.9707 37.6161 37.9501 37.3821 40.1754L36.0696 52.6571C35.9842 53.4691 35.0143 53.842 34.4069 53.2965L25.0697 44.9101C23.405 43.4149 21.1258 42.8056 18.9371 43.2708L6.66078 45.8796C5.86214 46.0493 5.2077 45.2421 5.53887 44.4958L10.6295 33.0241C11.537 30.9788 11.4122 28.6229 10.2935 26.6851L4.01872 15.8158Z" fill="#FFDA67" stroke="#FFCD33" stroke-width="6"/>
</svg>
