<svg width="103" height="40" viewBox="0 0 103 40" fill="none" xmlns="http://www.w3.org/2000/svg">
<rect width="103" height="40" rx="20" fill="white"/>
<path d="M33.5976 23.648V21.904L38.8776 14.8H41.5976L36.4296 21.904L35.1656 21.536H43.9816V23.648H33.5976ZM39.6296 26V23.648L39.7096 21.536V19.44H42.1576V26H39.6296ZM50.4881 22.528L55.4001 17.584L56.0401 18.272L51.1281 23.216L50.4881 22.528ZM50.4881 18.272L51.1281 17.584L56.0401 22.528L55.4001 23.216L50.4881 18.272ZM66.4464 26.128C65.7104 26.128 65.0011 26.0427 64.3184 25.872C63.6464 25.6907 63.1131 25.4667 62.7184 25.2L63.5504 23.408C63.9451 23.6533 64.4091 23.856 64.9424 24.016C65.4864 24.1653 66.0198 24.24 66.5424 24.24C67.1184 24.24 67.5238 24.1707 67.7584 24.032C68.0038 23.8933 68.1264 23.7013 68.1264 23.456C68.1264 23.2533 68.0304 23.104 67.8384 23.008C67.6571 22.9013 67.4118 22.8213 67.1024 22.768C66.7931 22.7147 66.4518 22.6613 66.0784 22.608C65.7158 22.5547 65.3478 22.4853 64.9744 22.4C64.6011 22.304 64.2598 22.1653 63.9504 21.984C63.6411 21.8027 63.3904 21.5573 63.1984 21.248C63.0171 20.9387 62.9264 20.5387 62.9264 20.048C62.9264 19.504 63.0811 19.024 63.3904 18.608C63.7104 18.192 64.1691 17.8667 64.7664 17.632C65.3638 17.3867 66.0784 17.264 66.9104 17.264C67.4971 17.264 68.0944 17.328 68.7024 17.456C69.3104 17.584 69.8171 17.7707 70.2224 18.016L69.3904 19.792C68.9744 19.5467 68.5531 19.3813 68.1264 19.296C67.7104 19.2 67.3051 19.152 66.9104 19.152C66.3558 19.152 65.9504 19.2267 65.6944 19.376C65.4384 19.5253 65.3104 19.7173 65.3104 19.952C65.3104 20.1653 65.4011 20.3253 65.5824 20.432C65.7744 20.5387 66.0251 20.624 66.3344 20.688C66.6438 20.752 66.9798 20.8107 67.3424 20.864C67.7158 20.9067 68.0891 20.976 68.4624 21.072C68.8358 21.168 69.1718 21.3067 69.4704 21.488C69.7798 21.6587 70.0304 21.8987 70.2224 22.208C70.4144 22.5067 70.5104 22.9013 70.5104 23.392C70.5104 23.9253 70.3504 24.4 70.0304 24.816C69.7104 25.2213 69.2464 25.5413 68.6384 25.776C68.0411 26.0107 67.3104 26.128 66.4464 26.128Z" fill="#0C356A"/>
</svg>
