<svg width="129" height="99" viewBox="0 0 129 99" fill="none" xmlns="http://www.w3.org/2000/svg">
<rect x="1" y="1.23926" width="78" height="78" fill="white" stroke="black" stroke-width="2"/>
<path d="M1.03857 78.288L78.9607 2.19043" stroke="#333333" stroke-dasharray="2 2"/>
<path d="M1.55859 3.16614L78.9612 77.3125" stroke="#333333" stroke-dasharray="2 2"/>
<path d="M21.9195 94.6147L24.8895 88.0347L25.1495 88.4847H20.9895L21.4895 87.9947V89.7347H20.5295V87.6147H25.8095V88.2947L22.9795 94.6147H21.9195ZM36.4316 89.2647C36.8583 89.2647 37.2349 89.3481 37.5616 89.5147C37.8883 89.6814 38.1416 89.9347 38.3216 90.2747C38.5083 90.6147 38.6016 91.0447 38.6016 91.5647V94.6147H37.6416V91.6747C37.6416 91.1614 37.5216 90.7747 37.2816 90.5147C37.0416 90.2547 36.7049 90.1247 36.2716 90.1247C35.9516 90.1247 35.6716 90.1914 35.4316 90.3247C35.1916 90.4581 35.0049 90.6547 34.8716 90.9147C34.7449 91.1747 34.6816 91.4981 34.6816 91.8847V94.6147H33.7216V91.6747C33.7216 91.1614 33.6016 90.7747 33.3616 90.5147C33.1283 90.2547 32.7916 90.1247 32.3516 90.1247C32.0383 90.1247 31.7616 90.1914 31.5216 90.3247C31.2816 90.4581 31.0949 90.6547 30.9616 90.9147C30.8283 91.1747 30.7616 91.4981 30.7616 91.8847V94.6147H29.8016V89.3147H30.7216V90.7247L30.5716 90.3647C30.7383 90.0181 30.9949 89.7481 31.3416 89.5547C31.6883 89.3614 32.0916 89.2647 32.5516 89.2647C33.0583 89.2647 33.4949 89.3914 33.8616 89.6447C34.2283 89.8914 34.4683 90.2681 34.5816 90.7747L34.1916 90.6147C34.3516 90.2081 34.6316 89.8814 35.0316 89.6347C35.4316 89.3881 35.8983 89.2647 36.4316 89.2647ZM42.728 94.6747C42.1613 94.6747 41.6613 94.5581 41.228 94.3247C40.8013 94.0914 40.468 93.7714 40.228 93.3647C39.9947 92.9581 39.878 92.4914 39.878 91.9647C39.878 91.4381 39.9913 90.9714 40.218 90.5647C40.4513 90.1581 40.768 89.8414 41.168 89.6147C41.5747 89.3814 42.0313 89.2647 42.538 89.2647C43.0513 89.2647 43.5047 89.3781 43.898 89.6047C44.2913 89.8314 44.598 90.1514 44.818 90.5647C45.0447 90.9714 45.158 91.4481 45.158 91.9947C45.158 92.0347 45.1547 92.0814 45.148 92.1347C45.148 92.1881 45.1447 92.2381 45.138 92.2847H40.628V91.5947H44.638L44.248 91.8347C44.2547 91.4947 44.1847 91.1914 44.038 90.9247C43.8913 90.6581 43.688 90.4514 43.428 90.3047C43.1747 90.1514 42.878 90.0747 42.538 90.0747C42.2047 90.0747 41.908 90.1514 41.648 90.3047C41.388 90.4514 41.1847 90.6614 41.038 90.9347C40.8913 91.2014 40.818 91.5081 40.818 91.8547V92.0147C40.818 92.3681 40.898 92.6847 41.058 92.9647C41.2247 93.2381 41.4547 93.4514 41.748 93.6047C42.0413 93.7581 42.378 93.8347 42.758 93.8347C43.0713 93.8347 43.3547 93.7814 43.608 93.6747C43.868 93.5681 44.0947 93.4081 44.288 93.1947L44.818 93.8147C44.578 94.0947 44.278 94.3081 43.918 94.4547C43.5647 94.6014 43.168 94.6747 42.728 94.6747ZM48.3111 94.6747C47.7777 94.6747 47.3644 94.5314 47.0711 94.2447C46.7777 93.9581 46.6311 93.5481 46.6311 93.0147V88.1547H47.5911V92.9747C47.5911 93.2614 47.6611 93.4814 47.8011 93.6347C47.9477 93.7881 48.1544 93.8647 48.4211 93.8647C48.7211 93.8647 48.9711 93.7814 49.1711 93.6147L49.4711 94.3047C49.3244 94.4314 49.1477 94.5247 48.9411 94.5847C48.7411 94.6447 48.5311 94.6747 48.3111 94.6747ZM45.7311 90.1047V89.3147H49.1111V90.1047H45.7311ZM52.8159 94.6747C52.2492 94.6747 51.7492 94.5581 51.3159 94.3247C50.8892 94.0914 50.5559 93.7714 50.3159 93.3647C50.0826 92.9581 49.9659 92.4914 49.9659 91.9647C49.9659 91.4381 50.0792 90.9714 50.3059 90.5647C50.5392 90.1581 50.8559 89.8414 51.2559 89.6147C51.6626 89.3814 52.1192 89.2647 52.6259 89.2647C53.1392 89.2647 53.5926 89.3781 53.9859 89.6047C54.3792 89.8314 54.6859 90.1514 54.9059 90.5647C55.1326 90.9714 55.2459 91.4481 55.2459 91.9947C55.2459 92.0347 55.2426 92.0814 55.2359 92.1347C55.2359 92.1881 55.2326 92.2381 55.2259 92.2847H50.7159V91.5947H54.7259L54.3359 91.8347C54.3426 91.4947 54.2726 91.1914 54.1259 90.9247C53.9792 90.6581 53.7759 90.4514 53.5159 90.3047C53.2626 90.1514 52.9659 90.0747 52.6259 90.0747C52.2926 90.0747 51.9959 90.1514 51.7359 90.3047C51.4759 90.4514 51.2726 90.6614 51.1259 90.9347C50.9792 91.2014 50.9059 91.5081 50.9059 91.8547V92.0147C50.9059 92.3681 50.9859 92.6847 51.1459 92.9647C51.3126 93.2381 51.5426 93.4514 51.8359 93.6047C52.1292 93.7581 52.4659 93.8347 52.8459 93.8347C53.1592 93.8347 53.4426 93.7814 53.6959 93.6747C53.9559 93.5681 54.1826 93.4081 54.3759 93.1947L54.9059 93.8147C54.6659 94.0947 54.3659 94.3081 54.0059 94.4547C53.6526 94.6014 53.2559 94.6747 52.8159 94.6747ZM56.5789 94.6147V89.3147H57.4989V90.7547L57.4089 90.3947C57.5556 90.0281 57.8023 89.7481 58.1489 89.5547C58.4956 89.3614 58.9223 89.2647 59.4289 89.2647V90.1947C59.3889 90.1881 59.3489 90.1847 59.3089 90.1847C59.2756 90.1847 59.2423 90.1847 59.2089 90.1847C58.6956 90.1847 58.2889 90.3381 57.9889 90.6447C57.6889 90.9514 57.5389 91.3947 57.5389 91.9747V94.6147H56.5789Z" fill="#0C356A"/>
<path d="M87.69 47L90.66 40.42L90.92 40.87H86.76L87.26 40.38V42.12H86.3V40H91.58V40.68L88.75 47H87.69ZM102.202 41.65C102.629 41.65 103.005 41.7333 103.332 41.9C103.659 42.0667 103.912 42.32 104.092 42.66C104.279 43 104.372 43.43 104.372 43.95V47H103.412V44.06C103.412 43.5467 103.292 43.16 103.052 42.9C102.812 42.64 102.475 42.51 102.042 42.51C101.722 42.51 101.442 42.5767 101.202 42.71C100.962 42.8433 100.775 43.04 100.642 43.3C100.515 43.56 100.452 43.8833 100.452 44.27V47H99.4921V44.06C99.4921 43.5467 99.3721 43.16 99.1321 42.9C98.8988 42.64 98.5621 42.51 98.1221 42.51C97.8088 42.51 97.5321 42.5767 97.2921 42.71C97.0521 42.8433 96.8654 43.04 96.7321 43.3C96.5988 43.56 96.5321 43.8833 96.5321 44.27V47H95.5721V41.7H96.4921V43.11L96.3421 42.75C96.5088 42.4033 96.7654 42.1333 97.1121 41.94C97.4588 41.7467 97.8621 41.65 98.3221 41.65C98.8288 41.65 99.2654 41.7767 99.6321 42.03C99.9988 42.2767 100.239 42.6533 100.352 43.16L99.9621 43C100.122 42.5933 100.402 42.2667 100.802 42.02C101.202 41.7733 101.669 41.65 102.202 41.65ZM108.499 47.06C107.932 47.06 107.432 46.9433 106.999 46.71C106.572 46.4767 106.239 46.1567 105.999 45.75C105.765 45.3433 105.649 44.8767 105.649 44.35C105.649 43.8233 105.762 43.3567 105.989 42.95C106.222 42.5433 106.539 42.2267 106.939 42C107.345 41.7667 107.802 41.65 108.309 41.65C108.822 41.65 109.275 41.7633 109.669 41.99C110.062 42.2167 110.369 42.5367 110.589 42.95C110.815 43.3567 110.929 43.8333 110.929 44.38C110.929 44.42 110.925 44.4667 110.919 44.52C110.919 44.5733 110.915 44.6233 110.909 44.67H106.399V43.98H110.409L110.019 44.22C110.025 43.88 109.955 43.5767 109.809 43.31C109.662 43.0433 109.459 42.8367 109.199 42.69C108.945 42.5367 108.649 42.46 108.309 42.46C107.975 42.46 107.679 42.5367 107.419 42.69C107.159 42.8367 106.955 43.0467 106.809 43.32C106.662 43.5867 106.589 43.8933 106.589 44.24V44.4C106.589 44.7533 106.669 45.07 106.829 45.35C106.995 45.6233 107.225 45.8367 107.519 45.99C107.812 46.1433 108.149 46.22 108.529 46.22C108.842 46.22 109.125 46.1667 109.379 46.06C109.639 45.9533 109.865 45.7933 110.059 45.58L110.589 46.2C110.349 46.48 110.049 46.6933 109.689 46.84C109.335 46.9867 108.939 47.06 108.499 47.06ZM114.082 47.06C113.548 47.06 113.135 46.9167 112.842 46.63C112.548 46.3433 112.402 45.9333 112.402 45.4V40.54H113.362V45.36C113.362 45.6467 113.432 45.8667 113.572 46.02C113.718 46.1733 113.925 46.25 114.192 46.25C114.492 46.25 114.742 46.1667 114.942 46L115.242 46.69C115.095 46.8167 114.918 46.91 114.712 46.97C114.512 47.03 114.302 47.06 114.082 47.06ZM111.502 42.49V41.7H114.882V42.49H111.502ZM118.586 47.06C118.02 47.06 117.52 46.9433 117.086 46.71C116.66 46.4767 116.326 46.1567 116.086 45.75C115.853 45.3433 115.736 44.8767 115.736 44.35C115.736 43.8233 115.85 43.3567 116.076 42.95C116.31 42.5433 116.626 42.2267 117.026 42C117.433 41.7667 117.89 41.65 118.396 41.65C118.91 41.65 119.363 41.7633 119.756 41.99C120.15 42.2167 120.456 42.5367 120.676 42.95C120.903 43.3567 121.016 43.8333 121.016 44.38C121.016 44.42 121.013 44.4667 121.006 44.52C121.006 44.5733 121.003 44.6233 120.996 44.67H116.486V43.98H120.496L120.106 44.22C120.113 43.88 120.043 43.5767 119.896 43.31C119.75 43.0433 119.546 42.8367 119.286 42.69C119.033 42.5367 118.736 42.46 118.396 42.46C118.063 42.46 117.766 42.5367 117.506 42.69C117.246 42.8367 117.043 43.0467 116.896 43.32C116.75 43.5867 116.676 43.8933 116.676 44.24V44.4C116.676 44.7533 116.756 45.07 116.916 45.35C117.083 45.6233 117.313 45.8367 117.606 45.99C117.9 46.1433 118.236 46.22 118.616 46.22C118.93 46.22 119.213 46.1667 119.466 46.06C119.726 45.9533 119.953 45.7933 120.146 45.58L120.676 46.2C120.436 46.48 120.136 46.6933 119.776 46.84C119.423 46.9867 119.026 47.06 118.586 47.06ZM122.349 47V41.7H123.269V43.14L123.179 42.78C123.326 42.4133 123.573 42.1333 123.919 41.94C124.266 41.7467 124.693 41.65 125.199 41.65V42.58C125.159 42.5733 125.119 42.57 125.079 42.57C125.046 42.57 125.013 42.57 124.979 42.57C124.466 42.57 124.059 42.7233 123.759 43.03C123.459 43.3367 123.309 43.78 123.309 44.36V47H122.349Z" fill="#0C356A"/>
</svg>
