<svg width="180" height="83" viewBox="0 0 180 83" fill="none" xmlns="http://www.w3.org/2000/svg">
<rect x="1" y="1" width="131.341" height="69" fill="white" stroke="black" stroke-width="2"/>
<path d="M1.73145 69.2683L131.609 1.73169" stroke="#333333" stroke-dasharray="2 2"/>
<path d="M2.59766 2.59753L131.61 68.4024" stroke="#333333" stroke-dasharray="2 2"/>
<path d="M50.0867 81.08C49.5933 81.08 49.1133 81.0033 48.6467 80.85C48.1867 80.6967 47.81 80.49 47.5167 80.23L47.9767 79.44C48.21 79.66 48.5133 79.84 48.8867 79.98C49.26 80.12 49.6567 80.19 50.0767 80.19C50.61 80.19 51.02 80.0767 51.3067 79.85C51.5933 79.6233 51.7367 79.32 51.7367 78.94C51.7367 78.68 51.6733 78.4533 51.5467 78.26C51.42 78.0667 51.2 77.92 50.8867 77.82C50.58 77.7133 50.1567 77.66 49.6167 77.66H48.0267L48.3967 74H52.3467V74.87H48.7667L49.2867 74.38L48.9967 77.27L48.4767 76.79H49.8267C50.5267 76.79 51.09 76.88 51.5167 77.06C51.9433 77.24 52.2533 77.49 52.4467 77.81C52.64 78.1233 52.7367 78.4867 52.7367 78.9C52.7367 79.3 52.64 79.6667 52.4467 80C52.2533 80.3267 51.96 80.59 51.5667 80.79C51.18 80.9833 50.6867 81.08 50.0867 81.08ZM63.3144 75.65C63.7411 75.65 64.1177 75.7333 64.4444 75.9C64.7711 76.0667 65.0244 76.32 65.2044 76.66C65.3911 77 65.4844 77.43 65.4844 77.95V81H64.5244V78.06C64.5244 77.5467 64.4044 77.16 64.1644 76.9C63.9244 76.64 63.5877 76.51 63.1544 76.51C62.8344 76.51 62.5544 76.5767 62.3144 76.71C62.0744 76.8433 61.8877 77.04 61.7544 77.3C61.6277 77.56 61.5644 77.8833 61.5644 78.27V81H60.6044V78.06C60.6044 77.5467 60.4844 77.16 60.2444 76.9C60.0111 76.64 59.6744 76.51 59.2344 76.51C58.9211 76.51 58.6444 76.5767 58.4044 76.71C58.1644 76.8433 57.9777 77.04 57.8444 77.3C57.7111 77.56 57.6444 77.8833 57.6444 78.27V81H56.6844V75.7H57.6044V77.11L57.4544 76.75C57.6211 76.4033 57.8777 76.1333 58.2244 75.94C58.5711 75.7467 58.9744 75.65 59.4344 75.65C59.9411 75.65 60.3777 75.7767 60.7444 76.03C61.1111 76.2767 61.3511 76.6533 61.4644 77.16L61.0744 77C61.2344 76.5933 61.5144 76.2667 61.9144 76.02C62.3144 75.7733 62.7811 75.65 63.3144 75.65ZM69.6108 81.06C69.0442 81.06 68.5442 80.9433 68.1108 80.71C67.6842 80.4767 67.3508 80.1567 67.1108 79.75C66.8775 79.3433 66.7608 78.8767 66.7608 78.35C66.7608 77.8233 66.8742 77.3567 67.1008 76.95C67.3342 76.5433 67.6508 76.2267 68.0508 76C68.4575 75.7667 68.9142 75.65 69.4208 75.65C69.9342 75.65 70.3875 75.7633 70.7808 75.99C71.1742 76.2167 71.4808 76.5367 71.7008 76.95C71.9275 77.3567 72.0408 77.8333 72.0408 78.38C72.0408 78.42 72.0375 78.4667 72.0308 78.52C72.0308 78.5733 72.0275 78.6233 72.0208 78.67H67.5108V77.98H71.5208L71.1308 78.22C71.1375 77.88 71.0675 77.5767 70.9208 77.31C70.7742 77.0433 70.5708 76.8367 70.3108 76.69C70.0575 76.5367 69.7608 76.46 69.4208 76.46C69.0875 76.46 68.7908 76.5367 68.5308 76.69C68.2708 76.8367 68.0675 77.0467 67.9208 77.32C67.7742 77.5867 67.7008 77.8933 67.7008 78.24V78.4C67.7008 78.7533 67.7808 79.07 67.9408 79.35C68.1075 79.6233 68.3375 79.8367 68.6308 79.99C68.9242 80.1433 69.2608 80.22 69.6408 80.22C69.9542 80.22 70.2375 80.1667 70.4908 80.06C70.7508 79.9533 70.9775 79.7933 71.1708 79.58L71.7008 80.2C71.4608 80.48 71.1608 80.6933 70.8008 80.84C70.4475 80.9867 70.0508 81.06 69.6108 81.06ZM75.1939 81.06C74.6605 81.06 74.2472 80.9167 73.9539 80.63C73.6605 80.3433 73.5139 79.9333 73.5139 79.4V74.54H74.4739V79.36C74.4739 79.6467 74.5439 79.8667 74.6839 80.02C74.8305 80.1733 75.0372 80.25 75.3039 80.25C75.6039 80.25 75.8539 80.1667 76.0539 80L76.3539 80.69C76.2072 80.8167 76.0305 80.91 75.8239 80.97C75.6239 81.03 75.4139 81.06 75.1939 81.06ZM72.6139 76.49V75.7H75.9939V76.49H72.6139ZM79.6987 81.06C79.132 81.06 78.632 80.9433 78.1987 80.71C77.772 80.4767 77.4387 80.1567 77.1987 79.75C76.9654 79.3433 76.8487 78.8767 76.8487 78.35C76.8487 77.8233 76.962 77.3567 77.1887 76.95C77.422 76.5433 77.7387 76.2267 78.1387 76C78.5454 75.7667 79.002 75.65 79.5087 75.65C80.022 75.65 80.4754 75.7633 80.8687 75.99C81.262 76.2167 81.5687 76.5367 81.7887 76.95C82.0154 77.3567 82.1287 77.8333 82.1287 78.38C82.1287 78.42 82.1254 78.4667 82.1187 78.52C82.1187 78.5733 82.1154 78.6233 82.1087 78.67H77.5987V77.98H81.6087L81.2187 78.22C81.2254 77.88 81.1554 77.5767 81.0087 77.31C80.862 77.0433 80.6587 76.8367 80.3987 76.69C80.1454 76.5367 79.8487 76.46 79.5087 76.46C79.1754 76.46 78.8787 76.5367 78.6187 76.69C78.3587 76.8367 78.1554 77.0467 78.0087 77.32C77.862 77.5867 77.7887 77.8933 77.7887 78.24V78.4C77.7887 78.7533 77.8687 79.07 78.0287 79.35C78.1954 79.6233 78.4254 79.8367 78.7187 79.99C79.012 80.1433 79.3487 80.22 79.7287 80.22C80.042 80.22 80.3254 80.1667 80.5787 80.06C80.8387 79.9533 81.0654 79.7933 81.2587 79.58L81.7887 80.2C81.5487 80.48 81.2487 80.6933 80.8887 80.84C80.5354 80.9867 80.1387 81.06 79.6987 81.06ZM83.4618 81V75.7H84.3818V77.14L84.2918 76.78C84.4384 76.4133 84.6851 76.1333 85.0318 75.94C85.3784 75.7467 85.8051 75.65 86.3118 75.65V76.58C86.2718 76.5733 86.2318 76.57 86.1918 76.57C86.1584 76.57 86.1251 76.57 86.0918 76.57C85.5784 76.57 85.1718 76.7233 84.8718 77.03C84.5718 77.3367 84.4218 77.78 84.4218 78.36V81H83.4618Z" fill="#0C356A"/>
<path d="M141.62 40.08C141.127 40.08 140.647 40.0033 140.18 39.85C139.72 39.6967 139.343 39.49 139.05 39.23L139.51 38.44C139.743 38.66 140.047 38.84 140.42 38.98C140.793 39.12 141.193 39.19 141.62 39.19C142.14 39.19 142.543 39.08 142.83 38.86C143.123 38.6333 143.27 38.33 143.27 37.95C143.27 37.5833 143.13 37.29 142.85 37.07C142.577 36.8433 142.14 36.73 141.54 36.73H140.98V36.03L143.06 33.47L143.2 33.87H139.37V33H143.99V33.68L141.92 36.23L141.4 35.92H141.73C142.577 35.92 143.21 36.11 143.63 36.49C144.057 36.87 144.27 37.3533 144.27 37.94C144.27 38.3333 144.173 38.6933 143.98 39.02C143.787 39.3467 143.493 39.6067 143.1 39.8C142.713 39.9867 142.22 40.08 141.62 40.08ZM154.948 34.65C155.375 34.65 155.752 34.7333 156.078 34.9C156.405 35.0667 156.658 35.32 156.838 35.66C157.025 36 157.118 36.43 157.118 36.95V40H156.158V37.06C156.158 36.5467 156.038 36.16 155.798 35.9C155.558 35.64 155.222 35.51 154.788 35.51C154.468 35.51 154.188 35.5767 153.948 35.71C153.708 35.8433 153.522 36.04 153.388 36.3C153.262 36.56 153.198 36.8833 153.198 37.27V40H152.238V37.06C152.238 36.5467 152.118 36.16 151.878 35.9C151.645 35.64 151.308 35.51 150.868 35.51C150.555 35.51 150.278 35.5767 150.038 35.71C149.798 35.8433 149.612 36.04 149.478 36.3C149.345 36.56 149.278 36.8833 149.278 37.27V40H148.318V34.7H149.238V36.11L149.088 35.75C149.255 35.4033 149.512 35.1333 149.858 34.94C150.205 34.7467 150.608 34.65 151.068 34.65C151.575 34.65 152.012 34.7767 152.378 35.03C152.745 35.2767 152.985 35.6533 153.098 36.16L152.708 36C152.868 35.5933 153.148 35.2667 153.548 35.02C153.948 34.7733 154.415 34.65 154.948 34.65ZM161.245 40.06C160.678 40.06 160.178 39.9433 159.745 39.71C159.318 39.4767 158.985 39.1567 158.745 38.75C158.511 38.3433 158.395 37.8767 158.395 37.35C158.395 36.8233 158.508 36.3567 158.735 35.95C158.968 35.5433 159.285 35.2267 159.685 35C160.091 34.7667 160.548 34.65 161.055 34.65C161.568 34.65 162.021 34.7633 162.415 34.99C162.808 35.2167 163.115 35.5367 163.335 35.95C163.561 36.3567 163.675 36.8333 163.675 37.38C163.675 37.42 163.671 37.4667 163.665 37.52C163.665 37.5733 163.661 37.6233 163.655 37.67H159.145V36.98H163.155L162.765 37.22C162.771 36.88 162.701 36.5767 162.555 36.31C162.408 36.0433 162.205 35.8367 161.945 35.69C161.691 35.5367 161.395 35.46 161.055 35.46C160.721 35.46 160.425 35.5367 160.165 35.69C159.905 35.8367 159.701 36.0467 159.555 36.32C159.408 36.5867 159.335 36.8933 159.335 37.24V37.4C159.335 37.7533 159.415 38.07 159.575 38.35C159.741 38.6233 159.971 38.8367 160.265 38.99C160.558 39.1433 160.895 39.22 161.275 39.22C161.588 39.22 161.871 39.1667 162.125 39.06C162.385 38.9533 162.611 38.7933 162.805 38.58L163.335 39.2C163.095 39.48 162.795 39.6933 162.435 39.84C162.081 39.9867 161.685 40.06 161.245 40.06ZM166.828 40.06C166.294 40.06 165.881 39.9167 165.588 39.63C165.294 39.3433 165.148 38.9333 165.148 38.4V33.54H166.108V38.36C166.108 38.6467 166.178 38.8667 166.318 39.02C166.464 39.1733 166.671 39.25 166.938 39.25C167.238 39.25 167.488 39.1667 167.688 39L167.988 39.69C167.841 39.8167 167.664 39.91 167.458 39.97C167.258 40.03 167.048 40.06 166.828 40.06ZM164.248 35.49V34.7H167.628V35.49H164.248ZM171.333 40.06C170.766 40.06 170.266 39.9433 169.833 39.71C169.406 39.4767 169.073 39.1567 168.833 38.75C168.599 38.3433 168.483 37.8767 168.483 37.35C168.483 36.8233 168.596 36.3567 168.823 35.95C169.056 35.5433 169.373 35.2267 169.773 35C170.179 34.7667 170.636 34.65 171.143 34.65C171.656 34.65 172.109 34.7633 172.503 34.99C172.896 35.2167 173.203 35.5367 173.423 35.95C173.649 36.3567 173.763 36.8333 173.763 37.38C173.763 37.42 173.759 37.4667 173.753 37.52C173.753 37.5733 173.749 37.6233 173.743 37.67H169.233V36.98H173.243L172.853 37.22C172.859 36.88 172.789 36.5767 172.643 36.31C172.496 36.0433 172.293 35.8367 172.033 35.69C171.779 35.5367 171.483 35.46 171.143 35.46C170.809 35.46 170.513 35.5367 170.253 35.69C169.993 35.8367 169.789 36.0467 169.643 36.32C169.496 36.5867 169.423 36.8933 169.423 37.24V37.4C169.423 37.7533 169.503 38.07 169.663 38.35C169.829 38.6233 170.059 38.8367 170.353 38.99C170.646 39.1433 170.983 39.22 171.363 39.22C171.676 39.22 171.959 39.1667 172.213 39.06C172.473 38.9533 172.699 38.7933 172.893 38.58L173.423 39.2C173.183 39.48 172.883 39.6933 172.523 39.84C172.169 39.9867 171.773 40.06 171.333 40.06ZM175.096 40V34.7H176.016V36.14L175.926 35.78C176.072 35.4133 176.319 35.1333 176.666 34.94C177.012 34.7467 177.439 34.65 177.946 34.65V35.58C177.906 35.5733 177.866 35.57 177.826 35.57C177.792 35.57 177.759 35.57 177.726 35.57C177.212 35.57 176.806 35.7233 176.506 36.03C176.206 36.3367 176.056 36.78 176.056 37.36V40H175.096Z" fill="#0C356A"/>
</svg>
