<svg width="184" height="107" viewBox="0 0 184 107" fill="none" xmlns="http://www.w3.org/2000/svg">
<path d="M85.6796 7V1.72L86.0236 2.096H84.4156V1.4H86.4716V7H85.6796ZM89.9845 7.064C89.5472 7.064 89.1552 6.952 88.8085 6.728C88.4672 6.504 88.1952 6.17867 87.9925 5.752C87.7952 5.32533 87.6965 4.808 87.6965 4.2C87.6965 3.592 87.7952 3.07467 87.9925 2.648C88.1952 2.22133 88.4672 1.896 88.8085 1.672C89.1552 1.448 89.5472 1.336 89.9845 1.336C90.4165 1.336 90.8058 1.448 91.1525 1.672C91.4992 1.896 91.7712 2.22133 91.9685 2.648C92.1658 3.07467 92.2645 3.592 92.2645 4.2C92.2645 4.808 92.1658 5.32533 91.9685 5.752C91.7712 6.17867 91.4992 6.504 91.1525 6.728C90.8058 6.952 90.4165 7.064 89.9845 7.064ZM89.9845 6.352C90.2778 6.352 90.5338 6.272 90.7525 6.112C90.9765 5.952 91.1498 5.712 91.2725 5.392C91.4005 5.072 91.4645 4.67467 91.4645 4.2C91.4645 3.72533 91.4005 3.328 91.2725 3.008C91.1498 2.688 90.9765 2.448 90.7525 2.288C90.5338 2.128 90.2778 2.048 89.9845 2.048C89.6912 2.048 89.4325 2.128 89.2085 2.288C88.9845 2.448 88.8085 2.688 88.6805 3.008C88.5578 3.328 88.4965 3.72533 88.4965 4.2C88.4965 4.67467 88.5578 5.072 88.6805 5.392C88.8085 5.712 88.9845 5.952 89.2085 6.112C89.4325 6.272 89.6912 6.352 89.9845 6.352Z" fill="#0C356A"/>
<path d="M161.216 36.096C160.827 36.096 160.44 36.0453 160.056 35.944C159.677 35.8373 159.352 35.688 159.08 35.496L159.592 34.504C159.805 34.6587 160.051 34.7813 160.328 34.872C160.611 34.9627 160.896 35.008 161.184 35.008C161.509 35.008 161.765 34.944 161.952 34.816C162.139 34.688 162.232 34.5093 162.232 34.28C162.232 34.136 162.195 34.008 162.12 33.896C162.045 33.784 161.912 33.6987 161.72 33.64C161.533 33.5813 161.269 33.552 160.928 33.552H159.496L159.784 30.4H163.2V31.44H160.248L160.92 30.848L160.72 33.096L160.048 32.504H161.232C161.787 32.504 162.232 32.5813 162.568 32.736C162.909 32.8853 163.157 33.0907 163.312 33.352C163.467 33.6133 163.544 33.9093 163.544 34.24C163.544 34.5707 163.461 34.8773 163.296 35.16C163.131 35.4373 162.875 35.664 162.528 35.84C162.187 36.0107 161.749 36.096 161.216 36.096Z" fill="#0C356A"/>
<path d="M159.248 76.824V75.952L161.888 72.4H163.248L160.664 75.952L160.032 75.768H164.44V76.824H159.248ZM162.264 78V76.824L162.304 75.768V74.72H163.528V78H162.264Z" fill="#0C356A"/>
<path d="M11.8951 36.064C11.5005 36.064 11.1165 36.0027 10.7431 35.88C10.3751 35.7573 10.0738 35.592 9.83913 35.384L10.2071 34.752C10.3938 34.928 10.6365 35.072 10.9351 35.184C11.2338 35.296 11.5511 35.352 11.8871 35.352C12.3138 35.352 12.6418 35.2613 12.8711 35.08C13.1005 34.8987 13.2151 34.656 13.2151 34.352C13.2151 34.144 13.1645 33.9627 13.0631 33.808C12.9618 33.6533 12.7858 33.536 12.5351 33.456C12.2898 33.3707 11.9511 33.328 11.5191 33.328H10.2471L10.5431 30.4H13.7031V31.096H10.8391L11.2551 30.704L11.0231 33.016L10.6071 32.632H11.6871C12.2471 32.632 12.6978 32.704 13.0391 32.848C13.3805 32.992 13.6285 33.192 13.7831 33.448C13.9378 33.6987 14.0151 33.9893 14.0151 34.32C14.0151 34.64 13.9378 34.9333 13.7831 35.2C13.6285 35.4613 13.3938 35.672 13.0791 35.832C12.7698 35.9867 12.3751 36.064 11.8951 36.064Z" fill="#0C356A"/>
<path d="M70.2691 64.096C69.7571 64.096 69.3118 63.9893 68.9331 63.776C68.5598 63.5627 68.2718 63.2507 68.0691 62.84C67.8665 62.4293 67.7651 61.9227 67.7651 61.32C67.7651 60.6747 67.8851 60.128 68.1251 59.68C68.3705 59.232 68.7065 58.8907 69.1331 58.656C69.5651 58.4213 70.0611 58.304 70.6211 58.304C70.9198 58.304 71.2051 58.336 71.4771 58.4C71.7491 58.464 71.9838 58.56 72.1811 58.688L71.7011 59.64C71.5465 59.5333 71.3811 59.4613 71.2051 59.424C71.0291 59.3813 70.8451 59.36 70.6531 59.36C70.1678 59.36 69.7838 59.5067 69.5011 59.8C69.2185 60.0933 69.0771 60.528 69.0771 61.104C69.0771 61.2 69.0771 61.3067 69.0771 61.424C69.0825 61.5413 69.0985 61.6587 69.1251 61.776L68.7651 61.44C68.8665 61.232 68.9971 61.0587 69.1571 60.92C69.3171 60.776 69.5065 60.6693 69.7251 60.6C69.9491 60.5253 70.1945 60.488 70.4611 60.488C70.8238 60.488 71.1491 60.56 71.4371 60.704C71.7251 60.848 71.9545 61.0507 72.1251 61.312C72.3011 61.5733 72.3891 61.88 72.3891 62.232C72.3891 62.6107 72.2931 62.9413 72.1011 63.224C71.9145 63.5013 71.6611 63.7173 71.3411 63.872C71.0265 64.0213 70.6691 64.096 70.2691 64.096ZM70.1971 63.128C70.3785 63.128 70.5385 63.096 70.6771 63.032C70.8211 62.9627 70.9331 62.864 71.0131 62.736C71.0931 62.608 71.1331 62.4613 71.1331 62.296C71.1331 62.04 71.0451 61.8373 70.8691 61.688C70.6985 61.5333 70.4691 61.456 70.1811 61.456C69.9891 61.456 69.8211 61.4933 69.6771 61.568C69.5331 61.6373 69.4185 61.736 69.3331 61.864C69.2531 61.9867 69.2131 62.1307 69.2131 62.296C69.2131 62.456 69.2531 62.6 69.3331 62.728C69.4131 62.8507 69.5251 62.9493 69.6691 63.024C69.8131 63.0933 69.9891 63.128 70.1971 63.128Z" fill="#0C356A"/>
<path d="M99.7324 76.824V75.952L102.372 72.4H103.732L101.148 75.952L100.516 75.768H104.924V76.824H99.7324ZM102.748 78V76.824L102.788 75.768V74.72H104.012V78H102.748Z" fill="#0C356A"/>
<path d="M131.128 103.624V103.064L133.992 99.4H134.856L132.016 103.064L131.608 102.936H136.08V103.624H131.128ZM134.24 105V103.624L134.264 102.936V101.72H135.016V105H134.24Z" fill="#0C356A"/>
<path d="M23.4999 53.9999L23.4988 54.4999H23.9988H153.027L153.606 54.6883L153.607 53.9999L153.695 12L153.696 11.5H153.196H24.1682L23.5893 11.3116L23.5879 12L23.4999 53.9999Z" fill="white" stroke="#0C356A"/>
<path d="M110.5 96.9999L110.499 97.4999H110.999H152.792L153.497 98.207L153.499 97.4999H154.206L153.5 96.7928L153.588 55L153.589 54.5H153.089H111.296L110.59 53.7929L110.589 54.5H109.882L110.587 55.2071L110.5 96.9999Z" fill="white" stroke="#0C356A"/>
</svg>
