<svg width="171" height="99" viewBox="0 0 171 99" fill="none" xmlns="http://www.w3.org/2000/svg">
<rect x="1" y="1.23926" width="136" height="78" fill="white" stroke="black" stroke-width="2"/>
<path d="M1.79297 78.288L136.209 2.19043" stroke="#333333" stroke-dasharray="2 2"/>
<path d="M2.68848 3.16614L136.208 77.3125" stroke="#333333" stroke-dasharray="2 2"/>
<path d="M57.3123 94.6147V88.0147L57.7423 88.4847H55.7323V87.6147H58.3023V94.6147H57.3123ZM59.7235 94.6147V93.9347L62.5735 91.1847C62.8268 90.9447 63.0135 90.7347 63.1335 90.5547C63.2602 90.3681 63.3435 90.1981 63.3835 90.0447C63.4302 89.8847 63.4535 89.7314 63.4535 89.5847C63.4535 89.2247 63.3268 88.9414 63.0735 88.7347C62.8202 88.5281 62.4502 88.4247 61.9635 88.4247C61.5902 88.4247 61.2535 88.4881 60.9535 88.6147C60.6535 88.7347 60.3935 88.9247 60.1735 89.1847L59.4935 88.5947C59.7602 88.2547 60.1168 87.9947 60.5635 87.8147C61.0168 87.6281 61.5135 87.5347 62.0535 87.5347C62.5402 87.5347 62.9635 87.6147 63.3235 87.7747C63.6835 87.9281 63.9602 88.1514 64.1535 88.4447C64.3535 88.7381 64.4535 89.0847 64.4535 89.4847C64.4535 89.7114 64.4235 89.9347 64.3635 90.1547C64.3035 90.3747 64.1902 90.6081 64.0235 90.8547C63.8568 91.1014 63.6168 91.3781 63.3035 91.6847L60.7635 94.1347L60.5235 93.7447H64.7535V94.6147H59.7235ZM75.3213 89.2647C75.7479 89.2647 76.1246 89.3481 76.4513 89.5147C76.7779 89.6814 77.0313 89.9347 77.2113 90.2747C77.3979 90.6147 77.4913 91.0447 77.4913 91.5647V94.6147H76.5313V91.6747C76.5313 91.1614 76.4113 90.7747 76.1713 90.5147C75.9313 90.2547 75.5946 90.1247 75.1613 90.1247C74.8413 90.1247 74.5613 90.1914 74.3213 90.3247C74.0813 90.4581 73.8946 90.6547 73.7613 90.9147C73.6346 91.1747 73.5713 91.4981 73.5713 91.8847V94.6147H72.6113V91.6747C72.6113 91.1614 72.4913 90.7747 72.2513 90.5147C72.0179 90.2547 71.6813 90.1247 71.2413 90.1247C70.9279 90.1247 70.6513 90.1914 70.4113 90.3247C70.1713 90.4581 69.9846 90.6547 69.8513 90.9147C69.7179 91.1747 69.6513 91.4981 69.6513 91.8847V94.6147H68.6913V89.3147H69.6113V90.7247L69.4613 90.3647C69.6279 90.0181 69.8846 89.7481 70.2313 89.5547C70.5779 89.3614 70.9813 89.2647 71.4413 89.2647C71.9479 89.2647 72.3846 89.3914 72.7513 89.6447C73.1179 89.8914 73.3579 90.2681 73.4713 90.7747L73.0813 90.6147C73.2413 90.2081 73.5213 89.8814 73.9213 89.6347C74.3213 89.3881 74.7879 89.2647 75.3213 89.2647Z" fill="#0C356A"/>
<path d="M146.74 47.08C146.247 47.08 145.767 47.0033 145.3 46.85C144.84 46.6967 144.463 46.49 144.17 46.23L144.63 45.44C144.863 45.66 145.167 45.84 145.54 45.98C145.913 46.12 146.31 46.19 146.73 46.19C147.263 46.19 147.673 46.0767 147.96 45.85C148.247 45.6233 148.39 45.32 148.39 44.94C148.39 44.68 148.327 44.4533 148.2 44.26C148.073 44.0667 147.853 43.92 147.54 43.82C147.233 43.7133 146.81 43.66 146.27 43.66H144.68L145.05 40H149V40.87H145.42L145.94 40.38L145.65 43.27L145.13 42.79H146.48C147.18 42.79 147.743 42.88 148.17 43.06C148.597 43.24 148.907 43.49 149.1 43.81C149.293 44.1233 149.39 44.4867 149.39 44.9C149.39 45.3 149.293 45.6667 149.1 46C148.907 46.3267 148.613 46.59 148.22 46.79C147.833 46.9833 147.34 47.08 146.74 47.08ZM159.968 41.65C160.394 41.65 160.771 41.7333 161.098 41.9C161.424 42.0667 161.678 42.32 161.858 42.66C162.044 43 162.138 43.43 162.138 43.95V47H161.178V44.06C161.178 43.5467 161.058 43.16 160.818 42.9C160.578 42.64 160.241 42.51 159.808 42.51C159.488 42.51 159.208 42.5767 158.968 42.71C158.728 42.8433 158.541 43.04 158.408 43.3C158.281 43.56 158.218 43.8833 158.218 44.27V47H157.258V44.06C157.258 43.5467 157.138 43.16 156.898 42.9C156.664 42.64 156.328 42.51 155.888 42.51C155.574 42.51 155.298 42.5767 155.058 42.71C154.818 42.8433 154.631 43.04 154.498 43.3C154.364 43.56 154.298 43.8833 154.298 44.27V47H153.338V41.7H154.258V43.11L154.108 42.75C154.274 42.4033 154.531 42.1333 154.878 41.94C155.224 41.7467 155.628 41.65 156.088 41.65C156.594 41.65 157.031 41.7767 157.398 42.03C157.764 42.2767 158.004 42.6533 158.118 43.16L157.728 43C157.888 42.5933 158.168 42.2667 158.568 42.02C158.968 41.7733 159.434 41.65 159.968 41.65Z" fill="#0C356A"/>
</svg>
