<svg width="67" height="80" viewBox="0 0 67 80" fill="none" xmlns="http://www.w3.org/2000/svg">
<path d="M0.500156 64.9999L0.499108 65.4999H0.999108H64.792L65.4976 66.207L65.4991 65.4999H66.2062L65.5006 64.7928L65.6343 1L65.6353 0.500001H65.1353H1.34243L0.636807 -0.207104L0.635325 0.500001H-0.0717815L0.633843 1.20711L0.500156 64.9999Z" fill="white" stroke="#0C356A"/>
<path d="M23.0029 74.5166V69.3166L23.4589 69.7886H21.8189V68.9166H24.0429V74.5166H23.0029ZM24.5738 73.2446V72.5246L27.3338 68.9166H28.4458L25.7258 72.5246L25.2058 72.3646H29.6458V73.2446H24.5738ZM27.6458 74.5166V73.2446L27.6778 72.3646V71.2366H28.6538V74.5166H27.6458ZM33.5584 74.5726C33.1104 74.5726 32.7104 74.4793 32.3584 74.2926C32.0117 74.1006 31.7397 73.8393 31.5424 73.5086C31.345 73.1779 31.2464 72.8019 31.2464 72.3806C31.2464 71.9539 31.345 71.5779 31.5424 71.2526C31.7397 70.9219 32.0117 70.6633 32.3584 70.4766C32.7104 70.2899 33.1104 70.1966 33.5584 70.1966C33.9744 70.1966 34.3397 70.2819 34.6544 70.4526C34.9744 70.6179 35.217 70.8633 35.3824 71.1886L34.6144 71.6366C34.4864 71.4339 34.329 71.2846 34.1424 71.1886C33.961 71.0926 33.7637 71.0446 33.5504 71.0446C33.305 71.0446 33.0837 71.0979 32.8864 71.2046C32.689 71.3113 32.5344 71.4659 32.4224 71.6686C32.3104 71.8659 32.2544 72.1033 32.2544 72.3806C32.2544 72.6579 32.3104 72.8979 32.4224 73.1006C32.5344 73.2979 32.689 73.4499 32.8864 73.5566C33.0837 73.6633 33.305 73.7166 33.5504 73.7166C33.7637 73.7166 33.961 73.6686 34.1424 73.5726C34.329 73.4766 34.4864 73.3273 34.6144 73.1246L35.3824 73.5726C35.217 73.8926 34.9744 74.1406 34.6544 74.3166C34.3397 74.4873 33.9744 74.5726 33.5584 74.5726ZM41.1388 70.1966C41.4802 70.1966 41.7815 70.2633 42.0428 70.3966C42.3095 70.5299 42.5175 70.7353 42.6668 71.0126C42.8162 71.2846 42.8908 71.6366 42.8908 72.0686V74.5166H41.8908V72.1966C41.8908 71.8179 41.8082 71.5353 41.6428 71.3486C41.4775 71.1619 41.2402 71.0686 40.9308 71.0686C40.7122 71.0686 40.5175 71.1166 40.3468 71.2126C40.1815 71.3086 40.0508 71.4499 39.9548 71.6366C39.8642 71.8233 39.8188 72.0606 39.8188 72.3486V74.5166H38.8188V72.1966C38.8188 71.8179 38.7362 71.5353 38.5708 71.3486C38.4055 71.1619 38.1682 71.0686 37.8588 71.0686C37.6402 71.0686 37.4455 71.1166 37.2748 71.2126C37.1095 71.3086 36.9788 71.4499 36.8828 71.6366C36.7922 71.8233 36.7468 72.0606 36.7468 72.3486V74.5166H35.7468V70.2446H36.6988V71.3806L36.5308 71.0446C36.6748 70.7673 36.8828 70.5566 37.1548 70.4126C37.4322 70.2686 37.7468 70.1966 38.0988 70.1966C38.4988 70.1966 38.8455 70.2953 39.1388 70.4926C39.4375 70.6899 39.6348 70.9886 39.7308 71.3886L39.3388 71.2526C39.4775 70.9326 39.7068 70.6766 40.0268 70.4846C40.3468 70.2926 40.7175 70.1966 41.1388 70.1966Z" fill="#0C356A"/>
</svg>
