<svg width="129" height="152" viewBox="0 0 129 152" fill="none" xmlns="http://www.w3.org/2000/svg">
<path d="M28.8748 151V134.2H37.0828C39.1948 134.2 40.7788 134.6 41.8348 135.4C42.9068 136.2 43.4428 137.256 43.4428 138.568C43.4428 139.448 43.2268 140.216 42.7948 140.872C42.3628 141.512 41.7708 142.008 41.0188 142.36C40.2668 142.712 39.4028 142.888 38.4268 142.888L38.8828 141.904C39.9388 141.904 40.8748 142.08 41.6908 142.432C42.5068 142.768 43.1388 143.272 43.5868 143.944C44.0508 144.616 44.2828 145.44 44.2828 146.416C44.2828 147.856 43.7148 148.984 42.5788 149.8C41.4428 150.6 39.7708 151 37.5628 151H28.8748ZM32.7388 148.072H37.2748C38.2828 148.072 39.0428 147.912 39.5548 147.592C40.0828 147.256 40.3468 146.728 40.3468 146.008C40.3468 145.304 40.0828 144.784 39.5548 144.448C39.0428 144.096 38.2828 143.92 37.2748 143.92H32.4508V141.088H36.6028C37.5468 141.088 38.2668 140.928 38.7628 140.608C39.2748 140.272 39.5308 139.768 39.5308 139.096C39.5308 138.44 39.2748 137.952 38.7628 137.632C38.2668 137.296 37.5468 137.128 36.6028 137.128H32.7388V148.072ZM53.3704 151.192C51.8984 151.192 50.6024 150.904 49.4824 150.328C48.3784 149.752 47.5224 148.968 46.9144 147.976C46.3064 146.968 46.0024 145.824 46.0024 144.544C46.0024 143.248 46.2984 142.104 46.8904 141.112C47.4984 140.104 48.3224 139.32 49.3624 138.76C50.4024 138.184 51.5784 137.896 52.8904 137.896C54.1544 137.896 55.2904 138.168 56.2984 138.712C57.3224 139.24 58.1304 140.008 58.7224 141.016C59.3144 142.008 59.6104 143.2 59.6104 144.592C59.6104 144.736 59.6024 144.904 59.5864 145.096C59.5704 145.272 59.5544 145.44 59.5384 145.6H49.0504V143.416H57.5704L56.1304 144.064C56.1304 143.392 55.9944 142.808 55.7224 142.312C55.4504 141.816 55.0744 141.432 54.5944 141.16C54.1144 140.872 53.5544 140.728 52.9144 140.728C52.2744 140.728 51.7064 140.872 51.2104 141.16C50.7304 141.432 50.3544 141.824 50.0824 142.336C49.8104 142.832 49.6744 143.424 49.6744 144.112V144.688C49.6744 145.392 49.8264 146.016 50.1304 146.56C50.4504 147.088 50.8904 147.496 51.4504 147.784C52.0264 148.056 52.6984 148.192 53.4664 148.192C54.1544 148.192 54.7544 148.088 55.2664 147.88C55.7944 147.672 56.2744 147.36 56.7064 146.944L58.6984 149.104C58.1064 149.776 57.3624 150.296 56.4664 150.664C55.5704 151.016 54.5384 151.192 53.3704 151.192ZM69.951 137.896C70.975 137.896 71.887 138.104 72.687 138.52C73.503 138.92 74.143 139.544 74.607 140.392C75.071 141.224 75.303 142.296 75.303 143.608V151H71.559V144.184C71.559 143.144 71.327 142.376 70.863 141.88C70.415 141.384 69.775 141.136 68.943 141.136C68.351 141.136 67.815 141.264 67.335 141.52C66.871 141.76 66.503 142.136 66.231 142.648C65.975 143.16 65.847 143.816 65.847 144.616V151H62.103V138.088H65.679V141.664L65.007 140.584C65.471 139.72 66.135 139.056 66.999 138.592C67.863 138.128 68.847 137.896 69.951 137.896ZM86.6168 151V148.48L86.3768 147.928V143.416C86.3768 142.616 86.1288 141.992 85.6328 141.544C85.1528 141.096 84.4088 140.872 83.4008 140.872C82.7128 140.872 82.0328 140.984 81.3608 141.208C80.7048 141.416 80.1448 141.704 79.6808 142.072L78.3368 139.456C79.0408 138.96 79.8888 138.576 80.8808 138.304C81.8728 138.032 82.8808 137.896 83.9048 137.896C85.8728 137.896 87.4008 138.36 88.4888 139.288C89.5768 140.216 90.1208 141.664 90.1208 143.632V151H86.6168ZM82.6808 151.192C81.6728 151.192 80.8088 151.024 80.0888 150.688C79.3688 150.336 78.8168 149.864 78.4328 149.272C78.0488 148.68 77.8568 148.016 77.8568 147.28C77.8568 146.512 78.0408 145.84 78.4088 145.264C78.7928 144.688 79.3928 144.24 80.2088 143.92C81.0248 143.584 82.0888 143.416 83.4008 143.416H86.8328V145.6H83.8088C82.9288 145.6 82.3208 145.744 81.9848 146.032C81.6648 146.32 81.5048 146.68 81.5048 147.112C81.5048 147.592 81.6888 147.976 82.0568 148.264C82.4408 148.536 82.9608 148.672 83.6168 148.672C84.2408 148.672 84.8008 148.528 85.2968 148.24C85.7928 147.936 86.1528 147.496 86.3768 146.92L86.9528 148.648C86.6808 149.48 86.1848 150.112 85.4648 150.544C84.7448 150.976 83.8168 151.192 82.6808 151.192ZM93.5093 151V138.088H97.0853V141.736L96.5813 140.68C96.9653 139.768 97.5813 139.08 98.4293 138.616C99.2773 138.136 100.309 137.896 101.525 137.896V141.352C101.365 141.336 101.221 141.328 101.093 141.328C100.965 141.312 100.829 141.304 100.685 141.304C99.6613 141.304 98.8293 141.6 98.1893 142.192C97.5653 142.768 97.2533 143.672 97.2533 144.904V151H93.5093Z" fill="#29D53A"/>
<path fill-rule="evenodd" clip-rule="evenodd" d="M64 100C91.615 100 114 77.615 114 50C114 22.385 91.615 0 64 0C36.385 0 14 22.385 14 50C14 77.615 36.385 100 64 100ZM90.855 34.175C91.0889 33.934 91.2719 33.6484 91.393 33.3352C91.5141 33.0219 91.5708 32.6875 91.5598 32.3519C91.5488 32.0162 91.4703 31.6862 91.329 31.3816C91.1877 31.0769 90.9864 30.8039 90.7372 30.5788C90.4881 30.3536 90.1961 30.181 89.8787 30.0711C89.5614 29.9613 89.2251 29.9166 88.8901 29.9396C88.555 29.9625 88.2281 30.0528 87.9287 30.2049C87.6293 30.357 87.3636 30.5679 87.1475 30.825L57.2 63.9175L40.725 48.19C40.2456 47.7318 39.6039 47.4829 38.9409 47.4979C38.278 47.5129 37.6482 47.7906 37.19 48.27C36.7318 48.7494 36.4829 49.3911 36.4979 50.0541C36.5129 50.717 36.7906 51.3468 37.27 51.805L55.605 69.305L57.4625 71.08L59.185 69.175L90.855 34.175Z" fill="#29D53A"/>
</svg>
