<svg width="129" height="152" viewBox="0 0 129 152" fill="none" xmlns="http://www.w3.org/2000/svg">
<path d="M37.6409 151.288C36.2969 151.288 35.0089 151.112 33.7769 150.76C32.5449 150.392 31.5529 149.92 30.8009 149.344L32.1209 146.416C32.8409 146.928 33.6889 147.352 34.6649 147.688C35.6569 148.008 36.6569 148.168 37.6649 148.168C38.4329 148.168 39.0489 148.096 39.5129 147.952C39.9929 147.792 40.3449 147.576 40.5689 147.304C40.7929 147.032 40.9049 146.72 40.9049 146.368C40.9049 145.92 40.7289 145.568 40.3769 145.312C40.0249 145.04 39.5609 144.824 38.9849 144.664C38.4089 144.488 37.7689 144.328 37.0649 144.184C36.3769 144.024 35.6809 143.832 34.9769 143.608C34.2889 143.384 33.6569 143.096 33.0809 142.744C32.5049 142.392 32.0329 141.928 31.6649 141.352C31.3129 140.776 31.1369 140.04 31.1369 139.144C31.1369 138.184 31.3929 137.312 31.9049 136.528C32.4329 135.728 33.2169 135.096 34.2569 134.632C35.3129 134.152 36.6329 133.912 38.2169 133.912C39.2729 133.912 40.3129 134.04 41.3369 134.296C42.3609 134.536 43.2649 134.904 44.0489 135.4L42.8489 138.352C42.0649 137.904 41.2809 137.576 40.4969 137.368C39.7129 137.144 38.9449 137.032 38.1929 137.032C37.4409 137.032 36.8249 137.12 36.3449 137.296C35.8649 137.472 35.5209 137.704 35.3129 137.992C35.1049 138.264 35.0009 138.584 35.0009 138.952C35.0009 139.384 35.1769 139.736 35.5289 140.008C35.8809 140.264 36.3449 140.472 36.9209 140.632C37.4969 140.792 38.1289 140.952 38.8169 141.112C39.5209 141.272 40.2169 141.456 40.9049 141.664C41.6089 141.872 42.2489 142.152 42.8249 142.504C43.4009 142.856 43.8649 143.32 44.2169 143.896C44.5849 144.472 44.7689 145.2 44.7689 146.08C44.7689 147.024 44.5049 147.888 43.9769 148.672C43.4489 149.456 42.6569 150.088 41.6009 150.568C40.5609 151.048 39.2409 151.288 37.6409 151.288ZM55.0816 151V148.48L54.8416 147.928V143.416C54.8416 142.616 54.5936 141.992 54.0976 141.544C53.6176 141.096 52.8736 140.872 51.8656 140.872C51.1776 140.872 50.4976 140.984 49.8256 141.208C49.1696 141.416 48.6096 141.704 48.1456 142.072L46.8016 139.456C47.5056 138.96 48.3536 138.576 49.3456 138.304C50.3376 138.032 51.3456 137.896 52.3696 137.896C54.3376 137.896 55.8656 138.36 56.9536 139.288C58.0416 140.216 58.5856 141.664 58.5856 143.632V151H55.0816ZM51.1456 151.192C50.1376 151.192 49.2736 151.024 48.5536 150.688C47.8336 150.336 47.2816 149.864 46.8976 149.272C46.5136 148.68 46.3216 148.016 46.3216 147.28C46.3216 146.512 46.5056 145.84 46.8736 145.264C47.2576 144.688 47.8576 144.24 48.6736 143.92C49.4896 143.584 50.5536 143.416 51.8656 143.416H55.2976V145.6H52.2736C51.3936 145.6 50.7856 145.744 50.4496 146.032C50.1296 146.32 49.9696 146.68 49.9696 147.112C49.9696 147.592 50.1536 147.976 50.5216 148.264C50.9056 148.536 51.4256 148.672 52.0816 148.672C52.7056 148.672 53.2656 148.528 53.7616 148.24C54.2576 147.936 54.6176 147.496 54.8416 146.92L55.4176 148.648C55.1456 149.48 54.6496 150.112 53.9296 150.544C53.2096 150.976 52.2816 151.192 51.1456 151.192ZM61.9741 151V133.192H65.7181V151H61.9741ZM77.1128 151V148.48L76.8728 147.928V143.416C76.8728 142.616 76.6248 141.992 76.1288 141.544C75.6488 141.096 74.9048 140.872 73.8968 140.872C73.2088 140.872 72.5288 140.984 71.8568 141.208C71.2008 141.416 70.6408 141.704 70.1768 142.072L68.8328 139.456C69.5368 138.96 70.3848 138.576 71.3768 138.304C72.3688 138.032 73.3768 137.896 74.4008 137.896C76.3688 137.896 77.8968 138.36 78.9848 139.288C80.0728 140.216 80.6168 141.664 80.6168 143.632V151H77.1128ZM73.1768 151.192C72.1688 151.192 71.3048 151.024 70.5848 150.688C69.8648 150.336 69.3128 149.864 68.9288 149.272C68.5448 148.68 68.3528 148.016 68.3528 147.28C68.3528 146.512 68.5368 145.84 68.9048 145.264C69.2888 144.688 69.8888 144.24 70.7048 143.92C71.5208 143.584 72.5848 143.416 73.8968 143.416H77.3288V145.6H74.3048C73.4248 145.6 72.8168 145.744 72.4808 146.032C72.1608 146.32 72.0008 146.68 72.0008 147.112C72.0008 147.592 72.1848 147.976 72.5528 148.264C72.9368 148.536 73.4568 148.672 74.1128 148.672C74.7368 148.672 75.2968 148.528 75.7928 148.24C76.2888 147.936 76.6488 147.496 76.8728 146.92L77.4488 148.648C77.1768 149.48 76.6808 150.112 75.9608 150.544C75.2408 150.976 74.3128 151.192 73.1768 151.192ZM91.8533 137.896C92.8773 137.896 93.7893 138.104 94.5893 138.52C95.4053 138.92 96.0453 139.544 96.5093 140.392C96.9733 141.224 97.2053 142.296 97.2053 143.608V151H93.4613V144.184C93.4613 143.144 93.2293 142.376 92.7653 141.88C92.3173 141.384 91.6773 141.136 90.8453 141.136C90.2533 141.136 89.7173 141.264 89.2373 141.52C88.7733 141.76 88.4053 142.136 88.1333 142.648C87.8773 143.16 87.7493 143.816 87.7493 144.616V151H84.0053V133.192H87.7493V141.664L86.9093 140.584C87.3733 139.72 88.0373 139.056 88.9013 138.592C89.7653 138.128 90.7493 137.896 91.8533 137.896Z" fill="#E43A3A"/>
<path fill-rule="evenodd" clip-rule="evenodd" d="M114 50C114 77.615 91.615 100 64 100C36.385 100 14 77.615 14 50C14 22.385 36.385 0 64 0C91.615 0 114 22.385 114 50ZM44.555 69.445C44.0863 68.9762 43.823 68.3404 43.823 67.6775C43.823 67.0146 44.0863 66.3788 44.555 65.91L60.465 50L44.555 34.09C44.0996 33.6185 43.8476 32.987 43.8533 32.3315C43.859 31.676 44.1219 31.049 44.5855 30.5855C45.049 30.1219 45.676 29.859 46.3315 29.8533C46.987 29.8476 47.6185 30.0996 48.09 30.555L64 46.465L79.91 30.555C80.3815 30.0996 81.013 29.8476 81.6685 29.8533C82.324 29.859 82.951 30.1219 83.4145 30.5855C83.8781 31.049 84.141 31.676 84.1467 32.3315C84.1524 32.987 83.9004 33.6185 83.445 34.09L67.535 50L83.445 65.91C83.9004 66.3815 84.1524 67.013 84.1467 67.6685C84.141 68.324 83.8781 68.951 83.4145 69.4145C82.951 69.8781 82.324 70.141 81.6685 70.1467C81.013 70.1524 80.3815 69.9004 79.91 69.445L64 53.535L48.09 69.445C47.6212 69.9137 46.9854 70.177 46.3225 70.177C45.6596 70.177 45.0238 69.9137 44.555 69.445Z" fill="#E43A3A"/>
</svg>
