<svg width="67" height="80" viewBox="0 0 67 80" fill="none" xmlns="http://www.w3.org/2000/svg">
<path d="M0.500156 64.9999L0.499108 65.4999H0.999108H64.792L65.4976 66.207L65.4991 65.4999H66.2062L65.5006 64.7928L65.6343 1L65.6353 0.500001H65.1353H1.34243L0.636807 -0.207104L0.635325 0.500001H-0.0717815L0.633843 1.20711L0.500156 64.9999Z" fill="white" stroke="#0C356A"/>
<path d="M23.0029 74.5167V69.3167L23.4589 69.7887H21.8189V68.9167H24.0429V74.5167H23.0029ZM24.5738 73.2447V72.5247L27.3338 68.9167H28.4458L25.7258 72.5247L25.2058 72.3647H29.6458V73.2447H24.5738ZM27.6458 74.5167V73.2447L27.6778 72.3647V71.2367H28.6538V74.5167H27.6458ZM33.5584 74.5727C33.1104 74.5727 32.7104 74.4793 32.3584 74.2927C32.0117 74.1007 31.7397 73.8393 31.5424 73.5087C31.345 73.178 31.2464 72.802 31.2464 72.3807C31.2464 71.954 31.345 71.578 31.5424 71.2527C31.7397 70.922 32.0117 70.6633 32.3584 70.4767C32.7104 70.29 33.1104 70.1967 33.5584 70.1967C33.9744 70.1967 34.3397 70.282 34.6544 70.4527C34.9744 70.618 35.217 70.8633 35.3824 71.1887L34.6144 71.6367C34.4864 71.434 34.329 71.2847 34.1424 71.1887C33.961 71.0927 33.7637 71.0447 33.5504 71.0447C33.305 71.0447 33.0837 71.098 32.8864 71.2047C32.689 71.3113 32.5344 71.466 32.4224 71.6687C32.3104 71.866 32.2544 72.1033 32.2544 72.3807C32.2544 72.658 32.3104 72.898 32.4224 73.1007C32.5344 73.298 32.689 73.45 32.8864 73.5567C33.0837 73.6633 33.305 73.7167 33.5504 73.7167C33.7637 73.7167 33.961 73.6687 34.1424 73.5727C34.329 73.4767 34.4864 73.3273 34.6144 73.1247L35.3824 73.5727C35.217 73.8927 34.9744 74.1407 34.6544 74.3167C34.3397 74.4873 33.9744 74.5727 33.5584 74.5727ZM41.1388 70.1967C41.4802 70.1967 41.7815 70.2633 42.0428 70.3967C42.3095 70.53 42.5175 70.7353 42.6668 71.0127C42.8162 71.2847 42.8908 71.6367 42.8908 72.0687V74.5167H41.8908V72.1967C41.8908 71.818 41.8082 71.5353 41.6428 71.3487C41.4775 71.162 41.2402 71.0687 40.9308 71.0687C40.7122 71.0687 40.5175 71.1167 40.3468 71.2127C40.1815 71.3087 40.0508 71.45 39.9548 71.6367C39.8642 71.8233 39.8188 72.0607 39.8188 72.3487V74.5167H38.8188V72.1967C38.8188 71.818 38.7362 71.5353 38.5708 71.3487C38.4055 71.162 38.1682 71.0687 37.8588 71.0687C37.6402 71.0687 37.4455 71.1167 37.2748 71.2127C37.1095 71.3087 36.9788 71.45 36.8828 71.6367C36.7922 71.8233 36.7468 72.0607 36.7468 72.3487V74.5167H35.7468V70.2447H36.6988V71.3807L36.5308 71.0447C36.6748 70.7673 36.8828 70.5567 37.1548 70.4127C37.4322 70.2687 37.7468 70.1967 38.0988 70.1967C38.4988 70.1967 38.8455 70.2953 39.1388 70.4927C39.4375 70.69 39.6348 70.9887 39.7308 71.3887L39.3388 71.2527C39.4775 70.9327 39.7068 70.6767 40.0268 70.4847C40.3468 70.2927 40.7175 70.1967 41.1388 70.1967Z" fill="#0C356A"/>
</svg>
