<svg width="155" height="107" viewBox="0 0 155 107" fill="none" xmlns="http://www.w3.org/2000/svg">
<path d="M78.0936 7V1.72L78.4376 2.096H76.8296V1.4H78.8856V7H78.0936ZM82.3986 7.064C81.9612 7.064 81.5692 6.952 81.2226 6.728C80.8812 6.504 80.6092 6.17867 80.4066 5.752C80.2092 5.32533 80.1106 4.808 80.1106 4.2C80.1106 3.592 80.2092 3.07467 80.4066 2.648C80.6092 2.22133 80.8812 1.896 81.2226 1.672C81.5692 1.448 81.9612 1.336 82.3986 1.336C82.8306 1.336 83.2199 1.448 83.5666 1.672C83.9132 1.896 84.1852 2.22133 84.3826 2.648C84.5799 3.07467 84.6786 3.592 84.6786 4.2C84.6786 4.808 84.5799 5.32533 84.3826 5.752C84.1852 6.17867 83.9132 6.504 83.5666 6.728C83.2199 6.952 82.8306 7.064 82.3986 7.064ZM82.3986 6.352C82.6919 6.352 82.9479 6.272 83.1666 6.112C83.3906 5.952 83.5639 5.712 83.6866 5.392C83.8146 5.072 83.8786 4.67467 83.8786 4.2C83.8786 3.72533 83.8146 3.328 83.6866 3.008C83.5639 2.688 83.3906 2.448 83.1666 2.288C82.9479 2.128 82.6919 2.048 82.3986 2.048C82.1052 2.048 81.8466 2.128 81.6226 2.288C81.3986 2.448 81.2226 2.688 81.0946 3.008C80.9719 3.328 80.9106 3.72533 80.9106 4.2C80.9106 4.67467 80.9719 5.072 81.0946 5.392C81.2226 5.712 81.3986 5.952 81.6226 6.112C81.8466 6.272 82.1052 6.352 82.3986 6.352ZM89.7869 7.048C89.3549 7.048 88.9683 6.95467 88.6269 6.768C88.2909 6.58133 88.0269 6.32533 87.8349 6C87.6429 5.67467 87.5469 5.30133 87.5469 4.88C87.5469 4.45867 87.6429 4.08533 87.8349 3.76C88.0269 3.43467 88.2909 3.18133 88.6269 3C88.9683 2.81333 89.3549 2.72 89.7869 2.72C90.1709 2.72 90.5123 2.79733 90.8109 2.952C91.1149 3.10133 91.3496 3.32533 91.5149 3.624L90.9309 4C90.7923 3.792 90.6216 3.64 90.4189 3.544C90.2216 3.44267 90.0083 3.392 89.7789 3.392C89.5016 3.392 89.2536 3.45333 89.0349 3.576C88.8163 3.69867 88.6429 3.872 88.5149 4.096C88.3869 4.31467 88.3229 4.576 88.3229 4.88C88.3229 5.184 88.3869 5.448 88.5149 5.672C88.6429 5.896 88.8163 6.06933 89.0349 6.192C89.2536 6.31467 89.5016 6.376 89.7789 6.376C90.0083 6.376 90.2216 6.328 90.4189 6.232C90.6216 6.13067 90.7923 5.976 90.9309 5.768L91.5149 6.136C91.3496 6.42933 91.1149 6.656 90.8109 6.816C90.5123 6.97067 90.1709 7.048 89.7869 7.048ZM97.8133 2.72C98.1546 2.72 98.4559 2.78667 98.7173 2.92C98.9786 3.05333 99.1813 3.256 99.3253 3.528C99.4746 3.8 99.5493 4.144 99.5493 4.56V7H98.7813V4.648C98.7813 4.23733 98.6853 3.928 98.4933 3.72C98.3013 3.512 98.0319 3.408 97.6853 3.408C97.4293 3.408 97.2053 3.46133 97.0133 3.568C96.8213 3.67467 96.6719 3.832 96.5653 4.04C96.4639 4.248 96.4133 4.50667 96.4133 4.816V7H95.6453V4.648C95.6453 4.23733 95.5493 3.928 95.3573 3.72C95.1706 3.512 94.9013 3.408 94.5493 3.408C94.2986 3.408 94.0773 3.46133 93.8853 3.568C93.6933 3.67467 93.5439 3.832 93.4373 4.04C93.3306 4.248 93.2773 4.50667 93.2773 4.816V7H92.5093V2.76H93.2453V3.888L93.1253 3.6C93.2586 3.32267 93.4639 3.10667 93.7413 2.952C94.0186 2.79733 94.3413 2.72 94.7093 2.72C95.1146 2.72 95.4639 2.82133 95.7573 3.024C96.0506 3.22133 96.2426 3.52267 96.3333 3.928L96.0213 3.8C96.1493 3.47467 96.3733 3.21333 96.6933 3.016C97.0133 2.81867 97.3866 2.72 97.8133 2.72Z" fill="#0C356A"/>
<path d="M4.30919 36.064C3.91452 36.064 3.53052 36.0027 3.15719 35.88C2.78919 35.7573 2.48785 35.592 2.25319 35.384L2.62119 34.752C2.80785 34.928 3.05052 35.072 3.34919 35.184C3.64785 35.296 3.96519 35.352 4.30119 35.352C4.72785 35.352 5.05585 35.2613 5.28519 35.08C5.51452 34.8987 5.62919 34.656 5.62919 34.352C5.62919 34.144 5.57852 33.9627 5.47719 33.808C5.37585 33.6533 5.19985 33.536 4.94919 33.456C4.70385 33.3707 4.36519 33.328 3.93319 33.328H2.66119L2.95719 30.4H6.11719V31.096H3.25319L3.66919 30.704L3.43719 33.016L3.02119 32.632H4.10119C4.66119 32.632 5.11185 32.704 5.45319 32.848C5.79452 32.992 6.04252 33.192 6.19719 33.448C6.35185 33.6987 6.42919 33.9893 6.42919 34.32C6.42919 34.64 6.35185 34.9333 6.19719 35.2C6.04252 35.4613 5.80785 35.672 5.49319 35.832C5.18385 35.9867 4.78919 36.064 4.30919 36.064ZM11.4354 36.048C11.0034 36.048 10.6167 35.9547 10.2754 35.768C9.93938 35.5813 9.67538 35.3253 9.48338 35C9.29138 34.6747 9.19538 34.3013 9.19538 33.88C9.19538 33.4587 9.29138 33.0853 9.48338 32.76C9.67538 32.4347 9.93938 32.1813 10.2754 32C10.6167 31.8133 11.0034 31.72 11.4354 31.72C11.8194 31.72 12.1607 31.7973 12.4594 31.952C12.7634 32.1013 12.998 32.3253 13.1634 32.624L12.5794 33C12.4407 32.792 12.27 32.64 12.0674 32.544C11.87 32.4427 11.6567 32.392 11.4274 32.392C11.15 32.392 10.902 32.4533 10.6834 32.576C10.4647 32.6987 10.2914 32.872 10.1634 33.096C10.0354 33.3147 9.97138 33.576 9.97138 33.88C9.97138 34.184 10.0354 34.448 10.1634 34.672C10.2914 34.896 10.4647 35.0693 10.6834 35.192C10.902 35.3147 11.15 35.376 11.4274 35.376C11.6567 35.376 11.87 35.328 12.0674 35.232C12.27 35.1307 12.4407 34.976 12.5794 34.768L13.1634 35.136C12.998 35.4293 12.7634 35.656 12.4594 35.816C12.1607 35.9707 11.8194 36.048 11.4354 36.048ZM19.4617 31.72C19.803 31.72 20.1044 31.7867 20.3657 31.92C20.627 32.0533 20.8297 32.256 20.9737 32.528C21.123 32.8 21.1977 33.144 21.1977 33.56V36H20.4297V33.648C20.4297 33.2373 20.3337 32.928 20.1417 32.72C19.9497 32.512 19.6804 32.408 19.3337 32.408C19.0777 32.408 18.8537 32.4613 18.6617 32.568C18.4697 32.6747 18.3204 32.832 18.2137 33.04C18.1124 33.248 18.0617 33.5067 18.0617 33.816V36H17.2937V33.648C17.2937 33.2373 17.1977 32.928 17.0057 32.72C16.819 32.512 16.5497 32.408 16.1977 32.408C15.947 32.408 15.7257 32.4613 15.5337 32.568C15.3417 32.6747 15.1924 32.832 15.0857 33.04C14.979 33.248 14.9257 33.5067 14.9257 33.816V36H14.1577V31.76H14.8937V32.888L14.7737 32.6C14.907 32.3227 15.1124 32.1067 15.3897 31.952C15.667 31.7973 15.9897 31.72 16.3577 31.72C16.763 31.72 17.1124 31.8213 17.4057 32.024C17.699 32.2213 17.891 32.5227 17.9817 32.928L17.6697 32.8C17.7977 32.4747 18.0217 32.2133 18.3417 32.016C18.6617 31.8187 19.035 31.72 19.4617 31.72Z" fill="#0C356A"/>
<path d="M123.542 103.624V103.064L126.406 99.4H127.27L124.43 103.064L124.022 102.936H128.494V103.624H123.542ZM126.654 105V103.624L126.678 102.936V101.72H127.43V105H126.654ZM133.314 105.048C132.882 105.048 132.496 104.955 132.154 104.768C131.818 104.581 131.554 104.325 131.362 104C131.17 103.675 131.074 103.301 131.074 102.88C131.074 102.459 131.17 102.085 131.362 101.76C131.554 101.435 131.818 101.181 132.154 101C132.496 100.813 132.882 100.72 133.314 100.72C133.698 100.72 134.04 100.797 134.338 100.952C134.642 101.101 134.877 101.325 135.042 101.624L134.458 102C134.32 101.792 134.149 101.64 133.946 101.544C133.749 101.443 133.536 101.392 133.306 101.392C133.029 101.392 132.781 101.453 132.562 101.576C132.344 101.699 132.17 101.872 132.042 102.096C131.914 102.315 131.85 102.576 131.85 102.88C131.85 103.184 131.914 103.448 132.042 103.672C132.17 103.896 132.344 104.069 132.562 104.192C132.781 104.315 133.029 104.376 133.306 104.376C133.536 104.376 133.749 104.328 133.946 104.232C134.149 104.131 134.32 103.976 134.458 103.768L135.042 104.136C134.877 104.429 134.642 104.656 134.338 104.816C134.04 104.971 133.698 105.048 133.314 105.048ZM141.341 100.72C141.682 100.72 141.983 100.787 142.245 100.92C142.506 101.053 142.709 101.256 142.853 101.528C143.002 101.8 143.077 102.144 143.077 102.56V105H142.309V102.648C142.309 102.237 142.213 101.928 142.021 101.72C141.829 101.512 141.559 101.408 141.213 101.408C140.957 101.408 140.733 101.461 140.541 101.568C140.349 101.675 140.199 101.832 140.093 102.04C139.991 102.248 139.941 102.507 139.941 102.816V105H139.173V102.648C139.173 102.237 139.077 101.928 138.885 101.72C138.698 101.512 138.429 101.408 138.077 101.408C137.826 101.408 137.605 101.461 137.413 101.568C137.221 101.675 137.071 101.832 136.965 102.04C136.858 102.248 136.805 102.507 136.805 102.816V105H136.037V100.76H136.773V101.888L136.653 101.6C136.786 101.323 136.991 101.107 137.269 100.952C137.546 100.797 137.869 100.72 138.237 100.72C138.642 100.72 138.991 100.821 139.285 101.024C139.578 101.221 139.77 101.523 139.861 101.928L139.549 101.8C139.677 101.475 139.901 101.213 140.221 101.016C140.541 100.819 140.914 100.72 141.341 100.72Z" fill="#0C356A"/>
<path d="M23.4999 53.9999L23.4988 54.4999H23.9988H153.027L153.606 54.6883L153.607 53.9999L153.695 12L153.696 11.5H153.196H24.1682L23.5893 11.3116L23.5879 12L23.4999 53.9999Z" fill="white" stroke="#0C356A"/>
<path d="M110.5 96.9999L110.499 97.4999H110.999H152.792L153.497 98.207L153.499 97.4999H154.206L153.5 96.7928L153.588 55L153.589 54.5H153.089H111.296L110.59 53.7929L110.589 54.5H109.882L110.587 55.2071L110.5 96.9999Z" fill="white" stroke="#0C356A"/>
</svg>
