<svg width="58" height="58" viewBox="0 0 58 58" fill="none" xmlns="http://www.w3.org/2000/svg">
<g filter="url(#filter0_di_1_9661)">
<circle cx="33" cy="25" r="25" fill="#FFE7C3"/>
</g>
<path d="M32.4978 33.9775C31.3298 33.9775 30.1698 33.8255 29.0178 33.5215C27.8658 33.2015 26.8898 32.7535 26.0898 32.1775L27.6018 29.2015C28.2418 29.6655 28.9858 30.0335 29.8338 30.3055C30.6818 30.5775 31.5378 30.7135 32.4018 30.7135C33.3778 30.7135 34.1458 30.5215 34.7058 30.1375C35.2658 29.7535 35.5458 29.2255 35.5458 28.5535C35.5458 27.9135 35.2978 27.4095 34.8018 27.0415C34.3058 26.6735 33.5058 26.4895 32.4018 26.4895H30.6258V23.9215L35.3058 18.6175L35.7378 20.0095H26.9298V16.8895H38.6898V19.4095L34.0338 24.7135L32.0658 23.5855H33.1938C35.2578 23.5855 36.8178 24.0495 37.8738 24.9775C38.9298 25.9055 39.4578 27.0975 39.4578 28.5535C39.4578 29.4975 39.2098 30.3855 38.7138 31.2175C38.2178 32.0335 37.4578 32.6975 36.4338 33.2095C35.4098 33.7215 34.0978 33.9775 32.4978 33.9775Z" fill="#0C356A"/>
<defs>
<filter id="filter0_di_1_9661" x="0" y="0" width="58" height="58" filterUnits="userSpaceOnUse" color-interpolation-filters="sRGB">
<feFlood flood-opacity="0" result="BackgroundImageFix"/>
<feColorMatrix in="SourceAlpha" type="matrix" values="0 0 0 0 0 0 0 0 0 0 0 0 0 0 0 0 0 0 127 0" result="hardAlpha"/>
<feOffset dx="-4" dy="4"/>
<feGaussianBlur stdDeviation="2"/>
<feComposite in2="hardAlpha" operator="out"/>
<feColorMatrix type="matrix" values="0 0 0 0 0 0 0 0 0 0 0 0 0 0 0 0 0 0 0.25 0"/>
<feBlend mode="normal" in2="BackgroundImageFix" result="effect1_dropShadow_1_9661"/>
<feBlend mode="normal" in="SourceGraphic" in2="effect1_dropShadow_1_9661" result="shape"/>
<feColorMatrix in="SourceAlpha" type="matrix" values="0 0 0 0 0 0 0 0 0 0 0 0 0 0 0 0 0 0 127 0" result="hardAlpha"/>
<feOffset dx="-3" dy="4"/>
<feGaussianBlur stdDeviation="8"/>
<feComposite in2="hardAlpha" operator="arithmetic" k2="-1" k3="1"/>
<feColorMatrix type="matrix" values="0 0 0 0 0 0 0 0 0 0 0 0 0 0 0 0 0 0 0.16 0"/>
<feBlend mode="normal" in2="shape" result="effect2_innerShadow_1_9661"/>
</filter>
</defs>
</svg>
