<svg width="58" height="58" viewBox="0 0 58 58" fill="none" xmlns="http://www.w3.org/2000/svg">
<g filter="url(#filter0_di_1_9667)">
<circle cx="33" cy="25" r="25" fill="#BED9FF"/>
</g>
<path d="M32.7267 33.9775C31.5587 33.9775 30.3987 33.8255 29.2467 33.5215C28.1107 33.2015 27.1347 32.7535 26.3187 32.1775L27.8547 29.2015C28.4947 29.6655 29.2307 30.0335 30.0627 30.3055C30.9107 30.5775 31.7667 30.7135 32.6307 30.7135C33.6067 30.7135 34.3747 30.5215 34.9347 30.1375C35.4947 29.7535 35.7747 29.2175 35.7747 28.5295C35.7747 28.0975 35.6627 27.7135 35.4387 27.3775C35.2147 27.0415 34.8147 26.7855 34.2387 26.6095C33.6787 26.4335 32.8867 26.3455 31.8627 26.3455H27.5667L28.4307 16.8895H38.6787V20.0095H29.8227L31.8387 18.2335L31.2387 24.9775L29.2227 23.2015H32.7747C34.4387 23.2015 35.7747 23.4335 36.7827 23.8975C37.8067 24.3455 38.5507 24.9615 39.0147 25.7455C39.4787 26.5295 39.7107 27.4175 39.7107 28.4095C39.7107 29.4015 39.4627 30.3215 38.9667 31.1695C38.4707 32.0015 37.7027 32.6815 36.6627 33.2095C35.6387 33.7215 34.3267 33.9775 32.7267 33.9775Z" fill="#0C356A"/>
<defs>
<filter id="filter0_di_1_9667" x="0" y="0" width="58" height="58" filterUnits="userSpaceOnUse" color-interpolation-filters="sRGB">
<feFlood flood-opacity="0" result="BackgroundImageFix"/>
<feColorMatrix in="SourceAlpha" type="matrix" values="0 0 0 0 0 0 0 0 0 0 0 0 0 0 0 0 0 0 127 0" result="hardAlpha"/>
<feOffset dx="-4" dy="4"/>
<feGaussianBlur stdDeviation="2"/>
<feComposite in2="hardAlpha" operator="out"/>
<feColorMatrix type="matrix" values="0 0 0 0 0 0 0 0 0 0 0 0 0 0 0 0 0 0 0.25 0"/>
<feBlend mode="normal" in2="BackgroundImageFix" result="effect1_dropShadow_1_9667"/>
<feBlend mode="normal" in="SourceGraphic" in2="effect1_dropShadow_1_9667" result="shape"/>
<feColorMatrix in="SourceAlpha" type="matrix" values="0 0 0 0 0 0 0 0 0 0 0 0 0 0 0 0 0 0 127 0" result="hardAlpha"/>
<feOffset dx="-3" dy="4"/>
<feGaussianBlur stdDeviation="8"/>
<feComposite in2="hardAlpha" operator="arithmetic" k2="-1" k3="1"/>
<feColorMatrix type="matrix" values="0 0 0 0 0 0 0 0 0 0 0 0 0 0 0 0 0 0 0.16 0"/>
<feBlend mode="normal" in2="shape" result="effect2_innerShadow_1_9667"/>
</filter>
</defs>
</svg>
