<svg width="58" height="58" viewBox="0 0 58 58" fill="none" xmlns="http://www.w3.org/2000/svg">
<g filter="url(#filter0_di_1_9670)">
<circle cx="33" cy="25" r="25" fill="#E8FFD6"/>
</g>
<path d="M34.0228 33.9775C32.4868 33.9775 31.1508 33.6575 30.0148 33.0175C28.8948 32.3775 28.0308 31.4415 27.4228 30.2095C26.8148 28.9775 26.5108 27.4575 26.5108 25.6495C26.5108 23.7135 26.8708 22.0735 27.5908 20.7295C28.3268 19.3855 29.3348 18.3615 30.6148 17.6575C31.9108 16.9535 33.3988 16.6015 35.0788 16.6015C35.9748 16.6015 36.8308 16.6975 37.6468 16.8895C38.4628 17.0815 39.1668 17.3695 39.7588 17.7535L38.3188 20.6095C37.8548 20.2895 37.3588 20.0735 36.8308 19.9615C36.3028 19.8335 35.7508 19.7695 35.1748 19.7695C33.7188 19.7695 32.5668 20.2095 31.7188 21.0895C30.8708 21.9695 30.4468 23.2735 30.4468 25.0015C30.4468 25.2895 30.4468 25.6095 30.4468 25.9615C30.4628 26.3135 30.5108 26.6655 30.5908 27.0175L29.5108 26.0095C29.8148 25.3855 30.2068 24.8655 30.6868 24.4495C31.1668 24.0175 31.7348 23.6975 32.3908 23.4895C33.0628 23.2655 33.7988 23.1535 34.5988 23.1535C35.6868 23.1535 36.6628 23.3695 37.5268 23.8015C38.3908 24.2335 39.0788 24.8415 39.5908 25.6255C40.1188 26.4095 40.3828 27.3295 40.3828 28.3855C40.3828 29.5215 40.0948 30.5135 39.5188 31.3615C38.9588 32.1935 38.1988 32.8415 37.2388 33.3055C36.2948 33.7535 35.2228 33.9775 34.0228 33.9775ZM33.8068 31.0735C34.3508 31.0735 34.8308 30.9775 35.2468 30.7855C35.6788 30.5775 36.0148 30.2815 36.2548 29.8975C36.4948 29.5135 36.6148 29.0735 36.6148 28.5775C36.6148 27.8095 36.3508 27.2015 35.8228 26.7535C35.3108 26.2895 34.6228 26.0575 33.7588 26.0575C33.1828 26.0575 32.6788 26.1695 32.2468 26.3935C31.8148 26.6015 31.4708 26.8975 31.2148 27.2815C30.9748 27.6495 30.8548 28.0815 30.8548 28.5775C30.8548 29.0575 30.9748 29.4895 31.2148 29.8735C31.4548 30.2415 31.7908 30.5375 32.2228 30.7615C32.6548 30.9695 33.1828 31.0735 33.8068 31.0735Z" fill="#0C356A"/>
<defs>
<filter id="filter0_di_1_9670" x="0" y="0" width="58" height="58" filterUnits="userSpaceOnUse" color-interpolation-filters="sRGB">
<feFlood flood-opacity="0" result="BackgroundImageFix"/>
<feColorMatrix in="SourceAlpha" type="matrix" values="0 0 0 0 0 0 0 0 0 0 0 0 0 0 0 0 0 0 127 0" result="hardAlpha"/>
<feOffset dx="-4" dy="4"/>
<feGaussianBlur stdDeviation="2"/>
<feComposite in2="hardAlpha" operator="out"/>
<feColorMatrix type="matrix" values="0 0 0 0 0 0 0 0 0 0 0 0 0 0 0 0 0 0 0.25 0"/>
<feBlend mode="normal" in2="BackgroundImageFix" result="effect1_dropShadow_1_9670"/>
<feBlend mode="normal" in="SourceGraphic" in2="effect1_dropShadow_1_9670" result="shape"/>
<feColorMatrix in="SourceAlpha" type="matrix" values="0 0 0 0 0 0 0 0 0 0 0 0 0 0 0 0 0 0 127 0" result="hardAlpha"/>
<feOffset dx="-3" dy="4"/>
<feGaussianBlur stdDeviation="8"/>
<feComposite in2="hardAlpha" operator="arithmetic" k2="-1" k3="1"/>
<feColorMatrix type="matrix" values="0 0 0 0 0 0 0 0 0 0 0 0 0 0 0 0 0 0 0.16 0"/>
<feBlend mode="normal" in2="shape" result="effect2_innerShadow_1_9670"/>
</filter>
</defs>
</svg>
