<svg width="58" height="58" viewBox="0 0 58 58" fill="none" xmlns="http://www.w3.org/2000/svg">
<g filter="url(#filter0_di_1_9676)">
<circle cx="33" cy="25" r="25" fill="#FFE7C3"/>
</g>
<path d="M33.1895 33.9775C31.7815 33.9775 30.5495 33.7695 29.4935 33.3535C28.4375 32.9215 27.6135 32.3215 27.0215 31.5535C26.4295 30.7695 26.1335 29.8575 26.1335 28.8175C26.1335 27.7775 26.4215 26.8975 26.9975 26.1775C27.5895 25.4415 28.4135 24.8895 29.4695 24.5215C30.5255 24.1375 31.7655 23.9455 33.1895 23.9455C34.6295 23.9455 35.8775 24.1375 36.9335 24.5215C38.0055 24.8895 38.8295 25.4415 39.4055 26.1775C39.9975 26.8975 40.2935 27.7775 40.2935 28.8175C40.2935 29.8575 39.9975 30.7695 39.4055 31.5535C38.8135 32.3215 37.9815 32.9215 36.9095 33.3535C35.8535 33.7695 34.6135 33.9775 33.1895 33.9775ZM33.1895 31.1215C34.1655 31.1215 34.9335 30.9055 35.4935 30.4735C36.0695 30.0415 36.3575 29.4495 36.3575 28.6975C36.3575 27.9455 36.0695 27.3615 35.4935 26.9455C34.9335 26.5135 34.1655 26.2975 33.1895 26.2975C32.2295 26.2975 31.4695 26.5135 30.9095 26.9455C30.3495 27.3615 30.0695 27.9455 30.0695 28.6975C30.0695 29.4495 30.3495 30.0415 30.9095 30.4735C31.4695 30.9055 32.2295 31.1215 33.1895 31.1215ZM33.1895 25.9135C31.8935 25.9135 30.7575 25.7375 29.7815 25.3855C28.8215 25.0335 28.0695 24.5215 27.5255 23.8495C26.9975 23.1615 26.7335 22.3455 26.7335 21.4015C26.7335 20.4095 27.0055 19.5615 27.5495 18.8575C28.0935 18.1375 28.8535 17.5855 29.8295 17.2015C30.8055 16.8015 31.9255 16.6015 33.1895 16.6015C34.4855 16.6015 35.6135 16.8015 36.5735 17.2015C37.5495 17.5855 38.3095 18.1375 38.8535 18.8575C39.4135 19.5615 39.6935 20.4095 39.6935 21.4015C39.6935 22.3455 39.4215 23.1615 38.8775 23.8495C38.3495 24.5215 37.5975 25.0335 36.6215 25.3855C35.6455 25.7375 34.5015 25.9135 33.1895 25.9135ZM33.1895 23.6335C34.0055 23.6335 34.6455 23.4495 35.1095 23.0815C35.5895 22.7135 35.8295 22.2095 35.8295 21.5695C35.8295 20.8975 35.5815 20.3775 35.0855 20.0095C34.6055 19.6415 33.9735 19.4575 33.1895 19.4575C32.4215 19.4575 31.7975 19.6415 31.3175 20.0095C30.8375 20.3775 30.5975 20.8975 30.5975 21.5695C30.5975 22.2095 30.8295 22.7135 31.2935 23.0815C31.7575 23.4495 32.3895 23.6335 33.1895 23.6335Z" fill="#0C356A"/>
<defs>
<filter id="filter0_di_1_9676" x="0" y="0" width="58" height="58" filterUnits="userSpaceOnUse" color-interpolation-filters="sRGB">
<feFlood flood-opacity="0" result="BackgroundImageFix"/>
<feColorMatrix in="SourceAlpha" type="matrix" values="0 0 0 0 0 0 0 0 0 0 0 0 0 0 0 0 0 0 127 0" result="hardAlpha"/>
<feOffset dx="-4" dy="4"/>
<feGaussianBlur stdDeviation="2"/>
<feComposite in2="hardAlpha" operator="out"/>
<feColorMatrix type="matrix" values="0 0 0 0 0 0 0 0 0 0 0 0 0 0 0 0 0 0 0.25 0"/>
<feBlend mode="normal" in2="BackgroundImageFix" result="effect1_dropShadow_1_9676"/>
<feBlend mode="normal" in="SourceGraphic" in2="effect1_dropShadow_1_9676" result="shape"/>
<feColorMatrix in="SourceAlpha" type="matrix" values="0 0 0 0 0 0 0 0 0 0 0 0 0 0 0 0 0 0 127 0" result="hardAlpha"/>
<feOffset dx="-3" dy="4"/>
<feGaussianBlur stdDeviation="8"/>
<feComposite in2="hardAlpha" operator="arithmetic" k2="-1" k3="1"/>
<feColorMatrix type="matrix" values="0 0 0 0 0 0 0 0 0 0 0 0 0 0 0 0 0 0 0.16 0"/>
<feBlend mode="normal" in2="shape" result="effect2_innerShadow_1_9676"/>
</filter>
</defs>
</svg>
