<svg width="58" height="58" viewBox="0 0 58 58" fill="none" xmlns="http://www.w3.org/2000/svg">
<g filter="url(#filter0_di_1_9679)">
<circle cx="33" cy="25" r="25" fill="#FFD9E9"/>
</g>
<path d="M32.4148 16.6015C33.9668 16.6015 35.3028 16.9215 36.4228 17.5615C37.5428 18.2015 38.4068 19.1375 39.0148 20.3695C39.6228 21.5855 39.9268 23.1055 39.9268 24.9295C39.9268 26.8655 39.5588 28.5055 38.8228 29.8495C38.1028 31.1935 37.1028 32.2175 35.8228 32.9215C34.5428 33.6255 33.0548 33.9775 31.3588 33.9775C30.4788 33.9775 29.6308 33.8815 28.8148 33.6895C27.9988 33.4975 27.2948 33.2095 26.7028 32.8255L28.1428 29.9695C28.6068 30.2895 29.1028 30.5135 29.6308 30.6415C30.1588 30.7535 30.7108 30.8095 31.2868 30.8095C32.7268 30.8095 33.8708 30.3695 34.7188 29.4895C35.5828 28.6095 36.0148 27.3055 36.0148 25.5775C36.0148 25.2895 36.0068 24.9695 35.9908 24.6175C35.9748 24.2655 35.9348 23.9135 35.8708 23.5615L36.9268 24.5695C36.6548 25.1935 36.2708 25.7215 35.7748 26.1535C35.2788 26.5695 34.7028 26.8895 34.0468 27.1135C33.3908 27.3215 32.6548 27.4255 31.8388 27.4255C30.7668 27.4255 29.7908 27.2095 28.9108 26.7775C28.0468 26.3455 27.3508 25.7375 26.8228 24.9535C26.3108 24.1695 26.0548 23.2495 26.0548 22.1935C26.0548 21.0415 26.3348 20.0495 26.8948 19.2175C27.4708 18.3855 28.2388 17.7455 29.1988 17.2975C30.1748 16.8335 31.2468 16.6015 32.4148 16.6015ZM32.6548 19.5055C32.0948 19.5055 31.6068 19.6095 31.1908 19.8175C30.7748 20.0095 30.4468 20.2975 30.2068 20.6815C29.9668 21.0495 29.8468 21.4895 29.8468 22.0015C29.8468 22.7695 30.1028 23.3855 30.6148 23.8495C31.1428 24.2975 31.8388 24.5215 32.7028 24.5215C33.2628 24.5215 33.7588 24.4175 34.1908 24.2095C34.6388 23.9855 34.9828 23.6815 35.2228 23.2975C35.4628 22.9135 35.5828 22.4815 35.5828 22.0015C35.5828 21.5215 35.4628 21.0975 35.2228 20.7295C34.9988 20.3455 34.6708 20.0495 34.2388 19.8415C33.8068 19.6175 33.2788 19.5055 32.6548 19.5055Z" fill="#0C356A"/>
<defs>
<filter id="filter0_di_1_9679" x="0" y="0" width="58" height="58" filterUnits="userSpaceOnUse" color-interpolation-filters="sRGB">
<feFlood flood-opacity="0" result="BackgroundImageFix"/>
<feColorMatrix in="SourceAlpha" type="matrix" values="0 0 0 0 0 0 0 0 0 0 0 0 0 0 0 0 0 0 127 0" result="hardAlpha"/>
<feOffset dx="-4" dy="4"/>
<feGaussianBlur stdDeviation="2"/>
<feComposite in2="hardAlpha" operator="out"/>
<feColorMatrix type="matrix" values="0 0 0 0 0 0 0 0 0 0 0 0 0 0 0 0 0 0 0.25 0"/>
<feBlend mode="normal" in2="BackgroundImageFix" result="effect1_dropShadow_1_9679"/>
<feBlend mode="normal" in="SourceGraphic" in2="effect1_dropShadow_1_9679" result="shape"/>
<feColorMatrix in="SourceAlpha" type="matrix" values="0 0 0 0 0 0 0 0 0 0 0 0 0 0 0 0 0 0 127 0" result="hardAlpha"/>
<feOffset dx="-3" dy="4"/>
<feGaussianBlur stdDeviation="8"/>
<feComposite in2="hardAlpha" operator="arithmetic" k2="-1" k3="1"/>
<feColorMatrix type="matrix" values="0 0 0 0 0 0 0 0 0 0 0 0 0 0 0 0 0 0 0.16 0"/>
<feBlend mode="normal" in2="shape" result="effect2_innerShadow_1_9679"/>
</filter>
</defs>
</svg>
