<svg width="80" height="80" viewBox="0 0 80 80" fill="none" xmlns="http://www.w3.org/2000/svg">
<g filter="url(#filter0_di_1_9414)">
<circle cx="44" cy="36" r="36" fill="#CFFFFF"/>
</g>
<path d="M38.0242 44.7932V42.2732L44.5042 36.1532C45.0162 35.6892 45.3922 35.2732 45.6322 34.9052C45.8722 34.5372 46.0322 34.2012 46.1122 33.8972C46.2082 33.5932 46.2562 33.3132 46.2562 33.0572C46.2562 32.3852 46.0242 31.8732 45.5602 31.5212C45.1122 31.1532 44.4482 30.9692 43.5682 30.9692C42.8642 30.9692 42.2082 31.1052 41.6002 31.3772C41.0082 31.6492 40.5042 32.0732 40.0882 32.6492L37.2562 30.8252C37.8962 29.8652 38.7922 29.1052 39.9442 28.5452C41.0962 27.9852 42.4242 27.7052 43.9282 27.7052C45.1762 27.7052 46.2642 27.9132 47.1922 28.3292C48.1362 28.7292 48.8642 29.2972 49.3762 30.0332C49.9042 30.7692 50.1682 31.6492 50.1682 32.6732C50.1682 33.2172 50.0962 33.7612 49.9522 34.3052C49.8242 34.8332 49.5522 35.3932 49.1362 35.9852C48.7362 36.5772 48.1442 37.2412 47.3602 37.9772L41.9842 43.0412L41.2402 41.6252H50.7202V44.7932H38.0242Z" fill="#0C356A"/>
<defs>
<filter id="filter0_di_1_9414" x="0" y="0" width="80" height="80" filterUnits="userSpaceOnUse" color-interpolation-filters="sRGB">
<feFlood flood-opacity="0" result="BackgroundImageFix"/>
<feColorMatrix in="SourceAlpha" type="matrix" values="0 0 0 0 0 0 0 0 0 0 0 0 0 0 0 0 0 0 127 0" result="hardAlpha"/>
<feOffset dx="-4" dy="4"/>
<feGaussianBlur stdDeviation="2"/>
<feComposite in2="hardAlpha" operator="out"/>
<feColorMatrix type="matrix" values="0 0 0 0 0 0 0 0 0 0 0 0 0 0 0 0 0 0 0.25 0"/>
<feBlend mode="normal" in2="BackgroundImageFix" result="effect1_dropShadow_1_9414"/>
<feBlend mode="normal" in="SourceGraphic" in2="effect1_dropShadow_1_9414" result="shape"/>
<feColorMatrix in="SourceAlpha" type="matrix" values="0 0 0 0 0 0 0 0 0 0 0 0 0 0 0 0 0 0 127 0" result="hardAlpha"/>
<feOffset dx="-3" dy="4"/>
<feGaussianBlur stdDeviation="8"/>
<feComposite in2="hardAlpha" operator="arithmetic" k2="-1" k3="1"/>
<feColorMatrix type="matrix" values="0 0 0 0 0 0 0 0 0 0 0 0 0 0 0 0 0 0 0.16 0"/>
<feBlend mode="normal" in2="shape" result="effect2_innerShadow_1_9414"/>
</filter>
</defs>
</svg>
