<svg width="80" height="80" viewBox="0 0 80 80" fill="none" xmlns="http://www.w3.org/2000/svg">
<g filter="url(#filter0_di_1_9417)">
<circle cx="44" cy="36" r="36" fill="#FFE7C3"/>
</g>
<path d="M43.5928 45.0812C42.4248 45.0812 41.2648 44.9292 40.1128 44.6252C38.9608 44.3052 37.9848 43.8572 37.1848 43.2812L38.6968 40.3052C39.3368 40.7692 40.0808 41.1372 40.9288 41.4092C41.7768 41.6812 42.6328 41.8172 43.4968 41.8172C44.4728 41.8172 45.2408 41.6252 45.8008 41.2412C46.3608 40.8572 46.6408 40.3292 46.6408 39.6572C46.6408 39.0172 46.3928 38.5132 45.8968 38.1452C45.4008 37.7772 44.6008 37.5932 43.4968 37.5932H41.7208V35.0252L46.4008 29.7212L46.8328 31.1132H38.0248V27.9932H49.7848V30.5132L45.1288 35.8172L43.1608 34.6892H44.2888C46.3528 34.6892 47.9128 35.1532 48.9688 36.0812C50.0248 37.0092 50.5528 38.2012 50.5528 39.6572C50.5528 40.6012 50.3048 41.4892 49.8088 42.3212C49.3128 43.1372 48.5528 43.8012 47.5288 44.3132C46.5048 44.8252 45.1928 45.0812 43.5928 45.0812Z" fill="#0C356A"/>
<defs>
<filter id="filter0_di_1_9417" x="0" y="0" width="80" height="80" filterUnits="userSpaceOnUse" color-interpolation-filters="sRGB">
<feFlood flood-opacity="0" result="BackgroundImageFix"/>
<feColorMatrix in="SourceAlpha" type="matrix" values="0 0 0 0 0 0 0 0 0 0 0 0 0 0 0 0 0 0 127 0" result="hardAlpha"/>
<feOffset dx="-4" dy="4"/>
<feGaussianBlur stdDeviation="2"/>
<feComposite in2="hardAlpha" operator="out"/>
<feColorMatrix type="matrix" values="0 0 0 0 0 0 0 0 0 0 0 0 0 0 0 0 0 0 0.25 0"/>
<feBlend mode="normal" in2="BackgroundImageFix" result="effect1_dropShadow_1_9417"/>
<feBlend mode="normal" in="SourceGraphic" in2="effect1_dropShadow_1_9417" result="shape"/>
<feColorMatrix in="SourceAlpha" type="matrix" values="0 0 0 0 0 0 0 0 0 0 0 0 0 0 0 0 0 0 127 0" result="hardAlpha"/>
<feOffset dx="-3" dy="4"/>
<feGaussianBlur stdDeviation="8"/>
<feComposite in2="hardAlpha" operator="arithmetic" k2="-1" k3="1"/>
<feColorMatrix type="matrix" values="0 0 0 0 0 0 0 0 0 0 0 0 0 0 0 0 0 0 0.16 0"/>
<feBlend mode="normal" in2="shape" result="effect2_innerShadow_1_9417"/>
</filter>
</defs>
</svg>
