<svg width="80" height="80" viewBox="0 0 80 80" fill="none" xmlns="http://www.w3.org/2000/svg">
<g filter="url(#filter0_di_1_9423)">
<circle cx="44" cy="36" r="36" fill="#BED9FF"/>
</g>
<path d="M43.8216 45.0812C42.6536 45.0812 41.4936 44.9292 40.3416 44.6252C39.2056 44.3052 38.2296 43.8572 37.4136 43.2812L38.9496 40.3052C39.5896 40.7692 40.3256 41.1372 41.1576 41.4092C42.0056 41.6812 42.8616 41.8172 43.7256 41.8172C44.7016 41.8172 45.4696 41.6252 46.0296 41.2412C46.5896 40.8572 46.8696 40.3212 46.8696 39.6332C46.8696 39.2012 46.7576 38.8172 46.5336 38.4812C46.3096 38.1452 45.9096 37.8892 45.3336 37.7132C44.7736 37.5372 43.9816 37.4492 42.9576 37.4492H38.6616L39.5256 27.9932H49.7736V31.1132H40.9176L42.9336 29.3372L42.3336 36.0812L40.3176 34.3052H43.8696C45.5336 34.3052 46.8696 34.5372 47.8776 35.0012C48.9016 35.4492 49.6456 36.0652 50.1096 36.8492C50.5736 37.6332 50.8056 38.5212 50.8056 39.5132C50.8056 40.5052 50.5576 41.4252 50.0616 42.2732C49.5656 43.1052 48.7976 43.7852 47.7576 44.3132C46.7336 44.8252 45.4216 45.0812 43.8216 45.0812Z" fill="#0C356A"/>
<defs>
<filter id="filter0_di_1_9423" x="0" y="0" width="80" height="80" filterUnits="userSpaceOnUse" color-interpolation-filters="sRGB">
<feFlood flood-opacity="0" result="BackgroundImageFix"/>
<feColorMatrix in="SourceAlpha" type="matrix" values="0 0 0 0 0 0 0 0 0 0 0 0 0 0 0 0 0 0 127 0" result="hardAlpha"/>
<feOffset dx="-4" dy="4"/>
<feGaussianBlur stdDeviation="2"/>
<feComposite in2="hardAlpha" operator="out"/>
<feColorMatrix type="matrix" values="0 0 0 0 0 0 0 0 0 0 0 0 0 0 0 0 0 0 0.25 0"/>
<feBlend mode="normal" in2="BackgroundImageFix" result="effect1_dropShadow_1_9423"/>
<feBlend mode="normal" in="SourceGraphic" in2="effect1_dropShadow_1_9423" result="shape"/>
<feColorMatrix in="SourceAlpha" type="matrix" values="0 0 0 0 0 0 0 0 0 0 0 0 0 0 0 0 0 0 127 0" result="hardAlpha"/>
<feOffset dx="-3" dy="4"/>
<feGaussianBlur stdDeviation="8"/>
<feComposite in2="hardAlpha" operator="arithmetic" k2="-1" k3="1"/>
<feColorMatrix type="matrix" values="0 0 0 0 0 0 0 0 0 0 0 0 0 0 0 0 0 0 0.16 0"/>
<feBlend mode="normal" in2="shape" result="effect2_innerShadow_1_9423"/>
</filter>
</defs>
</svg>
