<svg width="80" height="80" viewBox="0 0 80 80" fill="none" xmlns="http://www.w3.org/2000/svg">
<g filter="url(#filter0_di_1_9426)">
<circle cx="44" cy="36" r="36" fill="#E8FFD6"/>
</g>
<path d="M45.1177 45.0812C43.5817 45.0812 42.2457 44.7612 41.1097 44.1212C39.9897 43.4812 39.1257 42.5452 38.5177 41.3132C37.9097 40.0812 37.6057 38.5612 37.6057 36.7532C37.6057 34.8172 37.9657 33.1772 38.6857 31.8332C39.4217 30.4892 40.4297 29.4652 41.7097 28.7612C43.0057 28.0572 44.4937 27.7052 46.1737 27.7052C47.0697 27.7052 47.9257 27.8012 48.7417 27.9932C49.5577 28.1852 50.2617 28.4732 50.8537 28.8572L49.4137 31.7132C48.9497 31.3932 48.4537 31.1772 47.9257 31.0652C47.3977 30.9372 46.8457 30.8732 46.2697 30.8732C44.8137 30.8732 43.6617 31.3132 42.8137 32.1932C41.9657 33.0732 41.5417 34.3772 41.5417 36.1052C41.5417 36.3932 41.5417 36.7132 41.5417 37.0652C41.5577 37.4172 41.6057 37.7692 41.6857 38.1212L40.6057 37.1132C40.9097 36.4892 41.3017 35.9692 41.7817 35.5532C42.2617 35.1212 42.8297 34.8012 43.4857 34.5932C44.1577 34.3692 44.8937 34.2572 45.6937 34.2572C46.7817 34.2572 47.7577 34.4732 48.6217 34.9052C49.4857 35.3372 50.1737 35.9452 50.6857 36.7292C51.2137 37.5132 51.4777 38.4332 51.4777 39.4892C51.4777 40.6252 51.1897 41.6172 50.6137 42.4652C50.0537 43.2972 49.2937 43.9452 48.3337 44.4092C47.3897 44.8572 46.3177 45.0812 45.1177 45.0812ZM44.9017 42.1772C45.4457 42.1772 45.9257 42.0812 46.3417 41.8892C46.7737 41.6812 47.1097 41.3852 47.3497 41.0012C47.5897 40.6172 47.7097 40.1772 47.7097 39.6812C47.7097 38.9132 47.4457 38.3052 46.9177 37.8572C46.4057 37.3932 45.7177 37.1612 44.8537 37.1612C44.2777 37.1612 43.7737 37.2732 43.3417 37.4972C42.9097 37.7052 42.5657 38.0012 42.3097 38.3852C42.0697 38.7532 41.9497 39.1852 41.9497 39.6812C41.9497 40.1612 42.0697 40.5932 42.3097 40.9772C42.5497 41.3452 42.8857 41.6412 43.3177 41.8652C43.7497 42.0732 44.2777 42.1772 44.9017 42.1772Z" fill="#0C356A"/>
<defs>
<filter id="filter0_di_1_9426" x="0" y="0" width="80" height="80" filterUnits="userSpaceOnUse" color-interpolation-filters="sRGB">
<feFlood flood-opacity="0" result="BackgroundImageFix"/>
<feColorMatrix in="SourceAlpha" type="matrix" values="0 0 0 0 0 0 0 0 0 0 0 0 0 0 0 0 0 0 127 0" result="hardAlpha"/>
<feOffset dx="-4" dy="4"/>
<feGaussianBlur stdDeviation="2"/>
<feComposite in2="hardAlpha" operator="out"/>
<feColorMatrix type="matrix" values="0 0 0 0 0 0 0 0 0 0 0 0 0 0 0 0 0 0 0.25 0"/>
<feBlend mode="normal" in2="BackgroundImageFix" result="effect1_dropShadow_1_9426"/>
<feBlend mode="normal" in="SourceGraphic" in2="effect1_dropShadow_1_9426" result="shape"/>
<feColorMatrix in="SourceAlpha" type="matrix" values="0 0 0 0 0 0 0 0 0 0 0 0 0 0 0 0 0 0 127 0" result="hardAlpha"/>
<feOffset dx="-3" dy="4"/>
<feGaussianBlur stdDeviation="8"/>
<feComposite in2="hardAlpha" operator="arithmetic" k2="-1" k3="1"/>
<feColorMatrix type="matrix" values="0 0 0 0 0 0 0 0 0 0 0 0 0 0 0 0 0 0 0.16 0"/>
<feBlend mode="normal" in2="shape" result="effect2_innerShadow_1_9426"/>
</filter>
</defs>
</svg>
