<svg width="80" height="80" viewBox="0 0 80 80" fill="none" xmlns="http://www.w3.org/2000/svg">
<g filter="url(#filter0_di_1_9432)">
<circle cx="44" cy="36" r="36" fill="#FFE7C3"/>
</g>
<path d="M44.2845 45.0812C42.8765 45.0812 41.6445 44.8732 40.5885 44.4572C39.5325 44.0252 38.7085 43.4252 38.1165 42.6572C37.5245 41.8732 37.2285 40.9612 37.2285 39.9212C37.2285 38.8812 37.5165 38.0012 38.0925 37.2812C38.6845 36.5452 39.5085 35.9932 40.5645 35.6252C41.6205 35.2412 42.8605 35.0492 44.2845 35.0492C45.7245 35.0492 46.9725 35.2412 48.0285 35.6252C49.1005 35.9932 49.9245 36.5452 50.5005 37.2812C51.0925 38.0012 51.3885 38.8812 51.3885 39.9212C51.3885 40.9612 51.0925 41.8732 50.5005 42.6572C49.9085 43.4252 49.0765 44.0252 48.0045 44.4572C46.9485 44.8732 45.7085 45.0812 44.2845 45.0812ZM44.2845 42.2252C45.2605 42.2252 46.0285 42.0092 46.5885 41.5772C47.1645 41.1452 47.4525 40.5532 47.4525 39.8012C47.4525 39.0492 47.1645 38.4652 46.5885 38.0492C46.0285 37.6172 45.2605 37.4012 44.2845 37.4012C43.3245 37.4012 42.5645 37.6172 42.0045 38.0492C41.4445 38.4652 41.1645 39.0492 41.1645 39.8012C41.1645 40.5532 41.4445 41.1452 42.0045 41.5772C42.5645 42.0092 43.3245 42.2252 44.2845 42.2252ZM44.2845 37.0172C42.9885 37.0172 41.8525 36.8412 40.8765 36.4892C39.9165 36.1372 39.1645 35.6252 38.6205 34.9532C38.0925 34.2652 37.8285 33.4492 37.8285 32.5052C37.8285 31.5132 38.1005 30.6652 38.6445 29.9612C39.1885 29.2412 39.9485 28.6892 40.9245 28.3052C41.9005 27.9052 43.0205 27.7052 44.2845 27.7052C45.5805 27.7052 46.7085 27.9052 47.6685 28.3052C48.6445 28.6892 49.4045 29.2412 49.9485 29.9612C50.5085 30.6652 50.7885 31.5132 50.7885 32.5052C50.7885 33.4492 50.5165 34.2652 49.9725 34.9532C49.4445 35.6252 48.6925 36.1372 47.7165 36.4892C46.7405 36.8412 45.5965 37.0172 44.2845 37.0172ZM44.2845 34.7372C45.1005 34.7372 45.7405 34.5532 46.2045 34.1852C46.6845 33.8172 46.9245 33.3132 46.9245 32.6732C46.9245 32.0012 46.6765 31.4812 46.1805 31.1132C45.7005 30.7452 45.0685 30.5612 44.2845 30.5612C43.5165 30.5612 42.8925 30.7452 42.4125 31.1132C41.9325 31.4812 41.6925 32.0012 41.6925 32.6732C41.6925 33.3132 41.9245 33.8172 42.3885 34.1852C42.8525 34.5532 43.4845 34.7372 44.2845 34.7372Z" fill="#0C356A"/>
<defs>
<filter id="filter0_di_1_9432" x="0" y="0" width="80" height="80" filterUnits="userSpaceOnUse" color-interpolation-filters="sRGB">
<feFlood flood-opacity="0" result="BackgroundImageFix"/>
<feColorMatrix in="SourceAlpha" type="matrix" values="0 0 0 0 0 0 0 0 0 0 0 0 0 0 0 0 0 0 127 0" result="hardAlpha"/>
<feOffset dx="-4" dy="4"/>
<feGaussianBlur stdDeviation="2"/>
<feComposite in2="hardAlpha" operator="out"/>
<feColorMatrix type="matrix" values="0 0 0 0 0 0 0 0 0 0 0 0 0 0 0 0 0 0 0.25 0"/>
<feBlend mode="normal" in2="BackgroundImageFix" result="effect1_dropShadow_1_9432"/>
<feBlend mode="normal" in="SourceGraphic" in2="effect1_dropShadow_1_9432" result="shape"/>
<feColorMatrix in="SourceAlpha" type="matrix" values="0 0 0 0 0 0 0 0 0 0 0 0 0 0 0 0 0 0 127 0" result="hardAlpha"/>
<feOffset dx="-3" dy="4"/>
<feGaussianBlur stdDeviation="8"/>
<feComposite in2="hardAlpha" operator="arithmetic" k2="-1" k3="1"/>
<feColorMatrix type="matrix" values="0 0 0 0 0 0 0 0 0 0 0 0 0 0 0 0 0 0 0.16 0"/>
<feBlend mode="normal" in2="shape" result="effect2_innerShadow_1_9432"/>
</filter>
</defs>
</svg>
