<svg width="80" height="80" viewBox="0 0 80 80" fill="none" xmlns="http://www.w3.org/2000/svg">
<g filter="url(#filter0_di_1_9435)">
<circle cx="44" cy="36" r="36" fill="#FFD9E9"/>
</g>
<path d="M43.5097 27.7052C45.0617 27.7052 46.3977 28.0252 47.5177 28.6652C48.6377 29.3052 49.5017 30.2412 50.1097 31.4732C50.7177 32.6892 51.0217 34.2092 51.0217 36.0332C51.0217 37.9692 50.6537 39.6092 49.9177 40.9532C49.1977 42.2972 48.1977 43.3212 46.9177 44.0252C45.6377 44.7292 44.1497 45.0812 42.4537 45.0812C41.5737 45.0812 40.7257 44.9852 39.9097 44.7932C39.0937 44.6012 38.3897 44.3132 37.7977 43.9292L39.2377 41.0732C39.7017 41.3932 40.1977 41.6172 40.7257 41.7452C41.2537 41.8572 41.8057 41.9132 42.3817 41.9132C43.8217 41.9132 44.9657 41.4732 45.8137 40.5932C46.6777 39.7132 47.1097 38.4092 47.1097 36.6812C47.1097 36.3932 47.1017 36.0732 47.0857 35.7212C47.0697 35.3692 47.0297 35.0172 46.9657 34.6652L48.0217 35.6732C47.7497 36.2972 47.3657 36.8252 46.8697 37.2572C46.3737 37.6732 45.7977 37.9932 45.1417 38.2172C44.4857 38.4252 43.7497 38.5292 42.9337 38.5292C41.8617 38.5292 40.8857 38.3132 40.0057 37.8812C39.1417 37.4492 38.4457 36.8412 37.9177 36.0572C37.4057 35.2732 37.1497 34.3532 37.1497 33.2972C37.1497 32.1452 37.4297 31.1532 37.9897 30.3212C38.5657 29.4892 39.3337 28.8492 40.2937 28.4012C41.2697 27.9372 42.3417 27.7052 43.5097 27.7052ZM43.7497 30.6092C43.1897 30.6092 42.7017 30.7132 42.2857 30.9212C41.8697 31.1132 41.5417 31.4012 41.3017 31.7852C41.0617 32.1532 40.9417 32.5932 40.9417 33.1052C40.9417 33.8732 41.1977 34.4892 41.7097 34.9532C42.2377 35.4012 42.9337 35.6252 43.7977 35.6252C44.3577 35.6252 44.8537 35.5212 45.2857 35.3132C45.7337 35.0892 46.0777 34.7852 46.3177 34.4012C46.5577 34.0172 46.6777 33.5852 46.6777 33.1052C46.6777 32.6252 46.5577 32.2012 46.3177 31.8332C46.0937 31.4492 45.7657 31.1532 45.3337 30.9452C44.9017 30.7212 44.3737 30.6092 43.7497 30.6092Z" fill="#0C356A"/>
<defs>
<filter id="filter0_di_1_9435" x="0" y="0" width="80" height="80" filterUnits="userSpaceOnUse" color-interpolation-filters="sRGB">
<feFlood flood-opacity="0" result="BackgroundImageFix"/>
<feColorMatrix in="SourceAlpha" type="matrix" values="0 0 0 0 0 0 0 0 0 0 0 0 0 0 0 0 0 0 127 0" result="hardAlpha"/>
<feOffset dx="-4" dy="4"/>
<feGaussianBlur stdDeviation="2"/>
<feComposite in2="hardAlpha" operator="out"/>
<feColorMatrix type="matrix" values="0 0 0 0 0 0 0 0 0 0 0 0 0 0 0 0 0 0 0.25 0"/>
<feBlend mode="normal" in2="BackgroundImageFix" result="effect1_dropShadow_1_9435"/>
<feBlend mode="normal" in="SourceGraphic" in2="effect1_dropShadow_1_9435" result="shape"/>
<feColorMatrix in="SourceAlpha" type="matrix" values="0 0 0 0 0 0 0 0 0 0 0 0 0 0 0 0 0 0 127 0" result="hardAlpha"/>
<feOffset dx="-3" dy="4"/>
<feGaussianBlur stdDeviation="8"/>
<feComposite in2="hardAlpha" operator="arithmetic" k2="-1" k3="1"/>
<feColorMatrix type="matrix" values="0 0 0 0 0 0 0 0 0 0 0 0 0 0 0 0 0 0 0.16 0"/>
<feBlend mode="normal" in2="shape" result="effect2_innerShadow_1_9435"/>
</filter>
</defs>
</svg>
