<svg width="160" height="151" viewBox="0 0 160 151" fill="none" xmlns="http://www.w3.org/2000/svg">
<path d="M31.8213 13.6608C29.2002 14.5264 26.5635 15.3687 23.9112 16.1876C21.3322 14.7073 18.7732 13.2047 16.2341 11.6799L17.6424 1.92212C22.7227 2.65454 27.8108 3.3004 32.9067 3.8597C32.5515 7.12895 32.1898 10.396 31.8213 13.6608Z" fill="#D04848" stroke="#263238" stroke-miterlimit="10"/>
<path d="M51.13 15.3655C48.551 16.3421 45.9543 17.2953 43.3398 18.2253C40.692 16.8448 38.073 15.451 35.4829 14.0438L36.4817 4.23608C41.5864 4.75544 46.6911 5.18712 51.7959 5.53113C51.5739 8.80926 51.352 12.0874 51.13 15.3655Z" stroke="#263238" stroke-miterlimit="10"/>
<path d="M70.4402 16.2609C67.9078 17.344 65.3554 18.4049 62.7831 19.4436C60.0865 18.1851 57.412 16.9034 54.7598 15.5984C54.9529 12.3158 55.1471 9.03545 55.3424 5.75732C60.4471 6.05917 65.5629 6.27557 70.6899 6.40651L70.4402 16.2609Z" fill="#D04848" stroke="#263238" stroke-miterlimit="10"/>
<path d="M89.8025 16.3408C87.3255 17.5282 84.8198 18.6956 82.2852 19.8431C79.5397 18.6978 76.812 17.5293 74.1021 16.3374L74.2718 6.47974C79.3899 6.57073 84.5091 6.57073 89.6293 6.47974C89.687 9.76896 89.7447 13.056 89.8025 16.3408Z" stroke="#263238" stroke-miterlimit="10"/>
<path d="M109.139 15.6051C106.698 16.8968 104.242 18.1696 101.772 19.4236C98.9819 18.396 96.2076 17.3429 93.4488 16.2642C93.3689 12.9794 93.2879 9.69465 93.2058 6.40987C98.3239 6.28336 103.44 6.06918 108.553 5.76733L109.139 15.6051Z" fill="#D04848" stroke="#263238" stroke-miterlimit="10"/>
<path d="M128.437 14.0602C126.058 15.4562 123.657 16.8312 121.233 18.185C118.401 17.2751 115.586 16.3385 112.787 15.3752L112.121 5.54083C117.226 5.19904 122.331 4.76957 127.435 4.25244C127.773 7.52613 128.107 10.7954 128.437 14.0602Z" stroke="#263238" stroke-miterlimit="10"/>
<path d="M147.677 11.7C145.353 13.196 143.008 14.6708 140.642 16.1245C137.77 15.3366 134.915 14.521 132.076 13.6776C131.719 10.4105 131.362 7.14462 131.004 3.87981C136.109 3.32051 141.198 2.67576 146.272 1.94556C146.743 5.20371 147.211 8.45521 147.677 11.7Z" fill="#D04848" stroke="#263238" stroke-miterlimit="10"/>
<path d="M11.5537 1C58.2506 8.39743 105.821 8.39743 152.518 1" stroke="#263238" stroke-miterlimit="10"/>
<path d="M133.029 24.8103H22.5002V89.3963H133.029V24.8103Z" fill="white" stroke="#263238" stroke-miterlimit="10"/>
<path d="M88.187 39.2789V37.3447C88.187 36.8952 88.1504 36.2394 88.0771 35.3705C88.0039 34.5016 87.9639 33.919 87.9639 33.6193C87.9639 33.3197 87.9639 32.9535 87.9939 32.544C88.0239 32.1345 88.0239 31.8182 88.0239 31.6085C87.9817 31.7417 87.8119 32.4397 87.5145 33.7026C86.7466 36.9629 86.1972 38.5931 85.8665 38.5931C85.7814 38.5973 85.6963 38.5838 85.6167 38.5535C85.537 38.5231 85.4645 38.4765 85.4038 38.4167C85.288 38.2859 85.2283 38.115 85.2373 37.9406C85.1453 36.9415 84.9569 35.9537 84.6747 34.9909C84.2952 33.4995 83.9789 32.3576 83.7159 31.5652C83.525 35.1163 83.4296 37.52 83.4296 38.7762L83.4496 39.229C83.4584 39.3614 83.422 39.4928 83.3464 39.6019C83.3054 39.6487 83.2538 39.685 83.1958 39.7076C83.1379 39.7302 83.0753 39.7385 83.0134 39.7317C82.8835 39.7376 82.7554 39.6988 82.6506 39.6218C82.6086 39.594 82.574 39.5565 82.5497 39.5124C82.5253 39.4684 82.512 39.4191 82.5107 39.3688C82.5107 38.339 82.5884 36.7965 82.7438 34.7413C82.8991 32.686 82.9768 31.1446 82.9768 30.117C82.9167 30.0239 82.8854 29.915 82.8869 29.8041C82.8868 29.7468 82.9043 29.6908 82.9371 29.6438C82.9698 29.5967 83.0162 29.5609 83.07 29.5411C83.1946 29.4809 83.3313 29.4501 83.4695 29.4512C83.6915 29.4512 84.1198 30.4655 84.7546 32.4941C85.3894 34.5226 85.7844 35.9253 85.9398 36.7021C85.9831 36.5523 86.0763 36.1795 86.2161 35.5802C86.3559 34.981 86.5058 34.3617 86.6622 33.7159C86.8187 33.07 86.9951 32.4108 87.1782 31.7517C87.6044 30.2336 87.9639 29.4745 88.2569 29.4745C88.3912 29.4748 88.5227 29.5129 88.6364 29.5844C88.6911 29.6134 88.7366 29.6572 88.7678 29.7107C88.7989 29.7643 88.8146 29.8254 88.8129 29.8873C88.8129 30.6164 88.8428 31.705 88.9094 33.1532C88.976 34.6014 89.006 35.6535 89.006 36.3093L88.966 37.904C88.966 38.0172 88.996 38.3767 89.0559 38.9826L89.0859 39.2756C89.1283 39.3815 89.1509 39.4944 89.1524 39.6085C89.1458 39.7484 89.097 39.883 89.0126 39.9947C88.9746 40.0585 88.9204 40.1112 88.8555 40.1475C88.7907 40.1837 88.7174 40.2022 88.6431 40.2011C88.3435 40.2244 88.187 39.9115 88.187 39.2789Z" fill="#D04848"/>
<path d="M93.4111 36.3626L93.5742 37.2914C93.6004 37.5952 93.6482 37.8967 93.7173 38.1936C93.7896 38.5023 93.8375 38.8162 93.8605 39.1324C93.8723 39.2216 93.8542 39.3121 93.809 39.3898C93.7638 39.4675 93.6941 39.528 93.6108 39.5619C93.4393 39.5707 93.2685 39.5352 93.1148 39.4587C93.0523 39.414 93.003 39.3533 92.972 39.2831C92.9409 39.2128 92.9293 39.1355 92.9383 39.0592C92.9165 38.4315 92.8419 37.8067 92.7153 37.1915L91.2238 36.9685C91.1245 37.3298 91.0532 37.6982 91.0107 38.0704C90.979 38.3636 90.9312 38.6548 90.8676 38.9427C90.781 39.3155 90.6146 39.502 90.3749 39.502C90.2542 39.5033 90.1368 39.4634 90.0419 39.3888C89.995 39.3558 89.9569 39.3119 89.9308 39.2608C89.9047 39.2098 89.8914 39.1532 89.8921 39.0958L89.9287 38.9627C90.5867 36.443 91.0925 33.886 91.4435 31.3055C91.4435 31.239 91.4668 31.0359 91.4868 30.6996C91.5367 29.9606 91.6299 29.4911 91.7664 29.2881H92.2758C92.4035 29.2848 92.5295 29.3183 92.6387 29.3846C92.6876 29.4152 92.7278 29.458 92.7552 29.5087C92.7827 29.5595 92.7964 29.6166 92.7952 29.6742C92.8259 30.8203 92.9282 31.9633 93.1014 33.0966C93.2684 34.1783 93.3718 35.2688 93.4111 36.3626ZM92.6187 36.6622C92.584 36.4074 92.5695 36.1502 92.5754 35.8932C92.5754 35.5236 92.5555 35.0675 92.5122 34.5249C92.4689 33.9822 92.4123 33.3463 92.3324 32.6272C92.2525 31.9081 92.1992 31.3821 92.1693 31.0559C91.7121 33.5927 91.4169 35.3805 91.2837 36.4192C91.7084 36.587 92.1621 36.6696 92.6187 36.6622Z" fill="#D04848"/>
<path d="M95.7017 39.1923L95.6718 38.0304C95.6718 38.0304 95.6718 37.854 95.6951 37.5144C95.6551 37.3856 95.5752 36.2471 95.4554 34.0986C95.3355 31.9502 95.27 30.6374 95.2589 30.1602H95.199C94.38 30.1602 93.9739 29.9971 93.9739 29.7108C93.9767 29.6611 93.9931 29.6131 94.0213 29.572C94.0495 29.5309 94.0883 29.4983 94.1337 29.4777C94.2345 29.4179 94.3494 29.3857 94.4666 29.3845L96.5207 29.5243H96.7637C97.0966 29.5243 97.2365 29.6475 97.2365 29.8872C97.2376 29.9459 97.2242 30.004 97.1975 30.0563C97.1708 30.1085 97.1316 30.1534 97.0833 30.1869C96.9823 30.2617 96.8595 30.3015 96.7338 30.3L96.0413 30.1968L96.0113 30.3533C96.0113 31.3099 96.0946 32.7403 96.261 34.6446C96.4275 36.5489 96.5118 37.9827 96.514 38.9459C96.5124 39.007 96.4968 39.067 96.4686 39.1212C96.4403 39.1754 96.4001 39.2225 96.3509 39.2589C96.2531 39.3468 96.1262 39.3954 95.9947 39.3954L95.7017 39.1923Z" fill="#D04848"/>
<path d="M98.8584 30.3235L98.7985 34.0987C99.0706 34.1584 99.3491 34.1841 99.6275 34.1753H100.173C100.209 34.0147 100.221 33.85 100.21 33.6859C100.21 33.4063 100.177 32.787 100.11 31.8349C100.044 30.8828 100.01 30.1703 100.01 29.6809C100.009 29.6267 100.021 29.573 100.044 29.5239C100.067 29.4748 100.101 29.4317 100.144 29.3979C100.21 29.331 100.299 29.2897 100.393 29.2814C100.458 29.279 100.524 29.2869 100.586 29.3047C100.642 29.3204 100.697 29.3404 100.749 29.3647L100.889 29.4146C100.889 30.7263 100.937 32.6417 101.032 35.1608C101.128 37.6798 101.177 38.9815 101.179 39.0659C101.173 39.1164 101.155 39.1649 101.128 39.2076C101.1 39.2503 101.063 39.2861 101.019 39.3122C100.918 39.3933 100.792 39.4368 100.663 39.4354C100.533 39.4354 100.43 39.3389 100.35 39.1458C100.253 38.8715 100.199 38.5841 100.19 38.2935C100.163 37.9173 100.147 37.5911 100.137 37.3147C100.137 37.1949 100.137 37.0617 100.137 36.9086C100.137 36.7022 100.137 36.4658 100.137 36.1995C100.137 35.73 100.137 35.4604 100.137 35.3871V35.3272L100.16 34.8911L100.07 34.7513C99.9808 34.772 99.8891 34.7821 99.7973 34.7812L98.8218 34.6414V36.3792L98.9117 38.8661C98.9138 39.0018 98.8755 39.135 98.8018 39.249C98.7663 39.304 98.7167 39.3484 98.6581 39.3777C98.5996 39.4069 98.5342 39.42 98.4689 39.4154C98.2692 39.4154 98.136 39.2323 98.0528 38.8628C97.9647 38.3674 97.9257 37.8644 97.9363 37.3613L97.9829 35.0542C97.9906 34.791 97.9828 34.5275 97.9596 34.2652V34.192C97.9995 33.6637 98.0195 33.3674 98.0195 33.3031L97.9163 29.8907C97.9151 29.7733 97.9592 29.66 98.0395 29.5744C98.0776 29.5317 98.1243 29.4975 98.1765 29.474C98.2287 29.4505 98.2852 29.4382 98.3424 29.4379C98.6986 29.4213 98.8584 29.7242 98.8584 30.3235Z" fill="#D04848"/>
<path d="M105.274 42.7613H80.9242C80.8359 42.7613 80.7513 42.7262 80.6888 42.6638C80.6264 42.6014 80.5913 42.5167 80.5913 42.4284C80.5913 42.3401 80.6264 42.2554 80.6888 42.193C80.7513 42.1305 80.8359 42.0955 80.9242 42.0955H105.274C105.362 42.0955 105.447 42.1305 105.509 42.193C105.572 42.2554 105.607 42.3401 105.607 42.4284C105.607 42.5167 105.572 42.6014 105.509 42.6638C105.447 42.7262 105.362 42.7613 105.274 42.7613Z" fill="#D04848"/>
<path d="M80.9242 41.6325C80.8359 41.6325 80.7513 41.5975 80.6888 41.535C80.6264 41.4726 80.5913 41.3879 80.5913 41.2996C80.5913 41.2113 80.6264 41.1266 80.6888 41.0642C80.7513 41.0018 80.8359 40.9667 80.9242 40.9667L103.02 40.7437C103.108 40.7437 103.193 40.7787 103.255 40.8412C103.318 40.9036 103.353 40.9883 103.353 41.0766C103.353 41.1649 103.318 41.2495 103.255 41.312C103.193 41.3744 103.108 41.4095 103.02 41.4095L80.9276 41.6325H80.9242Z" fill="#D04848"/>
<path d="M78.8928 34.6447C78.8381 34.6445 78.7844 34.6308 78.7363 34.6048L75.8066 33.0268C75.7289 32.9848 75.6711 32.9137 75.6458 32.8291C75.6205 32.7445 75.6298 32.6534 75.6718 32.5757C75.7137 32.498 75.7848 32.4401 75.8694 32.4148C75.954 32.3895 76.0452 32.3989 76.1229 32.4408L79.0526 34.0189C79.1179 34.0541 79.1696 34.1102 79.1994 34.1782C79.2292 34.2462 79.2354 34.3223 79.217 34.3942C79.1987 34.4661 79.1568 34.5299 79.098 34.5753C79.0393 34.6207 78.967 34.6451 78.8928 34.6447Z" fill="#D04848"/>
<path d="M80.022 32.6172C79.962 32.6162 79.9033 32.599 79.8522 32.5673L77.5984 31.2157C77.5544 31.1975 77.5148 31.1702 77.4822 31.1354C77.4497 31.1007 77.425 31.0594 77.4098 31.0143C77.3946 30.9692 77.3892 30.9213 77.3941 30.874C77.3989 30.8267 77.4138 30.7809 77.4379 30.7398C77.4619 30.6987 77.4944 30.6633 77.5333 30.6358C77.5722 30.6084 77.6165 30.5896 77.6633 30.5808C77.7101 30.5719 77.7582 30.5732 77.8044 30.5845C77.8507 30.5958 77.8939 30.6169 77.9313 30.6464L80.1885 31.998C80.2638 32.0436 80.3181 32.1172 80.3393 32.2027C80.3605 32.2882 80.347 32.3786 80.3017 32.4541C80.2728 32.5029 80.232 32.5434 80.183 32.572C80.1341 32.6005 80.0787 32.6161 80.022 32.6172Z" fill="#D04848"/>
<path d="M103.918 33.5161C103.856 33.516 103.795 33.4984 103.742 33.4655C103.69 33.4326 103.647 33.3856 103.62 33.3299C103.592 33.2741 103.581 33.2118 103.587 33.15C103.594 33.0882 103.617 33.0293 103.655 32.9801L105.909 30.0504C105.963 29.9803 106.042 29.9343 106.13 29.9228C106.218 29.9112 106.306 29.935 106.376 29.9889C106.447 30.0427 106.493 30.1223 106.504 30.21C106.516 30.2977 106.492 30.3864 106.438 30.4566L104.184 33.3863C104.153 33.427 104.112 33.4599 104.066 33.4825C104.02 33.505 103.969 33.5165 103.918 33.5161Z" fill="#D04848"/>
<path d="M104.371 35.9964C104.327 35.9967 104.284 35.9883 104.243 35.9717C104.203 35.9551 104.166 35.9307 104.135 35.8999C104.073 35.8375 104.038 35.7531 104.038 35.6652C104.038 35.5772 104.073 35.4928 104.135 35.4305L107.517 32.048C107.547 32.0132 107.584 31.9849 107.625 31.9649C107.666 31.9449 107.711 31.9337 107.757 31.9319C107.803 31.9301 107.849 31.9378 107.891 31.9546C107.934 31.9713 107.973 31.9967 108.005 32.0291C108.038 32.0616 108.063 32.1004 108.08 32.1431C108.097 32.1858 108.104 32.2316 108.103 32.2774C108.101 32.3233 108.09 32.3682 108.07 32.4095C108.05 32.4509 108.021 32.4876 107.987 32.5174L104.604 35.8999C104.542 35.9614 104.458 35.996 104.371 35.9964Z" fill="#D04848"/>
<path d="M133.029 86.7695H22.5002V89.3963H133.029V86.7695Z" fill="#263238" stroke="#263238" stroke-miterlimit="10"/>
<path d="M81.7599 54.906L81.9529 49.6026C81.9533 49.5394 81.9704 49.4774 82.0026 49.423C82.0347 49.3686 82.0808 49.3238 82.1361 49.293C82.2426 49.2211 82.3672 49.1807 82.4956 49.1765L82.8285 49.5094V50.4183C82.8285 52.387 82.8141 53.8551 82.7852 54.8228L83.3878 54.7762C83.804 54.7762 84.0104 54.9127 84.0104 55.1823C84.0104 55.452 83.7341 55.6451 83.1748 55.6451C82.9517 55.6451 82.8418 55.7017 82.8418 55.8116C82.8418 56.2377 82.8585 56.8103 82.8984 57.5694C82.8943 58.0181 82.9469 58.4655 83.0549 58.901C83.0297 59.0361 83.0163 59.1731 83.015 59.3105C83.0101 59.4286 83.0427 59.5451 83.1082 59.6435V59.9764C83.1082 60.4524 82.9451 60.6888 82.6155 60.6888C82.5145 60.6895 82.4153 60.6622 82.3289 60.6099C82.2425 60.5576 82.1723 60.4823 82.1261 60.3925C82.0147 60.2111 81.9549 60.0028 81.9529 59.7899V59.7267C82.0267 59.5055 82.0649 59.274 82.0662 59.0409L81.913 57.1998L81.933 56.3775C81.9344 56.1826 81.9211 55.9878 81.893 55.7949L80.7478 55.8948C80.4507 55.8799 80.1656 55.7729 79.9321 55.5885C79.9267 55.3422 79.9581 55.0964 80.0254 54.8594C79.9573 54.504 79.9261 54.1426 79.9321 53.7808C79.9496 53.1325 80.003 52.4856 80.0919 51.8432C80.1777 51.2072 80.2299 50.5671 80.2484 49.9256V46.4299C80.2411 46.3312 80.2669 46.2328 80.3217 46.1503C80.3683 46.0904 80.4748 46.0604 80.6379 46.0604C80.7932 46.0579 80.9455 46.1032 81.0741 46.1902C81.1325 46.2243 81.1812 46.2728 81.2156 46.3311C81.25 46.3894 81.2689 46.4555 81.2705 46.5232L81.1773 47.9947V48.3276C81.1765 48.4398 81.1899 48.5516 81.2172 48.6605V48.7237C81.2629 49.1082 81.284 49.4952 81.2805 49.8823C81.2805 50.3184 81.2305 51.0741 81.1306 52.1428C81.0308 53.2115 80.9842 53.9206 80.9842 54.2602C80.9795 54.5003 80.9895 54.7404 81.0141 54.9793C81.2645 54.9792 81.5143 54.9547 81.7599 54.906Z" fill="#D04848"/>
<path d="M89.416 55.219L89.6124 56.7371C89.6124 56.8096 89.5945 56.881 89.5602 56.9449C89.526 57.0088 89.4764 57.0632 89.416 57.1033C89.2785 57.1967 89.1161 57.2466 88.9499 57.2465C88.7836 57.2468 88.6207 57.1995 88.4805 57.11C88.4185 57.0786 88.3661 57.0311 88.3286 56.9726C88.2911 56.914 88.27 56.8465 88.2674 56.7771L88.1343 54.936V54.7962L86.9724 54.8794C86.3798 54.8794 86.0835 54.6797 86.0835 54.2802C86.0851 54.1578 86.1299 54.0399 86.21 53.9473C86.2511 53.8994 86.3022 53.8611 86.3598 53.8352C86.4173 53.8093 86.4798 53.7964 86.5429 53.7975L87.778 53.864C87.9386 53.8647 88.0989 53.8525 88.2574 53.8274L88.1343 52.4392C88.1343 51.74 88.3607 51.3938 88.8001 51.3938C88.8718 51.3916 88.9432 51.4044 89.0097 51.4313C89.0762 51.4583 89.1363 51.4988 89.1863 51.5503C89.2837 51.6562 89.3362 51.7959 89.3328 51.9398V52.1695C89.3328 53.2981 89.4227 53.864 89.6091 53.864L90.8209 53.7908C91.5433 53.7908 91.9029 53.9806 91.9029 54.3634C91.9042 54.4342 91.8893 54.5042 91.8593 54.5683C91.8293 54.6324 91.785 54.6887 91.7298 54.733C91.6147 54.8333 91.4662 54.8867 91.3136 54.8828L90.0818 54.7729C89.6524 54.7729 89.416 54.9194 89.416 55.219Z" fill="#D04848"/>
<path d="M94.3311 52.1927C94.3311 47.8382 95.079 45.6609 96.5749 45.6609C96.6953 45.664 96.8118 45.7047 96.9078 45.7774C96.959 45.8118 97.0007 45.8585 97.0292 45.9131C97.0577 45.9678 97.072 46.0287 97.071 46.0904C97.0633 46.1678 97.0368 46.2423 96.9939 46.3072C96.951 46.3722 96.8929 46.4257 96.8246 46.4632C96.6591 46.5782 96.4705 46.6554 96.272 46.6896C96.0955 46.8427 95.939 47.2822 95.7926 48.0013C95.5659 49.1748 95.4235 50.363 95.3664 51.5569C95.4763 51.537 95.5877 51.527 95.6993 51.5269C97.0754 51.5269 97.8844 53.0805 98.1263 56.1877C98.1829 56.8303 98.2095 57.3829 98.2095 57.8523C98.2095 58.3217 98.2095 58.6413 98.1896 58.8245C98.1721 59.031 98.1331 59.2352 98.073 59.4337C98.0237 59.632 97.9317 59.8172 97.8034 59.9764C97.6399 60.146 97.4406 60.2771 97.22 60.36C96.9994 60.443 96.7631 60.4757 96.5283 60.4558C95.2166 60.3825 94.4886 58.496 94.3444 54.7962L94.3311 52.1927ZM96.6781 59.6601C97.0377 59.6601 97.2208 59.2339 97.2208 58.375C97.2134 57.4101 97.1512 56.4464 97.0343 55.4886C96.7902 53.3846 96.3818 52.2749 95.8092 52.1594C95.6421 52.2564 95.512 52.4064 95.4397 52.5856C95.3764 52.7742 95.3471 52.9726 95.3531 53.1715C95.3531 53.4046 95.3531 53.6243 95.3531 53.8373C95.3531 54.0504 95.3531 54.3467 95.3731 54.7229C95.3931 55.0991 95.403 55.4553 95.4297 55.7916C95.4563 56.1278 95.4896 56.4907 95.5329 56.8835C95.5662 57.2361 95.6207 57.5863 95.696 57.9322C95.7626 58.2418 95.8425 58.5315 95.9291 58.8012C96.1155 59.3738 96.3652 59.6567 96.6781 59.6601Z" fill="#D04848"/>
<path d="M101.734 53.2116L100.939 53.2383C100.1 53.2383 99.6801 53.0585 99.6801 52.6923C99.6782 52.6344 99.6888 52.5767 99.7112 52.5233C99.7336 52.4699 99.7673 52.4219 99.8099 52.3827C99.9029 52.3047 100.022 52.2643 100.143 52.2695H103.891C104.975 52.2695 105.515 52.4359 105.513 52.7689C105.511 53.1018 104.776 53.2682 103.309 53.2682C102.683 53.2682 102.187 53.2483 101.817 53.2116H101.734ZM104.927 54.9794L100.519 54.8862C99.9597 54.8862 99.6801 54.7497 99.6801 54.4701C99.6775 54.4121 99.6878 54.3542 99.7103 54.3007C99.7327 54.2472 99.7667 54.1993 99.8099 54.1605C99.9025 54.0816 100.021 54.04 100.143 54.0439H103.279C104.702 54.0439 105.412 54.2104 105.41 54.5433C105.412 54.6029 105.401 54.6623 105.378 54.7171C105.354 54.7718 105.318 54.8205 105.273 54.8596C105.175 54.9408 105.051 54.9834 104.924 54.9794H104.927Z" fill="#D04848"/>
<path d="M109.833 59.2241H109.337C109.2 59.2339 109.062 59.2075 108.938 59.1475C108.895 59.1128 108.861 59.0679 108.839 59.0167C108.818 58.9655 108.809 58.9098 108.815 58.8546C108.815 58.7147 108.841 58.6215 108.895 58.5816C109.02 58.5309 109.156 58.5115 109.291 58.525C109.507 58.525 109.624 58.4417 109.624 58.272C109.624 57.2821 109.539 55.8095 109.371 53.8541C109.202 51.8988 109.118 50.4562 109.118 49.5262L109.144 48.9736C109.144 48.5008 108.951 48.2644 108.565 48.2644L108.182 48.2811C107.869 48.2811 107.709 48.1712 107.709 47.9482C107.709 47.6818 108.159 47.552 109.041 47.552C109.507 47.552 109.79 47.6352 109.893 47.8017C109.833 48.0492 109.801 48.3027 109.797 48.5574C109.816 48.9811 109.858 49.4035 109.923 49.8225C110.005 50.4016 110.047 50.9855 110.05 51.5703C110.05 52.123 110.11 53.1916 110.226 54.783C110.343 56.3743 110.406 57.5662 110.406 58.3652V58.4584C110.669 58.4318 110.872 58.4151 111.019 58.4151C111.488 58.4151 111.724 58.5416 111.724 58.7913C111.724 59.041 111.095 59.2241 109.833 59.2241Z" fill="#D04848"/>
<path d="M112.349 50.1519C112.349 48.9179 112.587 48.1411 113.064 47.8215C113.273 47.6888 113.516 47.6216 113.764 47.6284C115.359 47.6284 116.157 50.1908 116.157 55.3155C116.157 57.8434 115.56 59.1074 114.366 59.1074C113.478 59.1074 112.885 57.8756 112.585 55.412C112.402 53.6649 112.323 51.9084 112.349 50.1519ZM113.211 51.8631L113.381 53.3379C113.365 54.6577 113.488 55.9755 113.747 57.2697C113.92 58.0421 114.18 58.4283 114.519 58.4283C114.682 58.4283 114.826 58.2784 114.952 57.9788C115.095 57.6295 115.188 57.2619 115.228 56.8869C115.322 56.2695 115.375 55.6468 115.388 55.0225C115.388 54.5786 115.378 54.1525 115.358 53.7441C115.338 53.3357 115.312 52.853 115.278 52.2959C115.243 51.7823 115.18 51.2711 115.089 50.7645C115.007 50.3152 114.902 49.8707 114.772 49.4328C114.506 48.5273 114.106 48.0412 113.577 47.9713C113.437 48.073 113.323 48.2065 113.244 48.3608C113.181 48.5252 113.151 48.7007 113.158 48.8768L113.211 51.8631Z" fill="#D04848"/>
<path d="M83.2841 79.8783H82.9845C82.3453 79.8783 82.0256 79.7285 82.0256 79.4289C82.024 79.373 82.0389 79.3179 82.0685 79.2705C82.0982 79.2231 82.1412 79.1855 82.1921 79.1625C82.3157 79.0998 82.453 79.0689 82.5916 79.0726C82.7435 79.0721 82.892 79.1174 83.0177 79.2025C83.2974 79.1159 83.5171 78.8263 83.6836 78.3336C83.8276 77.9426 83.9096 77.5314 83.9266 77.1151C83.9266 76.7822 83.9266 76.5425 83.9266 76.3693C83.9266 76.1962 83.9266 75.9732 83.9066 75.7035C83.8867 75.4338 83.8767 75.2041 83.85 75.0377C83.8234 74.8712 83.7901 74.6582 83.7435 74.4251C83.7077 74.2301 83.6519 74.0394 83.577 73.8558C83.5042 73.6934 83.4197 73.5365 83.324 73.3864C83.2357 73.2436 83.1231 73.1174 82.9911 73.0135C82.6858 72.799 82.3222 72.6828 81.9491 72.6806C81.8389 72.6954 81.7269 72.6743 81.6297 72.6203C81.5325 72.5663 81.4554 72.4824 81.4098 72.381C81.3366 72.1876 81.3016 71.9818 81.3066 71.7751L81.3998 70.9694C81.3469 69.8501 81.2044 68.7368 80.9736 67.6402L81.2733 67.3606H82.7015C83.1875 67.3606 83.4272 67.4938 83.4272 67.7634V67.85L83.0943 68.0897H82.6582V68.0431H81.9125C81.9413 68.7089 82.0523 69.9651 82.2454 71.8117C82.272 71.8117 82.3852 71.8284 82.5783 71.8417L82.9978 71.8883C83.2308 71.9162 83.4566 71.9873 83.6636 72.098C84.0079 72.3829 84.2431 72.7781 84.3294 73.2166C84.618 74.189 84.7615 75.1986 84.7556 76.2129C84.7782 76.7691 84.7504 77.3263 84.6723 77.8775C84.6158 78.0793 84.5491 78.2782 84.4726 78.4734C84.4152 78.6518 84.3285 78.8194 84.2163 78.9694C83.9562 79.3204 83.6415 79.6273 83.2841 79.8783Z" fill="#D04848"/>
<path d="M88.7305 75.3105L88.8936 76.5822C88.8936 76.6452 88.8773 76.707 88.8464 76.7618C88.8155 76.8166 88.771 76.8626 88.7172 76.8952C88.604 76.9742 88.469 77.0161 88.331 77.015C88.1907 77.0165 88.0531 76.9772 87.9348 76.9018C87.8815 76.8742 87.8367 76.8328 87.805 76.7818C87.7734 76.7308 87.7561 76.6722 87.755 76.6122L87.6452 75.0708V74.9543L86.6697 75.0242C86.1737 75.0242 85.9273 74.8544 85.9273 74.5181C85.9256 74.4127 85.9636 74.3105 86.0338 74.2318C86.0689 74.1907 86.113 74.1583 86.1627 74.1369C86.2123 74.1156 86.2662 74.1059 86.3202 74.1086L87.3555 74.1619C87.4893 74.1629 87.6229 74.1529 87.755 74.132L87.6551 72.9667C87.6551 72.3841 87.8416 72.0912 88.2178 72.0912C88.2797 72.0867 88.3419 72.0963 88.3996 72.1194C88.4573 72.1424 88.5089 72.1783 88.5507 72.2243C88.593 72.2685 88.6261 72.3207 88.6478 72.3779C88.6695 72.4351 88.6795 72.4961 88.6772 72.5573V72.7503C88.6772 73.6958 88.7538 74.1686 88.9069 74.1686L89.9256 74.1053C90.5282 74.1053 90.8312 74.2685 90.8312 74.5881C90.8325 74.6475 90.8199 74.7064 90.7945 74.7601C90.7691 74.8139 90.7315 74.861 90.6847 74.8977C90.5918 74.9768 90.4738 75.0204 90.3518 75.0208L89.3164 74.9376C88.9169 74.931 88.7305 75.0575 88.7305 75.3105Z" fill="#D04848"/>
<path d="M95.6587 79.5653L92.9953 79.7151C92.8364 79.7181 92.6805 79.6716 92.5492 79.582C92.4888 79.5459 92.4389 79.4947 92.4044 79.4334C92.37 79.372 92.3522 79.3027 92.3528 79.2324V79.1725C92.6232 78.8667 92.8323 78.5118 92.9687 78.1271C93.1352 77.6988 93.2461 77.4158 93.3016 77.2782C93.9072 76.098 94.4052 74.8656 94.7898 73.5961C95.1245 72.4182 95.2893 71.1985 95.2791 69.974C95.2791 68.6789 94.9995 68.0064 94.4402 67.9765C94.2471 68.0697 94.1073 68.3094 94.0473 68.7355C93.9874 69.1616 93.8043 69.3181 93.5247 69.3181C93.245 69.3181 93.1052 69.155 93.1052 68.8287C93.0957 68.5965 93.1349 68.3648 93.2203 68.1487C93.3058 67.9325 93.4355 67.7366 93.6012 67.5736C93.6838 67.4898 93.7823 67.4234 93.8909 67.3782C93.9996 67.3331 94.1161 67.3101 94.2338 67.3106C94.4803 67.2868 94.729 67.3207 94.9602 67.4097C95.1913 67.4987 95.3985 67.6403 95.5655 67.8233C95.7356 68.0236 95.8646 68.2555 95.945 68.5058C95.9982 68.7089 96.0382 68.8687 96.0582 68.9852C96.0782 69.1017 96.0915 69.2582 96.1048 69.4446C96.1214 69.7243 96.1281 70.1304 96.1281 70.6631C96.1055 71.365 96.0027 72.062 95.8218 72.7405C95.6539 73.4785 95.4313 74.2029 95.156 74.9078C94.9163 75.5004 94.61 76.2128 94.2471 77.0418C93.8842 77.8708 93.6179 78.5133 93.4581 78.9494C94.1434 78.8447 94.8356 78.7913 95.5288 78.7896C95.7752 78.9494 95.8984 79.0926 95.8984 79.2191C95.8869 79.2911 95.8595 79.3596 95.818 79.4195C95.7765 79.4794 95.722 79.5293 95.6587 79.5653Z" fill="#D04848"/>
<path d="M98.8254 73.6259L98.1596 73.6492C97.4605 73.6492 97.1076 73.4994 97.1076 73.1931C97.1054 73.1447 97.1137 73.0964 97.1321 73.0515C97.1505 73.0066 97.1785 72.9664 97.2141 72.9334C97.2934 72.8653 97.3961 72.8307 97.5004 72.8369H100.64C101.549 72.8369 102.001 72.9767 102.001 73.2564C102.001 73.536 101.386 73.6725 100.154 73.6725C99.7371 73.6781 99.3204 73.6625 98.9053 73.6259H98.8254ZM101.489 75.1074L97.7934 75.0308C97.324 75.0308 97.0909 74.9143 97.0909 74.6979C97.0887 74.6495 97.0971 74.6011 97.1155 74.5563C97.1339 74.5114 97.1619 74.4711 97.1975 74.4382C97.2776 74.3716 97.3797 74.3372 97.4838 74.3417H100.11C101.302 74.3417 101.898 74.4815 101.898 74.7612C101.9 74.8109 101.89 74.8604 101.87 74.9059C101.85 74.9514 101.82 74.9918 101.782 75.0242C101.701 75.0837 101.602 75.1131 101.502 75.1074H101.489Z" fill="#D04848"/>
<path d="M144.015 74.9712L144.261 110.37H146.205V94.6167H148.363V110.37H150.387V94.6167H152.431V110.37H154.238V94.6267H155.903V110.37H157.844V92.6758C157.844 92.6758 159.355 86.64 156.998 83.404C154.641 80.168 150.1 79.7419 150.1 79.7419L149.261 74.0823L147.151 44.5525L149.082 40.4476C149.082 40.4476 154.152 39.4822 153.912 38.5167C153.673 37.5512 150.034 37.7943 150.034 37.7943L150.7 35.7601C150.7 35.7601 151.665 35.7601 151.665 34.9012C151.665 34.0423 150.487 33.7194 150.164 34.1488C149.841 34.5783 150.164 35.2208 150.164 35.2208L148.409 37.1784L148.769 34.7947C148.769 34.7947 149.628 34.2554 149.305 33.7194C148.982 33.1834 147.697 33.3864 147.697 34.0523V34.6948L146.159 37.0818C146.159 37.0818 139.817 33.5063 138.032 37.0818C135.702 41.7427 143.745 44.5691 143.745 44.5691L144.015 74.9712Z" stroke="#263238" stroke-miterlimit="10"/>
<path d="M148.812 79.9583C148.812 79.9583 145.796 83.4073 146.658 84.7023C147.52 85.9974 150.753 85.1318 150.753 84.0565C150.753 82.9811 149.891 80.1746 148.812 79.9583Z" stroke="#263238" stroke-miterlimit="10"/>
<path d="M155.711 87.7319C155.711 87.7319 151.832 84.9321 151.832 87.3025C151.832 89.6729 153.773 91.8302 154.635 91.3974C155.497 90.9646 156.999 90.0923 155.711 87.7319Z" stroke="#263238" stroke-miterlimit="10"/>
<path d="M148.812 87.7319C148.812 87.7319 146.871 89.4597 147.521 90.535C148.17 91.6104 150.537 93.5546 150.537 91.8301C150.537 90.1056 150.107 87.5055 148.812 87.7319Z" stroke="#263238" stroke-miterlimit="10"/>
<path d="M137.949 45.5645H141.594" stroke="#263238" stroke-miterlimit="10"/>
<path d="M137.949 47.0959H140.203" stroke="#263238" stroke-miterlimit="10"/>
<path d="M137.949 48.4109H141.594" stroke="#263238" stroke-miterlimit="10"/>
<path d="M137.949 49.9424H140.203" stroke="#263238" stroke-miterlimit="10"/>
<path d="M137.949 51.2542H141.594" stroke="#263238" stroke-miterlimit="10"/>
<path d="M137.949 52.7856H140.203" stroke="#263238" stroke-miterlimit="10"/>
<path d="M137.949 54.1006H141.594" stroke="#263238" stroke-miterlimit="10"/>
<path d="M137.949 55.6318H140.203" stroke="#263238" stroke-miterlimit="10"/>
<path d="M137.949 56.9436H141.594" stroke="#263238" stroke-miterlimit="10"/>
<path d="M137.949 58.4751H140.203" stroke="#263238" stroke-miterlimit="10"/>
<path d="M137.949 59.79H141.594" stroke="#263238" stroke-miterlimit="10"/>
<path d="M137.949 61.3215H140.203" stroke="#263238" stroke-miterlimit="10"/>
<path d="M137.949 62.6333H141.594" stroke="#263238" stroke-miterlimit="10"/>
<path d="M137.949 64.1646H140.203" stroke="#263238" stroke-miterlimit="10"/>
<path d="M137.949 65.4797H141.594" stroke="#263238" stroke-miterlimit="10"/>
<path d="M137.949 67.011H140.203" stroke="#263238" stroke-miterlimit="10"/>
<path d="M137.949 68.3228H141.594" stroke="#263238" stroke-miterlimit="10"/>
<path d="M137.949 69.8574H140.203" stroke="#263238" stroke-miterlimit="10"/>
<path d="M137.949 71.1692H141.594" stroke="#263238" stroke-miterlimit="10"/>
<path d="M137.949 72.7007H140.203" stroke="#263238" stroke-miterlimit="10"/>
<path d="M137.949 74.0125H141.594" stroke="#263238" stroke-miterlimit="10"/>
<path d="M137.949 75.5471H140.203" stroke="#263238" stroke-miterlimit="10"/>
<path d="M137.949 76.8589H141.594" stroke="#263238" stroke-miterlimit="10"/>
<path d="M137.949 78.3901H140.203" stroke="#263238" stroke-miterlimit="10"/>
<path d="M137.949 79.6719H141.594" stroke="#263238" stroke-miterlimit="10"/>
<path d="M137.949 81.2034H140.203" stroke="#263238" stroke-miterlimit="10"/>
<path d="M137.949 82.5151H141.594" stroke="#263238" stroke-miterlimit="10"/>
<path d="M137.949 84.0466H140.203" stroke="#263238" stroke-miterlimit="10"/>
<path d="M137.949 85.3616H141.594" stroke="#263238" stroke-miterlimit="10"/>
<path d="M137.949 86.8928H140.203" stroke="#263238" stroke-miterlimit="10"/>
<path d="M137.949 88.2046H141.594" stroke="#263238" stroke-miterlimit="10"/>
<path d="M137.949 89.7393H140.203" stroke="#263238" stroke-miterlimit="10"/>
<path d="M137.949 91.051H141.594" stroke="#263238" stroke-miterlimit="10"/>
<path d="M137.949 92.5825H140.203" stroke="#263238" stroke-miterlimit="10"/>
<path d="M137.949 93.8975H141.594" stroke="#263238" stroke-miterlimit="10"/>
<path d="M137.949 95.429H140.203" stroke="#263238" stroke-miterlimit="10"/>
<path d="M137.949 96.7405H141.594" stroke="#263238" stroke-miterlimit="10"/>
<path d="M137.949 98.272H140.203" stroke="#263238" stroke-miterlimit="10"/>
<path d="M137.949 99.5869H141.594" stroke="#263238" stroke-miterlimit="10"/>
<path d="M137.949 101.119H140.203" stroke="#263238" stroke-miterlimit="10"/>
<path d="M137.949 102.43H141.594" stroke="#263238" stroke-miterlimit="10"/>
<path d="M137.949 103.962H140.203" stroke="#263238" stroke-miterlimit="10"/>
<path d="M137.949 105.277H141.594" stroke="#263238" stroke-miterlimit="10"/>
<path d="M137.949 106.808H140.203" stroke="#263238" stroke-miterlimit="10"/>
<path d="M137.949 108.12H141.594" stroke="#263238" stroke-miterlimit="10"/>
<path d="M137.949 109.651H140.203" stroke="#263238" stroke-miterlimit="10"/>
<path d="M147.417 38.8995C147.417 39.1979 147.329 39.4896 147.163 39.7377C146.997 39.9858 146.761 40.1791 146.485 40.2931C146.21 40.4072 145.906 40.4368 145.614 40.3784C145.321 40.3199 145.052 40.1759 144.841 39.9647C144.631 39.7534 144.487 39.4844 144.429 39.1917C144.372 38.8989 144.402 38.5956 144.517 38.32C144.631 38.0445 144.825 37.8092 145.074 37.6439C145.322 37.4786 145.614 37.3907 145.912 37.3914C146.11 37.3914 146.306 37.4304 146.489 37.5062C146.672 37.5821 146.838 37.6932 146.978 37.8333C147.117 37.9734 147.228 38.1396 147.304 38.3226C147.379 38.5056 147.418 38.7016 147.417 38.8995Z" stroke="#263238" stroke-miterlimit="10"/>
<path d="M145.965 40.2945C146.521 40.2945 146.971 39.8444 146.971 39.2891C146.971 38.7338 146.521 38.2837 145.965 38.2837C145.41 38.2837 144.96 38.7338 144.96 39.2891C144.96 39.8444 145.41 40.2945 145.965 40.2945Z" fill="#263238"/>
<path d="M142.283 43.8632C142.283 43.8632 144.684 43.0842 145.296 41.7458L146.188 42.0788" stroke="#263238" stroke-miterlimit="10"/>
<path d="M147.307 47.116C147.307 47.116 145.976 49.796 145.074 50.1289C144.171 50.4618 143.742 51.7935 144.741 52.7922C145.373 53.4193 146.065 53.9825 146.808 54.4735L147.9 55.2258L147.307 47.116Z" stroke="#263238" stroke-miterlimit="10"/>
<path d="M143.872 57.7426C143.872 57.7426 144.518 56.917 145.074 58.7047C145.63 60.4925 144.851 62.2736 145.856 63.056C146.862 63.8383 147.308 65.1766 146.412 66.0689C145.517 66.9611 143.999 67.3506 143.999 67.3506L143.872 57.7426Z" stroke="#263238" stroke-miterlimit="10"/>
<path d="M141.837 35.6069C141.837 35.6069 143.066 39.8483 139.051 41.6327" stroke="#263238" stroke-miterlimit="10"/>
<path d="M140.106 37.9307C140.106 38.0103 140.082 38.0882 140.038 38.1545C139.994 38.2207 139.931 38.2723 139.857 38.3028C139.784 38.3333 139.703 38.3413 139.625 38.3258C139.546 38.3102 139.475 38.2718 139.418 38.2155C139.362 38.1592 139.324 38.0874 139.308 38.0093C139.292 37.9311 139.3 37.8501 139.331 37.7765C139.361 37.7029 139.413 37.64 139.479 37.5957C139.546 37.5515 139.623 37.5278 139.703 37.5278C139.81 37.5287 139.912 37.5714 139.987 37.6468C140.062 37.7221 140.105 37.8241 140.106 37.9307Z" stroke="#263238" stroke-miterlimit="10"/>
<path d="M148.656 65.7126C148.656 65.7126 147.53 68.1862 146.638 69.3048C145.746 70.4234 145.52 71.1991 146.525 71.7584C147.356 72.1851 148.213 72.5576 149.092 72.8737L148.656 65.7126Z" stroke="#263238" stroke-miterlimit="10"/>
<path d="M159 30.5432H135.869V111.998H159V30.5432Z" stroke="#263238" stroke-miterlimit="10"/>
<path d="M18.8367 26.8105L2.46484 27.6399L3.56303 49.3183L19.9349 48.489L18.8367 26.8105Z" stroke="#263238" stroke-miterlimit="10"/>
<path d="M12.0068 38.0207C12.0068 38.0207 9.54322 33.9158 7.49244 35.0078C5.44167 36.0997 6.26065 37.6078 7.90193 38.2937L9.54322 38.9761C9.54322 38.9761 6.94313 38.2937 6.26065 40.4809C5.57817 42.6682 7.07963 43.354 8.17493 43.4772C9.27023 43.6004 11.048 42.2487 11.048 42.2487C11.048 42.2487 8.58441 44.436 10.9115 45.6678C13.2386 46.8996 15.4259 45.5313 15.5724 44.0265C15.6518 43.1481 15.5074 42.2639 15.1529 41.4564C15.7558 41.3747 16.3178 41.1058 16.7598 40.6877C17.2018 40.2696 17.5014 39.7234 17.6165 39.126C18.1625 36.9387 17.207 35.9799 15.5624 35.9799C13.9178 35.9799 12.0068 38.0207 12.0068 38.0207Z" stroke="#D04848" stroke-miterlimit="10"/>
<path d="M13.921 40.6174C13.921 40.942 13.8247 41.2593 13.6444 41.5292C13.464 41.7991 13.2077 42.0095 12.9078 42.1337C12.6079 42.2579 12.2779 42.2904 11.9595 42.2271C11.6411 42.1638 11.3487 42.0075 11.1191 41.7779C10.8896 41.5484 10.7333 41.2559 10.67 40.9376C10.6066 40.6192 10.6391 40.2892 10.7634 39.9893C10.8876 39.6894 11.098 39.433 11.3679 39.2527C11.6378 39.0723 11.9551 38.9761 12.2797 38.9761C12.7147 38.977 13.1317 39.1502 13.4393 39.4578C13.7469 39.7654 13.9201 40.1823 13.921 40.6174Z" stroke="#D04848" stroke-miterlimit="10"/>
<path d="M4.17236 30.6566L17.4458 29.9841" stroke="#263238" stroke-miterlimit="10"/>
<path d="M4.32007 33.5328L17.5935 32.8604" stroke="#263238" stroke-miterlimit="10"/>
<path d="M20.2922 54.2473L3.95874 52.8528L2.11221 74.4803L18.4457 75.8749L20.2922 54.2473Z" stroke="#263238" stroke-miterlimit="10"/>
<path d="M5.24097 56.0747L18.4811 57.2033" stroke="#263238" stroke-miterlimit="10"/>
<path d="M4.99536 58.9446L18.2388 60.0732" stroke="#263238" stroke-miterlimit="10"/>
<path d="M4.75269 61.811L17.9928 62.943" stroke="#263238" stroke-miterlimit="10"/>
<path d="M4.50562 64.6807L17.7491 65.8126" stroke="#263238" stroke-miterlimit="10"/>
<path d="M4.26294 67.5505L17.5031 68.6825" stroke="#263238" stroke-miterlimit="10"/>
<path d="M4.01611 70.4202L17.2596 71.5488" stroke="#263238" stroke-miterlimit="10"/>
<path d="M12.8499 127.758V92.053" stroke="#D04848" stroke-linecap="round" stroke-linejoin="round"/>
<path d="M12.5827 124.536C12.5827 124.536 10.7017 121.853 8.28473 120.511C5.86775 119.169 1.84277 119.179 1.84277 119.179C1.84277 119.179 3.99009 126.953 12.5827 124.536Z" fill="#D04848"/>
<path d="M12.8455 124.536C12.8455 124.536 14.7264 121.853 17.1401 120.511C19.5538 119.169 23.5854 119.179 23.5854 119.179C23.5854 119.179 21.4381 126.953 12.8455 124.536Z" fill="#D04848"/>
<path d="M12.5827 114.871C12.5827 114.871 10.7017 112.188 8.28473 110.846C5.86775 109.505 1.84277 109.515 1.84277 109.515C1.84277 109.515 3.99009 117.288 12.5827 114.871Z" fill="#D04848"/>
<path d="M12.8455 114.871C12.8455 114.871 14.7264 112.188 17.1401 110.846C19.5538 109.505 23.5854 109.515 23.5854 109.515C23.5854 109.515 21.4381 117.288 12.8455 114.871Z" fill="#D04848"/>
<path d="M12.5827 105.207C12.5827 105.207 10.7017 102.523 8.28473 101.182C5.86775 99.8401 1.84277 99.8501 1.84277 99.8501C1.84277 99.8501 3.99009 107.624 12.5827 105.207Z" fill="#D04848"/>
<path d="M12.8455 105.207C12.8455 105.207 14.7264 102.523 17.1401 101.182C19.5538 99.8401 23.5854 99.8501 23.5854 99.8501C23.5854 99.8501 21.4381 107.624 12.8455 105.207Z" fill="#D04848"/>
<path d="M12.5827 95.5453C12.5827 95.5453 10.7017 92.8586 8.28473 91.517C5.86775 90.1753 1.84277 90.1853 1.84277 90.1853C1.84277 90.1853 3.99009 97.9589 12.5827 95.5453Z" fill="#D04848"/>
<path d="M12.8455 95.5453C12.8455 95.5453 14.7264 92.8586 17.1401 91.517C19.5538 90.1753 23.5854 90.1853 23.5854 90.1853C23.5854 90.1853 21.4381 97.9589 12.8455 95.5453Z" fill="#D04848"/>
<path d="M12.8462 92.0597C12.8462 92.0597 10.6989 89.17 10.589 86.4001C10.4792 83.6302 12.2969 80.0447 12.2969 80.0447C12.2969 80.0447 18.882 85.4779 12.8462 92.0597Z" fill="#D04848"/>
<path d="M8.51807 126.86H16.7478L14.6904 149.375H10.5755L8.51807 126.86Z" fill="#263238" stroke="#263238" stroke-miterlimit="10"/>
<path d="M116.897 124.09C116.744 126.17 116.744 128.259 116.897 130.339C117.153 133.781 117.259 140.856 117.096 142.707C116.933 144.558 116.197 148.456 116.634 148.975C117.07 149.495 119.217 149.585 120.096 149.252C120.975 148.919 121.498 149.169 121.471 148.516C121.444 147.863 120.932 143.386 120.892 142.377C120.852 141.368 122.523 135.585 123.448 131.98C124.374 128.374 123.858 124.466 123.711 123.757C123.565 123.048 123.259 122.881 123.259 122.881C123.259 122.881 119.753 124.153 116.897 124.09Z" fill="white" stroke="#263238" stroke-miterlimit="10"/>
<path d="M120.046 149.684C120.882 149.684 121.511 149.168 121.484 148.516C121.468 148.106 121.245 145.426 121.092 144.188C120.625 144.623 120.036 144.904 119.404 144.994C118.536 145.169 117.635 144.999 116.89 144.521C116.637 146.399 116.038 148.766 116.357 149.145C116.797 149.655 119.107 149.701 120.046 149.684Z" fill="#263238" stroke="#263238" stroke-miterlimit="10"/>
<path d="M120.046 149.684C120.882 149.684 121.511 149.168 121.484 148.516C121.486 148.502 121.486 148.487 121.484 148.473C119.487 148.889 117.25 148.473 116.294 148.27C116.226 148.561 116.25 148.867 116.361 149.145C116.797 149.654 119.107 149.701 120.046 149.684Z" fill="white" stroke="#263238" stroke-miterlimit="10"/>
<path d="M107.967 122.585C107.967 122.585 107.654 128.597 108.783 131.77C109.912 134.943 111.113 142.783 110.81 143.572C110.507 144.361 110.058 146.825 109.725 146.948C109.392 147.071 108.197 147.567 108.214 148.01C108.23 148.453 109.712 149.391 110.827 149.458C111.942 149.525 113.287 149.914 114.229 148.433C114.951 147.297 115.286 145.959 115.185 144.617C115.145 143.619 114.426 142.317 114.403 141.764C114.379 141.212 115.648 134.051 115.628 130.828C115.608 127.605 114.446 123.547 114.446 123.547L107.967 122.585Z" fill="white" stroke="#263238" stroke-miterlimit="10"/>
<path d="M112.326 142.513C111.568 143.053 110.948 143.765 110.519 144.591C110.256 145.59 109.959 146.861 109.726 146.948C109.393 147.074 108.355 146.805 108.215 148.01C108.012 149.764 109.713 149.391 110.828 149.458C111.944 149.525 113.289 149.914 114.231 148.433C114.952 147.297 115.287 145.959 115.186 144.617C115.156 143.872 114.747 142.953 114.52 142.307C114.467 142.234 113.765 141.505 112.326 142.513Z" fill="#263238" stroke="#263238" stroke-miterlimit="10"/>
<path d="M110.828 149.458C111.94 149.525 113.288 149.914 114.231 148.433C114.952 147.297 115.287 145.959 115.186 144.617C115.149 144.182 115.053 143.755 114.9 143.346C114.576 143.312 114.25 143.327 113.931 143.389C113.032 143.569 112.22 144.018 111.411 145.636C110.602 147.254 110.871 148.516 109.703 148.606C108.534 148.696 108.215 148.01 108.215 148.01C108.012 149.764 109.726 149.392 110.828 149.458Z" fill="white" stroke="#263238" stroke-miterlimit="10"/>
<path d="M115.053 144.994C115.053 144.994 114.583 143.705 113.142 144.774C111.7 145.843 111.773 147.803 111.267 148.539C111.013 148.893 110.676 149.178 110.285 149.371C110.461 149.418 110.64 149.448 110.821 149.461C111.933 149.528 113.281 149.917 114.224 148.436C114.889 147.397 115.225 146.18 115.186 144.947L115.053 144.994Z" fill="white" stroke="#263238" stroke-miterlimit="10"/>
<path d="M105.774 106.681L101.896 120.721C101.896 120.721 109.886 126.064 118.734 125.152C127.583 124.24 133.653 117.774 133.653 117.774L127.943 105.676C127.943 105.676 125.146 107.9 117.699 107.757C110.252 107.614 105.774 106.681 105.774 106.681Z" fill="#263238" stroke="#263238" stroke-miterlimit="10"/>
<path d="M106.473 101.987L105.178 108.483C105.178 108.483 108.061 111.146 114.936 110.866C121.811 110.587 128.539 106.655 128.539 106.655L126.391 100.186C126.391 100.186 114.46 104.554 106.473 101.987Z" fill="white" stroke="#263238" stroke-miterlimit="10"/>
<path d="M118.84 105.779C123.284 105.03 125.898 104.008 127.389 103.199L126.391 100.203C126.391 100.203 114.459 104.571 106.472 102.004L105.993 104.414C107.631 105.203 112.112 106.915 118.84 105.779Z" fill="#263238" stroke="#263238" stroke-miterlimit="10"/>
<path d="M106.569 82.768C106.569 82.768 104.239 90.0389 100.926 95.2491C98.935 98.3913 96.6486 101.337 94.0982 104.045C94.0982 104.045 91.7078 104.231 90.769 103.712C89.8302 103.192 89.0512 104.614 88.7948 105.083C88.5385 105.553 88.0358 106.868 88.4153 107.131C88.7948 107.394 90.0532 108.819 90.3961 108.16C90.7391 107.5 89.7969 107.074 89.7969 107.074C89.7969 107.074 92.8697 107.813 94.2247 106.988C99.821 103.592 102.911 100.076 104.212 98.2686C105.514 96.4609 106.816 94.4401 106.816 94.4401C106.816 94.4401 105.97 100.04 105.644 101.158C105.318 102.277 105.065 103.046 105.065 103.046C105.065 103.046 109.995 106.262 118.611 104.807C127.227 103.352 128.978 100.882 128.978 100.882C128.978 100.882 126.315 94.4368 125.546 91.3273C124.777 88.2178 124.39 85.5578 124.39 85.5578C124.39 85.5578 124.124 78.9228 124.507 76.9686C124.89 75.0143 126.754 70.8795 126.701 69.5878C126.648 68.2961 119.28 59.5503 119.28 59.5503C119.28 59.5503 120.009 57.0268 119.983 56.291C119.956 55.5553 119.084 54.6664 118.501 53.9606C117.918 53.2548 117.256 52.8121 116.613 52.9286C115.971 53.0451 115.675 52.5058 115.242 53.2615C114.809 54.0172 114.393 55.0493 113.877 55.9914C113.361 56.9336 114.852 57.3231 115.248 57.969C115.645 58.6148 117.109 60.6623 117.246 61.3947C117.382 62.1271 120.908 74.3552 120.908 74.3552L106.569 82.768Z" fill="white" stroke="#263238" stroke-miterlimit="10"/>
<path d="M128.992 100.879C128.992 100.879 126.329 94.4334 125.56 91.324C124.791 88.2145 124.404 85.5545 124.404 85.5545C124.404 85.5545 124.138 78.9195 124.521 76.9652C124.904 75.011 126.768 70.8762 126.715 69.5844C126.685 68.8687 124.385 65.8325 122.354 63.2856C120.83 63.74 119.479 64.6439 118.479 65.8791C119.544 69.6277 120.906 74.3418 120.906 74.3418L106.57 82.768C106.57 82.768 104.24 90.0389 100.927 95.2491C100.075 96.5974 99.2059 97.8358 98.387 98.9345C98.6988 99.9005 99.3039 100.745 100.118 101.351C100.421 101.571 100.694 101.764 100.944 101.934C102.144 100.816 103.24 99.5903 104.216 98.272C105.528 96.4676 106.82 94.4434 106.82 94.4434C106.82 94.4434 105.974 100.043 105.648 101.162C105.322 102.28 105.065 103.046 105.065 103.046C105.065 103.046 109.996 106.262 118.612 104.807C127.228 103.352 128.992 100.879 128.992 100.879Z" fill="#D04848" stroke="#263238" stroke-miterlimit="10"/>
<path d="M115.541 53.5779L116.207 56.1014C116.23 56.1859 116.27 56.2645 116.326 56.3322C116.381 56.3999 116.45 56.4551 116.528 56.4941C116.607 56.5331 116.692 56.5551 116.78 56.5585C116.867 56.562 116.955 56.5469 117.036 56.5142C117.116 56.4833 117.189 56.436 117.25 56.3753C117.311 56.3146 117.359 56.2418 117.39 56.1616C117.422 56.0814 117.436 55.9955 117.432 55.9095C117.428 55.8235 117.407 55.7392 117.369 55.662L116.167 53.2783C116.167 53.2783 115.518 53.0253 115.541 53.5779Z" fill="white" stroke="#263238" stroke-miterlimit="10"/>
<path d="M111.314 60.7921C111.314 60.7921 109.246 59.8599 106.69 62.8229C104.133 65.7858 103.923 69.7642 104.845 72.0347C105.767 74.3052 105.361 78.0272 104.296 79.0726C103.231 80.1179 101.193 82.2453 102.532 83.4005C103.87 84.5557 105.884 84.0963 105.884 84.0963C105.884 84.0963 103.457 87.9781 106.883 90.4217C110.308 92.8654 111.82 89.3964 111.82 89.3964C111.82 89.3964 113.961 96.6939 118.591 94.753C123.222 92.8121 121.085 87.9149 121.085 87.9149C121.085 87.9149 124.82 89.0634 125.706 86.1504C126.591 83.2374 125.26 81.9224 125.26 81.9224C125.26 81.9224 128.199 81.5262 127.52 78.4134C126.841 75.3006 124.404 74.3851 123.152 73.1433C121.901 71.9015 120.489 70.8528 119.4 67.1108C118.312 63.3689 117.383 62.5765 117.383 62.5765C117.383 62.5765 119.111 61.954 118.239 60.882C117.366 59.81 113.678 57.5561 111.314 60.7921Z" fill="#263238" stroke="#263238" stroke-miterlimit="10"/>
<path d="M46.7581 118.553C46.7581 118.553 45.2633 121.809 45.6162 125.421C45.9691 129.034 46.4951 139.337 46.4951 141.628C46.4951 143.918 46.0556 146.385 46.0556 147.264C46.1009 148.037 46.219 148.804 46.4085 149.555H58.297C58.297 149.555 58.8264 148.586 58.8264 148.223C58.8264 147.86 57.9441 146.815 57.3282 146.558C56.7123 146.302 53.9824 144.894 53.2766 143.918C52.5708 142.943 52.1314 142.33 52.1314 141.188C52.1314 140.046 55.5671 129.034 55.657 124.716C55.7469 120.398 55.9899 117.495 55.9899 117.495L46.7581 118.553Z" fill="white" stroke="#263238" stroke-miterlimit="10"/>
<path d="M57.3285 146.558C56.7126 146.295 53.9827 144.894 53.2769 143.918C52.6776 143.093 52.2781 142.52 52.1649 141.658C51.8783 141.548 51.563 141.538 51.2697 141.628C50.9764 141.719 50.7219 141.905 50.547 142.157C50.1684 142.667 49.8162 143.196 49.4916 143.742L46.4521 142.963C46.3422 144.814 46.0559 146.555 46.0559 147.264C46.1012 148.037 46.2193 148.804 46.4088 149.555H58.2973C58.2973 149.555 58.8266 148.586 58.8266 148.223C58.8266 147.86 57.9444 146.825 57.3285 146.558Z" fill="#D04848" stroke="#263238" stroke-miterlimit="10"/>
<path d="M46.1885 148.499C46.2884 149.072 46.4082 149.555 46.4082 149.555H58.2967C58.4819 149.215 58.641 148.863 58.7728 148.499H46.1885Z" fill="white" stroke="#263238" stroke-miterlimit="10"/>
<path d="M34.6932 115.204C35.0051 116.291 35.1245 117.425 35.0461 118.553C34.9562 120.667 33.6379 124.276 34.6932 128.418C35.7486 132.559 37.6895 138.192 38.3919 141.365C39.0944 144.537 38.2155 146.385 38.3054 147.793C38.3952 149.202 39.0078 149.555 39.0078 149.555H47.5538C47.7268 149.351 47.8488 149.108 47.9096 148.848C47.9704 148.587 47.9683 148.316 47.9034 148.056C47.6404 147.264 45.7893 145.679 45.0869 144.005C44.3844 142.33 43.5888 140.22 43.5888 138.106C43.5888 135.991 44.2945 126.39 44.2945 123.397V118.11L34.6932 115.204Z" fill="white" stroke="#263238" stroke-miterlimit="10"/>
<path d="M47.9038 148.057C47.6407 147.264 45.7897 145.68 45.0873 144.005C44.7004 143.112 44.3669 142.197 44.0885 141.265C43.4183 141.158 42.7328 141.319 42.1809 141.715C40.1534 143.046 40.3299 143.829 40.3299 143.829L38.6653 143.289C38.7652 145.333 38.2491 146.698 38.3324 147.794C38.4189 149.202 39.0348 149.555 39.0348 149.555H47.5808C47.7493 149.348 47.8664 149.105 47.9225 148.845C47.9787 148.584 47.9722 148.314 47.9038 148.057Z" fill="#D04848" stroke="#263238" stroke-miterlimit="10"/>
<path d="M38.4084 148.499C38.6082 149.325 39.0077 149.555 39.0077 149.555H47.5537C47.7989 149.255 47.9443 148.886 47.9698 148.499H38.4084Z" fill="white" stroke="#263238" stroke-miterlimit="10"/>
<path d="M33.4876 76.4126C33.4876 76.4126 30.3249 82.4051 29.992 89.5628C29.6591 96.7206 32.156 115.863 32.156 115.863C32.156 115.863 38.9808 119.525 46.1385 119.525C50.5677 119.495 54.9589 118.707 59.1223 117.195C59.1223 117.195 61.7856 95.7218 61.7856 88.7306C61.8074 84.6004 60.7762 80.5329 58.7894 76.912C58.7894 76.912 43.9745 77.5778 33.4876 76.4126Z" fill="#263238" stroke="#263238" stroke-miterlimit="10"/>
<path d="M44.9169 45.1183L40.2561 49.1133L39.0376 76.8553C39.0376 76.8553 44.8071 79.5187 50.7996 79.4088C56.7921 79.2989 59.0127 77.7442 59.0127 77.7442C59.0127 77.7442 57.125 53.2181 57.125 52.5523C57.125 51.8865 54.2386 47.1158 54.2386 47.1158C54.2386 47.1158 49.0251 42.8977 44.9169 45.1183Z" fill="white" stroke="#263238" stroke-miterlimit="10"/>
<path d="M57.4815 48.7407C57.4815 48.7407 60.6209 49.8626 61.2867 52.6924C61.9526 55.5222 67.8619 68.7557 68.0283 70.5035C68.1948 72.2513 68.5277 72.7507 67.4457 73.6662C66.3637 74.5817 62.7849 73.9159 61.9526 72.9171C61.1203 71.9184 60.3712 71.5022 60.0383 69.0886C59.7054 66.6749 58.2072 51.3607 58.2072 51.3607C58.2072 51.3607 56.7324 48.6574 57.4815 48.7407Z" fill="#D04848" stroke="#263238" stroke-miterlimit="10"/>
<path d="M45.8897 36.6289C45.8897 36.6289 45.64 41.6227 45.64 43.6202C45.64 45.6177 44.0586 46.0338 42.8934 46.5332C41.7282 47.0326 42.3108 51.4437 44.3083 54.3568C46.3058 57.2698 49.8015 58.7679 52.548 57.353C55.2946 55.9381 54.712 51.0276 54.2126 49.4462C53.7132 47.8649 53.1306 46.9494 53.1306 45.8674C53.181 45.016 53.3491 44.1757 53.63 43.3705L45.8897 36.6289Z" fill="white" stroke="#263238" stroke-miterlimit="10"/>
<path d="M53.1306 45.8674C53.181 45.016 53.3491 44.1757 53.63 43.3705L45.8896 36.6289C45.8896 36.6289 45.8364 37.6909 45.7798 39.0292C46.8951 41.6926 49.2621 45.924 53.2238 46.6231C53.1627 46.3758 53.1315 46.1221 53.1306 45.8674Z" fill="#263238" stroke="#263238" stroke-miterlimit="10"/>
<path d="M61.0207 31.6618C61.0207 31.6618 60.528 35.6036 60.2483 37.4346C59.9725 39.3481 59.2755 41.1765 58.2075 42.7879C56.9424 44.8287 55.3944 45.3914 53.9162 45.2515C52.4381 45.1117 50.1143 43.3506 49.059 42.1554C48.0036 40.9602 45.823 37.934 45.823 36.9486C45.823 35.9631 45.9628 33.0068 47.1547 31.3189C48.3465 29.631 53.1472 28.7854 55.1047 28.2927C57.0623 27.8 61.0207 31.6618 61.0207 31.6618Z" fill="white" stroke="#263238" stroke-miterlimit="10"/>
<path d="M56.6826 40.291C56.6826 40.291 54.9048 41.1233 52.854 39.4021" stroke="#263238" stroke-miterlimit="10"/>
<path d="M53.4902 33.8225C53.4902 33.8225 55.025 33.0834 56.4865 33.4896" stroke="#263238" stroke-miterlimit="10"/>
<path d="M59.1221 33.4828C59.1221 33.4828 59.7879 33.1499 60.487 33.879" stroke="#263238" stroke-miterlimit="10"/>
<path d="M51.7981 34.2654L52.0578 36.406C52.083 36.6117 52.1825 36.8011 52.3377 36.9385C52.4928 37.0758 52.6928 37.1517 52.9001 37.1518H55.5334C55.6987 37.1515 55.8603 37.1033 55.9986 37.0128C56.1369 36.9224 56.246 36.7937 56.3125 36.6424L57.2846 34.4085L51.7981 34.2654Z" stroke="#263238" stroke-width="2" stroke-miterlimit="10"/>
<path d="M58.769 34.3384L59.0287 36.4757C59.0546 36.6811 59.1543 36.8701 59.3093 37.0073C59.4643 37.1445 59.664 37.2206 59.871 37.2214L61.1561 37.1682C61.3215 37.1688 61.4835 37.1209 61.622 37.0303C61.7604 36.9398 61.8693 36.8106 61.9351 36.6588L62.9105 34.4249L58.769 34.3384Z" stroke="#263238" stroke-width="2" stroke-miterlimit="10"/>
<path d="M57.2917 34.4083L58.7699 34.3384" stroke="#263238" stroke-width="2" stroke-miterlimit="10"/>
<path d="M51.8049 34.2654L46.4382 34.5617" stroke="#263238" stroke-width="2" stroke-miterlimit="10"/>
<path d="M55.2806 36.4956C55.516 36.4956 55.7068 36.1394 55.7068 35.7C55.7068 35.2605 55.516 34.9043 55.2806 34.9043C55.0453 34.9043 54.8545 35.2605 54.8545 35.7C54.8545 36.1394 55.0453 36.4956 55.2806 36.4956Z" fill="#263238"/>
<path d="M59.9141 35.6434C59.9141 36.0495 59.7477 36.3825 59.5446 36.3825C59.3415 36.3825 59.175 36.0495 59.175 35.6434C59.175 35.2372 59.3415 34.9043 59.5446 34.9043C59.7477 34.9043 59.9141 35.2339 59.9141 35.6434Z" fill="#263238"/>
<path d="M58.436 35.0078C58.3324 35.5618 58.2989 36.1267 58.3361 36.689C58.436 37.285 59.4248 37.5813 59.2283 38.2737C59.0319 38.9662 58.1397 39.5621 56.9512 38.8663" stroke="#263238" stroke-miterlimit="10"/>
<path d="M47.0184 35.1808C48.2783 34.7076 49.5022 34.1435 50.6804 33.4929C51.821 32.8607 52.9048 32.1311 53.9197 31.3123C53.9197 31.3123 51.7391 32.9303 54.0596 32.9303C56.38 32.9303 63.348 32.0847 64.9659 29.4114C66.5839 26.738 59.1932 22.2337 54.266 21.2482C49.3388 20.2628 43.7125 23.2191 42.3742 27.4405C41.0358 31.6619 41.9547 37.428 43.0799 38.9095C44.2052 40.391 46.8086 39.4022 46.8086 39.4022C46.8086 39.4022 46.1761 39.2624 46.1761 37.5745C46.1761 35.8866 47.0184 35.1808 47.0184 35.1808Z" fill="#263238" stroke="#263238" stroke-miterlimit="10"/>
<path d="M47.933 36.3792C47.933 36.3792 47.2306 33.9856 45.8922 33.7758C44.5539 33.5661 44.1344 36.2361 45.3995 37.6443C46.6646 39.0526 47.73 38.207 47.73 38.207" fill="white"/>
<path d="M47.933 36.3792C47.933 36.3792 47.2306 33.9856 45.8922 33.7758C44.5539 33.5661 44.1344 36.2361 45.3995 37.6443C46.6646 39.0526 47.73 38.207 47.73 38.207" stroke="#263238" stroke-miterlimit="10"/>
<path d="M45.6396 43.6204C45.6396 43.6204 47.1377 60.0166 47.7203 68.506C48.3029 76.9954 46.3886 88.8972 46.3886 88.8972C46.3886 88.8972 41.3116 88.8139 36.8172 87.399C34.0599 86.5178 31.4507 85.2272 29.0769 83.5705L33.5713 71.419L34.4036 50.029C34.4036 50.029 38.3986 48.5309 39.8135 47.8651C41.2284 47.1992 44.4743 44.952 45.6396 43.6204Z" fill="#D04848" stroke="#263238" stroke-miterlimit="10"/>
<path d="M47.8235 70.9829C47.8068 70.1339 47.7735 69.3183 47.7203 68.506C47.1376 60.0166 45.6395 43.6204 45.6395 43.6204C44.8776 44.4124 44.0402 45.1282 43.1393 45.7577C42.8463 47.7152 42.2904 52.0199 42.4735 55.4389C42.7232 60.0166 45.7194 66.1755 46.7182 68.4227C47.1843 69.4614 47.5538 70.337 47.8235 70.9829Z" fill="#D04848" stroke="#263238" stroke-miterlimit="10"/>
<path d="M53.1304 45.8674C53.1304 45.8674 53.7962 57.2699 54.1291 64.8437C54.462 72.4176 54.5453 87.9815 54.5453 87.9815C54.5453 87.9815 55.7937 87.7318 58.6235 85.6511C61.4533 83.5704 63.534 81.6561 63.534 81.6561L61.3701 74.2487C61.3701 74.2487 61.683 64.7172 61.3301 62.1604C60.914 59.1642 59.7055 50.778 58.7067 49.696C57.708 48.614 53.1304 45.8674 53.1304 45.8674Z" fill="#D04848" stroke="#263238" stroke-miterlimit="10"/>
<path d="M56.1266 55.6885C56.1266 50.1121 55.0446 47.1159 55.0446 47.1159L55.068 47.0693C54.0026 46.4034 53.1304 45.8674 53.1304 45.8674C53.1304 45.8674 53.7962 57.2699 54.1291 64.8437C54.1824 66.0755 54.2323 67.5237 54.2723 69.0785C54.5952 67.6602 56.1266 60.6789 56.1266 55.6885Z" fill="#D04848" stroke="#263238" stroke-miterlimit="10"/>
<path d="M62.5156 71.5089C62.5156 71.5089 53.3803 79.7186 51.9654 80.3845C50.5462 80.9828 49.0675 81.4292 47.5543 81.7162C46.9717 81.7994 45.3071 82.6317 44.6413 83.2975C43.9754 83.9633 42.8102 85.295 42.8934 85.7944C42.9767 86.2938 43.7257 86.0441 44.0586 85.7112C44.3916 85.3782 44.7245 84.8789 44.9742 84.7956C45.2239 84.7124 46.0562 84.4627 46.0562 84.4627C46.0562 84.4627 42.9767 86.7931 42.8102 87.5422C42.6437 88.2913 45.3071 88.6242 45.9729 88.6242C46.6388 88.6242 49.0524 87.6254 49.4686 87.0428C50.247 86.0004 51.0804 85.0002 51.9654 84.0466C52.6313 83.3807 59.3729 81.3832 61.7033 80.3013C64.0337 79.2193 68.6746 75.2542 68.7578 73.7561C68.7704 72.6459 68.4704 71.5545 67.8922 70.6067" fill="#D04848"/>
<path d="M62.5156 71.5089C62.5156 71.5089 53.3803 79.7186 51.9654 80.3845C50.5462 80.9828 49.0675 81.4292 47.5543 81.7162C46.9717 81.7994 45.3071 82.6317 44.6413 83.2975C43.9754 83.9633 42.8102 85.295 42.8934 85.7944C42.9767 86.2938 43.7257 86.0441 44.0586 85.7112C44.3916 85.3782 44.7245 84.8789 44.9742 84.7956C45.2239 84.7124 46.0562 84.4627 46.0562 84.4627C46.0562 84.4627 42.9767 86.7931 42.8102 87.5422C42.6437 88.2913 45.3071 88.6242 45.9729 88.6242C46.6388 88.6242 49.0524 87.6254 49.4686 87.0428C50.247 86.0004 51.0804 85.0002 51.9654 84.0466C52.6313 83.3807 59.3729 81.3832 61.7033 80.3013C64.0337 79.2193 68.6746 75.2542 68.7578 73.7561C68.7704 72.6459 68.4704 71.5545 67.8922 70.6067" stroke="#263238" stroke-miterlimit="10"/>
<path d="M47.5543 81.7159C46.9717 81.7991 45.3071 82.6314 44.6413 83.2972C43.9754 83.9631 42.8102 85.2948 42.8934 85.7941C42.9767 86.2935 43.7257 86.0438 44.0586 85.7109C44.3916 85.378 44.7245 84.8786 44.9742 84.7954C45.2239 84.7121 46.0562 84.4625 46.0562 84.4625C46.0562 84.4625 42.9767 86.7929 42.8102 87.5419C42.6437 88.291 45.3071 88.6239 45.9729 88.6239C46.6388 88.6239 49.0524 87.6252 49.4686 87.0426C50.247 86.0001 51.0804 84.9999 51.9654 84.0463C52.5114 83.497 57.1556 82.0488 60.0886 80.9535C59.3329 78.2902 57.8614 77.3746 56.7162 77.0684C54.6288 78.6231 52.588 80.0913 51.9654 80.3975C50.5457 80.9913 49.067 81.4332 47.5543 81.7159Z" fill="white" stroke="#263238" stroke-miterlimit="10"/>
<path d="M43.2827 87.9748C43.2827 87.9748 44.428 87.309 45.3568 86.773C45.9922 86.3873 46.5946 85.9497 47.1579 85.4646" stroke="#263238" stroke-miterlimit="10"/>
<path d="M44.5381 88.3578C44.5381 88.3578 46.0129 87.6487 46.7753 87.2658C47.2637 87.0076 47.7058 86.6701 48.0837 86.2671" stroke="#263238" stroke-miterlimit="10"/>
<path d="M46.229 88.4675C47.1769 88.088 48.0328 87.5102 48.7392 86.7729" stroke="#263238" stroke-miterlimit="10"/>
<path d="M36.3542 49.2598C36.3542 49.2598 33.6076 49.7591 32.9418 50.5082C32.276 51.2573 27.179 76.2328 27.412 76.4758C30.2452 79.3788 48.0529 82.9677 48.0529 82.9677C48.0529 82.9677 49.2182 84.549 49.7175 85.0484C50.2169 85.5478 51.7983 87.1292 52.3809 86.8795C52.9132 86.5989 53.4153 86.2642 53.879 85.8807C54.3425 85.7722 54.7901 85.6044 55.2107 85.3813C55.5436 85.1316 56.1262 84.2994 55.8765 83.8832C55.6268 83.4671 54.5448 81.5528 53.7125 81.1366C52.8803 80.7205 49.3846 79.5553 49.3846 79.5553L36.4441 72.5241C36.2868 72.4394 36.1613 72.306 36.0863 72.144C36.0112 71.9819 35.9908 71.7999 36.028 71.6252L37.9356 57.0034" fill="#D04848"/>
<path d="M36.3542 49.2598C36.3542 49.2598 33.6076 49.7591 32.9418 50.5082C32.276 51.2573 27.179 76.2328 27.412 76.4758C30.2452 79.3788 48.0529 82.9677 48.0529 82.9677C48.0529 82.9677 49.2182 84.549 49.7175 85.0484C50.2169 85.5478 51.7983 87.1292 52.3809 86.8795C52.9132 86.5989 53.4153 86.2642 53.879 85.8807C54.3425 85.7722 54.7901 85.6044 55.2107 85.3813C55.5436 85.1316 56.1262 84.2994 55.8765 83.8832C55.6268 83.4671 54.5448 81.5528 53.7125 81.1366C52.8803 80.7205 49.3846 79.5553 49.3846 79.5553L36.4441 72.5241C36.2868 72.4394 36.1613 72.306 36.0863 72.144C36.0112 71.9819 35.9908 71.7999 36.028 71.6252L37.9356 57.0034" stroke="#263238" stroke-miterlimit="10"/>
<path d="M55.2106 85.3782C55.5435 85.1285 56.1261 84.2962 55.8764 83.88C55.6267 83.4639 54.5447 81.5496 53.7124 81.1335C52.8801 80.7173 49.3845 79.5521 49.3845 79.5521L40.2159 74.5583C39.347 75.5338 37.759 78.0573 37.8622 80.5009C41.2128 81.4996 44.6145 82.3175 48.0528 82.9512C48.0528 82.9512 49.218 84.5326 49.7174 85.0319C50.2168 85.5313 51.7982 87.1127 52.3808 86.863C52.9131 86.5824 53.4152 86.2478 53.8789 85.8642C54.3418 85.76 54.7893 85.5966 55.2106 85.3782Z" fill="white" stroke="#263238" stroke-miterlimit="10"/>
<path d="M153.657 149.554H157" stroke="#263238" stroke-miterlimit="10"/>
<path d="M2.8418 149.554H147.728" stroke="#263238" stroke-miterlimit="10"/>
</svg>
