<svg width="174" height="127" viewBox="0 0 174 127" fill="none" xmlns="http://www.w3.org/2000/svg">
<path d="M0 82L174 82L136.174 127L37.8261 127L0 82Z" fill="#D04848"/>
<rect x="62" y="32" width="50" height="50" fill="#700C9F" fill-opacity="0.5"/>
<rect x="112" y="57" width="25" height="25" fill="#49E5D2"/>
<rect x="27" y="47" width="35" height="35" fill="#8EC165"/>
<path d="M86.5 38L74 49.6111L86.5 76L99 49.6111L86.5 38Z" fill="#671574"/>
<circle cx="147" cy="15" r="15" fill="#FFC100"/>
<path d="M87 5L117.311 32L56.6891 32L87 5Z" fill="#492D21"/>
<path d="M78.1739 98L71 110H96.8261L104 98H78.1739Z" fill="#9EA1D4"/>
<path d="M33 104L47 90L61 104L47 118L33 104Z" fill="#FF9B9B"/>
<path d="M113 104L127 90L141 104L127 118L113 104Z" fill="#FF9B9B"/>
</svg>
